<svg xmlns="http://www.w3.org/2000/svg" fill="none" viewBox="0 0 30 30" id="About-Me-Logo--Streamline-Logos" height="30" width="30">
  <desc>
    About Me Logo Streamline Icon: https://streamlinehq.com
  </desc>
  <path fill="#000000" fill-rule="evenodd" d="M1.5625 10.9375v10.625h1.875v-6.8149999999999995l0.12 -0.1325c0.715 -0.79 1.6325 -1.8025 3.3175 -1.8025 0.3625 0 0.81 0.11499999999999999 1.1400000000000001 0.32375 0.31875 0.2 0.42250000000000004 0.40875 0.42250000000000004 0.61375v7.8125h1.875v-7.49375c0.6525000000000001 -0.6425000000000001 1.53 -1.2562499999999999 2.8125 -1.2562499999999999 0.3625 0 0.81 0.11499999999999999 1.1400000000000001 0.32375 0.31875 0.2 0.42250000000000004 0.40875 0.42250000000000004 0.61375v7.8125h1.875V13.75c0 -1.045 -0.625 -1.775 -1.295 -2.19875A4.145 4.145 0 0 0 13.125 10.9375c-1.49625 0 -2.61625 0.56125 -3.4312500000000004 1.1875a3.0975 3.0975 0 0 0 -0.67625 -0.57375A4.145 4.145 0 0 0 6.875 10.9375c-1.4775 0 -2.6125 0.56375 -3.4375 1.19125V10.9375h-1.875Zm27.5 6.25h-8.62a3.4387499999999998 3.4387499999999998 0 0 0 6.00625 1.1925l1.47125 1.1625A5.3125 5.3125 0 1 1 29.0625 16.25v0.9375Zm-8.62 -1.875a3.4387499999999998 3.4387499999999998 0 0 1 6.61625 0h-6.61625Z" clip-rule="evenodd" stroke-width="1.25"></path>
</svg>