<svg xmlns="http://www.w3.org/2000/svg" fill="none" viewBox="0 0 30 30" id="Adobe-Premiere-Pro-Logo--Streamline-Logos" height="30" width="30">
  <desc>
    Adobe Premiere Pro Logo Streamline Icon: https://streamlinehq.com
  </desc>
  <path fill="#000000" fill-rule="evenodd" d="M5.8125 0.9375a4.875 4.875 0 0 0 -4.875 4.875v18.375a4.875 4.875 0 0 0 4.875 4.875h18.375a4.875 4.875 0 0 0 4.875 -4.875V5.8125a4.875 4.875 0 0 0 -4.875 -4.875H5.8125Zm-3 4.875a3 3 0 0 1 3 -3h18.375a3 3 0 0 1 3 3v18.375a3 3 0 0 1 -3 3H5.8125a3 3 0 0 1 -3 -3V5.8125ZM7.5 8.125h4.375a4.375 4.375 0 1 1 0 8.75H10v3.75H7.5v-12.5Zm2.5 6.25h1.875a1.875 1.875 0 0 0 0 -3.75H10v3.75ZM18.125 11.25v9.375h2.5v-5.3125a2.9375 2.9375 0 0 1 0.96 -1.03c0.47125 -0.3025 1.15125 -0.5325 2.165 -0.5325V11.25c-1.22 0 -2.25875 0.245 -3.125 0.7000000000000001V11.25h-2.5Z" clip-rule="evenodd" stroke-width="1.25"></path>
</svg>