<svg xmlns="http://www.w3.org/2000/svg" fill="none" viewBox="0 0 30 30" id="Niconico-Logo-2--Streamline-Logos" height="30" width="30">
  <desc>
    Niconico Logo 2 Streamline Icon: https://streamlinehq.com
  </desc>
  <path fill="#000000" fill-rule="evenodd" d="M9.63375 0.9912500000000001a1.25 1.25 0 0 0 -1.7674999999999998 1.7674999999999998L11.3575 6.25H1.875a0.625 0.625 0 0 0 -0.625 0.625v18.75a0.625 0.625 0 0 0 0.625 0.625h4.699999999999999l1.33625 1.6700000000000002a1.875 1.875 0 0 0 2.9275 0L12.17625 26.25h5.64875l1.33625 1.6700000000000002a1.875 1.875 0 0 0 2.9275 0L23.42625 26.25H28.125a0.625 0.625 0 0 0 0.625 -0.625v-18.75a0.625 0.625 0 0 0 -0.625 -0.625h-9.4825l3.49125 -3.49125A1.25 1.25 0 0 0 20.36625 0.9912500000000001l-5 5a1.25375 1.25375 0 0 0 -0.2 0.25875h-0.33375a1.25375 1.25375 0 0 0 -0.19875 -0.25875l-5 -5ZM5.625 10a0.625 0.625 0 0 0 -0.625 0.625v11.25a0.625 0.625 0 0 0 0.625 0.625h18.75a0.625 0.625 0 0 0 0.625 -0.625v-11.25a0.625 0.625 0 0 0 -0.625 -0.625h-18.75ZM8.75 16.875a1.25 1.25 0 1 1 0 -2.5 1.25 1.25 0 0 1 0 2.5Zm10.625 -3.125a1.25 1.25 0 1 0 2.5 0 1.25 1.25 0 0 0 -2.5 0Zm-4.8175 3.9325a0.625 0.625 0 0 1 0.885 0l1.875 1.875a0.625 0.625 0 0 1 -0.4425 1.0675h-3.75a0.625 0.625 0 0 1 -0.4425 -1.0675l1.875 -1.875Z" clip-rule="evenodd" stroke-width="1.25"></path>
</svg>