<svg xmlns="http://www.w3.org/2000/svg" fill="none" viewBox="0 0 30 30" id="Nintendo-Network-Logo--Streamline-Logos" height="30" width="30">
  <desc>
    Nintendo Network Logo Streamline Icon: https://streamlinehq.com
  </desc>
  <path fill="#000000" fill-rule="evenodd" d="M19.03125 3.9375c-3.2487500000000002 -0.89125 -6.996250000000001 -0.7875 -11.22 0.69625a0.9375 0.9375 0 1 1 -0.6225 -1.76875c4.5375 -1.595 8.6775 -1.7399999999999998 12.337499999999999 -0.73625 3.65875 1.0037500000000001 6.77625 3.1374999999999997 9.30125 6a0.9375 0.9375 0 0 1 -1.4050000000000002 1.24125c-2.325 -2.63375 -5.13875 -4.54 -8.39125 -5.4325ZM9.375 19.375a5.3125 5.3125 0 0 1 10.625 0V27.5a1.25 1.25 0 0 0 1.25 1.25h2.5a1.25 1.25 0 0 0 1.25 -1.25v-8.125A10.3125 10.3125 0 0 0 8.68125 10.991249999999999c-0.22749999999999998 0.1625 -0.49750000000000005 0.25875 -0.77625 0.25875H5.625a1.25 1.25 0 0 0 -1.25 1.25v15a1.25 1.25 0 0 0 1.25 1.25h2.5a1.25 1.25 0 0 0 1.25 -1.25v-8.125Zm0.31375 -11.427499999999998c3.13625 -1.1737499999999998 5.96125 -1.2925 8.462499999999999 -0.58375 2.5075 0.7112499999999999 4.765 2.275 6.7212499999999995 4.58875a0.9375 0.9375 0 0 0 1.4324999999999999 -1.21c-2.14875 -2.54125 -4.70875 -4.35 -7.6425 -5.1825 -2.9375 -0.8325 -6.175000000000001 -0.6625000000000001 -9.629999999999999 0.63125a0.9375 0.9375 0 1 0 0.65625 1.75625Z" clip-rule="evenodd" stroke-width="1.25"></path>
</svg>