<svg xmlns="http://www.w3.org/2000/svg" fill="none" viewBox="0 0 30 30" id="Pingchat-Logo--Streamline-Logos" height="30" width="30">
  <desc>
    Pingchat Logo Streamline Icon: https://streamlinehq.com
  </desc>
  <path fill="#000000" fill-rule="evenodd" d="M12.5 9.375a8.125 8.125 0 1 1 8.125 8.125H12.5V9.375ZM21.5625 5a0.9375 0.9375 0 0 0 -1.875 0v4.375a0.9375 0.9375 0 0 0 1.875 0V5Zm-2.1875 7.8125a1.25 1.25 0 1 1 2.5 0 1.25 1.25 0 0 1 -2.5 0ZM1.25 20.625A8.125 8.125 0 0 1 9.375 12.5H10v7.5h7.5v0.625a8.125 8.125 0 1 1 -16.25 0Z" clip-rule="evenodd" stroke-width="1.25"></path>
</svg>