<svg xmlns="http://www.w3.org/2000/svg" fill="none" viewBox="0 0 30 30" id="Adobe-Xd-Logo--Streamline-Logos" height="30" width="30">
  <desc>
    Adobe Xd Logo Streamline Icon: https://streamlinehq.com
  </desc>
  <path fill="#000000" fill-rule="evenodd" d="M0.9375 5.8125a4.875 4.875 0 0 1 4.875 -4.875h18.375a4.875 4.875 0 0 1 4.875 4.875v18.375a4.875 4.875 0 0 1 -4.875 4.875H5.8125a4.875 4.875 0 0 1 -4.875 -4.875V5.8125Zm4.875 -3a3 3 0 0 0 -3 3v18.375a3 3 0 0 0 3 3h18.375a3 3 0 0 0 3 -3V5.8125a3 3 0 0 0 -3 -3H5.8125ZM8.125 9.85h-2.5l3.125 5.625 -3.125 5.625h2.5l2.5 -4.375 2.5 4.375h2.5l-3.125 -5.625 3.125 -5.625h-2.5l-2.5 4.375 -2.5 -4.375ZM24.4625 8.125h-2.5v3.64375c-2.9162500000000002 0 -5.7125 1.2650000000000001 -5.7125 4.623749999999999 0 3.8762499999999998 2.8625 4.7075 4.4775 4.7075 1.2925 0 3.02875 -0.49250000000000005 3.735 -0.7374999999999999V8.125Zm-2.5 10.780000000000001v-5c-1.0374999999999999 0 -3.125 0.26625 -3.125 2.5s2.0875 2.5 3.125 2.5Z" clip-rule="evenodd" stroke-width="1.25"></path>
</svg>