<svg xmlns="http://www.w3.org/2000/svg" fill="none" viewBox="0 0 30 30" id="Protonmail-Logo-2--Streamline-Logos" height="30" width="30">
  <desc>
    Protonmail Logo 2 Streamline Icon: https://streamlinehq.com
  </desc>
  <path fill="#000000" fill-rule="evenodd" d="M0 25.1125V12.333750000000002l7.33625 6.48875 0.00625 0.0075a3.4375 3.4375 0 0 0 4.467499999999999 0.03l3.5125 -2.9625000000000004c0.045 -0.0325 0.08875 -0.06875 0.1325 -0.10500000000000001l4.8575 -4.16375v16.1H2.6187500000000004A2.6187500000000004 2.6187500000000004 0 0 1 0 25.1125Zm22.1875 2.6187500000000004h2.6937499999999996A2.6187500000000004 2.6187500000000004 0 0 0 27.5 25.11V5.46875l-5.3125 4.55375v17.7075ZM8.575000000000001 17.415 0 9.83125v-4.362500000000001l12.044999999999998 10.325c0.08375 0.07125000000000001 0.17125 0.1375 0.26125 0.19625l-1.705 1.4375a1.5625 1.5625 0 0 1 -2.0275000000000003 -0.01125Z" clip-rule="evenodd" stroke-width="1.25"></path>
</svg>