<svg xmlns="http://www.w3.org/2000/svg" fill="none" viewBox="0 0 30 30" id="Qik-Logo--Streamline-Logos" height="30" width="30">
  <desc>
    Qik Logo Streamline Icon: https://streamlinehq.com
  </desc>
  <path fill="#000000" fill-rule="evenodd" d="M15 1.25C7.40625 1.25 1.25 7.40625 1.25 15s6.15625 13.75 13.75 13.75c2.0125 0 3.9250000000000003 -0.4325 5.6499999999999995 -1.21 2.4925 0.68625 4.3425 0.5 5.675 -0.19125 1.3725 -0.7112499999999999 2.09125 -1.9025 2.4 -2.95875a0.625 0.625 0 0 0 -0.22375 -0.675c-0.5187499999999999 -0.39125 -0.8325 -0.6375 -1.08125 -0.9199999999999999a3.29625 3.29625 0 0 1 -0.5375 -0.87125A13.68875 13.68875 0 0 0 28.75 15c0 -7.59375 -6.15625 -13.75 -13.75 -13.75Zm6.875 13.75a6.875 6.875 0 1 1 -13.75 0 6.875 6.875 0 0 1 13.75 0Zm-10 0A3.125 3.125 0 0 1 15 11.875a0.625 0.625 0 0 0 0 -1.25A4.375 4.375 0 0 0 10.625 15a0.625 0.625 0 0 0 1.25 0Z" clip-rule="evenodd" stroke-width="1.25"></path>
</svg>