<svg xmlns="http://www.w3.org/2000/svg" fill="none" viewBox="0 0 30 30" id="Rdio-Logo--Streamline-Logos" height="30" width="30">
  <desc>
    Rdio Logo Streamline Icon: https://streamlinehq.com
  </desc>
  <path fill="#000000" d="M25.055 13.49875c1.73875 0 3.0012499999999998 -1.7874999999999999 3.64125 -3.1574999999999998 0.18125 -0.39 -0.11875 -0.8125 -0.54625 -0.8637499999999999 -3.505 -0.41625 -7.42 -3.1525 -9.04625 -4.575v10.57875c0 2.2325 -5.949999999999999 6.53125 -9.91875 3.33625 -2.5824999999999996 -2.08 -1.60875 -5.225 0 -6.833749999999999 2.11625 -2.11625 4.845 -2.165 6.6125 -1.57V4.24S14.455 3.75 13.1525 3.75C5.2175 3.75 1.25 10.19125 1.25 15.482499999999998c0 5.29 4.62875 11.240000000000002 11.9025 11.240000000000002 10.049999999999999 0 12.12375 -8.81625 11.9025 -13.225Z" stroke-width="1.25"></path>
</svg>