<svg xmlns="http://www.w3.org/2000/svg" fill="none" viewBox="0 0 30 30" id="Aim-Logo--Streamline-Logos" height="30" width="30">
  <desc>
    Aim Logo Streamline Icon: https://streamlinehq.com
  </desc>
  <path fill="#000000" fill-rule="evenodd" d="M18.75 10a4.375 4.375 0 1 0 0 -8.75 4.375 4.375 0 0 0 0 8.75Zm-8.58 5.3374999999999995c-0.09 0.8275 -0.18 1.6375000000000002 -0.485 2.35625 -1.0274999999999999 2.4162500000000002 -4.36875 4.41 -7.0825000000000005 5.00625l2.275 5.9775c3.05375 -0.73875 7.6525 -3.44625 9.03125 -5.9775 2.285 0.9950000000000001 5.848750000000001 2.85625 7.3812500000000005 5.9775l4.56875 -3.5999999999999996c-1.6400000000000001 -2.8625 -4.875 -7.60375 -9.1375 -7.91l0.475 -1.4625c1.82125 0.67 6.6125 0.66125 8.262500000000001 -0.8987499999999999L23.8675 11.25c-3.9375 2.19875 -9.0225 -1.4725 -9.4725 -2.25875 -1.55 0.8624999999999999 -2.99125 2.3449999999999998 -3.57125 3.525 -0.44125 0.8975 -0.5475 1.8725 -0.6525000000000001 2.82125Z" clip-rule="evenodd" stroke-width="1.25"></path>
</svg>