<svg xmlns="http://www.w3.org/2000/svg" fill="none" viewBox="0 0 30 30" id="Skype-Logo-1--Streamline-Logos" height="30" width="30">
  <desc>
    Skype Logo 1 Streamline Icon: https://streamlinehq.com
  </desc>
  <path fill="#000000" fill-rule="evenodd" d="M17.157500000000002 27.708750000000002c0.15 -0.025 0.3025 0 0.43499999999999994 0.075a7.4125 7.4125 0 0 0 3.665 0.96375 7.53375 7.53375 0 0 0 6.481249999999999 -11.29375 0.65375 0.65375 0 0 1 -0.08 -0.42875c0.6950000000000001 -4.40125 -0.95375 -8.965 -4.36 -11.85875a12.91 12.91 0 0 0 -10.442499999999999 -2.8675 0.65 0.65 0 0 1 -0.4325 -0.0775 7.422499999999999 7.422499999999999 0 0 0 -3.6875 -0.97375 7.5325 7.5325 0 0 0 -6.4925 11.271249999999998 0.66 0.66 0 0 1 0.0775 0.42999999999999994c-0.7137499999999999 4.42 0.9425 9.0125 4.36875 11.9125a12.91 12.91 0 0 0 10.467500000000001 2.8475Zm-2.0374999999999996 -21.4425c3.9524999999999997 0.22875 6.266249999999999 1.97875 6.49 3.60875 0.15 1.05375 -0.7575 1.99875 -1.8162500000000001 1.8937499999999998 -0.7737499999999999 0 -1.24625 -0.44875 -1.7825 -0.9575 -0.7037499999999999 -0.6675 -1.51875 -1.44 -3.265 -1.44 -1.3875000000000002 0 -2.56 0.5800000000000001 -2.56 1.8375 0 1.0574999999999999 1.5975000000000001 1.4412500000000001 3.50625 1.9012499999999999 2.8337499999999998 0.6825000000000001 6.35375 1.52875 6.35375 4.98625 0 3.335 -2.6574999999999998 5.5200000000000005 -6.62 5.5200000000000005 -3.48875 0 -6.996250000000001 -1.5887499999999999 -6.97875 -4.325a1.55 1.55 0 0 1 1.43375 -1.5825c0.90875 0 1.4124999999999999 0.6 1.97375 1.2687499999999998 0.70875 0.84375 1.51 1.7999999999999998 3.335 1.7999999999999998 2.29375 0 3.08125 -1.2562499999999999 3.08125 -2.13625 0 -1.335 -1.7625 -1.76125 -3.80375 -2.255 -2.7975 -0.6775 -6.115 -1.48 -6.115 -4.92375 -0.00875 -3.2175 2.6275 -5.44 6.76875 -5.19625Z" clip-rule="evenodd" stroke-width="1.25"></path>
</svg>