<svg xmlns="http://www.w3.org/2000/svg" fill="none" viewBox="0 0 30 30" id="Slack-Logo--Streamline-Logos" height="30" width="30">
  <desc>
    Slack Logo Streamline Icon: https://streamlinehq.com
  </desc>
  <path fill="#000000" fill-rule="evenodd" d="M14.375 6.875V4.0625A2.8125 2.8125 0 1 0 11.5625 6.875h2.8125Zm-10 1.25a3.125 3.125 0 0 0 0 6.25H11.25a3.125 3.125 0 0 0 0 -6.25H4.375Zm14.375 7.5a3.125 3.125 0 0 0 0 6.25h6.875a3.125 3.125 0 0 0 0 -6.25H18.75Zm-3.125 7.5h2.8125a2.8125 2.8125 0 1 1 -2.8125 2.8125V23.125Zm7.5 -8.75h2.8125a2.8125 2.8125 0 1 0 -2.8125 -2.8125v2.8125Zm-19.0625 1.25H6.875v2.8125a2.8125 2.8125 0 1 1 -2.8125 -2.8125ZM21.875 11.25V4.375a3.125 3.125 0 0 0 -6.25 0V11.25a3.125 3.125 0 0 0 6.25 0Zm-7.5 7.5v6.875a3.125 3.125 0 0 1 -6.25 0V18.75a3.125 3.125 0 0 1 6.25 0Z" clip-rule="evenodd" stroke-width="1.25"></path>
</svg>