<svg xmlns="http://www.w3.org/2000/svg" fill="none" viewBox="0 0 30 30" id="Snapchat-Logo--Streamline-Logos" height="30" width="30">
  <desc>
    Snapchat Logo Streamline Icon: https://streamlinehq.com
  </desc>
  <path fill="#000000" d="M9.9075 3.04C11.6225 1.5825 13.6625 1.25 15 1.25c1.3375000000000001 0 3.3775 0.3325 5.092499999999999 1.79 1.605 1.36375 2.83625 3.6375 3.0112499999999995 7.295l0.37 -0.1475a2.8712500000000003 2.8712500000000003 0 0 1 2.44125 5.185l-2.54 1.16375c0.33375 0.5062500000000001 0.8724999999999999 1.15375 1.5537500000000002 1.835 0.9375 0.9375 2.0749999999999997 1.8675 3.1525 2.48125 0.3775 0.21625 0.7074999999999999 0.56625 0.8425 0.99375a1.2475 1.2475 0 0 1 -0.41000000000000003 1.37875c-0.6837500000000001 0.5625 -1.72875 1.0150000000000001 -2.94625 1.125 -0.1 0.48375 -0.3275 0.8737499999999999 -0.6825000000000001 1.1600000000000001 -0.4575 0.36874999999999997 -1.0374999999999999 0.49125 -1.5437500000000002 0.54 -0.38125 0.0375 -0.79625 0.0375 -1.1625 0.036250000000000004l-0.33625000000000005 0c-0.48125 0.00625 -0.79125 0.0375 -0.9750000000000001 0.11499999999999999 -0.25 0.10500000000000001 -0.55625 0.295 -0.95125 0.55625l-0.2375 0.15875c-0.325 0.21625 -0.6900000000000001 0.46125 -1.0775 0.6925000000000001 -0.9750000000000001 0.58125 -2.185 1.14125 -3.60125 1.14125 -1.41625 0 -2.6262499999999998 -0.56 -3.60125 -1.14125 -0.3875 -0.23125 -0.7525 -0.475 -1.0775 -0.6925000000000001a66.50875 66.50875 0 0 0 -0.2375 -0.15875c-0.395 -0.2625 -0.7000000000000001 -0.44999999999999996 -0.95 -0.55625 -0.185 -0.0775 -0.495 -0.10874999999999999 -0.9762500000000001 -0.11374999999999999l-0.33625000000000005 -0.00125c-0.36624999999999996 0 -0.78125 0 -1.1625 -0.036250000000000004 -0.5062500000000001 -0.04875 -1.08625 -0.17125 -1.5437500000000002 -0.54a1.9437499999999999 1.9437499999999999 0 0 1 -0.6825000000000001 -1.1600000000000001c-1.2175 -0.10999999999999999 -2.2625 -0.5625 -2.94625 -1.125a1.2475 1.2475 0 0 1 -0.41000000000000003 -1.37875c0.135 -0.42750000000000005 0.46499999999999997 -0.7775 0.8425 -0.99375 1.0775 -0.61375 2.215 -1.5437500000000002 3.1525 -2.48125 0.68125 -0.68125 1.22 -1.3287499999999999 1.5537500000000002 -1.835l-2.54 -1.1625A2.8712500000000003 2.8712500000000003 0 0 1 6.52625 10.1875l0.37 0.14625000000000002c0.17500000000000002 -3.65625 1.40625 -5.93125 3.0125 -7.295Z" stroke-width="1.25"></path>
</svg>