<svg xmlns="http://www.w3.org/2000/svg" fill="none" viewBox="0 0 30 30" id="Soundcloud-Logo--Streamline-Logos" height="30" width="30">
  <desc>
    Soundcloud Logo Streamline Icon: https://streamlinehq.com
  </desc>
  <path fill="#000000" fill-rule="evenodd" d="M28.75 16.25a3.75 3.75 0 0 1 -3.75 3.75h-9.375a0.625 0.625 0 0 1 -0.625 -0.625V10.03125a0.5874999999999999 0.5874999999999999 0 0 1 0.28250000000000003 -0.5125 5.6274999999999995 5.6274999999999995 0 0 1 8.24375 3.2800000000000002A3.75 3.75 0 0 1 28.75 16.25ZM12.5 9.6875a0.9375 0.9375 0 0 1 0.9375 0.9375v8.75a0.9375 0.9375 0 1 1 -1.875 0v-8.75a0.9375 0.9375 0 0 1 0.9375 -0.9375Zm-6.66625 2.5a0.9375 0.9375 0 0 1 0.9375 0.9375v6.25a0.9375 0.9375 0 0 1 -1.875 0v-6.25a0.9375 0.9375 0 0 1 0.9375 -0.9375Zm3.3325 1.25a0.9375 0.9375 0 0 1 0.9375 0.9375v5a0.9375 0.9375 0 0 1 -1.875 0v-5a0.9375 0.9375 0 0 1 0.9375 -0.9375ZM3.4375 15a0.9375 0.9375 0 0 0 -1.875 0v3.125a0.9375 0.9375 0 0 0 1.875 0V15Z" clip-rule="evenodd" stroke-width="1.25"></path>
</svg>