<svg xmlns="http://www.w3.org/2000/svg" fill="none" viewBox="0 0 30 30" id="Spark-Logo--Streamline-Logos" height="30" width="30">
  <desc>
    Spark Logo Streamline Icon: https://streamlinehq.com
  </desc>
  <path fill="#000000" fill-rule="evenodd" d="M12.9225 11.67a1.965 1.965 0 0 1 -0.9950000000000001 1.1737499999999998l-0.005 0.00375a2.6750000000000003 2.6750000000000003 0 0 1 -0.26625 0.11499999999999999c-0.13 0.05 -0.27 0.09375 -0.3925 0.13 -0.25 0.07375 -0.58125 0.1625 -0.92875 0.25375000000000003l-0.056249999999999994 0.015c-0.70875 0.18875 -1.575 0.41875 -2.4299999999999997 0.6875 -0.65375 0.20500000000000002 -1.24625 0.41625 -1.72375 0.625 0.28875 0.1625 0.645 0.3325 1.0574999999999999 0.5062500000000001 0.4525 0.19 0.87625 0.34875 1.3 0.5062500000000001 0.22499999999999998 0.08375 0.44875 0.1675 0.6775 0.25625 0.295 0.11499999999999999 0.62 0.24625000000000002 0.8999999999999999 0.38875 0.14 0.07125000000000001 0.31375 0.16875 0.485 0.29250000000000004 0.14625000000000002 0.10500000000000001 0.43875 0.33625000000000005 0.6575 0.7174999999999999 0.23625000000000002 0.41250000000000003 0.275 0.8275 0.28750000000000003 0.95875 0.01875 0.2 0.02 0.4025 0.015 0.5750000000000001a16.8875 16.8875 0 0 1 -0.08750000000000001 1.1712500000000001c-0.0325 0.31875 -0.0675 0.64375 -0.10500000000000001 0.9762500000000001 -0.065 0.5912499999999999 -0.13375 1.20625 -0.1875 1.8475 -0.026250000000000002 0.3225 -0.0475 0.6275 -0.0625 0.9125 0.315 -0.35000000000000003 0.65 -0.745 0.9950000000000001 -1.165 0.25875 -0.31375 0.5375 -0.6587500000000001 0.8125 -1.00125 0.3775 -0.4675 0.75 -0.9275 1.0574999999999999 -1.29375 0.27875 -0.33 0.56625 -0.65625 0.8350000000000001 -0.9199999999999999 0.1325 -0.13 0.29374999999999996 -0.2775 0.47 -0.40750000000000003a2.475 2.475 0 0 1 0.8875 -0.42750000000000005c0.4575 -0.10999999999999999 0.8687499999999999 -0.02375 0.9575 -0.005l0.01 0.0025c0.1625 0.0325 0.32375 0.07875 0.45499999999999996 0.12 0.2675 0.08375 0.58875 0.2 0.9099999999999999 0.32l0.43999999999999995 0.165c0.5625 0.21125000000000002 1.1775 0.44125 1.805 0.65 0.48750000000000004 0.16375 0.9375 0.2975 1.3250000000000002 0.3925a12.504999999999999 12.504999999999999 0 0 0 -0.7374999999999999 -1.4375 39.7 39.7 0 0 0 -1.025 -1.6375000000000002l-0.21749999999999997 -0.3375a16.75 16.75 0 0 1 -0.50375 -0.8175 4.2775 4.2775 0 0 1 -0.22375 -0.44999999999999996 2.2325 2.2325 0 0 1 -0.17875 -0.9762500000000001c0.0225 -0.37875 0.15 -0.6625000000000001 0.20375000000000001 -0.7737499999999999a2.6 2.6 0 0 1 0.19375 -0.335c0.10749999999999998 -0.1575 0.22999999999999998 -0.30625 0.335 -0.42875 0.21375000000000002 -0.25 0.495 -0.54375 0.785 -0.8425l0.52125 -0.5325c0.48 -0.49 1 -1.02 1.50875 -1.5725 0.10250000000000001 -0.10999999999999999 0.2025 -0.21999999999999997 0.3 -0.3275l-0.38375 0.1225c-0.36624999999999996 0.1175 -0.765 0.25 -1.15875 0.38 -0.5325 0.1775 -1.055 0.35000000000000003 -1.4749999999999999 0.48125a12.925 12.925 0 0 1 -1.10375 0.3 4.078749999999999 4.078749999999999 0 0 1 -0.5862499999999999 0.08625000000000001l-0.005 0a2.22375 2.22375 0 0 1 -1.1375 -0.21749999999999997 2.32875 2.32875 0 0 1 -0.72125 -0.58125 4.1475 4.1475 0 0 1 -0.31 -0.42375 12.14375 12.14375 0 0 1 -0.5 -0.86625 50.15 50.15 0 0 1 -0.49125 -0.9375l-0.0375 -0.07a77.08125 77.08125 0 0 0 -0.5625 -1.07375 24.91125 24.91125 0 0 0 -0.5874999999999999 -1.04375c-0.1275 0.42750000000000005 -0.245 0.9325 -0.35000000000000003 1.4874999999999998 -0.17500000000000002 0.92125 -0.29625 1.8625 -0.38875 2.625l-0.025 0.195c-0.035 0.29374999999999996 -0.06875 0.5700000000000001 -0.09875 0.78375a6.706250000000001 6.706250000000001 0 0 1 -0.0675 0.40375c-0.0125 0.0625 -0.035 0.1625 -0.06875 0.27l-0.0025 0.005Zm-1.1675 -9.54375c0.4625 -0.4575 1.1500000000000001 -0.87625 2.0425 -0.87625 0.8187500000000001 0 1.4224999999999999 0.41625 1.74125 0.68125 0.355 0.295 0.6575 0.65375 0.9025 0.98375 0.49375 0.665 0.97 1.5 1.375 2.255 0.20750000000000002 0.385 0.40625 0.77125 0.59 1.125l0.03125 0.06125c0.15 0.29125 0.28750000000000003 0.555 0.41250000000000003 0.79125l0.005 -0.00125c0.41250000000000003 -0.1275 0.8500000000000001 -0.275 1.3325 -0.43499999999999994 0.39 -0.12875 0.8087500000000001 -0.26875 1.26375 -0.41500000000000004 0.94625 -0.305 1.9900000000000002 -0.61875 2.87875 -0.7875A6.4125 6.4125 0 0 1 25.7375 5.375c0.3625 0.013749999999999998 1.28 0.09 1.9275 0.8550000000000001 0.675 0.8 0.6325000000000001 1.7337500000000001 0.5 2.30875 -0.1325 0.5700000000000001 -0.41000000000000003 1.09375 -0.67 1.5125 -0.53375 0.8550000000000001 -1.32125 1.77 -2.05625 2.565 -0.55 0.5974999999999999 -1.1325 1.19 -1.6225 1.68875l-0.47125 0.48250000000000004 -0.0825 0.08625000000000001 0.1275 0.1975c0.33 0.5075000000000001 0.745 1.1487500000000002 1.1325 1.8125 0.4625 0.7925 0.95625 1.7325 1.24375 2.6525 0.2525 0.8087500000000001 0.535 2.1925 -0.26125 3.3875 -0.49125 0.7374999999999999 -1.22875 1.0174999999999998 -1.7574999999999998 1.12 -0.525 0.10250000000000001 -1.05625 0.07625 -1.49625 0.0225 -0.8887499999999999 -0.10999999999999999 -1.8825 -0.40125 -2.74125 -0.6875 -0.7000000000000001 -0.235 -1.39875 -0.49750000000000005 -1.96625 -0.71l-0.3975 -0.14875 -0.125 -0.04625 -0.22749999999999998 0.26625c-0.3 0.3575 -0.61 0.7424999999999999 -0.95 1.165 -0.275 0.33875 -0.5675 0.7037499999999999 -0.8899999999999999 1.09625 -0.6737500000000001 0.8175 -1.43 1.7000000000000002 -2.15 2.36875a6.9262500000000005 6.9262500000000005 0 0 1 -1.205 0.925c-0.38625 0.22499999999999998 -1.09875 0.5625 -1.94625 0.42250000000000004 -1.01 -0.16875 -1.5875 -0.8724999999999999 -1.8675 -1.43 -0.26625 -0.52625 -0.37625 -1.10625 -0.42999999999999994 -1.5775000000000001 -0.11124999999999999 -0.9650000000000001 -0.052500000000000005 -2.125 0.03375 -3.15375 0.057499999999999996 -0.6825000000000001 0.1375 -1.40375 0.20625000000000002 -2.02875a100.26249999999999 100.26249999999999 0 0 0 0.1175 -1.12375c-0.12875 -0.05 -0.2775 -0.10500000000000001 -0.4375 -0.165 -0.4625 -0.17250000000000001 -1.0274999999999999 -0.38375 -1.54875 -0.6025 -0.7575 -0.32 -1.6500000000000001 -0.745 -2.375 -1.3075 -0.6900000000000001 -0.53375 -1.6037499999999998 -1.4849999999999999 -1.6037499999999998 -2.8975 0 -0.9225 0.5 -1.5775000000000001 0.8687499999999999 -1.9425000000000001a5.43625 5.43625 0 0 1 1.2625 -0.8937499999999999c0.8450000000000001 -0.44999999999999996 1.8962499999999998 -0.8250000000000001 2.8475 -1.125 0.935 -0.29250000000000004 1.87125 -0.54125 2.5700000000000003 -0.7274999999999999a374.0625 374.0625 0 0 1 0.14875 -0.04l0.0175 -0.14625000000000002c0.09375 -0.76625 0.22625 -1.815 0.42625 -2.86625 0.195 -1.025 0.475 -2.185 0.9075 -3.12875 0.21625 -0.47125 0.5187499999999999 -1 0.95875 -1.4349999999999998Z" clip-rule="evenodd" stroke-width="1.25"></path>
</svg>