<svg xmlns="http://www.w3.org/2000/svg" fill="none" viewBox="0 0 30 30" id="Amazon-Luna-Logo--Streamline-Logos" height="30" width="30">
  <desc>
    Amazon Luna Logo Streamline Icon: https://streamlinehq.com
  </desc>
  <path fill="#000000" fill-rule="evenodd" d="M10.41625 5.17875a3.92875 3.92875 0 0 1 7.8575 0c0 0.1825 -0.03 0.46375 -0.06625 0.8125 -0.10749999999999998 1.02125 -0.275 2.6125 0.06625 3.9387499999999998 0.45875 1.78125 2.8225 6.2325 4.88 7.675 0.49250000000000005 0.34625000000000006 1.07 0.645 1.6625 0.95 1.8875 0.97375 3.93375 2.0300000000000002 3.93375 4.9575000000000005A5.237500000000001 5.237500000000001 0 0 1 23.5125 28.75c-1.255 0 -2.25 -0.7337499999999999 -3.30625 -1.5125 -0.60375 -0.44375 -1.2275 -0.9037499999999999 -1.9325 -1.25 -1.9362499999999998 -0.9525 -10.04125 -0.8599999999999999 -11.392500000000002 -0.42999999999999994 -0.5874999999999999 0.1875 -1.05 0.44375 -1.46625 0.675 -0.54 0.29874999999999996 -0.99875 0.55375 -1.5462500000000001 0.55375A2.6187500000000004 2.6187500000000004 0 0 1 1.25 24.166249999999998c0 -1.35625 1.47 -2.53625 2.43375 -3.31l0.185 -0.15c0.9475 -0.7675 4.387499999999999 -5.96375 6.1450000000000005 -10.46875 0.5062500000000001 -1.3 0.4675 -2.54125 0.42625 -3.8874999999999997a35.45 35.45 0 0 1 -0.02375 -1.1712500000000001ZM9.001249999999999 20.95875c0.9775 1.5462500000000001 8.9625 1.7999999999999998 10.4775 0 1.2787499999999998 -1.51875 -2.42875 -8.88 -5.0475 -9.06875C11.81125 11.7 8.0225 19.412499999999998 9 20.95875Z" clip-rule="evenodd" stroke-width="1.25"></path>
</svg>