<svg xmlns="http://www.w3.org/2000/svg" fill="none" viewBox="0 0 30 30" id="Spotify-Logo--Streamline-Logos" height="30" width="30">
  <desc>
    Spotify Logo Streamline Icon: https://streamlinehq.com
  </desc>
  <path fill="#000000" fill-rule="evenodd" d="M15 28.75c7.59375 0 13.75 -6.15625 13.75 -13.75S22.59375 1.25 15 1.25 1.25 7.40625 1.25 15s6.15625 13.75 13.75 13.75ZM7.491250000000001 11.44875c1.4874999999999998 -0.39625 4.095 -0.81125 6.9625 -0.7224999999999999 2.875 0.08875 5.8875 0.68125 8.28375 2.185a1.25 1.25 0 0 0 1.3287499999999999 -2.11875c-2.9162500000000002 -1.82875 -6.422499999999999 -2.46875 -9.535 -2.565 -3.1225000000000005 -0.09625 -5.972499999999999 0.35000000000000003 -7.6825 0.805a1.25 1.25 0 1 0 0.6425000000000001 2.4162500000000002Zm6.295 4.2625c-2.35875 -0.0825 -4.4375 0.28750000000000003 -5.586250000000001 0.635a1.25 1.25 0 0 1 -0.725 -2.3925c1.40875 -0.42625 3.7624999999999997 -0.83375 6.4 -0.74 2.64 0.09375 5.65875 0.6925000000000001 8.309999999999999 2.3737500000000002a1.25 1.25 0 1 1 -1.3375000000000001 2.1125c-2.16 -1.37 -4.7025 -1.9037499999999998 -7.06125 -1.9875Zm-5.2125 5.1275c1.1500000000000001 -0.28750000000000003 3.135 -0.57625 5.233750000000001 -0.475 2.1174999999999997 0.10250000000000001 4.1825 0.595 5.655 1.7125000000000001a1.25 1.25 0 0 0 1.5125 -1.99125c-2.05 -1.555 -4.699999999999999 -2.105 -7.047499999999999 -2.21875 -2.36625 -0.11374999999999999 -4.59625 0.20625000000000002 -5.96 0.5475a1.25 1.25 0 1 0 0.60625 2.425Z" clip-rule="evenodd" stroke-width="1.25"></path>
</svg>