<svg xmlns="http://www.w3.org/2000/svg" fill="none" viewBox="0 0 30 30" id="Streaming-Logo--Streamline-Logos" height="30" width="30">
  <desc>
    Streaming Logo Streamline Icon: https://streamlinehq.com
  </desc>
  <path fill="#000000" fill-rule="evenodd" d="M25.625 2.8125a1.5625 1.5625 0 1 1 -3.125 0 1.5625 1.5625 0 0 1 3.125 0Zm0 4.875a1.5625 1.5625 0 1 1 -3.125 0 1.5625 1.5625 0 0 1 3.125 0Zm-1.5625 6.4375a1.5625 1.5625 0 1 0 0 -3.125 1.5625 1.5625 0 0 0 0 3.125Zm1.5625 3.3125a1.5625 1.5625 0 1 1 -3.125 0 1.5625 1.5625 0 0 1 3.125 0Zm-1.5625 6.4375a1.5625 1.5625 0 1 0 0 -3.125 1.5625 1.5625 0 0 0 0 3.125Zm1.5625 3.3125a1.5625 1.5625 0 1 1 -3.125 0 1.5625 1.5625 0 0 1 3.125 0ZM8.75 27.5H5.625V10c0 -5.625 4.375 -7.5 7.5 -7.5C16.83875 2.5 20 5.91875 20 9.668750000000001c0 5.41625 -4.14625 7.155 -8.462499999999999 8.965l-0.8825 0.37124999999999997L8.75 15.774999999999999c4.6975 -2.0374999999999996 7.5 -3.51375 7.5 -5.776250000000001 0 -1.875 -0.625 -3.75 -3.75 -3.75 -2.5 0 -3.75 2.2225 -3.75 3.75v17.5Z" clip-rule="evenodd" stroke-width="1.25"></path>
</svg>