<svg xmlns="http://www.w3.org/2000/svg" fill="none" viewBox="0 0 30 30" id="Streamplay-Logo--Streamline-Logos" height="30" width="30">
  <desc>
    Streamplay Logo Streamline Icon: https://streamlinehq.com
  </desc>
  <path fill="#000000" fill-rule="evenodd" d="M3.89875 5.435A6.25 6.25 0 0 1 9.7975 1.25h17.60125l-2.6750000000000003 7.487500000000001c2.4962500000000003 1.28 3.8200000000000003 4.35 2.62125 7.195l-1.155 2.7424999999999997A6.25 6.25 0 0 1 20.43 22.5h-6.375l-1.92875 6.43 -2.12 -0.38625a6.25 6.25 0 0 1 -4.7475000000000005 -8.309999999999999l1.4749999999999999 -4.00125c-3.2125 -0.2675 -5.3825 -3.5199999999999996 -4.2925 -6.633750000000001l1.4575 -4.1625ZM9.39125 16.25l-1.7862500000000001 4.84875a3.75 3.75 0 0 0 2.76875 4.97L12.195 20h8.235a3.75 3.75 0 0 0 3.4562500000000003 -2.295l1.155 -2.7424999999999997a3.12875 3.12875 0 0 0 -2.1825 -4.2625 3.19375 3.19375 0 0 0 -0.6975 -0.075H8.125l1.2662499999999999 -2.5H22.1625l0.1275 0.00125L23.849999999999998 3.75H9.7975a3.75 3.75 0 0 0 -3.54 2.51125l-1.45625 4.1625A2.5 2.5 0 0 0 7.16 13.75H21.25l-0.8200000000000001 2.5h-11.0375Z" clip-rule="evenodd" stroke-width="1.25"></path>
</svg>