<svg xmlns="http://www.w3.org/2000/svg" fill="none" viewBox="0 0 30 30" id="Telegram-Logo-1--Streamline-Logos" height="30" width="30">
  <desc>
    Telegram Logo 1 Streamline Icon: https://streamlinehq.com
  </desc>
  <path fill="#000000" fill-rule="evenodd" d="M15 28.75c7.59375 0 13.75 -6.15625 13.75 -13.75S22.59375 1.25 15 1.25 1.25 7.40625 1.25 15s6.15625 13.75 13.75 13.75ZM6.2275 13.96875c0 -0.1275 0.08375 -0.2475 0.2025 -0.29250000000000004l15.405 -5.87125a0.3175 0.3175 0 0 1 0.3175 0.057499999999999996c0.085 0.075 0.125 0.19625 0.0975 0.3075l-3.0725000000000002 12.9225a0.3175 0.3175 0 0 1 -0.195 0.22125 0.31625000000000003 0.31625000000000003 0 0 1 -0.29250000000000004 -0.04l-3.27375 -2.36875 -0.125 0.0825a196.375 196.375 0 0 1 -1.4949999999999999 0.9850000000000001 57.787499999999994 57.787499999999994 0 0 1 -1.17875 0.75 11.92 11.92 0 0 1 -0.43999999999999995 0.25875 2.8462500000000004 2.8462500000000004 0 0 1 -0.17500000000000002 0.09 1.1625 1.1625 0 0 1 -0.0975 0.04125 0.895 0.895 0 0 1 -0.9025 -0.20625000000000002 0.96875 0.96875 0 0 1 -0.2525 -0.49250000000000005l-0.00125 -0.00625 -1.0037500000000001 -4.936249999999999 -3.3150000000000004 -1.21a0.31875 0.31875 0 0 1 -0.2025 -0.29250000000000004Zm4.74 1.24125 0.90875 4.4712499999999995 1.0125000000000002 -3.0787500000000003 5.1775 -4.64375a0.1925 0.1925 0 0 0 0.028749999999999998 -0.245 0.1925 0.1925 0 0 0 -0.2375 -0.0625l-6.89 3.55875Z" clip-rule="evenodd" stroke-width="1.25"></path>
</svg>