<svg xmlns="http://www.w3.org/2000/svg" fill="none" viewBox="0 0 30 30" id="Amazon-Prime-Video-Logo-1--Streamline-Logos" height="30" width="30">
  <desc>
    Amazon Prime Video Logo 1 Streamline Icon: https://streamlinehq.com
  </desc>
  <path fill="#000000" fill-rule="evenodd" d="M14.375 6.875a1.25 1.25 0 1 1 -2.5 0 1.25 1.25 0 0 1 2.5 0Zm13.50375 1.5675c0.5125 0.2 1.1837499999999999 0.68125 1.1837499999999999 1.5575 0 0.8787499999999999 -0.39375 1.54 -1.02125 1.9375 -0.56 0.35374999999999995 -1.22625 0.45125 -1.7599999999999998 0.46875a6.51 6.51 0 0 1 -0.63875 -0.0125c0.18 0.265 0.40125 0.4 0.6775 0.42125 0.46375 0.035 0.75125 -0.075 0.90625 -0.16125a0.8599999999999999 0.8599999999999999 0 0 0 0.16125 -0.11249999999999999l0.01875 -0.01875 -0.005 0.0075 -0.0075 0.0075 -0.00375 0.00625 -0.0025 0.0025 -0.00125 0.0025c-0.00125 0 -0.00125 0.00125 0.73875 0.57625l0.74 0.5750000000000001 0 0.00125 -0.0025 0.0025 -0.0025 0.00375 -0.0075 0.00875 -0.01625 0.02a1.75875 1.75875 0 0 1 -0.19 0.195 2.7350000000000003 2.7350000000000003 0 0 1 -0.5125 0.3625c-0.45499999999999996 0.2525 -1.10375 0.45499999999999996 -1.9537499999999999 0.39125 -0.9825 -0.07375 -1.69375 -0.62875 -2.12875 -1.2975A3.9887499999999996 3.9887499999999996 0 0 1 23.4375 11.25c0 -0.885 0.3425 -1.6 0.8799999999999999 -2.1075 0.51625 -0.48750000000000004 1.1712500000000001 -0.7474999999999999 1.77875 -0.8487500000000001 0.6 -0.1 1.245 -0.06 1.7825 0.15ZM25.6 10.51c0.2 0.02 0.41250000000000003 0.03 0.61875 0.0225 0.40375 -0.0125 0.675 -0.08750000000000001 0.8187500000000001 -0.17875a0.2625 0.2625 0 0 0 0.13125 -0.17500000000000002 1.6625 1.6625 0 0 0 -0.765 -0.035c-0.33 0.05499999999999999 -0.6125 0.1875 -0.8 0.3625l-0.00375 0.00375Zm1.68125 -0.28 -0.00875 -0.00625a0.035 0.035 0 0 1 0.00875 0.00625Zm1.4000000000000001 7.115c0.91375 0.915 -1.12 5.077500000000001 -1.7725 4.827500000000001 -0.3275 -0.125 -0.08375 -0.8550000000000001 0.17875 -1.63875 0.2675 -0.8 0.55375 -1.6575000000000002 0.26875 -1.9825000000000002 -0.3 -0.34125000000000005 -1.2675 -0.25375000000000003 -2.125 -0.17500000000000002 -0.7537499999999999 0.06875 -1.4212500000000001 0.12875 -1.47625 -0.11624999999999999 -0.17 -0.7625 4.01 -1.83125 4.925 -0.915Zm-25.8525 0.7224999999999999C5.21375 19.12875 9.98 21.25 15 21.25c3.1712499999999997 0 6.105 -0.8325 8.195 -1.4249999999999998 1.6175000000000002 -0.45999999999999996 2.7300000000000004 -0.775 3.0549999999999997 -0.44999999999999996 0.745 0.745 -4.375 3.75 -11.25 3.75C6.7 23.125 0.9975 17.869999999999997 1.25 17.5c0.07125000000000001 -0.10500000000000001 0.64125 0.15 1.5787499999999999 0.5675ZM12.1875 8.75v5.625h1.875V8.75h-1.875Zm-4.375 1.875V8.4375h1.875v0.09125c0.5087499999999999 -0.0925 1.05375 -0.09125 1.48625 -0.09125l0.07625 0v1.875c-0.6787500000000001 0 -1.1287500000000001 0.01 -1.4224999999999999 0.10874999999999999a0.40375 0.40375 0 0 0 -0.12125 0.056249999999999994 0.42250000000000004 0.42250000000000004 0 0 0 -0.01875 0.1475v3.75h-1.875v-3.75Zm1.8975 -0.155s0 0.0025 -0.00375 0.005l0.00375 -0.005Zm-0.00625 0.01 -0.00125 0.00125 0 -0.00125ZM4.375 10.3125c-0.3875 0 -0.9375 0.41875 -0.9375 1.25s0.55 1.25 0.9375 1.25 0.9375 -0.41875 0.9375 -1.25 -0.55 -1.25 -0.9375 -1.25ZM2.8125 8.95625A2.575 2.575 0 0 1 4.375 8.4375c1.6837499999999999 0 2.8125 1.54 2.8125 3.125s-1.1287500000000001 3.125 -2.8125 3.125a2.575 2.575 0 0 1 -1.5625 -0.5187499999999999V16.25H0.9375V8.4375h1.875v0.5187499999999999Zm11.875 -0.5187499999999999v5.9375h1.875V10.546249999999999l0.0125 -0.005c0.27875 -0.12625 0.61 -0.22875 0.925 -0.22875a0.875 0.875 0 0 1 0.3125 0.0475V14.375h1.875V10.547500000000001l0.0125 -0.00625a2.325 2.325 0 0 1 0.925 -0.22875 0.875 0.875 0 0 1 0.3125 0.0475V14.375h1.875V10a0.93625 0.93625 0 0 0 -0.11624999999999999 -0.45499999999999996 1.955 1.955 0 0 0 -0.47125 -0.5775c-0.36 -0.3 -0.8875 -0.53 -1.6 -0.53 -0.6837500000000001 0 -1.2912499999999998 0.21000000000000002 -1.7000000000000002 0.39625l-0.0025 0c-0.34875 -0.23125 -0.8187500000000001 -0.39625 -1.4224999999999999 -0.39625 -0.33625000000000005 0 -0.65375 0.05 -0.9375 0.125v-0.125h-1.875Z" clip-rule="evenodd" stroke-width="1.25"></path>
</svg>