<svg xmlns="http://www.w3.org/2000/svg" fill="none" viewBox="0 0 30 30" id="Telegram-Logo-2--Streamline-Logos" height="30" width="30">
  <desc>
    Telegram Logo 2 Streamline Icon: https://streamlinehq.com
  </desc>
  <path fill="#000000" fill-rule="evenodd" d="M15 28.75c7.59375 0 13.75 -6.15625 13.75 -13.75S22.59375 1.25 15 1.25 1.25 7.40625 1.25 15s6.15625 13.75 13.75 13.75ZM5.805 14.299999999999999a0.31875 0.31875 0 0 0 -0.2025 0.29374999999999996c0 0.1275 0.08375 0.2475 0.2025 0.29250000000000004l3.73375 1.3625 7.6925 -3.97125a0.1925 0.1925 0 0 1 0.2375 0.0625 0.1925 0.1925 0 0 1 -0.027499999999999997 0.24375000000000002l-5.1775 4.64375 5.80125 4.671250000000001c0.08375 0.06 0.19625 0.075 0.29250000000000004 0.04a0.3175 0.3175 0 0 0 0.195 -0.22125L21.625 8.795a0.3175 0.3175 0 0 0 -0.0975 -0.3075 0.3175 0.3175 0 0 0 -0.3175 -0.057499999999999996L5.805 14.299999999999999Z" clip-rule="evenodd" stroke-width="1.25"></path>
</svg>