<svg xmlns="http://www.w3.org/2000/svg" fill="none" viewBox="0 0 30 30" id="Thread-Logo-Logo--Streamline-Logos" height="30" width="30">
  <desc>
    Thread Logo Logo Streamline Icon: https://streamlinehq.com
  </desc>
  <path fill="#000000" fill-rule="evenodd" d="M5.7299999999999995 4.04375C8.08 1.3 11.33375 0 14.86 0c3.36625 0 6.342499999999999 0.80625 8.63875 2.4537500000000003 2.32125 1.665 3.8375 4.10875 4.3774999999999995 7.14a1.5625 1.5625 0 1 1 -3.07625 0.5475c-0.40625 -2.2775 -1.5025 -3.9875 -3.12125 -5.147500000000001 -1.6425 -1.1775 -3.9325 -1.8687500000000001 -6.81875 -1.8687500000000001 -2.725 0 -5.07 0.9825 -6.757499999999999 2.9512500000000004 -1.70625 1.9925000000000002 -2.8775 5.16 -2.8775 9.7625 0 4.44 1.5012500000000002 7.119999999999999 3.4250000000000003 8.721250000000001 1.975 1.645 4.595000000000001 2.315 7.05 2.315 4.8475 0 7.81875 -2.8525 7.9575 -5.972499999999999 0.06875 -1.54875 -0.5775 -2.8000000000000003 -1.7774999999999999 -3.7162499999999996a6.0625 6.0625 0 0 0 -0.08750000000000001 -0.06625c-0.24125000000000002 1.0975 -0.64 2.0749999999999997 -1.19 2.9099999999999997 -1.1500000000000001 1.74625 -2.9 2.7662500000000003 -4.905 2.91375 -1.85 0.1375 -3.4025 -0.3075 -4.5375 -1.22a4.795 4.795 0 0 1 -1.7925 -3.46375c-0.06 -1.02875 0.11249999999999999 -2.5475 1.2850000000000001 -3.80375 1.17875 -1.2625 3.0787500000000003 -1.95125 5.793749999999999 -1.95125 0.80125 0 1.585 0.05875 2.3400000000000003 0.17875 -0.26625 -1.3125 -0.86625 -1.9500000000000002 -1.38625 -2.295 -0.7037499999999999 -0.46875 -1.5125 -0.55875 -1.90625 -0.55875 -1.105 0 -2.08375 0.41500000000000004 -3.00375 1.47a1.5625 1.5625 0 0 1 -2.35625 -2.0524999999999998c1.4649999999999999 -1.68125 3.2800000000000002 -2.5424999999999995 5.36 -2.5424999999999995 0.72875 0 2.22625 0.14375000000000002 3.6362499999999995 1.08 1.49125 0.9912500000000001 2.6774999999999998 2.7350000000000003 2.8875 5.5112499999999995l0.0225 0.36124999999999996c0.625 0.29250000000000004 1.2075 0.64125 1.73625 1.045 1.94875 1.4874999999999998 3.12 3.68875 3.0025000000000004 6.338749999999999C26.54375 26.32125 21.68125 30 15.700000000000001 30c-2.95875 0 -6.36 -0.8 -9.05 -3.0375 -2.74125 -2.2825 -4.55 -5.90125 -4.55 -11.122499999999999 0 -5.1075 1.3 -9.07875 3.63 -11.796249999999999Zm13.1125 11.82625a11.52 11.52 0 0 0 -2.39625 -0.24c-2.2375 0 -3.1424999999999996 0.56625 -3.50875 0.95875 -0.37124999999999997 0.3975 -0.48250000000000004 0.92875 -0.44999999999999996 1.4874999999999998 0.025 0.4425 0.22749999999999998 0.88625 0.63375 1.2125 0.4 0.32375 1.12375 0.62875 2.34625 0.53875 1.025 -0.075 1.9 -0.56875 2.525 -1.51625 0.39 -0.5925 0.7025000000000001 -1.4000000000000001 0.8500000000000001 -2.44125Z" clip-rule="evenodd" stroke-width="1.25"></path>
</svg>