<svg xmlns="http://www.w3.org/2000/svg" fill="none" viewBox="0 0 30 30" id="Tinder-Logo--Streamline-Logos" height="30" width="30">
  <desc>
    Tinder Logo Streamline Icon: https://streamlinehq.com
  </desc>
  <path fill="#000000" d="M15.237499999999999 1.375a0.625 0.625 0 0 0 -0.22999999999999998 0.5874999999999999c0.605 3.935 -0.21250000000000002 6.3625 -1.2912499999999998 7.8149999999999995 -0.95 1.28125 -2.1375 1.8562500000000002 -2.8712500000000003 2.04 -0.44375 -0.5 -0.625 -0.9125 -0.7162499999999999 -1.37 -0.085 -0.42750000000000005 -0.095 -0.88125 -0.10749999999999998 -1.50875 -0.005 -0.25 -0.01 -0.5275 -0.02125 -0.8425a0.625 0.625 0 0 0 -0.8225 -0.57125c-1.11 0.37 -2.6125 1.5787499999999999 -3.82625 3.2775C4.12125 12.524999999999999 3.125 14.837499999999999 3.125 17.49625 3.125 24.162499999999998 9.1 28.75 15 28.75c5.9475 0 11.875 -4.63375 11.875 -12.50375 0 -5.24625 -2.7912500000000002 -8.9975 -5.525 -11.41a22.691249999999997 22.691249999999997 0 0 0 -3.7562499999999996 -2.6737499999999996 18.45 18.45 0 0 0 -1.59625 -0.81625c-0.25 -0.11124999999999999 -0.525 -0.155 -0.75875 0.028749999999999998Z" stroke-width="1.25"></path>
</svg>