<svg xmlns="http://www.w3.org/2000/svg" fill="none" viewBox="0 0 30 30" id="Twitter-Logo-1--Streamline-Logos" height="30" width="30">
  <desc>
    Twitter Logo 1 Streamline Icon: https://streamlinehq.com
  </desc>
  <path fill="#000000" d="M1.25 23.75c19.521250000000002 7.577500000000001 25.0475 -6.28125 24.88125 -13.125C27.71625 10.195 28.75 9.115 28.75 8.0075c-1.31 0.6875 -1.99375 0.49250000000000005 -2.64875 0 1.41 -0.96 1.3387499999999999 -2.32875 1.3387499999999999 -3.27375 -0.6587500000000001 0.34625000000000006 -1.87875 1.2 -3.27375 1.31 -0.93125 -1.4575 -3.27375 -2.6187500000000004 -6.5475 -1.31 -3.27375 1.31 -3.92875 4.8025 -3.27375 6.5475 -4.1899999999999995 0 -9.16625 -4.365 -11.13125 -6.5475 -2.35375 3.3600000000000003 0.625 6.69125 1.965 7.8575 -0.8937499999999999 0.2675 -1.965 0 -2.6187500000000004 -0.655 0 3.73875 3.27375 5.237500000000001 4.5825 5.89375H4.525c0 2.6187500000000004 3.0549999999999997 3.71 4.58375 3.9274999999999998 -1.0474999999999999 1.0474999999999999 -5.26875 1.995 -7.8575 1.995Z" stroke-width="1.25"></path>
</svg>