<svg xmlns="http://www.w3.org/2000/svg" fill="none" viewBox="0 0 30 30" id="Ubisoft-Logo--Streamline-Logos" height="30" width="30">
  <desc>
    Ubisoft Logo Streamline Icon: https://streamlinehq.com
  </desc>
  <path fill="#000000" fill-rule="evenodd" d="M5.53875 8.93375a13.215 13.215 0 0 0 -2.0475 2.045A12.192499999999999 12.192499999999999 0 0 1 15 2.8125c6.731249999999999 0 12.1875 5.456250000000001 12.1875 12.1875s-5.456250000000001 12.1875 -12.1875 12.1875l-0.035 0c-0.37875 -0.01125 -1.12 -0.195 -2.06 -0.64625a11.772499999999999 11.772499999999999 0 0 1 -2.9349999999999996 -2.01625c-1.8775 -1.77 -3.2750000000000004 -4.31875 -2.6774999999999998 -7.6325 0.325 -1.7937500000000002 1.7025000000000001 -3.0725000000000002 3.5725000000000002 -3.65375a5.9375 5.9375 0 1 0 9.5275 6.75c0.6625000000000001 -1.3087499999999999 1.30375 -3.8125 0.93375 -6.3412500000000005 -0.20125 -1.375 -0.7074999999999999 -2.7937499999999997 -1.705 -4.0325 -1 -1.245 -2.4575 -2.25875 -4.4775 -2.87875 -3.4837499999999997 -1.07125 -7.0062500000000005 0.11875 -9.605 2.1975Zm12.7175 3.5999999999999996c0.42125 0.2775 0.80625 0.6074999999999999 1.14375 0.98 -0.195 -0.9712500000000001 -0.58375 -1.90875 -1.23875 -2.72375 -0.7424999999999999 -0.9225 -1.8675 -1.7399999999999998 -3.5675 -2.2625 -2.7300000000000004 -0.8375 -5.620000000000001 0.06 -7.883750000000001 1.87 -2.25 1.7999999999999998 -3.69625 4.358750000000001 -3.7312499999999997 6.6225000000000005a12.181249999999999 12.181249999999999 0 0 0 4.5275 7.592499999999999c-1.6 -2.01125 -2.66 -4.7175 -2.05875 -8.053749999999999 0.5 -2.77125 2.68375 -4.5200000000000005 5.15625 -5.197500000000001 2.4675 -0.675 5.385 -0.34500000000000003 7.6525 1.1712500000000001l0 0.00125ZM14.94125 29.0625C7.199999999999999 29.03 0.9375 22.74625 0.9375 15 0.9375 7.23375 7.23375 0.9375 15 0.9375S29.0625 7.23375 29.0625 15 22.76625 29.0625 15 29.0625l-0.05875 0ZM19.0625 17.5c0 0.6 -0.13 1.1687500000000002 -0.3625 1.68125a3.1725 3.1725 0 0 1 -0.0675 0.12l0.0075 0.00375A4.0625 4.0625 0 1 1 19.0625 17.5Z" clip-rule="evenodd" stroke-width="1.25"></path>
</svg>