<svg xmlns="http://www.w3.org/2000/svg" fill="none" viewBox="0 0 30 30" id="Amazon-Prime-Video-Logo-2--Streamline-Logos" height="30" width="30">
  <desc>
    Amazon Prime Video Logo 2 Streamline Icon: https://streamlinehq.com
  </desc>
  <path fill="#000000" fill-rule="evenodd" d="M14.375 1.875a1.25 1.25 0 1 1 -2.5 0 1.25 1.25 0 0 1 2.5 0Zm13.50375 1.5675c0.5125 0.2 1.1837499999999999 0.68125 1.1837499999999999 1.5575 0 0.8787499999999999 -0.39375 1.54 -1.02125 1.9375 -0.56 0.35374999999999995 -1.22625 0.45125 -1.7599999999999998 0.46875a6.51 6.51 0 0 1 -0.63875 -0.0125c0.18 0.26375 0.40125 0.4 0.6775 0.42125 0.46375 0.035 0.75125 -0.075 0.90625 -0.16125a0.86625 0.86625 0 0 0 0.16125 -0.11249999999999999l0.01875 -0.01875 -0.005 0.0075 -0.0075 0.0075 -0.00375 0.00625 -0.0025 0.0025 -0.00125 0.0025s-0.00125 0.00125 0.73875 0.57625l0.74 0.5750000000000001 -0.0025 0.00375 -0.0025 0.00375 -0.0075 0.00875 -0.01625 0.02a1.77875 1.77875 0 0 1 -0.19 0.195 2.7350000000000003 2.7350000000000003 0 0 1 -0.5125 0.3625c-0.45499999999999996 0.2525 -1.10375 0.45375 -1.9537499999999999 0.39125 -0.9825 -0.07375 -1.69375 -0.62875 -2.12875 -1.2975A3.9887499999999996 3.9887499999999996 0 0 1 23.4375 6.25c0 -0.885 0.3425 -1.6 0.8799999999999999 -2.1075 0.51625 -0.48750000000000004 1.1712500000000001 -0.7474999999999999 1.77875 -0.8487500000000001 0.6 -0.1 1.245 -0.06 1.7825 0.15ZM25.6 5.510000000000001c0.2 0.02 0.41250000000000003 0.028749999999999998 0.61875 0.0225 0.40375 -0.0125 0.675 -0.08750000000000001 0.8187500000000001 -0.17875a0.2625 0.2625 0 0 0 0.13125 -0.17500000000000002 1.6625 1.6625 0 0 0 -0.765 -0.035c-0.33 0.05499999999999999 -0.6125 0.1875 -0.8 0.3625l-0.00375 0.00375ZM10.625 11.875a1.25 1.25 0 1 1 -2.5 0 1.25 1.25 0 0 1 2.5 0Zm3.125 4.0625c-0.3875 0 -0.9375 0.41875 -0.9375 1.25s0.55 1.25 0.9375 1.25 0.9375 -0.41875 0.9375 -1.25 -0.55 -1.25 -0.9375 -1.25Zm0 -1.875c0.33625000000000005 0 0.65 0.0625 0.9375 0.17250000000000001V11.875h1.875v8.4375h-1.875v-0.17250000000000001c-0.28750000000000003 0.11124999999999999 -0.60125 0.17250000000000001 -0.9375 0.17250000000000001 -1.6837499999999999 0 -2.8125 -1.54 -2.8125 -3.125s1.1287500000000001 -3.125 2.8125 -3.125Zm11.5625 3.125c0 -0.83125 0.55 -1.25 0.9375 -1.25s0.9375 0.41875 0.9375 1.25 -0.55 1.25 -0.9375 1.25 -0.9375 -0.41875 -0.9375 -1.25Zm0.9375 -3.125c-1.6837499999999999 0 -2.8125 1.54 -2.8125 3.125s1.1287500000000001 3.125 2.8125 3.125 2.8125 -1.54 2.8125 -3.125 -1.1287500000000001 -3.125 -2.8125 -3.125Zm-25.23125 0.6937500000000001 2.5 5.625h1.7125000000000001l2.5 -5.625 -1.7125000000000001 -0.7625L4.375 17.69125l-1.6437499999999998 -3.6975000000000002 -1.7125000000000001 0.7625ZM8.4375 20.3125V14.375h1.875v5.9375h-1.875Zm14.375 -4.49125c0 -0.875 -0.67125 -1.35875 -1.1837499999999999 -1.5575 -0.5375 -0.20875000000000002 -1.18125 -0.25 -1.7825 -0.14875 -0.6074999999999999 0.10125 -1.2625 0.36 -1.77875 0.8487500000000001 -0.5375 0.5075000000000001 -0.8799999999999999 1.2225 -0.8799999999999999 2.1075 0 0.7037499999999999 0.19 1.4874999999999998 0.6125 2.1375 0.4375 0.6687500000000001 1.1475 1.225 2.13 1.2975 0.8500000000000001 0.0625 1.5 -0.13875 1.9537499999999999 -0.39125a2.72875 2.72875 0 0 0 0.65625 -0.505l0.04625 -0.052500000000000005 0.01625 -0.02 0.0075 -0.00875 0.0025 -0.00375 0.0025 -0.0025 -0.74 -0.57625c-0.74 -0.5750000000000001 -0.73875 -0.5775 -0.73875 -0.5775l0 -0.00125 0.00375 -0.00375 0.00375 -0.005 0.0075 -0.0075 0.005 -0.0075 -0.01875 0.01875a0.86625 0.86625 0 0 1 -0.16125 0.11249999999999999c-0.15375 0.085 -0.4425 0.195 -0.90625 0.16125 -0.28750000000000003 -0.02125 -0.5125 -0.1675 -0.6975 -0.44999999999999996a1.6037499999999998 1.6037499999999998 0 0 1 -0.095 -0.16625c0.405 -0.00625 0.8500000000000001 -0.03 1.26 -0.095 0.45625 -0.07250000000000001 0.99 -0.21125000000000002 1.43 -0.515 0.48875 -0.3375 0.8450000000000001 -0.87125 0.8450000000000001 -1.5887499999999999Zm-2.56875 0.2525a5.775 5.775 0 0 1 -0.6125 0.06c0.15125 -0.07875 0.32875 -0.1375 0.5225 -0.16875a1.8625 1.8625 0 0 1 0.57125 -0.01 2.505 2.505 0 0 1 -0.48125 0.11875ZM15 26.25c-5.02 0 -9.786249999999999 -2.12125 -12.17125 -3.1837500000000003C1.8912499999999999 22.650000000000002 1.32125 22.395 1.25 22.5c-0.2525 0.37 5.45 5.625 13.75 5.625 6.875 0 11.995000000000001 -3.005 11.25 -3.75 -0.325 -0.325 -1.4375 -0.01 -3.0549999999999997 0.44999999999999996C21.105 25.4175 18.169999999999998 26.25 15 26.25Zm13.680000000000001 -3.90625c0.915 0.91625 -1.11875 5.078749999999999 -1.77125 4.82875 -0.3275 -0.125 -0.08375 -0.8550000000000001 0.17875 -1.63875 0.2675 -0.8 0.55375 -1.6575000000000002 0.26875 -1.9825000000000002 -0.3 -0.34125000000000005 -1.2675 -0.25375000000000003 -2.125 -0.17500000000000002 -0.7537499999999999 0.06875 -1.4212500000000001 0.12875 -1.47625 -0.11624999999999999 -0.17 -0.7625 4.01 -1.83125 4.925 -0.91625ZM12.1875 3.75v5.625h1.875V3.75h-1.875Zm-4.375 1.875V3.4375h1.875v0.09125c0.5087499999999999 -0.0925 1.05375 -0.09125 1.48625 -0.09125l0.07625 0v1.875c-0.6787500000000001 0 -1.1287500000000001 0.01 -1.4224999999999999 0.10874999999999999a0.40375 0.40375 0 0 0 -0.12125 0.056249999999999994 0.42250000000000004 0.42250000000000004 0 0 0 -0.01875 0.1475v3.75h-1.875v-3.75Zm1.8975 -0.155s0 0.0025 -0.00375 0.005l0.00375 -0.005Zm-0.00625 0.01 -0.00125 0.00125 0 -0.00125ZM4.375 5.3125c-0.3875 0 -0.9375 0.41875 -0.9375 1.25s0.55 1.25 0.9375 1.25 0.9375 -0.41875 0.9375 -1.25 -0.55 -1.25 -0.9375 -1.25ZM2.8125 3.95625A2.575 2.575 0 0 1 4.375 3.4375c1.6837499999999999 0 2.8125 1.54 2.8125 3.125s-1.1287500000000001 3.125 -2.8125 3.125a2.575 2.575 0 0 1 -1.5625 -0.5187499999999999V11.25H0.9375V3.4375h1.875v0.5187499999999999Zm11.875 -0.5187499999999999V9.375h1.875V5.546250000000001l0.0125 -0.005c0.27875 -0.12625 0.61 -0.22875 0.925 -0.22875a0.875 0.875 0 0 1 0.3125 0.0475V9.375h1.875V5.547499999999999l0.0125 -0.00625a2.325 2.325 0 0 1 0.925 -0.22875 0.875 0.875 0 0 1 0.3125 0.0475V9.375h1.875V5a0.93625 0.93625 0 0 0 -0.11624999999999999 -0.45625 1.955 1.955 0 0 0 -0.47125 -0.5775c-0.36 -0.3 -0.8875 -0.5287499999999999 -1.6 -0.5287499999999999 -0.6837500000000001 0 -1.2912499999999998 0.21000000000000002 -1.7000000000000002 0.39625l-0.0025 0c-0.34875 -0.23125 -0.8187500000000001 -0.39625 -1.4224999999999999 -0.39625 -0.33625000000000005 0 -0.65375 0.05 -0.9375 0.125v-0.125h-1.875Z" clip-rule="evenodd" stroke-width="1.25"></path>
</svg>