<svg xmlns="http://www.w3.org/2000/svg" fill="none" viewBox="0 0 30 30" id="Viddler-Logo--Streamline-Logos" height="30" width="30">
  <desc>
    Viddler Logo Streamline Icon: https://streamlinehq.com
  </desc>
  <path fill="#000000" fill-rule="evenodd" d="M1.25 10a6.875 6.875 0 0 0 6.875 6.875V18.75L1.25 16.875v8.75L8.125 23.75v2.5H20l-3.75 -9.375h5.625A6.875 6.875 0 1 0 15 10 6.875 6.875 0 1 0 1.25 10Zm8.75 0a1.875 1.875 0 1 1 -3.75 0 1.875 1.875 0 0 1 3.75 0Zm11.875 1.875a1.875 1.875 0 1 0 0 -3.75 1.875 1.875 0 0 0 0 3.75Z" clip-rule="evenodd" stroke-width="1.25"></path>
</svg>