<svg xmlns="http://www.w3.org/2000/svg" fill="none" viewBox="0 0 30 30" id="Vlc-Logo--Streamline-Logos" height="30" width="30">
  <desc>
    Vlc Logo Streamline Icon: https://streamlinehq.com
  </desc>
  <path fill="#000000" fill-rule="evenodd" d="M12.915000000000001 2.2575000000000003c0.645 -2.0349999999999997 3.525 -2.0349999999999997 4.17 0l1.05625 3.2375 1.4050000000000002 4.3075 0.58375 1.7874999999999999 1.14375 3.50625 0.0975 0.29874999999999996 0.50125 1.5362500000000001 0.49250000000000005 1.50625H24.375c0.39625 0 0.75 0.25 0.8825 0.6225l2.8275 7.915a1.5625 1.5625 0 0 1 -1.47125 2.0875H3.3875a1.5625 1.5625 0 0 1 -1.4725 -2.0875l2.8275 -7.915a0.9375 0.9375 0 0 1 0.8825 -0.6225h2.0100000000000002l1.09125 -3.34125 1.14375 -3.50625 1.8337500000000002 -5.620000000000001 0.5825 -1.785 0.62875 -1.9275Zm-0.71 8.219999999999999c0.91875 0.2725 2.01125 0.45999999999999996 2.7950000000000004 0.45999999999999996 0.78375 0 1.8762499999999998 -0.1875 2.7950000000000004 -0.45999999999999996l-1.32375 -4.05625A9.3625 9.3625 0 0 1 15 6.5625a9.350000000000001 9.350000000000001 0 0 1 -1.47125 -0.14125000000000001L12.204999999999998 10.4775Zm-3.61625 11.08125c0.27375 0.2 0.675 0.4625 1.205 0.7274999999999999 1.13625 0.5675 2.86875 1.1500000000000001 5.20625 1.1500000000000001s4.069999999999999 -0.5825 5.20625 -1.1500000000000001a8.4 8.4 0 0 0 1.2037499999999999 -0.7274999999999999l-1.20125 -3.685c-1.4575 0.6725000000000001 -3.3800000000000003 1.1875 -5.20875 1.1875 -1.82875 0 -3.75 -0.515 -5.20875 -1.1875l-1.2025 3.685Z" clip-rule="evenodd" stroke-width="1.25"></path>
</svg>