<svg xmlns="http://www.w3.org/2000/svg" fill="none" viewBox="0 0 30 30" id="Volume-Off--Streamline-Core" height="30" width="30">
  <desc>
    Volume Off Streamline Icon: https://streamlinehq.com
  </desc>
  <g id="volume-off--speaker-music-mute-volume-control-audio-off-mute-entertainment">
    <path id="Union" fill="#000000" fill-rule="evenodd" d="M0.47072142857142857 2.7435642857142857c-0.6276280714285715 -0.6276278571428572 -0.6276280714285715 -1.6452149999999999 0 -2.272842857142857 0.6276278571428572 -0.6276285 1.6452149999999999 -0.6276285 2.272842857142857 0l8.283942857142856 8.283942857142856 7.642307142857143 -5.368757142857143 0.006257142857142857 -0.004392857142857143 0.00002142857142857143 0.00002142857142857143C20.780485714285714 1.9254814285714283 23.621785714285714 3.45825 23.57142857142857 6.009857142857143v15.288728571428571l5.9577857142857145 5.957914285714286c0.6276428571428571 0.6276428571428571 0.6276428571428571 1.6450714285714285 0 2.2727142857142857 -0.6276428571428571 0.6276428571428571 -1.6450714285714285 0.6276428571428571 -2.2727142857142857 0L22.84285714285714 25.115571428571425c-0.003428571428571429 0.004285714285714286 -0.007071428571428571 0.008357142857142856 -0.010499999999999999 0.012642857142857141L6.962764285714285 9.258514285714286c0.006514285714285715 -0.0011357142857142857 0.013049999999999999 -0.0022285714285714283 0.019585714285714286 -0.003321428571428571L0.47072142857142857 2.7435642857142857Zm4.257407142857143 8.068392857142857 15.508242857142857 15.50832857142857c-0.5988428571428571 -0.0077142857142857135 -1.206 -0.18364285714285714 -1.7531357142857142 -0.5622857142857143l-0.01575 -0.01092857142857143 0.00008571428571428571 -0.0002142857142857143 -8.09835 -5.819914285714286H7.5c-1.7588785714285715 0 -3.2142857142857144 -1.4554285714285715 -3.2142857142857144 -3.2142857142857144v-4.285714285714286c0 -0.5862642857142857 0.16169999999999998 -1.1388 0.4424142857142857 -1.6149857142857142Z" clip-rule="evenodd" stroke-width="2.1429"></path>
  </g>
</svg>