<svg xmlns="http://www.w3.org/2000/svg" fill="none" viewBox="0 0 30 30" id="Vortex-Logo-2--Streamline-Logos" height="30" width="30">
  <desc>
    Vortex Logo 2 Streamline Icon: https://streamlinehq.com
  </desc>
  <path fill="#000000" fill-rule="evenodd" d="M3.75 3.125a0.625 0.625 0 0 0 -0.53625 0.30374999999999996l-1.875 3.125a0.625 0.625 0 0 0 0 0.6425000000000001l1.875 3.125A0.625 0.625 0 0 0 3.75 10.625h10.625a0.625 0.625 0 0 0 0.5125 -0.26625l4.375 -6.25A0.625 0.625 0 0 0 18.75 3.125H3.75Zm19.375 0a0.625 0.625 0 0 0 -0.52 0.27875l-6.25 9.375a0.625 0.625 0 0 0 -0.028749999999999998 0.645l3.75 6.875a0.625 0.625 0 0 0 1.085 0.0225l7.5 -12.5a0.625 0.625 0 0 0 0.056249999999999994 -0.5187499999999999l-1.25 -3.75A0.625 0.625 0 0 0 26.875 3.125h-3.75ZM4.45625 13.442499999999999A0.625 0.625 0 0 1 5 13.125h8.125a0.625 0.625 0 0 1 0.545 0.31875l5.625 10a0.625 0.625 0 0 1 0.013749999999999998 0.5862499999999999l-1.25 2.5A0.625 0.625 0 0 1 17.5 26.875h-5a0.625 0.625 0 0 1 -0.53625 -0.30374999999999996l-7.5 -12.5a0.625 0.625 0 0 1 -0.0075 -0.62875Z" clip-rule="evenodd" stroke-width="1.25"></path>
</svg>