<svg xmlns="http://www.w3.org/2000/svg" fill="none" viewBox="0 0 30 30" id="W3-Logo--Streamline-Logos" height="30" width="30">
  <desc>
    W3 Logo Streamline Icon: https://streamlinehq.com
  </desc>
  <path fill="#000000" d="M5 6.25H1.25l6.25 20h0.625L11.25 15.625l3.75 10.625h0.625l5 -16.25h2.5l-2.5 4.375V16.25h2.5c1.875 0 1.875 3.125 1.875 3.75s0 3.125 -1.875 3.125c-1.5 0 -2.29125 -1.66625 -2.5 -2.5l-2.5 1.25c0 1.25 2.5 4.375 5 4.375s5.625 -1.25 5.625 -6.25c0 -4 -2.5 -5.83375 -3.75 -6.25l3.75 -5.625V6.25h-10.625L15 16.25l-2.5 -10H8.75l1.25 4.375L8.125 16.25 5 6.25Z" stroke-width="1.25"></path>
</svg>