<svg xmlns="http://www.w3.org/2000/svg" fill="none" viewBox="0 0 30 30" id="Wechat-Pay-Logo--Streamline-Logos" height="30" width="30">
  <desc>
    Wechat Pay Logo Streamline Icon: https://streamlinehq.com
  </desc>
  <path fill="#000000" d="M15 26.18375c7.59375 0 13.75 -5.30125 13.75 -11.84125a10.45375 10.45375 0 0 0 -1.31 -5.05l-15.542499999999999 8.8625a1.30625 1.30625 0 0 1 -1.82125 -0.5650000000000001L6.93125 11.1625l4.85375 2.3175 14.1 -6.375C23.37 4.305 19.43 2.5 15 2.5 7.40625 2.5 1.25 7.8025 1.25 14.342500000000001c0 3.5075000000000003 1.77 6.6575 4.58375 8.82625L5.17875 27.5l5.01125 -2.0612500000000002c1.49625 0.48250000000000004 3.1175 0.745 4.81 0.745Z" stroke-width="1.25"></path>
</svg>