<svg xmlns="http://www.w3.org/2000/svg" fill="none" viewBox="0 0 30 30" id="Wetv-Logo--Streamline-Logos" height="30" width="30">
  <desc>
    Wetv Logo Streamline Icon: https://streamlinehq.com
  </desc>
  <path fill="#000000" fill-rule="evenodd" d="M7.7875000000000005 24.682499999999997c0.41875 0.71 0.94 1.24375 1.5875 1.5675 2.5 1.25 18.75 -8.75 18.75 -11.25s-16.25 -12.5 -18.75 -11.25c-0.6475 0.325 -1.1687500000000002 0.8575 -1.5875 1.5675 0.25 0.07125000000000001 0.5025000000000001 0.14875 0.76 0.23125 1.835 0.5912499999999999 4.005 1.5175 6.075 2.5524999999999998 2.0675 1.03375 4.08125 2.2 5.5975 3.285 0.7537499999999999 0.54 1.4224999999999999 1.0875 1.9162499999999998 1.6125 0.2475 0.26375 0.47875 0.55 0.65375 0.85375 0.16875 0.29374999999999996 0.335 0.6900000000000001 0.335 1.1475 0 0.45875 -0.16625 0.85375 -0.335 1.1475 -0.17500000000000002 0.30374999999999996 -0.40625 0.59 -0.65375 0.85375 -0.49375 0.525 -1.1625 1.0725 -1.9162499999999998 1.6125 -1.515 1.08625 -3.53 2.2512499999999998 -5.59875 3.28625 -2.06875 1.03375 -4.2375 1.96 -6.07375 2.55125a22.349999999999998 22.349999999999998 0 0 1 -0.76 0.23125Zm-0.53375 -1.1500000000000001C12.397499999999999 22.134999999999998 21.875 16.9875 21.875 15c0 -1.9875 -9.4775 -7.13375 -14.62125 -8.53375C6.487500000000001 8.545 6.25 11.535 6.25 15c0 3.465 0.2375 6.455 1.0037500000000001 8.53375ZM10 18.75c-0.625 -0.625 -0.625 -6.875 0 -7.5s6.875 3.125 6.875 3.75 -6.25 4.375 -6.875 3.75Zm-4.34 3.8074999999999997C5.154999999999999 20.4575 5 17.8375 5 15c0 -2.8375 0.155 -5.456250000000001 0.66 -7.5575 0.10250000000000001 -0.42750000000000005 0.22249999999999998 -0.8462500000000001 0.36374999999999996 -1.25 -0.735 -0.12 -1.3075 -0.11249999999999999 -1.64875 0.057499999999999996 -2.5 1.25 -2.5 8.75 -2.5 8.75s0 7.5 2.5 8.75c0.34125000000000005 0.17 0.91375 0.17875 1.6500000000000001 0.05875 -0.14250000000000002 -0.405 -0.2625 -0.8250000000000001 -0.365 -1.2512499999999998Z" clip-rule="evenodd" stroke-width="1.25"></path>
</svg>