<svg xmlns="http://www.w3.org/2000/svg" fill="none" viewBox="0 0 30 30" id="Youtube-Clip-Logo--Streamline-Logos" height="30" width="30">
  <desc>
    Youtube Clip Logo Streamline Icon: https://streamlinehq.com
  </desc>
  <path fill="#000000" fill-rule="evenodd" d="M1.4649999999999999 9.616249999999999A69.98875 69.98875 0 0 0 1.25 15c0 2.04 0.1 3.9587499999999998 0.22749999999999998 5.550000000000001 0.1825 2.2712499999999998 1.9137499999999998 4.0075 4.1475 4.1625 2.2425 0.15625 5.38125 0.28750000000000003 9.375 0.28750000000000003 3.99375 0 7.1325 -0.13125 9.375 -0.28750000000000003 2.2337499999999997 -0.155 3.9650000000000003 -1.8912499999999999 4.1475 -4.1625 0.1275 -1.5912499999999998 0.22749999999999998 -3.51 0.22749999999999998 -5.550000000000001 0 -1.9700000000000002 -0.0925 -3.825 -0.21499999999999997 -5.383750000000001a4.6587499999999995 4.6587499999999995 0 0 0 -4.325 -4.325C21.9875 5.13375 18.955 5 15 5c-3.955 0 -6.9887500000000005 0.13375 -9.21 0.29125a4.6587499999999995 4.6587499999999995 0 0 0 -4.325 4.325ZM19.375 15 12.5 11.25v7.5l6.875 -3.75Z" clip-rule="evenodd" stroke-width="1.25"></path>
</svg>