<svg xmlns="http://www.w3.org/2000/svg" fill="none" viewBox="0 0 30 30" id="Youtube-Gaming-Logo-2--Streamline-Logos" height="30" width="30">
  <desc>
    Youtube Gaming Logo 2 Streamline Icon: https://streamlinehq.com
  </desc>
  <path fill="#000000" fill-rule="evenodd" d="M7.03125 5.234999999999999v5.2l-4.72625 -2.8375 4.72625 -2.3625Zm1.5625 0.22125v5.1675l4.77 -3.18 -4.77 -1.9875Zm8.0425 1.9875 4.77 3.18V5.456250000000001l-4.77 1.9875Zm6.3325 -2.21v5.2l4.72625 -2.83625 -4.72625 -2.3625ZM28.75 8.7875l-5.313750000000001 3.19L28.75 15.52V8.786249999999999Zm-0.98375 7.955 -4.7975 -3.1987500000000004v5.59875l4.7975 -2.4Zm-7.2375 3.61875 -4.7475000000000005 -2.8499999999999996v5.225l4.7475000000000005 -2.375Zm-6.3100000000000005 2.375v-5.225l-4.7475000000000005 2.8499999999999996 4.7475000000000005 2.375Zm-7.1875 -3.59375v-5.59875l-4.7975 3.2 4.7975 2.3975ZM1.25 15.518749999999999l5.313750000000001 -3.5425L1.25 8.7875v6.7325Zm12.2325 0.61125 -4.88875 2.9349999999999996v-5.869999999999999l4.8875 2.9349999999999996Zm7.92375 2.9349999999999996 -4.8875 -2.9349999999999996 4.8875 -2.9349999999999996v5.869999999999999Zm-5.625 -4.3149999999999995 4.73375 -2.8425000000000002 -4.73375 -3.15625V14.75ZM9.485 11.907499999999999l4.73375 2.8425000000000002V8.75L9.485 11.907499999999999Z" clip-rule="evenodd" stroke-width="1.25"></path>
</svg>