<svg xmlns="http://www.w3.org/2000/svg" fill="none" viewBox="0 0 30 30" id="Youtube-Tv-Logo--Streamline-Logos" height="30" width="30">
  <desc>
    Youtube Tv Logo Streamline Icon: https://streamlinehq.com
  </desc>
  <path fill="#000000" fill-rule="evenodd" d="M27.5 5H2.5a1.25 1.25 0 0 0 -1.25 1.25v15a1.25 1.25 0 0 0 1.25 1.25h25a1.25 1.25 0 0 0 1.25 -1.25V6.25a1.25 1.25 0 0 0 -1.25 -1.25ZM11.875 9.375 20 13.75l-8.125 4.375v-8.75ZM8.75 24.6875a0.9375 0.9375 0 0 0 0 1.875h12.5a0.9375 0.9375 0 0 0 0 -1.875H8.75Z" clip-rule="evenodd" stroke-width="1.25"></path>
</svg>