<svg xmlns="http://www.w3.org/2000/svg" fill="none" viewBox="0 0 30 30" id="Zcool-Logo-1--Streamline-Logos" height="30" width="30">
  <desc>
    Zcool Logo 1 Streamline Icon: https://streamlinehq.com
  </desc>
  <path fill="#000000" fill-rule="evenodd" d="M11.725000000000001 28.74625A10.47625 10.47625 0 0 1 1.25 18.271250000000002c0 -5.7875 4.095 -10.01875 10.475000000000001 -11.34125 2.5024999999999995 -0.5175 6.505 -2.4175 7.6375 -5.60625 0.4625 1.46625 1.075 4.035 -0.12875 5.94125C22.1125 6.93 26.795 5.2325 28.75 2.55625c0 2.985 -1.3312499999999998 9.0625 -3.5999999999999996 11.24125 1.3575000000000002 0.17500000000000002 2.2525 0.05499999999999999 3.445 -0.6687500000000001 -0.54 2.2625 -3.0575 6.058750000000001 -6.57625 7.106249999999999a10.48 10.48 0 0 1 -10.2925 8.5125ZM7.501250000000001 15h5.2425L7.824999999999999 20.40875A1.25 1.25 0 0 0 7.5 21.25v0.625a1.25 1.25 0 0 0 1.25 1.25h7.5v-2.5H11.007499999999999l4.9175 -5.4087499999999995A1.25 1.25 0 0 0 16.25 14.375V13.75a1.25 1.25 0 0 0 -1.25 -1.25H7.5v2.5Z" clip-rule="evenodd" stroke-width="1.25"></path>
</svg>