<svg xmlns="http://www.w3.org/2000/svg" fill="none" viewBox="0 0 30 30" id="Zoom-Logo-1--Streamline-Logos" height="30" width="30">
  <desc>
    Zoom Logo 1 Streamline Icon: https://streamlinehq.com
  </desc>
  <path fill="#000000" fill-rule="evenodd" d="M3.125 6.875A1.875 1.875 0 0 0 1.25 8.75v9.375A4.375 4.375 0 0 0 5.625 22.5h13.75a1.875 1.875 0 0 0 1.875 -1.875V11.25a4.375 4.375 0 0 0 -4.375 -4.375h-13.75Zm25.625 1.25a0.9375 0.9375 0 0 0 -1.5 -0.75l-4 3a1.875 1.875 0 0 0 -0.75 1.5V17.5c0 0.59 0.2775 1.14625 0.75 1.5l4 3A0.9375 0.9375 0 0 0 28.75 21.25V8.125Z" clip-rule="evenodd" stroke-width="1.25"></path>
</svg>