<svg xmlns="http://www.w3.org/2000/svg" fill="none" viewBox="0 0 30 30" id="Zoom-Logo-2--Streamline-Logos" height="30" width="30">
  <desc>
    Zoom Logo 2 Streamline Icon: https://streamlinehq.com
  </desc>
  <path fill="#000000" fill-rule="evenodd" d="M28.75 15c0 7.59375 -6.15625 13.75 -13.75 13.75S1.25 22.59375 1.25 15 7.40625 1.25 15 1.25s13.75 6.15625 13.75 13.75Zm-9.375 1.5825v-3.165a0.625 0.625 0 0 1 0.22499999999999998 -0.48l3.0125 -2.51a0.3125 0.3125 0 0 1 0.5125 0.24v8.665000000000001a0.3125 0.3125 0 0 1 -0.5125 0.24l-3.0125 -2.51a0.625 0.625 0 0 1 -0.22499999999999998 -0.48ZM6.25 11.25v7.5a1.25 1.25 0 0 0 1.25 1.25h10a0.625 0.625 0 0 0 0.625 -0.625v-7.5a1.25 1.25 0 0 0 -1.25 -1.25h-10A0.625 0.625 0 0 0 6.25 11.25Z" clip-rule="evenodd" stroke-width="1.25"></path>
</svg>