<svg xmlns="http://www.w3.org/2000/svg" fill="none" viewBox="0 0 30 30" id="Anchor-Logo--Streamline-Logos" height="30" width="30">
  <desc>
    Anchor Logo Streamline Icon: https://streamlinehq.com
  </desc>
  <path fill="#000000" d="M2.54375 25.34125C2.42 26.0825 1.25 27.1425 1.25 27.1425l0 0.9625c4.35625 -0.25 1.9125 -6.887499999999999 2.7175 -7.05 0.8462500000000001 -0.16875 2.31 7.7700000000000005 4.76625 7.05 1.82875 -0.535 -0.12375 -11.692499999999999 0.48750000000000004 -11.928749999999999 0.60875 -0.2375 4.5075 12.337499999999999 6.84625 11.93 2.3375000000000004 -0.40750000000000003 -0.475 -15.65875 0.305 -15.9975 0.77875 -0.33875 4.87125 15.9975 7.643750000000001 15.9975 1.9337499999999999 0 1.62 -10.105 1.8125 -12.405 0.135 -1.6275 1.965 -1.875 2.92125 -1.7100000000000002l-0.9225 -3.67875s-1.5212500000000002 -0.61 -3.0262499999999997 0c-2.8525 1.155 -1.105 9.385 -2.325 9.588750000000001 -1.22 0.20375000000000001 -5.1537500000000005 -18.052500000000002 -8.6575 -18.052500000000002 -2.0524999999999998 0 1.7175000000000002 19.798750000000002 0.8699999999999999 20.06875 -0.8462500000000001 0.27125 -4.7562500000000005 -13.165 -7.36625 -12.215 -2.6100000000000003 0.94875 0.90875 13.161249999999999 0.19625 13.363750000000001 -0.7124999999999999 0.20375000000000001 -3.4499999999999997 -7.534999999999999 -4.975 -6.89 -1.525 0.64375 0.15875 8.2125 0 9.165Z" stroke-width="1.25"></path>
</svg>