<svg xmlns="http://www.w3.org/2000/svg" fill="none" viewBox="0 0 30 30" id="Apple-Podcast-Logo--Streamline-Logos" height="30" width="30">
  <desc>
    Apple Podcast Logo Streamline Icon: https://streamlinehq.com
  </desc>
  <path fill="#000000" d="M11.875 19.375c0 -1.5 1.25 -2.5 3.125 -2.5s3.125 1 3.125 2.5C18.125 22.5 17.5 28.75 15 28.75s-3.125 -6.25 -3.125 -9.375Z" stroke-width="1.25"></path>
  <path fill="#000000" fill-rule="evenodd" d="M4.0625 13.75a10.9375 10.9375 0 1 1 15.64125 9.8775 21.835 21.835 0 0 1 -0.41875 2.2c4.96875 -1.7625 8.5275 -6.50375 8.5275 -12.0775C27.8125 6.675 22.075 0.9375 15 0.9375S2.1875 6.675 2.1875 13.75c0 5.5737499999999995 3.55875 10.31625 8.5275 12.07875l-0.0375 -0.15625a21.85125 21.85125 0 0 1 -0.38125 -2.045A10.9375 10.9375 0 0 1 4.0625 13.75Z" clip-rule="evenodd" stroke-width="1.25"></path>
  <path fill="#000000" fill-rule="evenodd" d="M8.4375 13.75a6.5625 6.5625 0 1 1 11.39875 4.43625c0.10749999999999998 0.37625 0.16375 0.775 0.16375 1.18875 0 0.36 -0.0075 0.76125 -0.025 1.19125a8.4375 8.4375 0 1 0 -9.95 0c-0.0175 -0.42999999999999994 -0.025 -0.83125 -0.025 -1.19125 0 -0.41375 0.056249999999999994 -0.8125 0.16375 -1.18875A6.53875 6.53875 0 0 1 8.4375 13.75Z" clip-rule="evenodd" stroke-width="1.25"></path>
  <path fill="#000000" d="M12.1875 12.8125a2.8125 2.8125 0 1 0 5.625 0 2.8125 2.8125 0 1 0 -5.625 0" stroke-width="1.25"></path>
</svg>