<svg xmlns="http://www.w3.org/2000/svg" fill="none" viewBox="0 0 30 30" id="Bandcamp-Logo-1--Streamline-Logos" height="30" width="30">
  <desc>
    Bandcamp Logo 1 Streamline Icon: https://streamlinehq.com
  </desc>
  <path fill="#000000" fill-rule="evenodd" d="m5.625 10.625 -4.375 8.75h10.625L15.9375 11.25v8.125h1.875v-0.68125a2.9 2.9 0 0 0 1.875 0.68125c1.8399999999999999 0 3.125 -1.6600000000000001 3.125 -3.4375 0 1.7774999999999999 1.2850000000000001 3.4375 3.125 3.4375 1.50875 0 2.645 -1.1175 3.005 -2.5H26.9375c-0.24875000000000003 0.4025 -0.6425000000000001 0.625 -1 0.625 -0.57625 0 -1.25 -0.5775 -1.25 -1.5625s0.6737500000000001 -1.5625 1.25 -1.5625c0.3575 0 0.75125 0.22249999999999998 1 0.625h2.005c-0.36 -1.3825 -1.49625 -2.5 -3.005 -2.5 -1.8399999999999999 0 -3.125 1.6600000000000001 -3.125 3.4375 0 -1.7774999999999999 -1.2850000000000001 -3.4375 -3.125 -3.4375a2.9 2.9 0 0 0 -1.875 0.68125V10.625H5.625Zm12.8125 5.3125c0 -0.9850000000000001 0.6737500000000001 -1.5625 1.25 -1.5625 0.57625 0 1.25 0.5775 1.25 1.5625s-0.6737500000000001 1.5625 -1.25 1.5625c-0.57625 0 -1.25 -0.5775 -1.25 -1.5625Z" clip-rule="evenodd" stroke-width="1.25"></path>
</svg>