<svg xmlns="http://www.w3.org/2000/svg" fill="none" viewBox="0 0 30 30" id="Bbc-Iplayer-Logo-1--Streamline-Logos" height="30" width="30">
  <desc>
    Bbc Iplayer Logo 1 Streamline Icon: https://streamlinehq.com
  </desc>
  <path fill="#000000" d="M6.25 1.25a1.875 1.875 0 0 0 -1.875 1.875v6.25h7.5v-0.98a0.625 0.625 0 0 1 1.0374999999999999 -0.46875l7.487500000000001 6.6049999999999995a0.625 0.625 0 0 1 0 0.9375l-7.487500000000001 6.6049999999999995a0.625 0.625 0 0 1 -1.0374999999999999 -0.46875V12.5h-7.5v14.375A1.875 1.875 0 0 0 6.25 28.75h5.765000000000001a1.875 1.875 0 0 0 1.2650000000000001 -0.49l11.99375 -10.9525a3.125 3.125 0 0 0 0 -4.615l-11.99375 -10.9525A1.875 1.875 0 0 0 12.015 1.25H6.25Z" stroke-width="1.25"></path>
</svg>