<svg xmlns="http://www.w3.org/2000/svg" fill="none" viewBox="0 0 30 30" id="Button-Fast-Forward-1--Streamline-Core" height="30" width="30">
  <desc>
    Button Fast Forward 1 Streamline Icon: https://streamlinehq.com
  </desc>
  <g id="button-fast-forward-1--button-controls-fast-forward-movies-television-video-tv">
    <path id="Union" fill="#000000" fill-rule="evenodd" d="M13.922142857142857 12.63 2.7214285714285715 5.194285714285714a1.7785714285714285 1.7785714285714285 0 0 0 -1.9714285714285715 0.12 1.7635714285714283 1.7635714285714283 0 0 0 -0.7499999999999999 1.3885714285714286v16.54285714285714l0 0.0064285714285714285c0 1.3671428571428572 1.575 2.25 2.7214285714285715 1.5514285714285714l11.200714285714286 -7.390714285714285 0 5.832857142857143 0 0.004285714285714286c0 1.3692857142857142 1.5728571428571427 2.2542857142857144 2.7214285714285715 1.5535714285714284l12.572142857142858 -8.297142857142857c1.0457142857142856 -0.6771428571428572 1.0457142857142856 -2.286428571428571 0 -2.9657142857142853L16.64357142857143 5.194285714285714a1.7828571428571427 1.7828571428571427 0 0 0 -1.9714285714285715 0.12 1.7635714285714283 1.7635714285714283 0 0 0 -0.7499999999999999 1.3885714285714286l0 5.927142857142857Z" clip-rule="evenodd" stroke-width="2.1429"></path>
  </g>
</svg>