<svg xmlns="http://www.w3.org/2000/svg" fill="none" viewBox="0 0 30 30" id="Adobe-Animate-Logo--Streamline-Logos" height="30" width="30">
  <desc>
    Adobe Animate Logo Streamline Icon: https://streamlinehq.com
  </desc>
  <path fill="#000000" fill-rule="evenodd" d="M0.9375 5.8125a4.875 4.875 0 0 1 4.875 -4.875h18.375a4.875 4.875 0 0 1 4.875 4.875v18.375a4.875 4.875 0 0 1 -4.875 4.875H5.8125a4.875 4.875 0 0 1 -4.875 -4.875V5.8125Zm4.875 -3a3 3 0 0 0 -3 3v18.375a3 3 0 0 0 3 3h18.375a3 3 0 0 0 3 -3V5.8125a3 3 0 0 0 -3 -3H5.8125ZM4.39 20.590000000000003l3.9924999999999997 -11.41v-0.8250000000000001h3.1875l4.4174999999999995 12.235H13.25l-1.04 -2.8587499999999997H7.88625l-0.96875 2.8587499999999997H4.39Zm4.18125 -5.29125H11.5L10.0375 10.5275l-1.4649999999999999 4.77125Zm8.75 5.29125h2.57125v-6.6625c0.185 -0.195 0.76625 -0.5850000000000001 1.6075 -0.5850000000000001 1.05125 0 1.4612500000000002 0.8475 1.4612500000000002 1.375v5.8725000000000005h2.54125v-5.873749999999999c0.05 -1.2375 -0.485 -3.7112499999999997 -3.00875 -3.7112499999999997 -1.8162500000000001 0 -2.8062500000000004 0.90625 -2.8062500000000004 0.90625s0 -0.70125 -0.23375 -0.70125h-2.1325v9.379999999999999Z" clip-rule="evenodd" stroke-width="1.25"></path>
</svg>