<svg xmlns="http://www.w3.org/2000/svg" fill="none" viewBox="0 0 30 30" id="Button-Play--Streamline-Core" height="30" width="30">
  <desc>
    Button Play Streamline Icon: https://streamlinehq.com
  </desc>
  <g id="button-play--button-television-buttons-movies-play-tv-video-controls">
    <path id="Union" fill="#000000" fill-rule="evenodd" d="M5.734135714285714 0.04106785714285714c-0.6337714285714287 0 -1.2569357142857143 0.16154464285714284 -1.810692857142857 0.4691742857142857 -0.5638714285714285 0.28744071428571427 -1.0398214285714287 0.7219199999999999 -1.3773642857142856 1.2577071428571427 -0.3424071428571428 0.5434864285714285 -0.5292942857142857 1.1704435714285715 -0.5403621428571428 1.812700714285714l-0.0001607142857142857 0V26.442H2.005397142857143l0.0003192857142857143 0.01842857142857143c0.011067857142857143 0.6422142857142857 0.197955 1.2692142857142859 0.5403621428571428 1.812642857142857 0.33754285714285714 0.5359285714285714 0.8134928571428571 0.9702857142857142 1.3773642857142856 1.2578571428571428 0.5537571428571428 0.30749999999999994 1.1769214285714285 0.4690714285714286 1.810692857142857 0.4690714285714286 0.6427499999999999 0 1.274592857142857 -0.16607142857142856 1.8342 -0.4823571428571428 0.012321428571428572 -0.006857142857142858 0.02449285714285714 -0.014142857142857143 0.036514285714285714 -0.02164285714285714l18.492364285714288 -11.437392857142855c0.5607857142857142 -0.2826214285714286 1.034142857142857 -0.7131857142857143 1.368857142857143 -1.2456428571428573 0.3452142857142857 -0.5498357142857142 0.5286428571428571 -1.1859642857142856 0.5286428571428571 -1.835292857142857 0 -0.6493071428571429 -0.1834285714285714 -1.2854571428571429 -0.5286428571428571 -1.8352714285714284 -0.3349285714285714 -0.5330142857142857 -0.809142857142857 -0.9639428571428571 -1.3705714285714283 -1.2465428571428572L7.601807142857142 0.5431392857142857c-0.011035714285714286 -0.0067714285714285715 -0.022199999999999998 -0.013343571428571429 -0.03347142857142857 -0.01971214285714286 -0.5596071428571429 -0.3161974285714285 -1.19145 -0.4823592857142857 -1.8342 -0.4823592857142857Z" clip-rule="evenodd" stroke-width="2.1429"></path>
  </g>
</svg>