<svg xmlns="http://www.w3.org/2000/svg" fill="none" viewBox="0 0 30 30" id="Chrome--Streamline-Core" height="30" width="30">
  <desc>
    Chrome Streamline Icon: https://streamlinehq.com
  </desc>
  <g id="chrome">
    <path id="Subtract" fill="#000000" fill-rule="evenodd" d="M29.465142857142858 15.000042857142857c0 7.971385714285714 -6.447857142857142 14.436599999999999 -14.412407142857143 14.4651l6.053142857142857 -10.484399999999999c0.7478357142857143 -1.1447357142857142 1.1826214285714285 -2.5126285714285714 1.1826214285714285 -3.98205 0 -1.3779000000000001 -0.3822857142857143 -2.6665285714285716 -1.0465285714285713 -3.7655785714285717h7.004528571428572c0.24321428571428572 0 0.47464285714285714 -0.04947857142857143 0.6852857142857142 -0.1389 0.3475714285714286 1.24245 0.5333571428571429 2.5524428571428572 0.5333571428571429 3.905828571428571Zm-1.959 -7.273735714285714C24.999214285714285 3.4254 20.337171428571427 0.53493 15.000042857142857 0.53493c-4.159992857142857 0 -7.909842857142857 1.7560628571428571 -10.548685714285714 4.567341428571428 0.13461428571428571 0.11532857142857142 0.2522785714285714 0.2550428571428571 0.3459428571428571 0.4172785714285714l3.638464285714286 6.301971428571429c1.1806285714285714 -2.4343071428571426 3.6757714285714282 -4.1127 6.5629285714285714 -4.1127 0.17104285714285714 0 0.3407142857142857 0.005892857142857142 0.5088214285714285 0.017485714285714285h11.99862857142857ZM0.53493 15.000042857142857c0 6.844885714285714 4.7542414285714285 12.579385714285714 11.140705714285714 14.081314285714285 0.031478571428571425 -0.18107142857142858 0.09475714285714286 -0.3595714285714286 0.19195714285714285 -0.528l3.62655 -6.281357142857142c-0.1637357142857143 0.01092857142857143 -0.32895 0.0165 -0.49545 0.0165 -2.6005714285714285 0 -4.8831 -1.3616785714285713 -6.173421428571429 -3.411 -0.058307142857142856 -0.06992142857142856 -0.11145 -0.1457785714285714 -0.15852857142857144 -0.22733571428571428L2.426978571428571 7.842578571428572C1.2228942857142857 9.953142857142858 0.53493 12.396257142857142 0.53493 15.000042857142857Zm17.985741428571426 2.0298214285714287c0.026507142857142858 -0.0459 0.05494285714285714 -0.09002142857142857 0.08513571428571429 -0.1322785714285714 0.29912142857142854 -0.5670428571428572 0.4684714285714286 -1.2132 0.4684714285714286 -1.8988928571428572 0 -2.2508785714285713 -1.8247071428571429 -4.075585714285714 -4.075585714285714 -4.075585714285714 -2.2508785714285713 0 -4.075585714285714 1.8247071428571429 -4.075585714285714 4.075585714285714 0 2.2508785714285713 1.8247071428571429 4.075585714285714 4.075585714285714 4.075585714285714 1.4048142857142858 0 2.6436214285714286 -0.7107642857142856 3.3764142857142856 -1.7922857142857143l0.14556428571428573 -0.2521285714285714Z" clip-rule="evenodd" stroke-width="2.1429"></path>
  </g>
</svg>