<svg xmlns="http://www.w3.org/2000/svg" fill="none" viewBox="0 0 30 30" id="Cinema-4d-Logo--Streamline-Logos" height="30" width="30">
  <desc>
    Cinema 4d Logo Streamline Icon: https://streamlinehq.com
  </desc>
  <path fill="#000000" fill-rule="evenodd" d="M28.75 15c0 7.59375 -6.15625 13.75 -13.75 13.75S1.25 22.59375 1.25 15 7.40625 1.25 15 1.25c3.27375 0 5.237500000000001 0.655 5.237500000000001 2.6187500000000004 0 1.805 -2.985 2.8137499999999998 -6.2124999999999995 3.9050000000000002 -2.6262499999999998 0.8875 -5.4125 1.82875 -6.8825 3.2975 -3.27375 3.2750000000000004 -2.6187500000000004 8.5125 0.655 11.78625 3.2750000000000004 3.27375 7.8575 3.27375 11.13125 0 1.4449999999999998 -1.44625 2.125 -4.16875 2.77125 -6.757499999999999 0.8175 -3.2750000000000004 1.5825 -6.3375 3.77625 -6.3375C28.12125 9.7625 28.75 13.165 28.75 15Zm-7.3012500000000005 -11.690000000000001a10.035 10.035 0 0 1 5.3125 5.4087499999999995 3.92 3.92 0 0 0 -1.2850000000000001 -0.20625000000000002c-1.63625 0 -2.6675 1.07125 -3.3125 2.225 -0.63125 1.13375 -1.0525 2.6125 -1.4175 4.0325 -0.09125 0.35624999999999996 -0.18 0.71 -0.2675 1.06 -0.2775 1.1125 -0.54875 2.19625 -0.8837499999999999 3.205 -0.44499999999999995 1.33375 -0.94375 2.3325 -1.55 2.9375a8.2725 8.2725 0 0 1 -0.57875 0.5275A10 10 0 0 1 7.5 12.555a6.2124999999999995 6.2124999999999995 0 0 1 0.52625 -0.6c0.63875 -0.6375 1.6775000000000002 -1.2175 3.0225 -1.775 1.055 -0.4375 2.19625 -0.82375 3.3550000000000004 -1.2149999999999999l0.9199999999999999 -0.3125c1.41875 -0.48750000000000004 2.86625 -1.0137500000000002 3.9625 -1.6600000000000001 1.045 -0.61625 2.20125 -1.59375 2.20125 -3.1237500000000002 0 -0.19 -0.0125 -0.37625 -0.03875 -0.55875Z" clip-rule="evenodd" stroke-width="1.25"></path>
</svg>