<svg xmlns="http://www.w3.org/2000/svg" fill="none" viewBox="0 0 30 30" id="Controller--Streamline-Core" height="30" width="30">
  <desc>
    Controller Streamline Icon: https://streamlinehq.com
  </desc>
  <g id="controller--remote-quadcopter-drones-flying-drone-control-controller-technology-fly">
    <path id="Subtract" fill="#000000" fill-rule="evenodd" d="M23.671928571428573 2.1236314285714286c0 -0.8876014285714287 -0.7195714285714285 -1.6071428571428572 -1.6071428571428572 -1.6071428571428572 -0.8876785714285714 0 -1.6072285714285715 0.7195414285714284 -1.6072285714285715 1.6071428571428572v1.8941400000000002c0 0.2958642857142857 -0.23985 0.5357142857142857 -0.5357142857142857 0.5357142857142857H17.142835714285713c-2.0710714285714285 0 -3.75 1.6789285714285713 -3.75 3.75v1.8941785714285715H8.968114285714286c-3.2756785714285717 0 -6.027514285714285 2.4630214285714285 -6.389271428571429 5.7186642857142855L1.680837857142857 23.998499999999996c-0.3251057142857143 2.9258571428571427 1.9652764285714284 5.484857142857143 4.909240714285715 5.484857142857143 1.8709285714285713 0 3.581271428571428 -1.0570714285714287 4.417992857142857 -2.7304285714285714l0.7776214285714286 -1.5552857142857142h6.428571428571429l0.7776214285714286 1.5552857142857142c0.8366999999999999 1.673357142857143 2.547042857142857 2.7304285714285714 4.417971428571429 2.7304285714285714 2.9440714285714282 0 5.234357142857142 -2.5589999999999997 4.909285714285714 -5.484857142857143l-0.8980714285714285 -8.082171428571428c-0.3617142857142857 -3.255642857142857 -3.1135714285714284 -5.7186642857142855 -6.389228571428571 -5.7186642857142855H16.60712142857143v-1.8941785714285715c0 -0.2958642857142857 0.23985 -0.5357142857142857 0.5357142857142857 -0.5357142857142857h2.7790071428571426c2.071157142857143 0 3.7500857142857145 -1.67895 3.7500857142857145 -3.75V2.1236314285714286ZM9.375 14.215521428571428c0.7396714285714285 0 1.3392857142857142 0.5996142857142858 1.3392857142857142 1.3392857142857142v1.1607642857142857h1.160892857142857c0.7396714285714285 0 1.3392857142857142 0.5996142857142858 1.3392857142857142 1.3392857142857142s-0.5996142857142858 1.3392857142857142 -1.3392857142857142 1.3392857142857142H10.714285714285714v1.1606571428571428c0 0.7396714285714285 -0.5996142857142858 1.3392 -1.3392857142857142 1.3392s-1.3392857142857142 -0.5995285714285713 -1.3392857142857142 -1.3392V19.394142857142857h-1.16055c-0.7396499999999999 0 -1.3392857142857142 -0.5996142857142858 -1.3392857142857142 -1.3392857142857142s0.5996357142857143 -1.3392857142857142 1.3392857142857142 -1.3392857142857142H8.035714285714285v-1.1607642857142857c0 -0.7396714285714285 0.5996142857142858 -1.3392857142857142 1.3392857142857142 -1.3392857142857142ZM19.8549 20.73342857142857c0.7396714285714285 0 1.3392857142857142 -0.5996142857142858 1.3392857142857142 -1.3392857142857142s-0.5996142857142858 -1.3392857142857142 -1.3392857142857142 -1.3392857142857142c-0.7396499999999999 0 -1.3392857142857142 0.5996142857142858 -1.3392857142857142 1.3392857142857142s0.5996357142857143 1.3392857142857142 1.3392857142857142 1.3392857142857142Zm4.017814285714286 -4.659642857142857c0 0.7396714285714285 -0.5995714285714285 1.3392857142857142 -1.3392857142857142 1.3392857142857142s-1.339242857142857 -0.5996142857142858 -1.339242857142857 -1.3392857142857142 0.5995285714285713 -1.3392857142857142 1.339242857142857 -1.3392857142857142 1.3392857142857142 0.5996142857142858 1.3392857142857142 1.3392857142857142Z" clip-rule="evenodd" stroke-width="2.1429"></path>
  </g>
</svg>