<svg xmlns="http://www.w3.org/2000/svg" fill="none" viewBox="0 0 30 30" id="Crunchyroll-Logo--Streamline-Logos" height="30" width="30">
  <desc>
    Crunchyroll Logo Streamline Icon: https://streamlinehq.com
  </desc>
  <path fill="#000000" fill-rule="evenodd" d="M28.75 15c0 0.32625000000000004 -0.0125 0.65 -0.03375 0.9725A11.875 11.875 0 0 0 5 16.875c0 6.254999999999999 4.835 11.379999999999999 10.9725 11.84125 -0.32125000000000004 0.0225 -0.64625 0.03375 -0.9725 0.03375 -7.59375 0 -13.75 -6.15625 -13.75 -13.75S7.40625 1.25 15 1.25s13.75 6.15625 13.75 13.75Zm-1.875 2.5a9.375 9.375 0 1 1 -5.324999999999999 -8.4575 4.37625 4.37625 0 1 0 5.143750000000001 6.6137500000000005c0.11875 0.59625 0.18125 1.2125 0.18125 1.84375Z" clip-rule="evenodd" stroke-width="1.25"></path>
</svg>