<svg xmlns="http://www.w3.org/2000/svg" fill="none" viewBox="0 0 30 30" id="Cryengine-Logo--Streamline-Logos" height="30" width="30">
  <desc>
    Cryengine Logo Streamline Icon: https://streamlinehq.com
  </desc>
  <path fill="#000000" d="M13.75 8.125c-3.75 1.25 -9.375 4.875 -9.375 6.875S10 19.375 13.75 20.625C9.375 20.625 1.25 17.5 1.25 15s8.125 -6.875 12.5 -6.875Z" stroke-width="1.25"></path>
  <path fill="#000000" fill-rule="evenodd" d="M25.625 15c0 -2 -5.625 -5.625 -9.375 -6.875 4.375 0 12.5 4.375 12.5 6.875 0 1.73125 -5.9875 5.32375 -10.542499999999999 5.32375 -1.3325 0 -3.7375000000000003 -0.12125 -4.47875 -0.48750000000000004A5.0024999999999995 5.0024999999999995 0 0 1 15 10a5 5 0 0 1 3.76625 8.28875C20.9125 18.026249999999997 25.29375 17 25.625 15ZM15 12.5a2.5 2.5 0 1 0 0 5 2.5 2.5 0 0 0 0 -5Z" clip-rule="evenodd" stroke-width="1.25"></path>
</svg>