<svg xmlns="http://www.w3.org/2000/svg" fill="none" viewBox="0 0 30 30" id="Deezer-Logo--Streamline-Logos" height="30" width="30">
  <desc>
    Deezer Logo Streamline Icon: https://streamlinehq.com
  </desc>
  <path fill="#000000" fill-rule="evenodd" d="M23.125 10V6.875H28.75V10h-5.625ZM8.54125 15V11.875h5.625V15h-5.625Zm0 1.875V20h5.625v-3.125h-5.625ZM1.25 25v-3.125h5.625V25H1.25Zm7.29125 0v-3.125h5.625V25h-5.625Zm7.29125 -3.125V25h5.625v-3.125h-5.625ZM23.125 25v-3.125H28.75V25h-5.625Zm0 -8.125V20H28.75v-3.125h-5.625ZM15.8325 20v-3.125h5.625V20h-5.625ZM23.125 11.875V15H28.75V11.875h-5.625Z" clip-rule="evenodd" stroke-width="1.25"></path>
</svg>