<svg xmlns="http://www.w3.org/2000/svg" fill="none" viewBox="0 0 30 30" id="Dice-5--Streamline-Core" height="30" width="30">
  <desc>
    Dice 5 Streamline Icon: https://streamlinehq.com
  </desc>
  <g id="dice-5">
    <path id="Subtract" fill="#000000" fill-rule="evenodd" d="M0 5.357142857142857C0 2.398478571428571 2.398478571428571 0 5.357142857142857 0h19.285714285714285C27.601499999999998 0 30 2.398478571428571 30 5.357142857142857v19.285714285714285c0 2.9586428571428574 -2.3985 5.357142857142857 -5.357142857142857 5.357142857142857h-19.285714285714285C2.398478571428571 30 0 27.601499999999998 0 24.642857142857142v-19.285714285714285Zm20.969871428571427 6.239914285714286c1.4202 0 2.5713428571428567 -1.1512714285714285 2.5713428571428567 -2.571428571428571s-1.151142857142857 -2.571428571428571 -2.5713428571428567 -2.571428571428571c-1.420157142857143 0 -2.571428571428571 1.1512714285714285 -2.571428571428571 2.571428571428571s1.1512714285714285 2.571428571428571 2.571428571428571 2.571428571428571Zm2.5713428571428567 9.377507142857143c0 1.4202214285714285 -1.151142857142857 2.5713642857142855 -2.5713428571428567 2.5713642857142855 -1.420157142857143 0 -2.571428571428571 -1.151142857142857 -2.571428571428571 -2.5713642857142855 0 -1.420157142857143 1.1512714285714285 -2.571428571428571 2.571428571428571 -2.571428571428571 1.4202 0 2.5713428571428567 1.1512714285714285 2.5713428571428567 2.571428571428571ZM14.999978571428572 17.575971428571428c1.420157142857143 0 2.571428571428571 -1.1512499999999999 2.571428571428571 -2.571428571428571 0 -1.420157142857143 -1.1512714285714285 -2.571428571428571 -2.571428571428571 -2.571428571428571s-2.571428571428571 1.1512714285714285 -2.571428571428571 2.571428571428571c0 1.4201785714285713 1.1512714285714285 2.571428571428571 2.571428571428571 2.571428571428571ZM11.601642857142858 9.025628571428571c0 1.420157142857143 -1.1512714285714285 2.571428571428571 -2.571428571428571 2.571428571428571s-2.571428571428571 -1.1512714285714285 -2.571428571428571 -2.571428571428571 1.1512714285714285 -2.571428571428571 2.571428571428571 -2.571428571428571 2.571428571428571 1.1512714285714285 2.571428571428571 2.571428571428571Zm-2.571428571428571 14.520299999999999c1.420157142857143 0 2.571428571428571 -1.151142857142857 2.571428571428571 -2.5713642857142855 0 -1.420157142857143 -1.1512714285714285 -2.571428571428571 -2.571428571428571 -2.571428571428571s-2.571428571428571 1.1512714285714285 -2.571428571428571 2.571428571428571c0 1.4202214285714285 1.1512714285714285 2.5713642857142855 2.571428571428571 2.5713642857142855Z" clip-rule="evenodd" stroke-width="2.1429"></path>
  </g>
</svg>