<svg xmlns="http://www.w3.org/2000/svg" fill="none" viewBox="0 0 30 30" id="Disney-Plus-Logo--Streamline-Logos" height="30" width="30">
  <desc>
    Disney Plus Logo Streamline Icon: https://streamlinehq.com
  </desc>
  <path fill="#000000" fill-rule="evenodd" d="M3.5749999999999997 9.8025A0.9375 0.9375 0 0 1 3.125 11.5625c-0.47125 0 -1.04125 -0.04625 -1.48875 -0.31625000000000003a1.42375 1.42375 0 0 1 -0.615 -0.73125 1.57 1.57 0 0 1 -0.03375 -0.925c0.2 -0.8087500000000001 0.90875 -1.225 1.5074999999999998 -1.4375 0.635 -0.22249999999999998 1.4274999999999998 -0.32125000000000004 2.275 -0.3325 1.70625 -0.0225 3.8674999999999997 0.30874999999999997 5.9925 0.9750000000000001 2.125 0.665 4.28375 1.6875 5.9475 3.0949999999999998 1.6700000000000002 1.4124999999999999 2.90125 3.2725 2.9775 5.58 0.03375 1.045 -0.21499999999999997 1.9575 -0.71875 2.71125 -0.5 0.7474999999999999 -1.21 1.28125 -2.0075000000000003 1.64625 -1.57 0.72125 -3.5875000000000004 0.84375 -5.495 0.63125a16.525000000000002 16.525000000000002 0 0 1 -1.1687500000000002 -0.17250000000000001l0.0125 0.1325a0.9375 0.9375 0 0 1 -1.8687500000000001 0.1625c-0.02375 -0.2625 -0.043750000000000004 -0.5187499999999999 -0.0625 -0.76625a13.131250000000001 13.131250000000001 0 0 1 -2.25375 -0.9225c-0.7374999999999999 -0.3925 -1.4000000000000001 -0.8624999999999999 -1.8837499999999998 -1.4074999999999998 -0.48375 -0.545 -0.8462500000000001 -1.2375 -0.8025 -2.0374999999999996 0.0375 -0.6737500000000001 0.515 -1.10125 0.875 -1.3375000000000001 0.3875 -0.2525 0.8775 -0.44125 1.3850000000000002 -0.5874999999999999 0.75875 -0.21999999999999997 1.67875 -0.37625 2.6350000000000002 -0.47125 0.0225 -0.44625 0.0475 -0.91125 0.075 -1.40375l0.03 -0.5725a0.9375 0.9375 0 0 1 1.8725 0.1l-0.03 0.56125 -0.065 1.21125c1.0262499999999999 -0.0125 2.04125 0.045 2.9 0.1875 0.54625 0.09125 1.07 0.22499999999999998 1.50625 0.41875 0.4025 0.17875 0.90875 0.49 1.1400000000000001 1.045 0.16125 0.3875 0.22749999999999998 0.79375 0.15 1.19625a1.75625 1.75625 0 0 1 -0.53625 0.9525c-0.45375 0.42500000000000004 -1.05625 0.5825 -1.4349999999999998 0.6375a0.9375 0.9375 0 0 1 -0.265 -1.8562500000000002c0.08875 -0.0125 0.1875 -0.0375 0.2725 -0.07a0.68 0.68 0 0 0 0.11249999999999999 -0.05499999999999999 0.49625 0.49625 0 0 0 -0.01 -0.03125 1.0050000000000001 1.0050000000000001 0 0 0 -0.1925 -0.10625000000000001 4.54625 4.54625 0 0 0 -1.0525 -0.28125c-0.75125 -0.125 -1.6900000000000002 -0.17875 -2.67 -0.16125 -0.03375 1.1500000000000001 -0.03375 2.2475 0.028749999999999998 3.525 0.49375 0.10625000000000001 1 0.19 1.50875 0.24625000000000002 1.7399999999999998 0.19375 3.37 0.05 4.50625 -0.47125 0.555 -0.255 0.9625 -0.5862499999999999 1.23 -0.98375 0.2625 -0.3925 0.42500000000000004 -0.9075 0.4025 -1.60875 -0.052500000000000005 -1.615 -0.90625 -3.01875 -2.3125 -4.21 -1.4149999999999998 -1.19625 -3.325 -2.11875 -5.2975 -2.7375 -1.9700000000000002 -0.6174999999999999 -3.9325 -0.9075 -5.4087499999999995 -0.8875a7.13125 7.13125 0 0 0 -1.2175 0.10625000000000001Zm4.6825 7.1425c-0.025 0.93125 -0.027499999999999997 1.84375 0.0075 2.8512500000000003a10.37375 10.37375 0 0 1 -1.2587499999999998 -0.55875c-0.61875 -0.33 -1.07625 -0.675 -1.3625 -0.9962500000000001 -0.20500000000000002 -0.23125 -0.29125 -0.41375 -0.32 -0.55l0.013749999999999998 -0.01c0.165 -0.10749999999999998 0.45375 -0.235 0.88125 -0.35874999999999996 0.5625 -0.1625 1.2687499999999998 -0.29000000000000004 2.03875 -0.3775Zm-3.01625 0.8125 0.00875 -0.01 -0.00875 0.00875Zm18.825 2.7824999999999998c0.07250000000000001 -0.7875 0.10749999999999998 -1.46625 0.10250000000000001 -2.1025H21.875v-1.875h2.15a23.55 23.55 0 0 0 -0.55625 -2.5737500000000004l1.8125 -0.47750000000000004c0.30625 1.1625 0.51625 2.1225 0.6375 3.0512499999999996H28.75v1.875h-2.70625c0.005 0.6925000000000001 -0.0325 1.42875 -0.10999999999999999 2.2725l-1.8675 -0.17Z" clip-rule="evenodd" stroke-width="1.25"></path>
</svg>