<svg xmlns="http://www.w3.org/2000/svg" fill="none" viewBox="0 0 30 30" id="Epic-Games-Logo--Streamline-Logos" height="30" width="30">
  <desc>
    Epic Games Logo Streamline Icon: https://streamlinehq.com
  </desc>
  <path fill="#000000" fill-rule="evenodd" d="M5 1.25a1.875 1.875 0 0 0 -1.875 1.875v20a0.625 0.625 0 0 0 0.37124999999999997 0.57125l11.25 5a0.625 0.625 0 0 0 0.5075000000000001 0l11.25 -5a0.625 0.625 0 0 0 0.37124999999999997 -0.57125v-20A1.875 1.875 0 0 0 25 1.25H5Zm12.8125 14.6875h-1.875v-10.625h1.875v10.625ZM10 23.125l5 2.5 5 -2.5H10ZM10 5.3125H6.5625v10.625H10v-1.875H8.4375v-2.5H10v-1.875H8.4375v-2.5H10v-1.875Zm3.125 0H10.9375v10.625h1.875v-3.125h0.3125a2.1875 2.1875 0 0 0 2.1875 -2.1875V7.5a2.1875 2.1875 0 0 0 -2.1875 -2.1875Zm0 5.625h-0.3125v-3.75h0.3125a0.3125 0.3125 0 0 1 0.3125 0.3125v3.125a0.3125 0.3125 0 0 1 -0.3125 0.3125Zm5.3125 -4.0625c0 -0.8624999999999999 0.7000000000000001 -1.5625 1.5625 -1.5625h1.875c0.8624999999999999 0 1.5625 0.7000000000000001 1.5625 1.5625v2.5h-1.875V7.1875h-1.25v6.875h1.25V11.875h1.875v2.5c0 0.8624999999999999 -0.7000000000000001 1.5625 -1.5625 1.5625H20c-0.8624999999999999 0 -1.5625 -0.7000000000000001 -1.5625 -1.5625v-7.5ZM6.875 20.3125h15v-1.875h-15v1.875Z" clip-rule="evenodd" stroke-width="1.25"></path>
</svg>