<svg xmlns="http://www.w3.org/2000/svg" fill="none" viewBox="0 0 30 30" id="F-Droid-Logo--Streamline-Logos" height="30" width="30">
  <desc>
    F Droid Logo Streamline Icon: https://streamlinehq.com
  </desc>
  <path fill="#000000" fill-rule="evenodd" d="M2.3175 1.4324999999999999a0.625 0.625 0 1 0 -0.885 0.885l2.5 2.5A1.8675 1.8675 0 0 0 3.75 5.625V10a1.875 1.875 0 0 0 1.875 1.875h18.75A1.875 1.875 0 0 0 26.25 10V5.625c0 -0.29000000000000004 -0.065 -0.5625 -0.1825 -0.8087500000000001l2.5 -2.5a0.625 0.625 0 0 0 -0.885 -0.8837499999999999l-2.5 2.5A1.8675 1.8675 0 0 0 24.375 3.75h-18.75c-0.29000000000000004 0 -0.5625 0.065 -0.8087500000000001 0.1825l-2.5 -2.5ZM9.375 10C10.41 10 11.25 9.02 11.25 7.8125S10.41 5.625 9.375 5.625 7.5 6.6049999999999995 7.5 7.8125 8.34 10 9.375 10ZM22.5 7.8125C22.5 9.02 21.66 10 20.625 10S18.75 9.02 18.75 7.8125s0.8400000000000001 -2.1875 1.875 -2.1875 1.875 0.98 1.875 2.1875ZM5.625 13.125A1.875 1.875 0 0 0 3.75 15v11.875A1.875 1.875 0 0 0 5.625 28.75h18.75a1.875 1.875 0 0 0 1.875 -1.875V15a1.875 1.875 0 0 0 -1.875 -1.875h-18.75ZM10 20.9375a5 5 0 1 1 10 0 5 5 0 0 1 -10 0Zm5 -6.25a6.25 6.25 0 1 0 0 12.5 6.25 6.25 0 0 0 0 -12.5Zm0 8.4375a2.1875 2.1875 0 1 0 -1.795 -3.4375H11.796249999999999a3.4387499999999998 3.4387499999999998 0 1 1 0 2.5h1.40875c0.395 0.56625 1.05125 0.9375 1.795 0.9375Z" clip-rule="evenodd" stroke-width="1.25"></path>
</svg>