<svg xmlns="http://www.w3.org/2000/svg" fill="none" viewBox="0 0 30 30" id="Facebook-Messenger-Logo--Streamline-Logos" height="30" width="30">
  <desc>
    Facebook Messenger Logo Streamline Icon: https://streamlinehq.com
  </desc>
  <path fill="#000000" fill-rule="evenodd" d="M1.5625 14.083749999999998C1.5625 6.967499999999999 7.6075 1.25 15 1.25s13.4375 5.717499999999999 13.4375 12.833749999999998S22.392500000000002 26.91875 15 26.91875a14.037500000000001 14.037500000000001 0 0 1 -3.6375 -0.47625l-2.575 1.935c-1.2175 0.915 -2.95375 0.045 -2.95375 -1.4749999999999999v-3.43375c-2.6237500000000002 -2.3375000000000004 -4.27125 -5.675 -4.27125 -9.385Zm6.875 3.5725000000000002 3.5349999999999997 -1.7674999999999998a1.25 1.25 0 0 1 1.06625 -0.025l4.0625 1.8062500000000001a1.25 1.25 0 0 0 1.5875 -0.5125l3.2824999999999998 -5.626250000000001a0.3125 0.3125 0 0 0 -0.41000000000000003 -0.4375l-3.53375 1.7674999999999998a1.25 1.25 0 0 1 -1.06625 0.025l-4.0625 -1.8062500000000001a1.25 1.25 0 0 0 -1.5875 0.5125l-3.2824999999999998 5.626250000000001a0.3125 0.3125 0 0 0 0.41000000000000003 0.4375Z" clip-rule="evenodd" stroke-width="1.25"></path>
</svg>