<svg xmlns="http://www.w3.org/2000/svg" fill="none" viewBox="0 0 30 30" id="Github-Logo-1--Streamline-Logos" height="30" width="30">
  <desc>
    Github Logo 1 Streamline Icon: https://streamlinehq.com
  </desc>
  <path fill="#000000" fill-rule="evenodd" d="M15 6.25c-2.595 0 -3.75 0.625 -3.75 0.625 -2.43125 -2.15 -3.9725 -2.8875 -6.875 -3.75 -1.1275 2.67125 -1.3125 4.175 -1.25 6.875C3.125 10 1.25 11.46125 1.25 16.25c0 8.27875 6.86 10.625 13.75 10.625s13.75 -2.34625 13.75 -10.625c0 -4.78875 -1.875 -6.25 -1.875 -6.25 0.0625 -2.7 -0.12375 -4.20375 -1.25 -6.875 -2.9025 0.8624999999999999 -4.4437500000000005 1.6 -6.875 3.75 0 0 -1.155 -0.625 -3.75 -0.625Zm-2.5625 7.9174999999999995C9.07125 13.774999999999999 5.39625 13.345 5 18.125c-0.53 6.3825 5.4925 6.305 9.1625 6.2575 0.29625 -0.00375 0.57625 -0.0075 0.8375 -0.0075 0.26125 0 0.54125 0.00375 0.8375 0.0075 3.67 0.0475 9.692499999999999 0.125 9.1625 -6.2575 -0.39625 -4.779999999999999 -4.07125 -4.35 -7.4375 -3.9575 -0.8987499999999999 0.10500000000000001 -1.775 0.20750000000000002 -2.5625 0.20750000000000002 -0.7875 0 -1.6637499999999998 -0.10250000000000001 -2.5625 -0.20750000000000002Zm-0.25 4.895c0 1.5537500000000002 -0.8400000000000001 2.8125 -1.875 2.8125s-1.875 -1.2587499999999998 -1.875 -2.8125S9.2775 16.25 10.3125 16.25s1.875 1.2587499999999998 1.875 2.8125Zm7.5 2.8125c1.035 0 1.875 -1.2587499999999998 1.875 -2.8125S20.7225 16.25 19.6875 16.25s-1.875 1.2587499999999998 -1.875 2.8125 0.8400000000000001 2.8125 1.875 2.8125Z" clip-rule="evenodd" stroke-width="1.25"></path>
</svg>