<svg xmlns="http://www.w3.org/2000/svg" fill="none" viewBox="0 0 30 30" id="Github-Logo-2--Streamline-Logos" height="30" width="30">
  <desc>
    Github Logo 2 Streamline Icon: https://streamlinehq.com
  </desc>
  <path fill="#000000" d="M14.995000000000001 1.605a13.732500000000002 13.732500000000002 0 0 0 -4.34 26.765c0.685 0.11875 0.9025 -0.28375 0.9025 -0.64625 0 -0.32875 0.0075 -1.23875 0 -2.3874999999999997 -3.82125 0.8275 -4.61 -1.81 -4.61 -1.81a3.63375 3.63375 0 0 0 -1.525 -2.00875c-1.24625 -0.8525 0.09375 -0.83625 0.09375 -0.83625a2.88375 2.88375 0 0 1 2.1037500000000002 1.41375 2.925 2.925 0 0 0 3.99625 1.1425 2.925 2.925 0 0 1 0.87125 -1.83c-3.04875 -0.34875 -6.254999999999999 -1.525 -6.254999999999999 -6.790000000000001a5.3100000000000005 5.3100000000000005 0 0 1 1.4149999999999998 -3.685 4.9275 4.9275 0 0 1 0.13375 -3.63375s1.155 -0.36874999999999997 3.775 1.41a13.0025 13.0025 0 0 1 6.87875 0c2.6275 -1.7774999999999999 3.7725 -1.41 3.7725 -1.41 0.5062500000000001 1.1500000000000001 0.555 2.45 0.13625 3.63375a5.303750000000001 5.303750000000001 0 0 1 1.4124999999999999 3.6875c0 5.27875 -3.2112499999999997 6.4375 -6.27 6.775a3.255 3.255 0 0 1 0.94 2.5324999999999998v3.80125c0 0.3675 0.22125 0.7737499999999999 0.91875 0.64a13.732500000000002 13.732500000000002 0 0 0 -4.35 -26.76375Z" stroke-width="1.25"></path>
</svg>