<svg xmlns="http://www.w3.org/2000/svg" fill="none" viewBox="0 0 30 30" id="Adobe-Illustrator-Logo--Streamline-Logos" height="30" width="30">
  <desc>
    Adobe Illustrator Logo Streamline Icon: https://streamlinehq.com
  </desc>
  <path fill="#000000" fill-rule="evenodd" d="M0.9375 5.8125a4.875 4.875 0 0 1 4.875 -4.875h18.375a4.875 4.875 0 0 1 4.875 4.875v18.375a4.875 4.875 0 0 1 -4.875 4.875H5.8125a4.875 4.875 0 0 1 -4.875 -4.875V5.8125Zm4.875 -3a3 3 0 0 0 -3 3v18.375a3 3 0 0 0 3 3h18.375a3 3 0 0 0 3 -3V5.8125a3 3 0 0 0 -3 -3H5.8125Zm14.7475 8.0275a1.25 1.25 0 1 0 0 -2.5 1.25 1.25 0 0 0 0 2.5Zm1.25 10.375V12.186250000000001h-2.5v9.02875h2.5ZM10.0875 9.805l-3.9924999999999997 11.41h2.5275l0.96875 -2.8587499999999997h4.3225l1.04 2.8587499999999997h2.74L13.274999999999999 8.97875H10.0875v0.82625Zm3.1175 6.1187499999999995H10.276250000000001l1.4649999999999999 -4.77125 1.46375 4.77125Z" clip-rule="evenodd" stroke-width="1.25"></path>
</svg>