<svg xmlns="http://www.w3.org/2000/svg" fill="none" viewBox="0 0 30 30" id="Gog-Com-Logo--Streamline-Logos" height="30" width="30">
  <desc>
    Gog Com Logo Streamline Icon: https://streamlinehq.com
  </desc>
  <path fill="#000000" fill-rule="evenodd" d="M10.9375 6.875c0 -1.2075 0.98 -2.1875 2.1875 -2.1875h3.75c1.2075 0 2.1875 0.98 2.1875 2.1875v3.75a2.1875 2.1875 0 0 1 -2.1875 2.1875h-3.75A2.1875 2.1875 0 0 1 10.9375 10.625v-3.75Zm2.1875 -0.3125a0.3125 0.3125 0 0 0 -0.3125 0.3125v3.75c0 0.17250000000000001 0.14 0.3125 0.3125 0.3125h3.75a0.3125 0.3125 0 0 0 0.3125 -0.3125v-3.75a0.3125 0.3125 0 0 0 -0.3125 -0.3125h-3.75ZM9.6875 20c0 -1.2075 0.98 -2.1875 2.1875 -2.1875h3.75c1.2075 0 2.1875 0.98 2.1875 2.1875v3.75a2.1875 2.1875 0 0 1 -2.1875 2.1875h-3.75A2.1875 2.1875 0 0 1 9.6875 23.75v-3.75Zm2.1875 -0.3125a0.3125 0.3125 0 0 0 -0.3125 0.3125v3.75c0 0.17250000000000001 0.14 0.3125 0.3125 0.3125h3.75a0.3125 0.3125 0 0 0 0.3125 -0.3125v-3.75a0.3125 0.3125 0 0 0 -0.3125 -0.3125h-3.75Zm-8.75 -1.875A2.1875 2.1875 0 0 0 0.9375 20v3.75c0 1.2075 0.98 2.1875 2.1875 2.1875h5v-1.875h-5a0.3125 0.3125 0 0 1 -0.3125 -0.3125v-3.75a0.3125 0.3125 0 0 1 0.3125 -0.3125h5v-1.875h-5Zm18.125 1.875a0.3125 0.3125 0 0 0 -0.3125 0.3125v5.625h-1.875V20c0 -1.2075 0.98 -2.1875 2.1875 -2.1875h7.8125v7.8125h-1.875v-5.9375H25v5.9375h-1.875v-5.9375H21.25ZM0.9375 6.875c0 -1.2075 0.98 -2.1875 2.1875 -2.1875h3.75c1.2075 0 2.1875 0.98 2.1875 2.1875V13.75a2.1875 2.1875 0 0 1 -2.1875 2.1875H1.25v-1.875h5.625a0.3125 0.3125 0 0 0 0.3125 -0.3125V6.875a0.3125 0.3125 0 0 0 -0.3125 -0.3125h-3.75a0.3125 0.3125 0 0 0 -0.3125 0.3125v3.75c0 0.17250000000000001 0.14 0.3125 0.3125 0.3125H6.25v1.875H3.125A2.1875 2.1875 0 0 1 0.9375 10.625v-3.75ZM23.125 4.6875a2.1875 2.1875 0 0 0 -2.1875 2.1875v3.75c0 1.2075 0.98 2.1875 2.1875 2.1875H26.25v-1.875h-3.125a0.3125 0.3125 0 0 1 -0.3125 -0.3125v-3.75a0.3125 0.3125 0 0 1 0.3125 -0.3125h3.75a0.3125 0.3125 0 0 1 0.3125 0.3125V13.75a0.3125 0.3125 0 0 1 -0.3125 0.3125H21.25v1.875h5.625A2.1875 2.1875 0 0 0 29.0625 13.75V6.875a2.1875 2.1875 0 0 0 -2.1875 -2.1875h-3.75Z" clip-rule="evenodd" stroke-width="1.25"></path>
</svg>