<svg xmlns="http://www.w3.org/2000/svg" fill="none" viewBox="0 0 30 30" id="Google-Cast-Logo--Streamline-Logos" height="30" width="30">
  <desc>
    Google Cast Logo Streamline Icon: https://streamlinehq.com
  </desc>
  <path fill="#000000" fill-rule="evenodd" d="M3.75 8.75a1.25 1.25 0 0 1 1.25 -1.25h20a1.25 1.25 0 0 1 1.25 1.25v14.375a1.25 1.25 0 0 1 -1.25 1.25h-7.5v2.5h7.5a3.75 3.75 0 0 0 3.75 -3.75V8.75a3.75 3.75 0 0 0 -3.75 -3.75H5a3.75 3.75 0 0 0 -3.75 3.75v1.875h2.5V8.75Zm-2.5 6.5625a11.5625 11.5625 0 0 1 11.5625 11.5625h1.875c0 -7.421250000000001 -6.016249999999999 -13.4375 -13.4375 -13.4375v1.875Zm0 4.375a7.1875 7.1875 0 0 1 7.1875 7.1875h1.875A9.0625 9.0625 0 0 0 1.25 17.8125v1.875Zm5 7.1875a5 5 0 0 0 -5 -5v5h5Z" clip-rule="evenodd" stroke-width="1.25"></path>
</svg>