<svg xmlns="http://www.w3.org/2000/svg" fill="none" viewBox="0 0 30 30" id="Google-Chat-Logo--Streamline-Logos" height="30" width="30">
  <desc>
    Google Chat Logo Streamline Icon: https://streamlinehq.com
  </desc>
  <path fill="#000000" fill-rule="evenodd" d="M28.75 16.25a1.875 1.875 0 0 1 -1.875 1.875h-2.5v-10A3.125 3.125 0 0 0 21.25 5H7.5V3.125A1.875 1.875 0 0 1 9.375 1.25h17.5A1.875 1.875 0 0 1 28.75 3.125V16.25ZM5.625 6.875H2.5a1.25 1.25 0 0 0 -1.25 1.25v18.8575c0 1.1125 1.34625 1.67125 2.13375 0.8837499999999999L7.5 23.75h13.75a1.25 1.25 0 0 0 1.25 -1.25v-2.5H9.375a3.75 3.75 0 0 1 -3.75 -3.75V6.875Zm16.875 11.25v-10a1.25 1.25 0 0 0 -1.25 -1.25H7.5V16.25a1.875 1.875 0 0 0 1.875 1.875H22.5Z" clip-rule="evenodd" stroke-width="1.25"></path>
</svg>