<svg xmlns="http://www.w3.org/2000/svg" fill="none" viewBox="0 0 30 30" id="Google-Home-Logo--Streamline-Logos" height="30" width="30">
  <desc>
    Google Home Logo Streamline Icon: https://streamlinehq.com
  </desc>
  <path fill="#000000" fill-rule="evenodd" d="M16.7675 2.6075a2.5 2.5 0 0 0 -3.5349999999999997 0l-10.625 10.625A2.5 2.5 0 0 0 1.875 15v6.025L18.53 4.37l-1.7625 -1.7625Zm3.08875 3.0875000000000004 -3.5349999999999997 3.5362500000000003 6.803749999999999 6.803749999999999V23.75l0 5h2.5a2.5 2.5 0 0 0 2.5 -2.5v-11.25a2.5 2.5 0 0 0 -0.7324999999999999 -1.7674999999999998l-7.53625 -7.5375000000000005ZM21.25 28.75v-5H8.75v5h12.5ZM6.875 28.75v-5.625l0 -4.44875 -5 5V26.25a2.5 2.5 0 0 0 2.5 2.5h2.5Z" clip-rule="evenodd" stroke-width="1.25"></path>
</svg>