<svg xmlns="http://www.w3.org/2000/svg" fill="none" viewBox="0 0 30 30" id="Google-Podcast-Logo--Streamline-Logos" height="30" width="30">
  <desc>
    Google Podcast Logo Streamline Icon: https://streamlinehq.com
  </desc>
  <path fill="#000000" fill-rule="evenodd" d="M15 1.25a1.875 1.875 0 0 0 -1.875 1.875V5a1.875 1.875 0 0 0 3.75 0V3.125A1.875 1.875 0 0 0 15 1.25Zm4.375 6.875a1.875 1.875 0 0 1 3.75 0V10a1.875 1.875 0 0 1 -3.75 0V8.125ZM6.875 8.75a1.875 1.875 0 1 1 3.75 0v5.625a1.875 1.875 0 0 1 -3.75 0V8.75ZM15 8.75a1.875 1.875 0 0 0 -1.875 1.875v8.75a1.875 1.875 0 0 0 3.75 0v-8.75A1.875 1.875 0 0 0 15 8.75ZM3.125 12.1875a1.875 1.875 0 0 0 -1.875 1.875v1.875a1.875 1.875 0 0 0 3.75 0v-1.875a1.875 1.875 0 0 0 -1.875 -1.875Zm3.75 7.8125a1.875 1.875 0 0 1 3.75 0v1.875a1.875 1.875 0 0 1 -3.75 0V20Zm8.125 3.125a1.875 1.875 0 0 0 -1.875 1.875v1.875a1.875 1.875 0 0 0 3.75 0V25a1.875 1.875 0 0 0 -1.875 -1.875Zm11.875 -10.9375a1.875 1.875 0 0 0 -1.875 1.875v1.875a1.875 1.875 0 0 0 3.75 0v-1.875a1.875 1.875 0 0 0 -1.875 -1.875Zm-7.5 3.4375a1.875 1.875 0 0 1 3.75 0V21.25a1.875 1.875 0 0 1 -3.75 0v-5.625Z" clip-rule="evenodd" stroke-width="1.25"></path>
</svg>