<svg xmlns="http://www.w3.org/2000/svg" fill="none" viewBox="0 0 30 30" id="Google-Stadia-Logo--Streamline-Logos" height="30" width="30">
  <desc>
    Google Stadia Logo Streamline Icon: https://streamlinehq.com
  </desc>
  <path fill="#000000" d="M4.72 17.52125c4.15375 -1.38875 9.02375 -1.58625 12.0725 -0.26125 0 0 -4.485 0.625 -8.085 2.6075a0.615 0.615 0 0 0 -0.28750000000000003 0.7162499999999999l1.00875 3.4000000000000004c0.1325 0.4475 0.6937500000000001 0.60625 1.06625 0.32375 2.8775 -2.1875 8.04625 -4.13875 13.0125 -3.4387499999999998a0.65125 0.65125 0 0 0 0.6687500000000001 -0.33375l1.78375 -3.35625a0.61 0.61 0 0 0 -0.16 -0.775C20.5 12.35625 11.537500000000001 12.3925 8.6725 12.7c5.03125 -2.38875 11.345 -2.3175 18 -0.765a0.6375 0.6375 0 0 0 0.7424999999999999 -0.39l1.2925 -3.3400000000000003a0.62125 0.62125 0 0 0 -0.36 -0.81c-4.3462499999999995 -1.60875 -9.17875 -2.1837500000000003 -13.925 -1.6512499999999999 -4.7775 0.535 -9.25875 2.16875 -12.90875 4.699999999999999a0.62125 0.62125 0 0 0 -0.21000000000000002 0.7625l2.61625 5.9675a0.6475 0.6475 0 0 0 0.8 0.34750000000000003Z" stroke-width="1.25"></path>
</svg>