<svg xmlns="http://www.w3.org/2000/svg" fill="none" viewBox="0 0 30 30" id="Google-Talk-Logo--Streamline-Logos" height="30" width="30">
  <desc>
    Google Talk Logo Streamline Icon: https://streamlinehq.com
  </desc>
  <path fill="#000000" fill-rule="evenodd" d="M1.25 12.75375C1.25 7.436249999999999 7.40625 3.125 15 3.125s13.75 4.311249999999999 13.75 9.62875c0 4.5675 -4.5424999999999995 8.39125 -10.63625 9.379999999999999 -2.0324999999999998 3.4475 -7.196249999999999 4.74125 -9.81625 4.74125 0 0 3.28875 -2.96 3.82125 -4.705C5.9075 21.2425 1.25 17.37875 1.25 12.75375Zm15.625 -7.9125S26.4925 7.1725 26.4925 12.5c0 5.324999999999999 -6.24625 7.4 -6.24625 7.4s3.975 -3.96 3.5575 -7.4C23.25125 7.92375 16.875 4.84 16.875 4.84Z" clip-rule="evenodd" stroke-width="1.25"></path>
</svg>