<svg xmlns="http://www.w3.org/2000/svg" fill="none" viewBox="0 0 30 30" id="Grooveshark-Logo--Streamline-Logos" height="30" width="30">
  <desc>
    Grooveshark Logo Streamline Icon: https://streamlinehq.com
  </desc>
  <path fill="#000000" fill-rule="evenodd" d="M15 28.75c7.59375 0 13.75 -6.15625 13.75 -13.75S22.59375 1.25 15 1.25 1.25 7.40625 1.25 15s6.15625 13.75 13.75 13.75ZM5 15a10 10 0 1 1 20 0c-0.0425 1.00875 -0.7025000000000001 2.8949999999999996 -1.82125 2.95375 -2.0300000000000002 0.10500000000000001 -3.23375 -1.58 -4.6425 -3.55375 -1.6225 -2.2712499999999998 -3.5175 -4.925 -7.26 -5.675 0.19625 3.16625 -0.8150000000000001 7.85625 -3.24 8.4675C5.612500000000001 17.805 5 15.85375 5 15Z" clip-rule="evenodd" stroke-width="1.25"></path>
</svg>