<svg xmlns="http://www.w3.org/2000/svg" fill="none" viewBox="0 0 30 30" id="Hbo-Max-Logo--Streamline-Logos" height="30" width="30">
  <desc>
    Hbo Max Logo Streamline Icon: https://streamlinehq.com
  </desc>
  <path fill="#000000" fill-rule="evenodd" d="M5 13.75V10h1.25v3.75h2.5V3.75H6.25v3.75H5V3.75H2.5v10h2.5Zm5 -10h4.0175C15.727500000000001 3.75 17.5 4.95375 17.5 6.875c0 0.74125 -0.2625 1.375 -0.68625 1.875 0.42250000000000004 0.5 0.68625 1.13375 0.68625 1.875 0 1.92125 -1.7725 3.125 -3.4825 3.125H10V3.75Zm4.0175 3.75c0.3375 0 0.60625 -0.11499999999999999 0.775 -0.25625 0.165 -0.13875 0.20750000000000002 -0.275 0.20750000000000002 -0.36874999999999997 0 -0.095 -0.0425 -0.22999999999999998 -0.20750000000000002 -0.36874999999999997a1.20875 1.20875 0 0 0 -0.775 -0.25625H12.5v1.25h1.5175ZM12.5 10h1.5175c0.3375 0 0.60625 0.11499999999999999 0.775 0.25625 0.165 0.13875 0.20750000000000002 0.275 0.20750000000000002 0.36874999999999997 0 0.095 -0.0425 0.22999999999999998 -0.20750000000000002 0.36874999999999997a1.20875 1.20875 0 0 1 -0.775 0.25625H12.5V10Zm10 -3.75a2.5 2.5 0 1 0 0 5 2.5 2.5 0 0 0 0 -5Zm-5 2.5a5 5 0 1 1 10 0 5 5 0 0 1 -10 0Zm5.725 7.53125a0.9375 0.9375 0 0 0 -1.45 1.1875l2.325 2.84375 -2.325 2.84375a0.9375 0.9375 0 0 0 1.45 1.1875l2.0875 -2.55 2.0875 2.55a0.9375 0.9375 0 0 0 1.45 -1.1875l-2.325 -2.84375 2.32625 -2.84375a0.9375 0.9375 0 0 0 -1.45 -1.1875l-2.0875 2.55 -2.0875 -2.55ZM16.875 17.8125c-1.125 0 -2.1875 1.03375 -2.1875 2.5s1.0625 2.5 2.1875 2.5 2.1875 -1.03375 2.1875 -2.5 -1.0625 -2.5 -2.1875 -2.5Zm0 -1.875c0.83125 0 1.5875 0.2625 2.21625 0.7037499999999999a0.9375 0.9375 0 0 1 1.8462500000000002 0.23375V23.75a0.9375 0.9375 0 0 1 -1.8462500000000002 0.23375 3.8200000000000003 3.8200000000000003 0 0 1 -2.21625 0.7037499999999999c-2.325 0 -4.0625 -2.045 -4.0625 -4.375s1.7374999999999998 -4.375 4.0625 -4.375Zm-4.0625 3.4375V23.75a0.9375 0.9375 0 0 1 -1.875 0v-4.375a1.5625 1.5625 0 1 0 -3.125 0V23.75a0.9375 0.9375 0 0 1 -1.875 0v-4.375a1.5625 1.5625 0 1 0 -3.125 0V23.75a0.9375 0.9375 0 0 1 -1.875 0v-4.375a3.4375 3.4375 0 0 1 5.9375 -2.35875 3.4375 3.4375 0 0 1 5.9375 2.35875ZM22.5 10a1.25 1.25 0 1 0 0 -2.5 1.25 1.25 0 0 0 0 2.5Z" clip-rule="evenodd" stroke-width="1.25"></path>
</svg>