<svg xmlns="http://www.w3.org/2000/svg" fill="none" viewBox="0 0 30 30" id="Hulu-Live-Tv-Logo--Streamline-Logos" height="30" width="30">
  <desc>
    Hulu Live Tv Logo Streamline Icon: https://streamlinehq.com
  </desc>
  <path fill="#000000" fill-rule="evenodd" d="M1.25 15.625V10h2.5v3.125h2.5a2.5 2.5 0 0 1 2.5 2.5v3.75H6.25v-3.75H3.75v3.75H1.25v-3.75Zm8.125 -2.5v3.75a2.5 2.5 0 0 0 2.5 2.5h2.5a2.5 2.5 0 0 0 2.5 -2.5v-3.75h-2.5v3.75h-2.5v-3.75h-2.5Zm11.875 3.75v-3.75h2.5v3.75h2.5v-3.75h2.5v3.75a2.5 2.5 0 0 1 -2.5 2.5h-2.5a2.5 2.5 0 0 1 -2.5 -2.5ZM17.8125 10v9.375h2.5V10h-2.5Z" clip-rule="evenodd" stroke-width="1.25"></path>
</svg>