<svg xmlns="http://www.w3.org/2000/svg" fill="none" viewBox="0 0 30 30" id="Imdb-Logo--Streamline-Logos" height="30" width="30">
  <desc>
    Imdb Logo Streamline Icon: https://streamlinehq.com
  </desc>
  <path fill="#000000" fill-rule="evenodd" d="M1.25 20V10h2.5v10H1.25Zm3.75 0V10h3.125l1.25 5 1.25 -5H13.75v10H11.25v-4.375L10 20H8.75l-1.25 -4.375V20H5Zm10 0h3.75a2.5 2.5 0 0 0 2.5 -2.5v-5a2.5 2.5 0 0 0 -2.5 -2.5h-3.75v10Zm2.5 -8.125h0.625a0.625 0.625 0 0 1 0.625 0.625v5a0.625 0.625 0 0 1 -0.625 0.625H17.5v-6.25ZM22.5 10h2.5v3.06375c0.41750000000000004 -0.3025 1.035 -0.56375 1.875 -0.56375 1.5 0 1.875 0.83375 1.875 1.25v5c0 0.41625 -0.375 1.25 -1.875 1.25 -0.8400000000000001 0 -1.4575 -0.26125 -1.875 -0.56375V20h-2.5V10Zm3.75 7.5v-2.5a0.625 0.625 0 0 0 -1.25 0v2.5a0.625 0.625 0 0 0 1.25 0Z" clip-rule="evenodd" stroke-width="1.25"></path>
</svg>