<svg xmlns="http://www.w3.org/2000/svg" fill="none" viewBox="0 0 30 30" id="Imessage-Logo--Streamline-Logos" height="30" width="30">
  <desc>
    Imessage Logo Streamline Icon: https://streamlinehq.com
  </desc>
  <path fill="#000000" d="m5.2 27.041249999999998 -0.0025 0.0025 -0.9875 0.92625 1.3450000000000002 0.15a9.73125 9.73125 0 0 0 3.3637499999999996 -0.24875000000000003c1.11375 -0.29250000000000004 2.285 -0.8599999999999999 3.0275000000000003 -1.915 0.9825 0.1925 2.005 0.29374999999999996 3.05375 0.29374999999999996 7.5 0 13.75 -5.23 13.75 -11.875S22.5 2.5 15 2.5 1.25 7.73 1.25 14.375c0 4.045 2.3325 7.581250000000001 5.835 9.712499999999999 -0.10749999999999998 0.58875 -0.47125 1.2425 -0.9037499999999999 1.8275a9.6575 9.6575 0 0 1 -0.96625 1.1125l-0.015 0.013749999999999998Z" stroke-width="1.25"></path>
</svg>