<svg xmlns="http://www.w3.org/2000/svg" fill="none" viewBox="0 0 30 30" id="Adobe-Lightroom-Logo--Streamline-Logos" height="30" width="30">
  <desc>
    Adobe Lightroom Logo Streamline Icon: https://streamlinehq.com
  </desc>
  <path fill="#000000" fill-rule="evenodd" d="M0.9375 5.8125a4.875 4.875 0 0 1 4.875 -4.875h18.375a4.875 4.875 0 0 1 4.875 4.875v18.375a4.875 4.875 0 0 1 -4.875 4.875H5.8125a4.875 4.875 0 0 1 -4.875 -4.875V5.8125Zm4.875 -3a3 3 0 0 0 -3 3v18.375a3 3 0 0 0 3 3h18.375a3 3 0 0 0 3 -3V5.8125a3 3 0 0 0 -3 -3H5.8125ZM7.5 8.75h2.5v10.625h5.625l-0.625 2.5H7.5V8.75Zm10.625 13.125V12.5h2.5v0.7000000000000001c0.86625 -0.45499999999999996 1.905 -0.7000000000000001 3.125 -0.7000000000000001v2.5c-1.0125000000000002 0 -1.69375 0.22999999999999998 -2.165 0.5325a2.9375 2.9375 0 0 0 -0.96 1.02875V21.875h-2.5Z" clip-rule="evenodd" stroke-width="1.25"></path>
</svg>