<svg xmlns="http://www.w3.org/2000/svg" fill="none" viewBox="0 0 30 30" id="Kakao-Talk-Logo--Streamline-Logos" height="30" width="30">
  <desc>
    Kakao Talk Logo Streamline Icon: https://streamlinehq.com
  </desc>
  <path fill="#000000" fill-rule="evenodd" d="M1.25 13.75c0 -6.33 6.28625 -11.25 13.75 -11.25s13.75 4.92 13.75 11.25 -6.28625 11.25 -13.75 11.25c-0.5850000000000001 0 -1.1625 -0.03 -1.72875 -0.08750000000000001l-6.0675 3.7437500000000004a0.625 0.625 0 0 1 -0.9450000000000001 -0.635l0.8525 -5.0525C3.6062499999999997 20.95875 1.25 17.606250000000003 1.25 13.75Zm3.4375 -2.5a0.9375 0.9375 0 0 1 0.9375 -0.9375h3.75a0.9375 0.9375 0 0 1 0 1.875h-0.9375v4.6875a0.9375 0.9375 0 0 1 -1.875 0V12.1875H5.625A0.9375 0.9375 0 0 1 4.6875 11.25Zm8.37375 -0.34a0.9375 0.9375 0 0 0 -1.7474999999999998 0l-2.1875 5.625a0.9375 0.9375 0 1 0 1.7474999999999998 0.68l0.25375000000000003 -0.6525000000000001h2.12l0.25375000000000003 0.6525000000000001a0.9375 0.9375 0 0 0 1.8125 -0.325 0.9375 0.9375 0 0 0 0.93625 0.9225h2.5a0.9375 0.9375 0 0 0 0.9375 -0.9375 0.9375 0.9375 0 0 0 1.875 0v-1.4874999999999998l0.235 -0.23375 1.845 2.3075a0.9375 0.9375 0 1 0 1.4649999999999999 -1.1724999999999999l-1.9762499999999998 -2.46875L25.0375 11.9125a0.9375 0.9375 0 0 0 -1.3250000000000002 -1.3250000000000002l-2.15 2.15V11.25a0.9375 0.9375 0 0 0 -1.875 0v5.625a0.9375 0.9375 0 0 0 -0.9375 -0.9375h-1.5625V11.25a0.9375 0.9375 0 0 0 -1.875 0v5.6025a0.9375 0.9375 0 0 0 -0.06375 -0.3175l-2.1875 -5.625ZM12.1875 13.8375l0.33125000000000004 0.8512500000000001h-0.6625000000000001l0.33125000000000004 -0.8500000000000001Z" clip-rule="evenodd" stroke-width="1.25"></path>
</svg>