<svg xmlns="http://www.w3.org/2000/svg" fill="none" viewBox="0 0 30 30" id="Kik-Logo-2--Streamline-Logos" height="30" width="30">
  <desc>
    Kik Logo 2 Streamline Icon: https://streamlinehq.com
  </desc>
  <path fill="#000000" fill-rule="evenodd" d="M15 1.875C7.4350000000000005 1.875 1.25 7.7225 1.25 15s6.1850000000000005 13.125 13.75 13.125c2.3775 0 4.61625 -0.57625 6.57 -1.5925 1.2025 0.745 2.5337500000000004 0.9625 3.7075000000000005 0.9375 1.2787499999999998 -0.03 2.4175 -0.35000000000000003 3.09875 -0.6475a0.625 0.625 0 0 0 -0.12875 -1.185c-0.97375 -0.195 -1.42 -0.7925 -1.615 -1.51875 -0.19625 -0.73 -0.12125 -1.57 0.02375 -2.1525A12.63375 12.63375 0 0 0 28.75 15c0 -7.2775 -6.1850000000000005 -13.125 -13.75 -13.125Zm7.5 15a1.875 1.875 0 1 1 -3.75 0 1.875 1.875 0 0 1 3.75 0Zm-11.25 -8.75a1.25 1.25 0 0 1 1.25 1.25v5.4075l2.3125 -1.98125a1.25 1.25 0 1 1 1.625 1.8975l-1.7399999999999998 1.4925 2.5124999999999997 3.0075000000000003a1.25 1.25 0 1 1 -1.91875 1.6025l-2.4925 -2.9825 -0.29874999999999996 0.25625V20a1.25 1.25 0 1 1 -2.5 0V9.375a1.25 1.25 0 0 1 1.25 -1.25Z" clip-rule="evenodd" stroke-width="1.25"></path>
</svg>