<svg xmlns="http://www.w3.org/2000/svg" fill="none" viewBox="0 0 30 30" id="Kodi-Logo--Streamline-Logos" height="30" width="30">
  <desc>
    Kodi Logo Streamline Icon: https://streamlinehq.com
  </desc>
  <path fill="#000000" fill-rule="evenodd" d="M13.6375 1.8137500000000002a1.92625 1.92625 0 0 1 2.725 0l4.58625 4.5875a0.625 0.625 0 0 1 0 0.8825l-10.50625 10.50625a0.625 0.625 0 0 1 -1.0675 -0.44125v-11.012500000000001a0.625 0.625 0 0 1 0.1825 -0.4425l4.08 -4.08Zm9.07875 7.2375a0.625 0.625 0 0 1 0.8837499999999999 0l4.58625 4.5875a1.92625 1.92625 0 0 1 0 2.72375l-4.5875 4.58625a0.625 0.625 0 0 1 -0.8825 0l-5.5062500000000005 -5.5062500000000005a0.625 0.625 0 0 1 0 -0.8837499999999999l5.5062500000000005 -5.5062500000000005Zm-7.275 8.15875a0.625 0.625 0 0 0 -0.8837499999999999 0l-5.505 5.5062500000000005a0.625 0.625 0 0 0 0 0.8837499999999999l4.585 4.58625a1.92625 1.92625 0 0 0 2.725 0l4.585 -4.58625a0.625 0.625 0 0 0 0 -0.8837499999999999l-5.505 -5.5062500000000005ZM6.49 9.508750000000001a0.625 0.625 0 0 1 0.38625 0.5775v9.8275a0.625 0.625 0 0 1 -1.0675 0.4425L1.8137500000000002 16.3625a1.92625 1.92625 0 0 1 0 -2.725l3.99375 -3.99375a0.625 0.625 0 0 1 0.68125 -0.135Z" clip-rule="evenodd" stroke-width="1.25"></path>
</svg>