<svg xmlns="http://www.w3.org/2000/svg" fill="none" viewBox="0 0 30 30" id="Line-App-Logo--Streamline-Logos" height="30" width="30">
  <desc>
    Line App Logo Streamline Icon: https://streamlinehq.com
  </desc>
  <path fill="#000000" fill-rule="evenodd" d="M15 2.5C7.53625 2.5 1.25 7.42 1.25 13.75c0 5.79125 5.2749999999999995 10.40875 11.868749999999999 11.14625a0.6074999999999999 0.6074999999999999 0 0 1 0.31375 0.12c0.0625 0.05 0.08625000000000001 0.1 0.09125 0.15625 0.08750000000000001 0.88125 -0.10500000000000001 2.065 -0.35874999999999996 2.73125A0.625 0.625 0 0 0 13.75 28.75c0.17625 0 0.375 -0.052500000000000005 0.54125 -0.10250000000000001 0.185 -0.057499999999999996 0.40625 -0.13875 0.65375 -0.24a22.3625 22.3625 0 0 0 1.84125 -0.875 36.445 36.445 0 0 0 4.97375 -3.16125c1.75 -1.3287499999999999 3.4875 -2.9225000000000003 4.79 -4.7025C27.85 17.89 28.75 15.88625 28.75 13.75c0 -6.33 -6.28625 -11.25 -13.75 -11.25ZM5.3125 10.625h1.875v4.6875H10v1.875H5.3125V10.625Zm5.625 0v6.5625h1.875V10.625h-1.875Zm2.5 0h2.125l1.625 3.0475000000000003V10.625h1.875v6.5625h-2.125l-1.625 -3.0475000000000003v3.0475000000000003h-1.875V10.625Zm6.25 0H23.75V12.5h-2.1875v0.46875H23.75v1.875h-2.1875v0.46875H23.75v1.875h-4.0625V10.625Z" clip-rule="evenodd" stroke-width="1.25"></path>
</svg>