<svg xmlns="http://www.w3.org/2000/svg" fill="none" viewBox="0 0 30 30" id="Adobe-Photoshop-Logo--Streamline-Logos" height="30" width="30">
  <desc>
    Adobe Photoshop Logo Streamline Icon: https://streamlinehq.com
  </desc>
  <path fill="#000000" fill-rule="evenodd" d="M0.9375 5.8125a4.875 4.875 0 0 1 4.875 -4.875h18.375a4.875 4.875 0 0 1 4.875 4.875v18.375a4.875 4.875 0 0 1 -4.875 4.875H5.8125a4.875 4.875 0 0 1 -4.875 -4.875V5.8125Zm4.875 -3a3 3 0 0 0 -3 3v18.375a3 3 0 0 0 3 3h18.375a3 3 0 0 0 3 -3V5.8125a3 3 0 0 0 -3 -3H5.8125Zm16.59375 11.73c-1.07125 -0.24125000000000002 -2.20625 -0.43124999999999997 -3.02875 -0.37 -0.41625 0.03 -0.9475 0.16 -0.41250000000000003 0.59 0.44125 0.3525 0.9625 0.57375 1.4849999999999999 0.79375 0.5375 0.22749999999999998 1.0775 0.45625 1.535 0.8325 0.63875 0.525 1.1400000000000001 1.29 1.1400000000000001 2.36125 0 1.06875 -0.505 1.8875 -1.31 2.375 -0.7112499999999999 0.42999999999999994 -1.57 0.5525 -2.3137499999999998 0.57125 -1.2025 0.03 -2.5275 -0.21000000000000002 -3.5149999999999997 -0.4525v-2.585c0.9099999999999999 0.26 2.3225000000000002 0.56625 3.4525 0.5375 0.5874999999999999 -0.013749999999999998 0.93375 -0.12125 1.09125 -0.21625 0.25 -0.15 0.0225 -0.5325 -0.13125 -0.6587500000000001 -0.43999999999999995 -0.3625 -0.96875 -0.5850000000000001 -1.5 -0.8087500000000001 -0.525 -0.22125 -1.0525 -0.44375 -1.4975 -0.8 -0.6375 -0.5125 -1.15125 -1.2687499999999998 -1.15125 -2.3375000000000004 0 -0.8687499999999999 0.3625 -1.6 1.025 -2.08125 0.59 -0.42500000000000004 1.3050000000000002 -0.5700000000000001 1.9162499999999998 -0.615 1.03125 -0.07625 2.22125 0.10250000000000001 3.215 0.30625v2.5574999999999997ZM11.25 8.75H6.875v12.5h2.5v-3.75H11.25a4.375 4.375 0 1 0 0 -8.75Zm0 6.25H9.375V11.25H11.25a1.875 1.875 0 1 1 0 3.75Z" clip-rule="evenodd" stroke-width="1.25"></path>
</svg>