<svg xmlns="http://www.w3.org/2000/svg" fill="none" viewBox="0 0 30 30" id="Midi-Logo--Streamline-Logos" height="30" width="30">
  <desc>
    Midi Logo Streamline Icon: https://streamlinehq.com
  </desc>
  <path fill="#000000" fill-rule="evenodd" d="M1.25 10h8.125A1.875 1.875 0 0 1 11.25 11.875V20H8.75v-7.5H7.5v7.5H5v-7.5H3.75v7.5H1.25V10Zm11.25 0v10h2.5V10h-2.5Zm10 2.5h-6.25V10h6.875A1.875 1.875 0 0 1 25 11.875v6.25a1.875 1.875 0 0 1 -1.875 1.875H16.25v-6.25h2.5v3.75h3.75v-5Zm3.75 -2.5v10h2.5V10h-2.5Z" clip-rule="evenodd" stroke-width="1.25"></path>
</svg>