<svg xmlns="http://www.w3.org/2000/svg" fill="none" viewBox="0 0 30 30" id="Msn-Messenger-Logo--Streamline-Logos" height="30" width="30">
  <desc>
    Msn Messenger Logo Streamline Icon: https://streamlinehq.com
  </desc>
  <path fill="#000000" fill-rule="evenodd" d="M10.626249999999999 21.585c-0.0475 1.6225 0.8925 1.96125 0.8925 1.96125 0.28625 0.24125000000000002 0.6275 0.41250000000000003 0.9950000000000001 0.49625 1.2587499999999998 3.88375 13.351249999999999 3.6675000000000004 14.544999999999998 0 2.1174999999999997 -0.40875 1.87875 -2.875 1.2475 -4.77 -0.8875 -2.4074999999999998 -2.86125 -4.92375 -5.2825 -5.819999999999999a5.117500000000001 5.117500000000001 0 0 0 1.8425 -3.935c0 -2.84 -2.31875 -5.1425 -5.17875 -5.1425s-5.17875 2.3025 -5.17875 5.1425c0 1.575 0.7124999999999999 2.9862499999999996 1.8375 3.93 -3.105 1.28125 -5.3549999999999995 4.81 -5.72 8.1375Zm-1.8737500000000002 -0.056249999999999994c0.00125 -0.05 0.005 -0.1 0.01 -0.1475 0.30374999999999996 -2.77125 1.715 -5.709999999999999 3.9037500000000005 -7.741249999999999 -0.595 -0.58125 -1.275 -1.05 -2.01125 -1.3225a3.8825 3.8825 0 0 0 1.39875 -2.985c0 -2.15375 -1.75875 -3.9000000000000004 -3.92875 -3.9000000000000004 -2.17 0 -3.92875 1.74625 -3.92875 3.9000000000000004 0 1.1949999999999998 0.54125 2.265 1.39375 2.9812499999999997 -2.355 0.9712500000000001 -4.0625 3.65 -4.3375 6.172499999999999 -0.0375 1.23125 0.675 1.4874999999999998 0.675 1.4874999999999998 0.21749999999999997 0.18375 0.47625 0.3125 0.755 0.3775 0.515 1.5875 3.4162500000000002 2.2725 6.125 2.13a5.30125 5.30125 0 0 1 -0.05499999999999999 -0.9525Z" clip-rule="evenodd" stroke-width="1.25"></path>
</svg>