<svg xmlns="http://www.w3.org/2000/svg" fill="none" viewBox="0 0 30 30" id="Mubi-Logo--Streamline-Logos" height="30" width="30">
  <desc>
    Mubi Logo Streamline Icon: https://streamlinehq.com
  </desc>
  <path fill="#000000" fill-rule="evenodd" d="M8.75 5a3.75 3.75 0 1 1 -7.5 0 3.75 3.75 0 0 1 7.5 0Zm10 0a3.75 3.75 0 1 1 -7.5 0 3.75 3.75 0 0 1 7.5 0ZM5 18.75a3.75 3.75 0 1 0 0 -7.5 3.75 3.75 0 0 0 0 7.5Zm3.75 6.25a3.75 3.75 0 1 1 -7.5 0 3.75 3.75 0 0 1 7.5 0Zm6.25 -6.25a3.75 3.75 0 1 0 0 -7.5 3.75 3.75 0 0 0 0 7.5Zm3.75 6.25a3.75 3.75 0 1 1 -7.5 0 3.75 3.75 0 0 1 7.5 0Zm6.25 -6.25a3.75 3.75 0 1 0 0 -7.5 3.75 3.75 0 0 0 0 7.5Z" clip-rule="evenodd" stroke-width="1.25"></path>
</svg>