<svg xmlns="http://www.w3.org/2000/svg" fill="none" viewBox="0 0 30 30" id="Adobe-Audio-Logo--Streamline-Logos" height="30" width="30">
  <desc>
    Adobe Audio Logo Streamline Icon: https://streamlinehq.com
  </desc>
  <path fill="#000000" fill-rule="evenodd" d="M0.9375 5.8125a4.875 4.875 0 0 1 4.875 -4.875h18.375a4.875 4.875 0 0 1 4.875 4.875v18.375a4.875 4.875 0 0 1 -4.875 4.875H5.8125a4.875 4.875 0 0 1 -4.875 -4.875V5.8125Zm4.875 -3a3 3 0 0 0 -3 3v18.375a3 3 0 0 0 3 3h18.375a3 3 0 0 0 3 -3V5.8125a3 3 0 0 0 -3 -3H5.8125ZM4.39 20.590000000000003l3.9924999999999997 -11.41v-0.8250000000000001h3.1875l4.4174999999999995 12.235H13.25l-1.04 -2.8587499999999997H7.88625l-0.96875 2.8587499999999997H4.39Zm4.18125 -5.29125H11.5L10.0375 10.5275l-1.4649999999999999 4.77125Zm16.31 -4.29375h-2.57125v6.6625c-0.185 0.195 -0.76625 0.5850000000000001 -1.6075 0.5850000000000001a1.40125 1.40125 0 0 1 -1.4612500000000002 -1.375V11.00625H16.7v5.873749999999999c-0.04875 1.2375 0.485 3.7112499999999997 3.01 3.7112499999999997 1.8162500000000001 0 2.805 -0.90625 2.805 -0.90625s0 0.70125 0.23375 0.70125h2.13375V11.005Z" clip-rule="evenodd" stroke-width="1.25"></path>
</svg>