<svg xmlns="http://www.w3.org/2000/svg" fill="none" viewBox="0 0 30 30" id="Authy-Logo--Streamline-Logos" height="30" width="30">
  <desc>
    Authy Logo Streamline Icon: https://streamlinehq.com
  </desc>
  <path fill="#000000" fill-rule="evenodd" d="M28.75 15c0 7.59375 -6.15625 13.75 -13.75 13.75S1.25 22.59375 1.25 15 7.40625 1.25 15 1.25s13.75 6.15625 13.75 13.75Zm-14.946250000000001 -2.24125a2.7275 2.7275 0 0 0 -3.8575 3.8575l2.8125 2.8125a1.25 1.25 0 0 1 -1.7674999999999998 1.7674999999999998l-2.8125 -2.8125a5.227500000000001 5.227500000000001 0 1 1 7.3925 -7.3925l2.8125 2.8125a1.25 1.25 0 0 1 -1.7674999999999998 1.7674999999999998l-2.8125 -2.8125Zm5.205 -3.955a1.25 1.25 0 1 0 -1.7674999999999998 1.7674999999999998l2.8125 2.8125a2.7275 2.7275 0 0 1 -3.8575 3.8575l-2.8125 -2.8125a1.25 1.25 0 0 0 -1.7674999999999998 1.7674999999999998l2.8125 2.8125a5.227500000000001 5.227500000000001 0 1 0 7.3925 -7.3925l-2.8125 -2.8125Z" clip-rule="evenodd" stroke-width="1.25"></path>
</svg>