<svg xmlns="http://www.w3.org/2000/svg" fill="none" viewBox="0 0 30 30" id="Bilibili-Logo--Streamline-Logos" height="30" width="30">
  <desc>
    Bilibili Logo Streamline Icon: https://streamlinehq.com
  </desc>
  <path fill="#000000" fill-rule="evenodd" d="M9.4125 1.8375a0.9375 0.9375 0 0 0 -1.3250000000000002 1.3250000000000002L10.549999999999999 5.625H5a3.75 3.75 0 0 0 -3.75 3.75v12.5a3.75 3.75 0 0 0 3.75 3.75h2.1875v0.625a0.9375 0.9375 0 0 0 1.875 0v-0.625h11.875v0.625a0.9375 0.9375 0 0 0 1.875 0v-0.625H25a3.75 3.75 0 0 0 3.75 -3.75v-12.5a3.75 3.75 0 0 0 -3.75 -3.75h-5.550000000000001l2.4625 -2.4625a0.9375 0.9375 0 0 0 -1.3250000000000002 -1.3250000000000002l-3.75 3.75 -0.036250000000000004 0.0375h-3.6025a0.9275 0.9275 0 0 0 -0.036250000000000004 -0.0375l-3.75 -3.75ZM4.375 10.625A1.875 1.875 0 0 1 6.25 8.75h17.5a1.875 1.875 0 0 1 1.875 1.875v10A1.875 1.875 0 0 1 23.75 22.5H6.25a1.875 1.875 0 0 1 -1.875 -1.875v-10Zm13.44625 3.7125000000000004 5 1.25 0.60625 -2.425 -5 -1.25 -0.60625 2.425Zm-5.6425 0 -5 1.25 -0.6074999999999999 -2.425 5 -1.25 0.6074999999999999 2.425Zm3.6575 4.69125a1.61625 1.61625 0 0 1 -0.24 -0.24c-0.16375 -0.20375000000000001 -0.29374999999999996 -0.4425 -0.42250000000000004 -0.6787500000000001A9.94125 9.94125 0 0 0 15 17.8c-0.05875 0.1 -0.11624999999999999 0.20500000000000002 -0.17375000000000002 0.31 -0.12875 0.23625000000000002 -0.25875 0.475 -0.42250000000000004 0.6787500000000001 -0.05 0.0625 -0.13125 0.15125 -0.24 0.24a1.525 1.525 0 0 1 -0.9875 0.34625000000000006c-0.14625000000000002 0 -0.30874999999999997 -0.0975 -0.47750000000000004 -0.35000000000000003a2.0125 2.0125 0 0 1 -0.22499999999999998 -0.45625l-1.19625 0.365a3.255 3.255 0 0 0 0.38375 0.79c0.25125000000000003 0.37374999999999997 0.74125 0.90125 1.515 0.90125A2.7800000000000002 2.7800000000000002 0 0 0 15 19.958750000000002l0.05 0.04125c0.38375 0.31125 0.9750000000000001 0.625 1.7737500000000002 0.625 0.775 0 1.2625 -0.5275 1.515 -0.8999999999999999a3.2637500000000004 3.2637500000000004 0 0 0 0.38375 -0.79125l-1.19625 -0.365s-0.02125 0.0625 -0.05 0.13125a2.0125 2.0125 0 0 1 -0.17500000000000002 0.325c-0.16875 0.2525 -0.33125000000000004 0.35000000000000003 -0.47750000000000004 0.35000000000000003a1.525 1.525 0 0 1 -0.9875 -0.34625000000000006Z" clip-rule="evenodd" stroke-width="1.25"></path>
</svg>