<svg xmlns="http://www.w3.org/2000/svg" fill="none" viewBox="0 0 30 30" id="Button-Pause-2--Streamline-Core" height="30" width="30">
  <desc>
    Button Pause 2 Streamline Icon: https://streamlinehq.com
  </desc>
  <g id="button-pause-2--button-television-buttons-movies-tv-pause-video-controls">
    <path id="Union" fill="#000000" fill-rule="evenodd" d="M0 3.2142857142857144C0 1.439085 1.439085 0 3.2142857142857144 0H8.571428571428571c1.7752071428571428 0 3.2142857142857144 1.439085 3.2142857142857144 3.2142857142857144v23.57142857142857c0 1.7751428571428571 -1.4390785714285714 3.2142857142857144 -3.2142857142857144 3.2142857142857144H3.2142857142857144C1.439085 30 0 28.56085714285714 0 26.785714285714285v-23.57142857142857ZM21.428571428571427 0c-1.7752071428571428 0 -3.2142857142857144 1.439085 -3.2142857142857144 3.2142857142857144v23.57142857142857c0 1.7751428571428571 1.4390785714285714 3.2142857142857144 3.2142857142857144 3.2142857142857144h5.357142857142857c1.7751428571428571 0 3.2142857142857144 -1.439142857142857 3.2142857142857144 -3.2142857142857144v-23.57142857142857c0 -1.7752007142857142 -1.439142857142857 -3.2142857142857144 -3.2142857142857144 -3.2142857142857144H21.428571428571427Z" clip-rule="evenodd" stroke-width="2.1429"></path>
  </g>
</svg>