<svg xmlns="http://www.w3.org/2000/svg" fill="none" viewBox="0 0 30 30" id="Button-Next--Streamline-Core" height="30" width="30">
  <desc>
    Button Next Streamline Icon: https://streamlinehq.com
  </desc>
  <g id="button-next--button-television-buttons-movies-skip-next-video-controls">
    <path id="Union" fill="#000000" fill-rule="evenodd" d="M20.383114285714285 12.977142857142857 3.6280714285714284 1.4076257142857143C2.78025 0.8707414285714286 1.7468957142857142 1.0138564285714287 1.0000692857142857 1.5752078571428572 0.4245042857142857 2.0078335714285713 0.01912420714285714 2.6888785714285715 0.00001666607142857143 3.4985142857142857V26.4285C0.00000554785714285714 26.4315 0 26.434714285714286 0 26.437714285714286c0.00000206292857142857 1.8942857142857144 2.097735 3.120428571428571 3.6280714285714284 2.1512142857142855l16.755042857142858 -11.49972857142857c1.3938857142857142 -0.9403285714285714 1.3938857142857142 -3.1717285714285715 0 -4.112057142857143Zm9.080957142857143 -9.243942857142857c0 -1.1834785714285714 -0.9593571428571428 -2.1428635714285713 -2.142857142857143 -2.1428635714285713 -1.1832857142857143 0 -2.142857142857143 0.959385 -2.142857142857143 2.1428635714285713V26.266714285714283c0 1.1835 0.9595714285714285 2.142857142857143 2.142857142857143 2.142857142857143 1.1835 0 2.142857142857143 -0.9593571428571428 2.142857142857143 -2.142857142857143V3.7331999999999996Z" clip-rule="evenodd" stroke-width="2.1429"></path>
  </g>
</svg>