<svg xmlns="http://www.w3.org/2000/svg" fill="none" viewBox="0 0 30 30" id="Geforce-Now-Logo--Streamline-Logos" height="30" width="30">
  <desc>
    Geforce Now Logo Streamline Icon: https://streamlinehq.com
  </desc>
  <path fill="#000000" fill-rule="evenodd" d="M28.75 6.25H11.875v2.5c-3.4375 0 -7.327500000000001 2.2675 -9.79875 4.54a0.625 0.625 0 0 0 -0.125 0.7575C3.97 17.78125 6.9325 21.875 11.875 21.875V23.75H28.75V6.25ZM11.875 20.625v-1.76375l0.005 0c3.675 0 7.9125 -2.30375 9.7475 -4.680000000000001a0.625 0.625 0 0 0 0.07 -0.65C20.47625 10.95375 16.3625 8.75 11.875 8.75l0 1.25c-3.0212499999999998 0 -5.72 1.8325 -7.75625 3.9475C5.84 16.90125 8.46375 20.625 11.875 20.625Zm0 -3.21625 0.08750000000000001 0c3.7624999999999997 0 4.6775 -0.94375 6.8149999999999995 -3.15125l0.58375 -0.60125C18.2375 11.76 15.8 10 11.875 10v1.5225l-0.00875 0c-1.8062500000000001 0.025 -3.9625 1.03625 -5.084999999999999 2.425a0.625 0.625 0 0 0 -0.11374999999999999 0.56875c0.5974999999999999 2.045 3.0062499999999996 4.34125 5.2075000000000005 4.345v-1.4525Zm0 -4.6375v-1.25c1.99875 0 3.8087500000000003 0.71875 4.90125 2.01125l-2.0175 1.8225c-0.7437499999999999 -1.185 -1.7525 -2.5824999999999996 -2.87875 -2.5824999999999996l-0.005 0Zm0 0c-1.3375000000000001 0.025 -2.6025 0.6975 -3.50875 1.65375 0.41875 1.15875 1.81875 2.925 3.50875 2.98375v-4.6375Zm14.373750000000001 4.6375C22.8125 20.2075 16.0875 21.875 11.875 21.875v-1.25c4.796250000000001 0 8.3725 -2.295 11.434999999999999 -4.9325l2.9375 1.7175000000000002Z" clip-rule="evenodd" stroke-width="1.25"></path>
</svg>