<svg xmlns="http://www.w3.org/2000/svg" fill="none" viewBox="0 0 30 30" id="Icq-Logo-1--Streamline-Logos" height="30" width="30">
  <desc>
    Icq Logo 1 Streamline Icon: https://streamlinehq.com
  </desc>
  <path fill="#000000" fill-rule="evenodd" d="M17.1675 11.5625a4.03875 4.03875 0 0 0 -1.2875 -0.53 73.30375000000001 73.30375000000001 0 0 1 -0.03 -0.535c-0.07625 -1.5175 -0.09625 -2.99125 0.06125 -4.25375 0.15875 -1.2875 0.485 -2.2 0.97 -2.7300000000000004 0.42000000000000004 -0.45875 1.08 -0.7625 2.3175 -0.54125 0.8125 0.14500000000000002 1.30375 0.525 1.5712499999999998 1.0125000000000002 0.27875 0.5125 0.385 1.28125 0.1325 2.3137499999999998 -0.28500000000000003 1.1625 -1.00625 2.565 -2.2625 4.0825 -0.50375 0.37625 -0.9975 0.775 -1.4725 1.1824999999999999Zm-4.5912500000000005 -4.987500000000001c0.45999999999999996 1.3525 0.81 2.97875 1.06 4.5975a4.03875 4.03875 0 0 0 -0.5375 0.23625000000000002c-1.0474999999999999 -1.24875 -2.03375 -2.525 -2.75 -3.7125000000000004 -0.66125 -1.095 -1.02 -2 -1.06625 -2.6750000000000003 -0.02125 -0.32 0.03 -0.55125 0.1225 -0.72625 0.08875 -0.17125 0.25 -0.35374999999999995 0.5625 -0.525 0.295 -0.16125 0.49875 -0.17500000000000002 0.64 -0.1525 0.15 0.025 0.34 0.11124999999999999 0.5700000000000001 0.33125000000000004 0.48625 0.4675 0.97 1.3625 1.39875 2.6262499999999998ZM8.08125 10.547500000000001c1.18875 0.5475 2.4074999999999998 1.3775000000000002 3.4875 2.2775a4.0375 4.0375 0 0 0 -0.55375 1.3825l-0.40125 0.0175c-1.56 0.065 -3.1 0.0975 -4.4125 -0.02125 -1.3575000000000002 -0.1225 -2.275 -0.39125 -2.75 -0.7737499999999999a0.9225 0.9225 0 0 1 -0.355 -0.5475c-0.0475 -0.22499999999999998 -0.0375 -0.5750000000000001 0.1525 -1.10125 0.43875 -1.22 1.09625 -1.68625 1.7974999999999999 -1.83 0.7887500000000001 -0.1625 1.83125 0.04125 3.035 0.59625Zm-0.63625 6.28375c1.09875 -0.2975 2.38125 -0.49250000000000005 3.675 -0.62625 0.0825 0.26625 0.19125 0.52125 0.325 0.7625 -0.9650000000000001 0.75875 -1.9962499999999999 1.46875 -2.98 2 -1.07 0.5800000000000001 -1.975 0.8887499999999999 -2.62 0.9075 -0.3075 0.01 -0.505 -0.05 -0.63375 -0.125 -0.11875 -0.07125000000000001 -0.24875000000000003 -0.2 -0.355 -0.47125 -0.1375 -0.3525 -0.14500000000000002 -0.6 -0.10749999999999998 -0.7775a1.09375 1.09375 0 0 1 0.32875 -0.55375c0.42500000000000004 -0.42250000000000004 1.22375 -0.8075 2.3674999999999997 -1.11625Zm2.235 5.3637500000000005c0.77125 -1.2662499999999999 1.9 -2.5925 3.0787500000000003 -3.80625 0.4625 0.30625 0.99 0.52 1.5575 0.61625 0.02 0.29000000000000004 0.04125 0.5825 0.06625 0.875 0.013749999999999998 1.82375 -0.1275 3.4275 -0.48 4.66125 -0.3175 1.1125 -0.7637499999999999 1.77125 -1.2650000000000001 2.08625 -0.46125 0.29000000000000004 -1.16375 0.41250000000000003 -2.31625 -0.00875 -0.62 -0.22499999999999998 -1 -0.49250000000000005 -1.22625 -0.7474999999999999a1.4412500000000001 1.4412500000000001 0 0 1 -0.3675 -0.8425c-0.07125000000000001 -0.69625 0.2375 -1.65875 0.9525 -2.8337499999999998Zm6.57625 -2.4a39.0375 39.0375 0 0 0 -0.02 -0.925c0.21875 -0.06875 0.42999999999999994 -0.15625 0.63125 -0.26125 0.8025 0.94375 1.59375 1.925 2.21 2.8625 0.7025000000000001 1.06875 1.08625 1.94125 1.1225 2.56 0.01625 0.27875 -0.04 0.46125 -0.13125 0.595 -0.095 0.14 -0.29125 0.32 -0.7124999999999999 0.47750000000000004 -0.47875 0.18 -0.82125 0.20750000000000002 -1.065 0.17125a1.095 1.095 0 0 1 -0.6125 -0.305c-0.41250000000000003 -0.3875 -0.7637499999999999 -1.1500000000000001 -1.02125 -2.30375 -0.1925 -0.8587500000000001 -0.3125 -1.84125 -0.4 -2.8712500000000003Zm6.3875 0.62875c-1.4050000000000002 -0.6275 -2.9499999999999997 -1.72625 -4.3462499999999995 -3.05 0.31 -0.42999999999999994 0.5375 -0.9225 0.66 -1.4549999999999998l0.4375 -0.02375 0.08375 -0.00375c1.5012500000000002 -0.08375 2.9125 -0.1625 4.12375 -0.0675 1.2587499999999998 0.1 2.0825 0.37374999999999997 2.54125 0.8175 0.39625 0.38375 0.7037499999999999 1.08375 0.43374999999999997 2.56625 -0.20875000000000002 1.1475 -0.69625 1.55 -1.19875 1.695 -0.6125 0.17625 -1.545 0.05374999999999999 -2.73625 -0.47875Zm0.52125 -7.425000000000001c-1.2825 0.41250000000000003 -2.78625 0.7074999999999999 -4.2575 0.885a4.0275 4.0275 0 0 0 -0.28250000000000003 -0.72125c0.47625 -0.47 0.9125 -0.93875 1.3087499999999999 -1.40625 0.615 -0.44999999999999996 1.2375 -0.8587500000000001 1.8487500000000001 -1.19625 1.1075 -0.61375 2.07125 -0.94 2.8100000000000005 -0.95 0.35374999999999995 -0.005 0.63 0.0625 0.8487500000000001 0.18375 0.21375000000000002 0.11875 0.42500000000000004 0.31625000000000003 0.61125 0.655 0.1525 0.28 0.1625 0.47125 0.1375 0.605 -0.028749999999999998 0.14625000000000002 -0.12 0.3375 -0.3525 0.57125 -0.48875 0.48750000000000004 -1.41 0.9675 -2.6725 1.37375ZM8.0725 21.230000000000004c-0.74125 0.3 -1.4825 0.5 -2.17375 0.52 -0.56125 0.01625 -1.1375 -0.085 -1.6500000000000001 -0.39125 -0.5225 -0.3125 -0.9025 -0.79375 -1.1375 -1.39625 -0.24375000000000002 -0.62125 -0.32375 -1.2425 -0.19875 -1.84125 0.125 -0.6 0.43624999999999997 -1.1 0.8425 -1.5037500000000001 0.2775 -0.275 0.6074999999999999 -0.515 0.9712500000000001 -0.725 -0.935 -0.17875 -1.805 -0.48250000000000004 -2.45 -1.0025a2.7937499999999997 2.7937499999999997 0 0 1 -1.0150000000000001 -1.6225c-0.14 -0.6637500000000001 -0.043750000000000004 -1.3775000000000002 0.22249999999999998 -2.12125 0.62125 -1.72625 1.7374999999999998 -2.7337499999999997 3.185 -3.03125 1.355 -0.27875 2.82875 0.10125 4.17875 0.72125a17.64125 17.64125 0 0 1 -0.10500000000000001 -0.17250000000000001C8.040000000000001 7.5 7.487500000000001 6.27875 7.4125 5.14625c-0.04 -0.58375 0.045 -1.1749999999999998 0.33 -1.7199999999999998 0.28750000000000003 -0.54875 0.74 -0.9812500000000001 1.3250000000000002 -1.3 0.59375 -0.325 1.21875 -0.4625 1.845 -0.35874999999999996 0.61875 0.10250000000000001 1.13875 0.42125 1.5625 0.8287500000000001 0.70125 0.6737500000000001 1.2425 1.6837499999999999 1.6675 2.7950000000000004 0.20750000000000002 -1.1875 0.6025 -2.31875 1.355 -3.1424999999999996C16.447499999999998 1.21 17.8125 0.8200000000000001 19.52875 1.125c1.28375 0.22999999999999998 2.3075 0.8999999999999999 2.8875 1.96 0.56625 1.0374999999999999 0.63625 2.31875 0.3075 3.65875 -0.12125 0.49625 -0.3 1.01 -0.535 1.5375 0.8 -0.3275 1.60875 -0.5375 2.3775 -0.5475 0.6125 -0.00875 1.225 0.10999999999999999 1.78125 0.41750000000000004 0.5625 0.31 1.0150000000000001 0.7825 1.35 1.3975000000000002 0.325 0.59625 0.4525 1.225 0.33375 1.8537500000000002 -0.11624999999999999 0.615 -0.45125 1.1300000000000001 -0.8687499999999999 1.5462500000000001 -0.48750000000000004 0.48750000000000004 -1.14125 0.89625 -1.8775 1.2375 0.8150000000000001 0.2 1.575 0.5375 2.1625 1.1075 1.0125000000000002 0.9812500000000001 1.3075 2.42125 0.9750000000000001 4.24875 -0.3025 1.65625 -1.1687500000000002 2.77125 -2.525 3.16 -1.245 0.35874999999999996 -2.6774999999999998 0.03125 -4.0200000000000005 -0.56875a12.065 12.065 0 0 1 -0.3625 -0.16875c0.30625 0.65375 0.5187499999999999 1.31625 0.55625 1.9537499999999999 0.036250000000000004 0.6025 -0.08125 1.21625 -0.4525 1.7625 -0.3675 0.53875 -0.9225 0.92125 -1.6025 1.17625 -0.6925000000000001 0.26 -1.36125 0.36374999999999996 -1.99375 0.2725a2.9675000000000002 2.9675000000000002 0 0 1 -1.62875 -0.795 4.13 4.13 0 0 1 -0.76875 -1.01125c-0.3825 1.2025 -0.9975 2.265 -1.98875 2.88875 -1.105 0.69625 -2.4575 0.7124999999999999 -3.9575 0.1675 -0.82625 -0.30125 -1.49875 -0.7174999999999999 -1.985 -1.26375a3.3150000000000004 3.3150000000000004 0 0 1 -0.83125 -1.8962499999999998c-0.13625 -1.32 0.43875 -2.7225 1.21 -3.99125ZM15 12.8125a2.1875 2.1875 0 1 0 0 4.375 2.1875 2.1875 0 0 0 0 -4.375Z" clip-rule="evenodd" stroke-width="1.25"></path>
</svg>