<svg xmlns="http://www.w3.org/2000/svg" fill="none" viewBox="0 0 30 30" id="Itunes-Logo--Streamline-Logos" height="30" width="30">
  <desc>
    Itunes Logo Streamline Icon: https://streamlinehq.com
  </desc>
  <path fill="#000000" fill-rule="evenodd" d="M15 28.75c7.59375 0 13.75 -6.15625 13.75 -13.75S22.59375 1.25 15 1.25 1.25 7.40625 1.25 15s6.15625 13.75 13.75 13.75Zm6.0175 -22.36125A0.625 0.625 0 0 1 21.25 6.875V18.75c0 0.4625 -0.08750000000000001 1.075 -0.45375 1.6212499999999999 -0.38 0.5675 -1.01125 0.99 -1.9437499999999999 1.135 -0.96 0.14875 -1.775 0 -2.3499999999999996 -0.5025000000000001 -0.57375 -0.5 -0.77875 -1.2325 -0.77875 -1.9625000000000001 0 -0.5187499999999999 0.24875000000000003 -0.9675 0.56375 -1.32a4.387499999999999 4.387499999999999 0 0 1 1.2025 -0.9037499999999999A7.1499999999999995 7.1499999999999995 0 0 1 20 16.043750000000003V11.4625l-7.5 1.7075V20c0 1.06 -0.2975 1.7974999999999999 -0.8087500000000001 2.3000000000000003 -0.485 0.47875 -1.09375 0.67 -1.5074999999999998 0.7975 -0.5375 0.165 -1.2912499999999998 0.19125 -1.9375 -0.20375000000000001 -0.6875 -0.42000000000000004 -1.0975 -1.21625 -1.0975 -2.3674999999999997 0 -1.355 0.925 -2.13 1.87 -2.56 0.725 -0.33125000000000004 1.5575 -0.5062500000000001 2.2312499999999997 -0.61625V8.75a0.625 0.625 0 0 1 0.49375 -0.61125l8.75 -1.875a0.625 0.625 0 0 1 0.525 0.125Z" clip-rule="evenodd" stroke-width="1.25"></path>
</svg>