<svg xmlns="http://www.w3.org/2000/svg" fill="none" viewBox="0 0 30 30" id="Kik-Logo-1--Streamline-Logos" height="30" width="30">
  <desc>
    Kik Logo 1 Streamline Icon: https://streamlinehq.com
  </desc>
  <path fill="#000000" fill-rule="evenodd" d="M8.125 3.75a2.5 2.5 0 1 0 -5 0v22.5a2.5 2.5 0 1 0 5 0v-2.7537499999999997l2.1975 -2.31875 4.4975 6.494999999999999a2.5 2.5 0 0 0 4.109999999999999 -2.8449999999999998l-5.09375 -7.35875 4.85375 -5.125a2.5 2.5 0 1 0 -3.63 -3.4375L8.125 16.225V3.75ZM25 21.875a3.75 3.75 0 1 0 0 -7.5 3.75 3.75 0 0 0 0 7.5Z" clip-rule="evenodd" stroke-width="1.25"></path>
</svg>