<svg xmlns="http://www.w3.org/2000/svg" fill="none" viewBox="0 0 30 30" id="Music-Note-2--Streamline-Core" height="30" width="30">
  <desc>
    Music Note 2 Streamline Icon: https://streamlinehq.com
  </desc>
  <g id="music-note-2--music-audio-note-entertainment">
    <path id="Union" fill="#000000" fill-rule="evenodd" d="M27.387857142857143 0.4928571428571429a2.6292857142857144 2.6292857142857144 0 0 0 -1.1892857142857143 0.04285714285714286l-0.012857142857142857 0 -16.35642857142857 4.540714285714286a2.6292857142857144 2.6292857142857144 0 0 0 -1.9392857142857143 2.5221428571428572V19.37142857142857a5.307857142857142 5.307857142857142 0 1 0 3.2142857142857144 4.8792857142857144l0 -0.02142857142857143 0 -0.010714285714285714V13.02l15.192857142857141 -4.2214285714285715V14.07857142857143a5.307857142857142 5.307857142857142 0 1 0 3.2142857142857144 5.025V18.96428571428571l0 -0.008571428571428572 0 -0.010714285714285714V6.685714285714286l0 -3.615 0 -0.004285714285714286v-0.06a2.6271428571428572 2.6271428571428572 0 0 0 -2.1214285714285714 -2.511428571428571Z" clip-rule="evenodd" stroke-width="2.1429"></path>
  </g>
</svg>