<svg xmlns="http://www.w3.org/2000/svg" fill="none" viewBox="0 0 30 30" id="Openai-Logo--Streamline-Logos" height="30" width="30">
  <desc>
    Openai Logo Streamline Icon: https://streamlinehq.com
  </desc>
  <path fill="#000000" fill-rule="evenodd" d="M6.21375 7.01625a6.2225 6.2225 0 0 1 10.25375 -3.5749999999999997 7 7 0 0 0 -0.31375 0.17125L9.040000000000001 7.720000000000001a0.625 0.625 0 0 0 -0.3125 0.54375l0.04125 9.196250000000001 -2.6475 -1.5125V8.095a6.25 6.25 0 0 1 0.0925 -1.0787499999999999Zm19.0625 -0.045a6.195 6.195 0 0 1 0.7062499999999999 4.3575 8.28375 8.28375 0 0 0 -0.305 -0.1875L18.5625 7.036249999999999a0.625 0.625 0 0 0 -0.6275 0.00125L9.9925 11.67l-0.0125 -3.05 6.79875 -3.9250000000000003a6.2225 6.2225 0 0 1 8.4975 2.27625ZM10.021249999999998 18.17625 10 13.1125l4.37375 -2.55125 4.395 2.5124999999999997 0.0225 5.0625 -4.3725000000000005 2.55 -4.39625 -2.5124999999999997Zm13.5825 -3.77875 -7.984999999999999 -4.5625 2.63375 -1.5362500000000001 6.800000000000001 3.9250000000000003a6.2225 6.2225 0 0 1 -1.1425 11.2875c0.005 -0.1175 0.00875 -0.2375 0.00875 -0.35624999999999996v-8.215a0.625 0.625 0 0 0 -0.315 -0.5425Zm-3.5425 8.588750000000001 -0.04 -9.196250000000001 2.6475 1.5125v7.8525a6.2225 6.2225 0 0 1 -10.34625 4.655c0.10500000000000001 -0.05499999999999999 0.20875000000000002 -0.11249999999999999 0.3125 -0.17250000000000001l7.11375 -4.10625a0.625 0.625 0 0 0 0.3125 -0.545Zm-9.20875 1.2275 7.9437500000000005 -4.63375 0.013749999999999998 3.05 -6.800000000000001 3.9250000000000003a6.2225 6.2225 0 0 1 -9.205 -6.6325c0.1 0.06375 0.2025 0.125 0.30625 0.18625l7.11375 4.10625a0.625 0.625 0 0 0 0.6275 0Zm-5.666250000000001 -7.3625 7.98375 4.5625 -2.63375 1.5375 -6.800000000000001 -3.9250000000000003a6.2225 6.2225 0 0 1 1.1425 -11.2875c-0.005 0.1175 -0.0075 0.2375 -0.0075 0.35624999999999996v8.215a0.625 0.625 0 0 0 0.315 0.5425Z" clip-rule="evenodd" stroke-width="1.25"></path>
</svg>