<svg xmlns="http://www.w3.org/2000/svg" fill="none" viewBox="0 0 30 30" id="Playstation-Logo--Streamline-Logos" height="30" width="30">
  <desc>
    Playstation Logo Streamline Icon: https://streamlinehq.com
  </desc>
  <path fill="#000000" fill-rule="evenodd" d="m11.5225 24.165 4.49625 1.50875V9.3375c0 -0.56875 0.38375 -1.2512499999999998 0.8400000000000001 -1.2512499999999998 0.58125 0 0.94875 0.79125 0.94875 1.2512499999999998v6.1587499999999995c0.37124999999999997 0.21749999999999997 1.24125 0.65 1.75 0.65l0.04 0c0.6950000000000001 0.0025 3.1175 0.0075 3.1175 -3.685 0 -3.76625 -1.9875 -5.18625 -3.645 -5.72875l-7.5475 -2.3625v19.793750000000003Zm-1.25 -1.13125v-2.16875c-1.04875 0.39 -2.0075000000000003 0.705 -2.5987500000000003 0.7975 -1.1125 0.17250000000000001 -2.31875 0.0475 -2.16875 -0.5862499999999999 0.12875 -0.54 2.8875 -1.5012500000000002 4.7675 -2.0975V16.512500000000003c-3.565 1.1125 -9.01625 2.995 -9.01625 4.25125 0 1.775 4.171250000000001 2.30875 5.147500000000001 2.3674999999999997 0.57125 0.035 2.155 0.09 3.8687500000000004 -0.09625Zm6.996250000000001 2.275c4.15625 -1.3850000000000002 11.4725 -4.11625 11.4725 -5.313750000000001 0 -1.5675 -4.21875 -2.59 -6.86375 -2.485 -1.35375 0.05374999999999999 -3.0325 0.3975 -4.60875 0.8275v2.4675a115.33375 115.33375 0 0 1 4.78625 -1.6375000000000002c0.8575 -0.26125 1.8487500000000001 -0.21125000000000002 2.3075 0 0.71 0.325 0.44375 0.70875 -1.03625 1.3 -0.8825 0.35374999999999995 -3.74125 1.41 -6.0575 2.25875v2.58375Z" clip-rule="evenodd" stroke-width="1.25"></path>
</svg>