<svg xmlns="http://www.w3.org/2000/svg" fill="none" viewBox="0 0 30 30" id="Playerfm-Logo--Streamline-Logos" height="30" width="30">
  <desc>
    Playerfm Logo Streamline Icon: https://streamlinehq.com
  </desc>
  <path fill="#000000" fill-rule="evenodd" d="M17.14 1.2787499999999998a1.25 1.25 0 1 0 -0.53 2.4425c5.13375 1.1125 8.55625 4.535 9.668750000000001 9.668750000000001a1.25 1.25 0 1 0 2.4425 -0.53c-1.3187499999999999 -6.0912500000000005 -5.49 -10.262500000000001 -11.58125 -11.58125ZM16.875 5.3525a1.25 1.25 0 1 0 -0.625 2.42c3.075 0.795 5.1825 2.90375 5.9775 5.9775a1.25 1.25 0 0 0 2.42 -0.625c-1.02125 -3.955 -3.8175 -6.75 -7.7725 -7.7725Zm-1.78125 4.796250000000001a1.25 1.25 0 0 1 1.6325 -0.68c0.97 0.4 1.5412500000000002 0.78125 2.2825 1.5225s1.1225 1.3125 1.5225 2.2825a1.25 1.25 0 1 1 -2.3125 0.9525c-0.27375 -0.665 -0.46875 -0.95875 -0.9775 -1.4674999999999998 -0.5087499999999999 -0.5087499999999999 -0.8025 -0.7037499999999999 -1.4674999999999998 -0.9775a1.25 1.25 0 0 1 -0.68 -1.6325ZM11.875 8.9875a2.5 2.5 0 0 0 -1.25 -4.84375C5.237500000000001 5.53125 1.25 10.4225 1.25 16.25c0 6.90375 5.59625 12.5 12.5 12.5 5.8275 0 10.71875 -3.98625 12.106250000000001 -9.37625a2.5 2.5 0 1 0 -4.8425 -1.2475 7.5 7.5 0 1 1 -9.14125 -9.14125Z" clip-rule="evenodd" stroke-width="1.25"></path>
</svg>