<svg xmlns="http://www.w3.org/2000/svg" fill="none" viewBox="0 0 30 30" id="Qq-Logo--Streamline-Logos" height="30" width="30">
  <desc>
    Qq Logo Streamline Icon: https://streamlinehq.com
  </desc>
  <path fill="#000000" fill-rule="evenodd" d="M23.37 10.184999999999999c-0.035 -0.41250000000000003 -0.06875 -0.8325 -0.06875 -0.91625A8.1975 8.1975 0 0 0 14.93125 1.25a8.19875 8.19875 0 0 0 -8.3675 8.0175c0 0.08 -0.028749999999999998 0.44999999999999996 -0.06 0.83375 0.5750000000000001 0.3825 1.6675 0.9825 3.04375 1.525 1.655 0.655 3.6149999999999998 1.185 5.452500000000001 1.185 1.8375 0 3.7975 -0.53 5.452500000000001 -1.1837499999999999 1.28125 -0.5062500000000001 2.31625 -1.0625 2.9175 -1.44375Zm0.65375 1.7974999999999999c-0.735 0.43374999999999997 -1.74125 0.9375 -2.8825000000000003 1.38875 -1.7725 0.7000000000000001 -3.97875 1.31625 -6.14125 1.31625 -0.3125 0 -0.625 -0.0125 -0.9375 -0.0375v2.225a0.9375 0.9375 0 0 1 -0.9375 0.9375H10a0.9375 0.9375 0 0 1 -0.9375 -0.9375v-3.42375l-0.20375000000000001 -0.07875a20.8475 20.8475 0 0 1 -2.98 -1.44875c-1.3 2.0925 -4.14625 7.0525 -2.9825 8.536249999999999 0.3975 0.5062500000000001 1.2925 0.23875000000000002 2.2 -0.23875000000000002a0.29874999999999996 0.29874999999999996 0 0 1 0.4325 0.21125000000000002 8.9375 8.9375 0 0 0 2.03875 4.24l0.027499999999999997 0.0375c0.655 0.625 1.7625 1.3575000000000002 2.9825 1.98375 1.21875 0.62625 2.48 1.11 3.4275 1.2775l0.045 0a9.905000000000001 9.905000000000001 0 0 0 1.775 0 0.31 0.31 0 0 1 0.04125 0c0.9475 -0.1675 2.2075 -0.65125 3.4250000000000003 -1.2775 1.2375 -0.635 2.35875 -1.3800000000000001 3.0112499999999995 -2.0100000000000002l0.00125 -0.0025 0.00375 -0.00375a8.93375 8.93375 0 0 0 2.04 -4.24875 0.29874999999999996 0.29874999999999996 0 0 1 0.43374999999999997 -0.21250000000000002c0.9075 0.47875 1.80375 0.7474999999999999 2.2025 0.24 1.12625 -1.45 -1.6512499999999999 -6.3462499999999995 -2.96 -8.473749999999999Zm-0.7525 13.4725a0.62875 0.62875 0 0 1 -0.1 0.12625c-0.775 0.75 -2.0175 1.5625 -3.30875 2.225 -0.595 0.305 -1.2175 0.5874999999999999 -1.825 0.8225a8.5 8.5 0 0 0 1.675 0.1175c2.6374999999999997 0 4.7825 -0.8825 4.7825 -1.9725000000000001 0 -0.5075000000000001 -0.4625 -0.96875 -1.22375 -1.3187499999999999ZM5.380000000000001 26.775000000000002c0 -0.5062500000000001 0.4625 -0.96625 1.21875 -1.31625a0.6225 0.6225 0 0 0 0.1 0.125c0.775 0.75 2.0175 1.56 3.3075 2.22375 0.59625 0.30625 1.21875 0.5874999999999999 1.8275 0.8225a8.5 8.5 0 0 1 -1.6725 0.1175c-2.6425 0 -4.78125 -0.8825 -4.78125 -1.9725000000000001ZM15 11.25c1.1375 0 2.465 -0.35874999999999996 3.4949999999999997 -0.805 0.42125 -0.1825 0.42750000000000005 -0.71875 0.01 -0.90875C17.71875 9.18125 16.4675 8.75 15 8.75s-2.72 0.43124999999999997 -3.50375 0.7875c-0.41875 0.18875 -0.41250000000000003 0.725 0.00875 0.9075C12.535 10.89125 13.86375 11.25 15 11.25Zm-1.5625 -6.25a0.9375 0.9375 0 0 0 -1.875 0v1.25a0.9375 0.9375 0 0 0 1.875 0V5Zm2.5 1.25a0.9375 0.9375 0 0 1 0.9375 -0.9375h1.25a0.9375 0.9375 0 0 1 0 1.875h-1.25a0.9375 0.9375 0 0 1 -0.9375 -0.9375Z" clip-rule="evenodd" stroke-width="1.25"></path>
</svg>