<svg xmlns="http://www.w3.org/2000/svg" fill="none" viewBox="0 0 30 30" id="Reddit-Logo--Streamline-Logos" height="30" width="30">
  <desc>
    Reddit Logo Streamline Icon: https://streamlinehq.com
  </desc>
  <path fill="#000000" fill-rule="evenodd" d="m20.939999999999998 5.7525 -3.9274999999999998 -0.8724999999999999 -0.9125 5.4662500000000005c2.725 0.1675 5.2162500000000005 0.95 7.146249999999999 2.1725a3.4375 3.4375 0 1 1 3.9037500000000005 5.5625c0.025 0.21999999999999997 0.0375 0.44375 0.0375 0.6687500000000001 0 2.4825 -1.50875 4.615 -3.7125000000000004 6.08375 -2.21 1.4725 -5.20875 2.35375 -8.475 2.35375 -3.26625 0 -6.265 -0.88125 -8.475 -2.35375C4.32125 23.365000000000002 2.8125 21.2325 2.8125 18.75c0 -0.22499999999999998 0.0125 -0.44875 0.0375 -0.6687500000000001A3.4375 3.4375 0 0 1 4.375 11.5625c0.92375 0 1.7625 0.365 2.37875 0.95625 2.0025 -1.2687499999999998 4.60625 -2.0625 7.45 -2.1875l1.12125 -6.734999999999999a0.9375 0.9375 0 0 1 1.1287500000000001 -0.7625l5.03375 1.12a2.8125 2.8125 0 1 1 -0.5475 1.7999999999999998ZM10 18.75a1.875 1.875 0 1 0 0 -3.75 1.875 1.875 0 0 0 0 3.75Zm11.875 -1.875a1.875 1.875 0 1 1 -3.75 0 1.875 1.875 0 0 1 3.75 0Zm-10.469999999999999 4.48a0.9375 0.9375 0 1 0 -1.56 1.04c0.3825 0.5750000000000001 1.09375 0.9725 1.9 1.2325 0.84125 0.27 1.9325 0.43499999999999994 3.255 0.43499999999999994s2.4125 -0.165 3.255 -0.43499999999999994c0.80625 -0.26 1.5175 -0.6587500000000001 1.9 -1.2325a0.9375 0.9375 0 1 0 -1.56 -1.04c-0.03375 0.051250000000000004 -0.26 0.2775 -0.9125 0.48750000000000004 -0.61625 0.1975 -1.505 0.34500000000000003 -2.6825 0.34500000000000003s-2.06625 -0.1475 -2.6825 -0.34500000000000003c-0.6525000000000001 -0.21000000000000002 -0.8787499999999999 -0.43624999999999997 -0.9125 -0.48750000000000004Z" clip-rule="evenodd" stroke-width="1.25"></path>
</svg>