<svg xmlns="http://www.w3.org/2000/svg" fill="none" viewBox="0 0 30 30" id="Shazam-Logo--Streamline-Logos" height="30" width="30">
  <desc>
    Shazam Logo Streamline Icon: https://streamlinehq.com
  </desc>
  <path fill="#000000" fill-rule="evenodd" d="M13.955 5.5175a2.5 2.5 0 0 0 -3.5349999999999997 -3.5349999999999997l-5.3125 5.3125a9.12875 9.12875 0 1 0 12.91 12.91l1.5625 -1.5625a2.5 2.5 0 0 0 -3.5349999999999997 -3.5349999999999997l-1.5625 1.5625a4.12875 4.12875 0 1 1 -5.84 -5.84l5.3125 -5.3125Zm10.9375 4.2775a9.12875 9.12875 0 0 0 -12.91 0l-1.5625 1.5625a2.5 2.5 0 0 0 3.5349999999999997 3.5349999999999997l1.5625 -1.5625a4.12875 4.12875 0 1 1 5.84 5.84l-5.3125 5.3125a2.5 2.5 0 1 0 3.5349999999999997 3.5349999999999997l5.3125 -5.3125a9.12875 9.12875 0 0 0 0 -12.91Z" clip-rule="evenodd" stroke-width="1.25"></path>
</svg>