<svg xmlns="http://www.w3.org/2000/svg" fill="none" viewBox="0 0 30 30" id="Speaker-2--Streamline-Core" height="30" width="30">
  <desc>
    Speaker 2 Streamline Icon: https://streamlinehq.com
  </desc>
  <g id="speaker-2--speakers-music-audio-entertainment">
    <path id="Union" fill="#000000" fill-rule="evenodd" d="M6.428571428571429 0c-1.7752071428571428 0 -3.2142857142857144 1.439085 -3.2142857142857144 3.2142857142857144v23.57142857142857c0 1.7751428571428571 1.4390785714285714 3.2142857142857144 3.2142857142857144 3.2142857142857144h17.142857142857142c1.7751428571428571 0 3.2142857142857144 -1.439142857142857 3.2142857142857144 -3.2142857142857144v-23.57142857142857C26.785714285714285 1.439085 25.34657142857143 0 23.57142857142857 0H6.428571428571429Zm6.067328571428571 6.547757142857142c0 -1.3829142857142858 1.1210785714285714 -2.5040142857142853 2.5040142857142853 -2.5040142857142853 1.3829142857142858 0 2.5039928571428574 1.1211 2.5039928571428574 2.5040142857142853 0 1.3829142857142858 -1.1210785714285714 2.5040142857142853 -2.5039928571428574 2.5040142857142853 -1.3829357142857142 0 -2.5040142857142853 -1.1211 -2.5040142857142853 -2.5040142857142853Zm9.555599999999998 12.737978571428572c0 3.8944071428571427 -3.15705 7.051692857142856 -7.051542857142857 7.051692857142856 -3.894492857142857 0 -7.051607142857143 -3.1572857142857145 -7.051607142857143 -7.051692857142856 0 -3.894492857142857 3.1571142857142855 -7.051607142857143 7.051607142857143 -7.051607142857143s7.051542857142857 3.1571142857142855 7.051542857142857 7.051607142857143Zm-9.53322857142857 0c0 -1.3706357142857144 1.1111142857142857 -2.48175 2.48175 -2.48175s2.48175 1.1111142857142857 2.48175 2.48175 -1.1111142857142857 2.4818357142857144 -2.48175 2.4818357142857144 -2.48175 -1.1112 -2.48175 -2.4818357142857144Z" clip-rule="evenodd" stroke-width="2.1429"></path>
  </g>
</svg>