<svg xmlns="http://www.w3.org/2000/svg" fill="none" viewBox="0 0 30 30" id="Unreal-Engine-Logo--Streamline-Logos" height="30" width="30">
  <desc>
    Unreal Engine Logo Streamline Icon: https://streamlinehq.com
  </desc>
  <path fill="#000000" fill-rule="evenodd" d="M15 28.75c7.59375 0 13.75 -6.15625 13.75 -13.75S22.59375 1.25 15 1.25 1.25 7.40625 1.25 15s6.15625 13.75 13.75 13.75Zm-10.5525 -11.77c0.8975 -2.9162500000000002 3.1624999999999996 -8.575000000000001 9.087499999999999 -10.73v12.787500000000001c0.22375 0.22499999999999998 0.80625 0.675 1.3450000000000002 0.675 0.8375 0 2.01875 -0.675 2.01875 -0.675V10.962499999999999c0.6937500000000001 -1.45 3.9037500000000005 -4.04 6.058750000000001 -4.04 -1.3050000000000002 1.505 -1.915 2.3874999999999997 -2.6925 4.03875v8.0775c0.8975 0.22499999999999998 2.6925 0 4.0375 -1.34625 -1.0875 2.475 -4.0375 5.385 -5.383750000000001 5.385l-2.02 -1.34625L14.879999999999999 23.75c-2.01875 0 -5.385 -1.34625 -6.731249999999999 -3.365h2.02v-7.7125c-2.45 -0.335 -3.57125 1.21625 -5.7212499999999995 4.3075Z" clip-rule="evenodd" stroke-width="1.25"></path>
</svg>