<svg xmlns="http://www.w3.org/2000/svg" fill="none" viewBox="0 0 30 30" id="Volume-Mute--Streamline-Core" height="30" width="30">
  <desc>
    Volume Mute Streamline Icon: https://streamlinehq.com
  </desc>
  <g id="volume-mute--speaker-remove-volume-control-audio-music-mute-off-cross-entertainment">
    <path id="Union" fill="#000000" fill-rule="evenodd" d="M19.285714285714285 6.439285714285714A3.1157142857142857 3.1157142857142857 0 0 0 14.391428571428571 3.814285714285714l-0.0064285714285714285 0.004285714285714286L6.09 9.642857142857142H3.2142857142857144C1.4571428571428573 9.642857142857142 0 11.1 0 12.857142857142858v4.285714285714286c0 1.757142857142857 1.4571428571428573 3.2142857142857144 3.2142857142857144 3.2142857142857144h2.869285714285714l8.1 5.82 0.015 0.010714285714285714c2.0785714285714283 1.44 5.031428571428571 -0.05142857142857143 5.087142857142857 -2.5928571428571425V6.439285714285714Zm10.242857142857144 4.478571428571428a1.6071428571428572 1.6071428571428572 0 0 1 0 2.2714285714285714L27.72 15l1.8085714285714285 1.8107142857142855a1.6071428571428572 1.6071428571428572 0 0 1 -2.2714285714285714 2.2714285714285714l-1.8107142857142855 -1.8085714285714285 -1.8107142857142855 1.8085714285714285a1.6071428571428572 1.6071428571428572 0 1 1 -2.2714285714285714 -2.2714285714285714L23.172857142857143 15l-1.8085714285714285 -1.8107142857142855a1.6071428571428572 1.6071428571428572 0 0 1 2.2714285714285714 -2.2714285714285714l1.8107142857142855 1.8085714285714285 1.8107142857142855 -1.8085714285714285a1.6071428571428572 1.6071428571428572 0 0 1 2.2714285714285714 0Z" clip-rule="evenodd" stroke-width="2.1429"></path>
  </g>
</svg>