<svg xmlns="http://www.w3.org/2000/svg" fill="none" viewBox="0 0 30 30" id="Volume-Level-Low--Streamline-Core" height="30" width="30">
  <desc>
    Volume Level Low Streamline Icon: https://streamlinehq.com
  </desc>
  <g id="volume-level-low--volume-speaker-lower-down-control-music-low-audio-entertainment">
    <path id="Union" fill="#000000" fill-rule="evenodd" d="M19.285714285714285 6.440142857142857c0.050292857142857146 -2.551585714285714 -2.790942857142857 -4.084371428571428 -4.895335714285714 -2.6283214285714287l-0.00002142857142857143 -0.00002142857142857143 -0.006257142857142857 0.004392857142857143 -8.29425 5.82675H3.2142857142857144c-1.7588764285714285 0 -3.2142857142857144 1.4554071428571427 -3.2142857142857144 3.2142857142857144v4.285714285714286c0 1.7588785714285715 1.4554092857142857 3.2142857142857144 3.2142857142857144 3.2142857142857144h2.8692214285714286L14.181857142857142 26.177142857142854l-0.00008571428571428571 0.0002142857142857143 0.01575 0.01092857142857143c2.0815285714285716 1.4402142857142857 5.031492857142857 -0.05121428571428571 5.087935714285714 -2.5930714285714282l0.00025714285714285715 0V6.440142857142857Zm5.172000000000001 4.3212214285714285c-0.5657142857142857 -0.6839357142857143 -1.5788571428571427 -0.7797857142857143 -2.262642857142857 -0.21405000000000002 -0.6839999999999999 0.5657357142857143 -0.7798499999999999 1.578792857142857 -0.21407142857142858 2.2627499999999996 0.4898571428571428 0.5921785714285713 0.741 1.345842857142857 0.7043571428571428 2.1134999999999997 -0.002357142857142857 0.050935714285714286 -0.002357142857142857 0.10193571428571428 0 0.15287142857142857 0.036642857142857144 0.7676571428571428 -0.21449999999999997 1.5213214285714285 -0.7043571428571428 2.1134999999999997 -0.5657785714285714 0.6839571428571429 -0.4699285714285714 1.6970142857142856 0.21407142857142858 2.2627499999999996 0.6837857142857142 0.5657357142857143 1.6969285714285716 0.4698857142857143 2.262642857142857 -0.21405000000000002 0.9837857142857143 -1.1893928571428571 1.4961428571428572 -2.697835714285714 1.4414999999999998 -4.2386357142857145 0.05464285714285714 -1.5408 -0.45771428571428574 -3.0492428571428567 -1.4414999999999998 -4.2386357142857145Z" clip-rule="evenodd" stroke-width="2.1429"></path>
  </g>
</svg>