<svg xmlns="http://www.w3.org/2000/svg" fill="none" viewBox="0 0 30 30" id="Whatsapp-Logo--Streamline-Logos" height="30" width="30">
  <desc>
    Whatsapp Logo Streamline Icon: https://streamlinehq.com
  </desc>
  <path fill="#000000" fill-rule="evenodd" d="M1.25 15C1.25 7.40625 7.40625 1.25 15 1.25s13.75 6.15625 13.75 13.75 -6.15625 13.75 -13.75 13.75c-2.42 0 -4.69625 -0.625 -6.6725 -1.7249999999999999L1.75 28.25l1.225 -6.5775A13.69 13.69 0 0 1 1.25 15Zm7.68375 -6.69125c0.8175 -0.8187500000000001 1.90875 -0.89125 2.4975 -0.8624999999999999 0.54375 0.025 0.97 0.34 1.23 0.705l1.19 1.6675a1.875 1.875 0 0 1 -0.2 2.415l-0.8425 0.84125c0.27875 0.68 0.8375 1.775 1.59 2.52625s1.8462500000000002 1.3125 2.525 1.5912499999999998l0.84375 -0.8425a1.875 1.875 0 0 1 2.4137500000000003 -0.2l1.66875 1.18875c0.36374999999999996 0.26125 0.68 0.6875 0.705 1.23 0.027499999999999997 0.58875 -0.045 1.6800000000000002 -0.8624999999999999 2.4987500000000002 -1.33375 1.3325 -3.42625 1.34625 -5.33 0.82375 -1.9375 -0.5325 -3.9124999999999996 -1.675 -5.24625 -3.0075000000000003 -1.3312499999999998 -1.3325 -2.475 -3.3075 -3.0075000000000003 -5.24625 -0.5225 -1.9037499999999998 -0.5087499999999999 -3.99625 0.8250000000000001 -5.328749999999999Z" clip-rule="evenodd" stroke-width="1.25"></path>
</svg>