<svg xmlns="http://www.w3.org/2000/svg" fill="none" viewBox="0 0 30 30" id="X-Twitter-Logo--Streamline-Logos" height="30" width="30">
  <desc>
    X Twitter Logo Streamline Icon: https://streamlinehq.com
  </desc>
  <path fill="#000000" fill-rule="evenodd" d="m16.8225 11.403049999999999 9.39475 -9.957125h3.1145l-0.013375 0.0147 -11.111500000000001 11.78 10.173125 13.50225c0.2585 0.34299999999999997 0.300625 0.80275 0.109 1.18725 -0.17937499999999998 0.35975 -0.5347500000000001 0.5955 -0.9316249999999999 0.62425h-6.3705c-0.32475 -0.0235 -0.6251249999999999 -0.186 -0.82275 -0.448125l-7.158625 -9.501375 -9.3399875 9.9495H0.6681824999999999l11.152905 -11.787125L1.6480375 3.2650625c-0.258475 -0.34305 -0.3006875 -0.8027875 -0.1090125 -1.187175 0.19166249999999999 -0.3844 0.5842499999999999 -0.6273249999999999 1.0137749999999999 -0.6273249999999999h6.206287499999999c0.35568750000000005 0 0.6907249999999999 0.1670625 0.9047624999999999 0.45115000000000005L16.8225 11.403049999999999Zm-0.9535 2.499575c-0.032125 -0.037375 -0.061375 -0.076375 -0.08787500000000001 -0.11674999999999999L8.194225000000001 3.7162125H4.8246625L21.83375 26.29175h3.369625l-9.334375 -12.389125Z" clip-rule="evenodd" stroke-width="1.25"></path>
</svg>