<svg xmlns="http://www.w3.org/2000/svg" fill="none" viewBox="0 0 30 30" id="Xbox-Live-Logo--Streamline-Logos" height="30" width="30">
  <desc>
    Xbox Live Logo Streamline Icon: https://streamlinehq.com
  </desc>
  <path fill="#000000" fill-rule="evenodd" d="M8.94 2.6537500000000005A13.69375 13.69375 0 0 1 15 1.25c2.175 0 4.231249999999999 0.505 6.06 1.40375A22.08625 22.08625 0 0 0 15 5.42125a22.083750000000002 22.083750000000002 0 0 0 -6.06 -2.7675ZM3.6712499999999997 22.79375A13.68625 13.68625 0 0 1 1.25 15a13.7125 13.7125 0 0 1 4.45 -10.12875C7.4350000000000005 5.43875 9.4575 6.625 11.530000000000001 8.225c-3.6525000000000003 3.5825 -6.345 8.535 -7.85875 14.57Zm20.69875 2.27A13.70125 13.70125 0 0 1 15 28.75c-3.62 0 -6.913749999999999 -1.4000000000000001 -9.370000000000001 -3.6875 1.5 -4.675000000000001 5.265 -9.8375 9.370000000000001 -13.819999999999999 4.1049999999999995 3.9837499999999997 7.87 9.14625 9.370000000000001 13.821250000000001Zm1.95875 -2.27A13.6875 13.6875 0 0 0 28.75 15a13.7125 13.7125 0 0 0 -4.45 -10.12875c-1.7337500000000001 0.5675 -3.7575 1.7537500000000001 -5.83 3.3512500000000003 3.6525000000000003 3.58375 6.34375 8.5375 7.85875 14.57125Z" clip-rule="evenodd" stroke-width="1.25"></path>
</svg>