<svg xmlns="http://www.w3.org/2000/svg" fill="none" viewBox="0 0 30 30" id="Youtube-Studio-Logo--Streamline-Logos" height="30" width="30">
  <desc>
    Youtube Studio Logo Streamline Icon: https://streamlinehq.com
  </desc>
  <path fill="#000000" fill-rule="evenodd" d="m14.357500000000002 1.01125 -11.25 6.75A1.25 1.25 0 0 0 2.5 8.8325v12.335a1.25 1.25 0 0 0 0.6074999999999999 1.07125l11.25 6.75a1.25 1.25 0 0 0 1.2850000000000001 0l11.25 -6.75a1.25 1.25 0 0 0 0.6074999999999999 -1.07125V8.8325a1.25 1.25 0 0 0 -0.60625 -1.07125l-11.25 -6.75a1.25 1.25 0 0 0 -1.2875 0Zm0.3275 4.699999999999999a0.625 0.625 0 0 1 0.63 0l7.5 4.375a0.625 0.625 0 0 1 0.31 0.53875v8.75a0.625 0.625 0 0 1 -0.31 0.54l-7.5 4.375a0.625 0.625 0 0 1 -0.63 0l-7.5 -4.375A0.625 0.625 0 0 1 6.875 19.375v-8.75a0.625 0.625 0 0 1 0.31 -0.54l7.5 -4.375ZM8.125 10.9825v8.0325L15 23.025000000000002l6.875 -4.01V10.98375L15 6.975 8.125 10.98375Zm11.25 4.01625L12.5 11.25v7.5l6.875 -3.75Z" clip-rule="evenodd" stroke-width="1.25"></path>
</svg>