<?xml version="1.0" standalone="no"?>
<!DOCTYPE svg PUBLIC "-//W3C//DTD SVG 20010904//EN"
 "http://www.w3.org/TR/2001/REC-SVG-20010904/DTD/svg10.dtd">
<svg version="1.0" xmlns="http://www.w3.org/2000/svg"
 width="30.000000pt" height="30.000000pt" viewBox="0 0 30.000000 30.000000"
 preserveAspectRatio="xMidYMid meet">
<metadata>
Created by potrace 1.16, written by Peter Selinger 2001-2019
</metadata>
<g transform="translate(0.000000,30.000000) scale(0.100000,-0.100000)"
fill="#000000" stroke="none">
<path d="M64 236 c-30 -30 -34 -40 -34 -86 0 -46 4 -56 35 -87 34 -34 37 -35
92 -29 32 3 68 6 79 7 15 1 22 8 23 23 1 11 4 47 7 79 6 55 5 58 -29 92 -31
31 -41 35 -87 35 -46 0 -56 -4 -86 -34z m162 -10 c36 -36 45 -86 23 -128 -11
-20 -11 -20 -35 3 -31 29 -44 16 -15 -15 23 -24 23 -24 3 -35 -70 -38 -162 19
-162 99 0 34 6 48 34 76 28 28 42 34 76 34 34 0 48 -6 76 -34z"/>
<path d="M89 211 c-20 -20 -29 -39 -29 -61 0 -62 83 -112 130 -79 11 8 8 9
-14 4 -96 -21 -145 108 -55 145 60 25 118 -29 104 -96 -5 -22 -4 -25 4 -14 33
47 -17 130 -79 130 -22 0 -41 -9 -61 -29z"/>
<path d="M120 175 c-15 -18 -10 -45 13 -59 34 -22 73 27 47 59 -16 19 -44 19
-60 0z m50 -11 c11 -12 10 -18 -3 -32 -16 -15 -18 -15 -34 0 -13 14 -14 20 -3
32 7 9 16 16 20 16 4 0 13 -7 20 -16z"/>
</g>
</svg>
