ISO-10303-21;
HEADER;
/* Generated by software containing ST-Developer
 * from STEP Tools, Inc. (www.steptools.com) 
 */

FILE_DESCRIPTION(
/* description */ (''),
/* implementation_level */ '2;1');

FILE_NAME(
/* name */ 'capuchon slider 3.step',
/* time_stamp */ '2025-12-26T15:59:43+01:00',
/* author */ (''),
/* organization */ (''),
/* preprocessor_version */ 'ST-DEVELOPER v20.1',
/* originating_system */ 'Autodesk Translation Framework v14.21.0.0',
/* authorisation */ '');

FILE_SCHEMA (('AUTOMOTIVE_DESIGN { 1 0 10303 214 3 1 1 }'));
ENDSEC;

DATA;
#10=MECHANICAL_DESIGN_GEOMETRIC_PRESENTATION_REPRESENTATION('',(#13),#537);
#11=SHAPE_REPRESENTATION_RELATIONSHIP('SRR','None',#544,#12);
#12=ADVANCED_BREP_SHAPE_REPRESENTATION('',(#14),#536);
#13=STYLED_ITEM('',(#554),#14);
#14=MANIFOLD_SOLID_BREP('Body7',#325);
#15=CYLINDRICAL_SURFACE('',#352,25.);
#16=CYLINDRICAL_SURFACE('',#355,25.);
#17=CIRCLE('',#350,25.);
#18=CIRCLE('',#351,25.);
#19=CIRCLE('',#353,25.);
#20=CIRCLE('',#356,25.);
#21=FACE_BOUND('',#50,.T.);
#22=FACE_BOUND('',#58,.T.);
#23=FACE_OUTER_BOUND('',#41,.T.);
#24=FACE_OUTER_BOUND('',#42,.T.);
#25=FACE_OUTER_BOUND('',#43,.T.);
#26=FACE_OUTER_BOUND('',#44,.T.);
#27=FACE_OUTER_BOUND('',#45,.T.);
#28=FACE_OUTER_BOUND('',#46,.T.);
#29=FACE_OUTER_BOUND('',#47,.T.);
#30=FACE_OUTER_BOUND('',#48,.T.);
#31=FACE_OUTER_BOUND('',#49,.T.);
#32=FACE_OUTER_BOUND('',#51,.T.);
#33=FACE_OUTER_BOUND('',#52,.T.);
#34=FACE_OUTER_BOUND('',#53,.T.);
#35=FACE_OUTER_BOUND('',#54,.T.);
#36=FACE_OUTER_BOUND('',#55,.T.);
#37=FACE_OUTER_BOUND('',#56,.T.);
#38=FACE_OUTER_BOUND('',#57,.T.);
#39=FACE_OUTER_BOUND('',#59,.T.);
#40=FACE_OUTER_BOUND('',#60,.T.);
#41=EDGE_LOOP('',(#207,#208,#209,#210));
#42=EDGE_LOOP('',(#211,#212,#213,#214));
#43=EDGE_LOOP('',(#215,#216,#217,#218));
#44=EDGE_LOOP('',(#219,#220,#221,#222));
#45=EDGE_LOOP('',(#223,#224,#225,#226));
#46=EDGE_LOOP('',(#227,#228,#229,#230));
#47=EDGE_LOOP('',(#231,#232,#233,#234));
#48=EDGE_LOOP('',(#235,#236,#237,#238));
#49=EDGE_LOOP('',(#239,#240,#241,#242));
#50=EDGE_LOOP('',(#243,#244,#245,#246));
#51=EDGE_LOOP('',(#247,#248,#249,#250));
#52=EDGE_LOOP('',(#251,#252,#253,#254,#255,#256));
#53=EDGE_LOOP('',(#257,#258,#259,#260));
#54=EDGE_LOOP('',(#261,#262,#263,#264));
#55=EDGE_LOOP('',(#265,#266,#267,#268));
#56=EDGE_LOOP('',(#269,#270,#271,#272));
#57=EDGE_LOOP('',(#273,#274,#275,#276));
#58=EDGE_LOOP('',(#277,#278,#279,#280));
#59=EDGE_LOOP('',(#281,#282,#283,#284));
#60=EDGE_LOOP('',(#285,#286,#287,#288,#289,#290));
#61=LINE('',#449,#99);
#62=LINE('',#451,#100);
#63=LINE('',#453,#101);
#64=LINE('',#454,#102);
#65=LINE('',#457,#103);
#66=LINE('',#459,#104);
#67=LINE('',#460,#105);
#68=LINE('',#463,#106);
#69=LINE('',#464,#107);
#70=LINE('',#467,#108);
#71=LINE('',#468,#109);
#72=LINE('',#470,#110);
#73=LINE('',#474,#111);
#74=LINE('',#476,#112);
#75=LINE('',#478,#113);
#76=LINE('',#479,#114);
#77=LINE('',#482,#115);
#78=LINE('',#484,#116);
#79=LINE('',#485,#117);
#80=LINE('',#488,#118);
#81=LINE('',#490,#119);
#82=LINE('',#491,#120);
#83=LINE('',#493,#121);
#84=LINE('',#495,#122);
#85=LINE('',#499,#123);
#86=LINE('',#503,#124);
#87=LINE('',#507,#125);
#88=LINE('',#508,#126);
#89=LINE('',#511,#127);
#90=LINE('',#514,#128);
#91=LINE('',#517,#129);
#92=LINE('',#518,#130);
#93=LINE('',#522,#131);
#94=LINE('',#525,#132);
#95=LINE('',#526,#133);
#96=LINE('',#529,#134);
#97=LINE('',#530,#135);
#98=LINE('',#532,#136);
#99=VECTOR('',#365,10.);
#100=VECTOR('',#366,10.);
#101=VECTOR('',#367,10.);
#102=VECTOR('',#368,10.);
#103=VECTOR('',#371,10.);
#104=VECTOR('',#372,10.);
#105=VECTOR('',#373,10.);
#106=VECTOR('',#376,10.);
#107=VECTOR('',#377,10.);
#108=VECTOR('',#380,10.);
#109=VECTOR('',#381,10.);
#110=VECTOR('',#384,10.);
#111=VECTOR('',#387,10.);
#112=VECTOR('',#388,10.);
#113=VECTOR('',#389,10.);
#114=VECTOR('',#390,10.);
#115=VECTOR('',#393,10.);
#116=VECTOR('',#394,10.);
#117=VECTOR('',#395,10.);
#118=VECTOR('',#398,10.);
#119=VECTOR('',#399,10.);
#120=VECTOR('',#400,10.);
#121=VECTOR('',#403,10.);
#122=VECTOR('',#406,10.);
#123=VECTOR('',#409,10.);
#124=VECTOR('',#412,10.);
#125=VECTOR('',#415,10.);
#126=VECTOR('',#416,10.);
#127=VECTOR('',#419,10.);
#128=VECTOR('',#422,10.);
#129=VECTOR('',#425,10.);
#130=VECTOR('',#426,10.);
#131=VECTOR('',#431,10.);
#132=VECTOR('',#434,10.);
#133=VECTOR('',#435,10.);
#134=VECTOR('',#438,10.);
#135=VECTOR('',#439,10.);
#136=VECTOR('',#442,10.);
#137=VERTEX_POINT('',#447);
#138=VERTEX_POINT('',#448);
#139=VERTEX_POINT('',#450);
#140=VERTEX_POINT('',#452);
#141=VERTEX_POINT('',#456);
#142=VERTEX_POINT('',#458);
#143=VERTEX_POINT('',#462);
#144=VERTEX_POINT('',#466);
#145=VERTEX_POINT('',#472);
#146=VERTEX_POINT('',#473);
#147=VERTEX_POINT('',#475);
#148=VERTEX_POINT('',#477);
#149=VERTEX_POINT('',#481);
#150=VERTEX_POINT('',#483);
#151=VERTEX_POINT('',#487);
#152=VERTEX_POINT('',#489);
#153=VERTEX_POINT('',#497);
#154=VERTEX_POINT('',#498);
#155=VERTEX_POINT('',#500);
#156=VERTEX_POINT('',#502);
#157=VERTEX_POINT('',#504);
#158=VERTEX_POINT('',#506);
#159=VERTEX_POINT('',#510);
#160=VERTEX_POINT('',#512);
#161=VERTEX_POINT('',#516);
#162=VERTEX_POINT('',#520);
#163=VERTEX_POINT('',#524);
#164=VERTEX_POINT('',#528);
#165=EDGE_CURVE('',#137,#138,#61,.T.);
#166=EDGE_CURVE('',#139,#137,#62,.T.);
#167=EDGE_CURVE('',#140,#139,#63,.T.);
#168=EDGE_CURVE('',#138,#140,#64,.T.);
#169=EDGE_CURVE('',#141,#138,#65,.T.);
#170=EDGE_CURVE('',#140,#142,#66,.T.);
#171=EDGE_CURVE('',#142,#141,#67,.T.);
#172=EDGE_CURVE('',#143,#139,#68,.T.);
#173=EDGE_CURVE('',#143,#142,#69,.T.);
#174=EDGE_CURVE('',#137,#144,#70,.T.);
#175=EDGE_CURVE('',#141,#144,#71,.T.);
#176=EDGE_CURVE('',#144,#143,#72,.T.);
#177=EDGE_CURVE('',#145,#146,#73,.T.);
#178=EDGE_CURVE('',#146,#147,#74,.T.);
#179=EDGE_CURVE('',#148,#147,#75,.T.);
#180=EDGE_CURVE('',#148,#145,#76,.T.);
#181=EDGE_CURVE('',#146,#149,#77,.T.);
#182=EDGE_CURVE('',#150,#149,#78,.T.);
#183=EDGE_CURVE('',#147,#150,#79,.T.);
#184=EDGE_CURVE('',#151,#148,#80,.T.);
#185=EDGE_CURVE('',#152,#151,#81,.T.);
#186=EDGE_CURVE('',#145,#152,#82,.T.);
#187=EDGE_CURVE('',#149,#152,#83,.T.);
#188=EDGE_CURVE('',#150,#151,#84,.T.);
#189=EDGE_CURVE('',#153,#154,#85,.T.);
#190=EDGE_CURVE('',#154,#155,#17,.T.);
#191=EDGE_CURVE('',#155,#156,#86,.T.);
#192=EDGE_CURVE('',#156,#157,#18,.T.);
#193=EDGE_CURVE('',#157,#158,#87,.T.);
#194=EDGE_CURVE('',#158,#153,#88,.T.);
#195=EDGE_CURVE('',#159,#154,#89,.T.);
#196=EDGE_CURVE('',#160,#159,#19,.T.);
#197=EDGE_CURVE('',#155,#160,#90,.T.);
#198=EDGE_CURVE('',#161,#160,#91,.T.);
#199=EDGE_CURVE('',#156,#161,#92,.T.);
#200=EDGE_CURVE('',#162,#161,#20,.T.);
#201=EDGE_CURVE('',#157,#162,#93,.T.);
#202=EDGE_CURVE('',#163,#162,#94,.T.);
#203=EDGE_CURVE('',#158,#163,#95,.T.);
#204=EDGE_CURVE('',#164,#163,#96,.T.);
#205=EDGE_CURVE('',#153,#164,#97,.T.);
#206=EDGE_CURVE('',#159,#164,#98,.T.);
#207=ORIENTED_EDGE('',*,*,#165,.F.);
#208=ORIENTED_EDGE('',*,*,#166,.F.);
#209=ORIENTED_EDGE('',*,*,#167,.F.);
#210=ORIENTED_EDGE('',*,*,#168,.F.);
#211=ORIENTED_EDGE('',*,*,#169,.T.);
#212=ORIENTED_EDGE('',*,*,#168,.T.);
#213=ORIENTED_EDGE('',*,*,#170,.T.);
#214=ORIENTED_EDGE('',*,*,#171,.T.);
#215=ORIENTED_EDGE('',*,*,#170,.F.);
#216=ORIENTED_EDGE('',*,*,#167,.T.);
#217=ORIENTED_EDGE('',*,*,#172,.F.);
#218=ORIENTED_EDGE('',*,*,#173,.T.);
#219=ORIENTED_EDGE('',*,*,#174,.F.);
#220=ORIENTED_EDGE('',*,*,#165,.T.);
#221=ORIENTED_EDGE('',*,*,#169,.F.);
#222=ORIENTED_EDGE('',*,*,#175,.T.);
#223=ORIENTED_EDGE('',*,*,#175,.F.);
#224=ORIENTED_EDGE('',*,*,#171,.F.);
#225=ORIENTED_EDGE('',*,*,#173,.F.);
#226=ORIENTED_EDGE('',*,*,#176,.F.);
#227=ORIENTED_EDGE('',*,*,#177,.T.);
#228=ORIENTED_EDGE('',*,*,#178,.T.);
#229=ORIENTED_EDGE('',*,*,#179,.F.);
#230=ORIENTED_EDGE('',*,*,#180,.T.);
#231=ORIENTED_EDGE('',*,*,#181,.T.);
#232=ORIENTED_EDGE('',*,*,#182,.F.);
#233=ORIENTED_EDGE('',*,*,#183,.F.);
#234=ORIENTED_EDGE('',*,*,#178,.F.);
#235=ORIENTED_EDGE('',*,*,#184,.F.);
#236=ORIENTED_EDGE('',*,*,#185,.F.);
#237=ORIENTED_EDGE('',*,*,#186,.F.);
#238=ORIENTED_EDGE('',*,*,#180,.F.);
#239=ORIENTED_EDGE('',*,*,#186,.T.);
#240=ORIENTED_EDGE('',*,*,#187,.F.);
#241=ORIENTED_EDGE('',*,*,#181,.F.);
#242=ORIENTED_EDGE('',*,*,#177,.F.);
#243=ORIENTED_EDGE('',*,*,#166,.T.);
#244=ORIENTED_EDGE('',*,*,#174,.T.);
#245=ORIENTED_EDGE('',*,*,#176,.T.);
#246=ORIENTED_EDGE('',*,*,#172,.T.);
#247=ORIENTED_EDGE('',*,*,#187,.T.);
#248=ORIENTED_EDGE('',*,*,#185,.T.);
#249=ORIENTED_EDGE('',*,*,#188,.F.);
#250=ORIENTED_EDGE('',*,*,#182,.T.);
#251=ORIENTED_EDGE('',*,*,#189,.T.);
#252=ORIENTED_EDGE('',*,*,#190,.T.);
#253=ORIENTED_EDGE('',*,*,#191,.T.);
#254=ORIENTED_EDGE('',*,*,#192,.T.);
#255=ORIENTED_EDGE('',*,*,#193,.T.);
#256=ORIENTED_EDGE('',*,*,#194,.T.);
#257=ORIENTED_EDGE('',*,*,#195,.F.);
#258=ORIENTED_EDGE('',*,*,#196,.F.);
#259=ORIENTED_EDGE('',*,*,#197,.F.);
#260=ORIENTED_EDGE('',*,*,#190,.F.);
#261=ORIENTED_EDGE('',*,*,#197,.T.);
#262=ORIENTED_EDGE('',*,*,#198,.F.);
#263=ORIENTED_EDGE('',*,*,#199,.F.);
#264=ORIENTED_EDGE('',*,*,#191,.F.);
#265=ORIENTED_EDGE('',*,*,#199,.T.);
#266=ORIENTED_EDGE('',*,*,#200,.F.);
#267=ORIENTED_EDGE('',*,*,#201,.F.);
#268=ORIENTED_EDGE('',*,*,#192,.F.);
#269=ORIENTED_EDGE('',*,*,#201,.T.);
#270=ORIENTED_EDGE('',*,*,#202,.F.);
#271=ORIENTED_EDGE('',*,*,#203,.F.);
#272=ORIENTED_EDGE('',*,*,#193,.F.);
#273=ORIENTED_EDGE('',*,*,#203,.T.);
#274=ORIENTED_EDGE('',*,*,#204,.F.);
#275=ORIENTED_EDGE('',*,*,#205,.F.);
#276=ORIENTED_EDGE('',*,*,#194,.F.);
#277=ORIENTED_EDGE('',*,*,#179,.T.);
#278=ORIENTED_EDGE('',*,*,#183,.T.);
#279=ORIENTED_EDGE('',*,*,#188,.T.);
#280=ORIENTED_EDGE('',*,*,#184,.T.);
#281=ORIENTED_EDGE('',*,*,#205,.T.);
#282=ORIENTED_EDGE('',*,*,#206,.F.);
#283=ORIENTED_EDGE('',*,*,#195,.T.);
#284=ORIENTED_EDGE('',*,*,#189,.F.);
#285=ORIENTED_EDGE('',*,*,#206,.T.);
#286=ORIENTED_EDGE('',*,*,#204,.T.);
#287=ORIENTED_EDGE('',*,*,#202,.T.);
#288=ORIENTED_EDGE('',*,*,#200,.T.);
#289=ORIENTED_EDGE('',*,*,#198,.T.);
#290=ORIENTED_EDGE('',*,*,#196,.T.);
#291=PLANE('',#339);
#292=PLANE('',#340);
#293=PLANE('',#341);
#294=PLANE('',#342);
#295=PLANE('',#343);
#296=PLANE('',#344);
#297=PLANE('',#345);
#298=PLANE('',#346);
#299=PLANE('',#347);
#300=PLANE('',#348);
#301=PLANE('',#349);
#302=PLANE('',#354);
#303=PLANE('',#357);
#304=PLANE('',#358);
#305=PLANE('',#359);
#306=PLANE('',#360);
#307=ADVANCED_FACE('',(#23),#291,.F.);
#308=ADVANCED_FACE('',(#24),#292,.F.);
#309=ADVANCED_FACE('',(#25),#293,.F.);
#310=ADVANCED_FACE('',(#26),#294,.F.);
#311=ADVANCED_FACE('',(#27),#295,.F.);
#312=ADVANCED_FACE('',(#28),#296,.T.);
#313=ADVANCED_FACE('',(#29),#297,.T.);
#314=ADVANCED_FACE('',(#30),#298,.T.);
#315=ADVANCED_FACE('',(#31,#21),#299,.T.);
#316=ADVANCED_FACE('',(#32),#300,.T.);
#317=ADVANCED_FACE('',(#33),#301,.F.);
#318=ADVANCED_FACE('',(#34),#15,.F.);
#319=ADVANCED_FACE('',(#35),#302,.T.);
#320=ADVANCED_FACE('',(#36),#16,.F.);
#321=ADVANCED_FACE('',(#37),#303,.T.);
#322=ADVANCED_FACE('',(#38,#22),#304,.T.);
#323=ADVANCED_FACE('',(#39),#305,.T.);
#324=ADVANCED_FACE('',(#40),#306,.T.);
#325=CLOSED_SHELL('',(#307,#308,#309,#310,#311,#312,#313,#314,#315,#316,
#317,#318,#319,#320,#321,#322,#323,#324));
#326=DERIVED_UNIT_ELEMENT(#328,1.);
#327=DERIVED_UNIT_ELEMENT(#539,-3.);
#328=(
MASS_UNIT()
NAMED_UNIT(*)
SI_UNIT(.KILO.,.GRAM.)
);
#329=DERIVED_UNIT((#326,#327));
#330=MEASURE_REPRESENTATION_ITEM('density measure',
POSITIVE_RATIO_MEASURE(7850.),#329);
#331=PROPERTY_DEFINITION_REPRESENTATION(#336,#333);
#332=PROPERTY_DEFINITION_REPRESENTATION(#337,#334);
#333=REPRESENTATION('material name',(#335),#536);
#334=REPRESENTATION('density',(#330),#536);
#335=DESCRIPTIVE_REPRESENTATION_ITEM('Steel','Steel');
#336=PROPERTY_DEFINITION('material property','material name',#546);
#337=PROPERTY_DEFINITION('material property','density of part',#546);
#338=AXIS2_PLACEMENT_3D('',#445,#361,#362);
#339=AXIS2_PLACEMENT_3D('',#446,#363,#364);
#340=AXIS2_PLACEMENT_3D('',#455,#369,#370);
#341=AXIS2_PLACEMENT_3D('',#461,#374,#375);
#342=AXIS2_PLACEMENT_3D('',#465,#378,#379);
#343=AXIS2_PLACEMENT_3D('',#469,#382,#383);
#344=AXIS2_PLACEMENT_3D('',#471,#385,#386);
#345=AXIS2_PLACEMENT_3D('',#480,#391,#392);
#346=AXIS2_PLACEMENT_3D('',#486,#396,#397);
#347=AXIS2_PLACEMENT_3D('',#492,#401,#402);
#348=AXIS2_PLACEMENT_3D('',#494,#404,#405);
#349=AXIS2_PLACEMENT_3D('',#496,#407,#408);
#350=AXIS2_PLACEMENT_3D('',#501,#410,#411);
#351=AXIS2_PLACEMENT_3D('',#505,#413,#414);
#352=AXIS2_PLACEMENT_3D('',#509,#417,#418);
#353=AXIS2_PLACEMENT_3D('',#513,#420,#421);
#354=AXIS2_PLACEMENT_3D('',#515,#423,#424);
#355=AXIS2_PLACEMENT_3D('',#519,#427,#428);
#356=AXIS2_PLACEMENT_3D('',#521,#429,#430);
#357=AXIS2_PLACEMENT_3D('',#523,#432,#433);
#358=AXIS2_PLACEMENT_3D('',#527,#436,#437);
#359=AXIS2_PLACEMENT_3D('',#531,#440,#441);
#360=AXIS2_PLACEMENT_3D('',#533,#443,#444);
#361=DIRECTION('axis',(0.,0.,1.));
#362=DIRECTION('refdir',(1.,0.,0.));
#363=DIRECTION('center_axis',(0.,0.,-1.));
#364=DIRECTION('ref_axis',(-1.,0.,0.));
#365=DIRECTION('',(0.0501993642032737,0.998739217130071,0.));
#366=DIRECTION('',(-1.,0.,0.));
#367=DIRECTION('',(0.0496760876015909,-0.998765381018284,0.));
#368=DIRECTION('',(1.,1.8503717077086E-16,0.));
#369=DIRECTION('center_axis',(-1.8503717077086E-16,1.,0.));
#370=DIRECTION('ref_axis',(-1.,-1.8503717077086E-16,0.));
#371=DIRECTION('',(0.,0.,-1.));
#372=DIRECTION('',(0.,0.,1.));
#373=DIRECTION('',(-1.,-1.8503717077086E-16,0.));
#374=DIRECTION('center_axis',(0.998765381018285,0.0496760876015909,0.));
#375=DIRECTION('ref_axis',(-0.0496760876015909,0.998765381018284,0.));
#376=DIRECTION('',(0.,0.,-1.));
#377=DIRECTION('',(-0.0496760876015909,0.998765381018284,0.));
#378=DIRECTION('center_axis',(-0.998739217130071,0.0501993642032737,0.));
#379=DIRECTION('ref_axis',(-0.0501993642032737,-0.998739217130071,0.));
#380=DIRECTION('',(0.,0.,1.));
#381=DIRECTION('',(-0.0501993642032737,-0.998739217130071,0.));
#382=DIRECTION('center_axis',(0.,0.,1.));
#383=DIRECTION('ref_axis',(1.,0.,0.));
#384=DIRECTION('',(1.,0.,0.));
#385=DIRECTION('center_axis',(0.,0.,-1.));
#386=DIRECTION('ref_axis',(-1.,0.,0.));
#387=DIRECTION('',(-1.,0.,0.));
#388=DIRECTION('',(0.0501993642032729,0.998739217130071,0.));
#389=DIRECTION('',(-1.,0.,0.));
#390=DIRECTION('',(0.0496760876015908,-0.998765381018284,0.));
#391=DIRECTION('center_axis',(-0.998739217130071,0.0501993642032729,0.));
#392=DIRECTION('ref_axis',(-0.0501993642032729,-0.998739217130071,0.));
#393=DIRECTION('',(0.,0.,1.));
#394=DIRECTION('',(-0.0501993642032729,-0.998739217130071,0.));
#395=DIRECTION('',(0.,0.,1.));
#396=DIRECTION('center_axis',(0.998765381018285,0.0496760876015908,0.));
#397=DIRECTION('ref_axis',(-0.0496760876015908,0.998765381018284,0.));
#398=DIRECTION('',(0.,0.,-1.));
#399=DIRECTION('',(-0.0496760876015908,0.998765381018284,0.));
#400=DIRECTION('',(0.,0.,1.));
#401=DIRECTION('center_axis',(0.,-1.,0.));
#402=DIRECTION('ref_axis',(1.,0.,0.));
#403=DIRECTION('',(1.,0.,0.));
#404=DIRECTION('center_axis',(0.,0.,1.));
#405=DIRECTION('ref_axis',(1.,0.,0.));
#406=DIRECTION('',(1.,0.,0.));
#407=DIRECTION('center_axis',(0.,0.,1.));
#408=DIRECTION('ref_axis',(1.,0.,0.));
#409=DIRECTION('',(0.,1.,0.));
#410=DIRECTION('center_axis',(0.,0.,1.));
#411=DIRECTION('ref_axis',(1.,0.,0.));
#412=DIRECTION('',(1.,-1.20992088077591E-15,0.));
#413=DIRECTION('center_axis',(0.,0.,1.));
#414=DIRECTION('ref_axis',(1.,0.,0.));
#415=DIRECTION('',(0.,-1.,0.));
#416=DIRECTION('',(-1.,0.,0.));
#417=DIRECTION('center_axis',(0.,0.,1.));
#418=DIRECTION('ref_axis',(1.,0.,0.));
#419=DIRECTION('',(0.,0.,-1.));
#420=DIRECTION('center_axis',(0.,0.,-1.));
#421=DIRECTION('ref_axis',(1.,0.,0.));
#422=DIRECTION('',(0.,0.,1.));
#423=DIRECTION('center_axis',(1.20992088077591E-15,1.,0.));
#424=DIRECTION('ref_axis',(-1.,1.20992088077591E-15,0.));
#425=DIRECTION('',(-1.,1.20992088077591E-15,0.));
#426=DIRECTION('',(0.,0.,1.));
#427=DIRECTION('center_axis',(0.,0.,1.));
#428=DIRECTION('ref_axis',(1.,0.,0.));
#429=DIRECTION('center_axis',(0.,0.,-1.));
#430=DIRECTION('ref_axis',(1.,0.,0.));
#431=DIRECTION('',(0.,0.,1.));
#432=DIRECTION('center_axis',(1.,0.,0.));
#433=DIRECTION('ref_axis',(0.,1.,0.));
#434=DIRECTION('',(0.,1.,0.));
#435=DIRECTION('',(0.,0.,1.));
#436=DIRECTION('center_axis',(0.,-1.,0.));
#437=DIRECTION('ref_axis',(1.,0.,0.));
#438=DIRECTION('',(1.,0.,0.));
#439=DIRECTION('',(0.,0.,1.));
#440=DIRECTION('center_axis',(-1.,0.,0.));
#441=DIRECTION('ref_axis',(0.,-1.,0.));
#442=DIRECTION('',(0.,-1.,0.));
#443=DIRECTION('center_axis',(0.,0.,1.));
#444=DIRECTION('ref_axis',(1.,0.,0.));
#445=CARTESIAN_POINT('',(0.,0.,0.));
#446=CARTESIAN_POINT('Origin',(-0.0225393214036132,-0.199988547257319,-0.7));
#447=CARTESIAN_POINT('',(-2.02253932140361,-5.19997709456355,-0.7));
#448=CARTESIAN_POINT('',(-1.51991312671052,4.80000000004892,-0.7));
#449=CARTESIAN_POINT('',(-2.02253932140361,-5.19997709456355,-0.7));
#450=CARTESIAN_POINT('',(1.97746067859639,-5.19997709456355,-0.7));
#451=CARTESIAN_POINT('',(-2.02380169585362,-5.19997709456355,-0.7));
#452=CARTESIAN_POINT('',(1.48008687328948,4.80000000004892,-0.7));
#453=CARTESIAN_POINT('',(1.48008687328948,4.80000000004892,-0.7));
#454=CARTESIAN_POINT('',(-1.51991312671052,4.80000000004892,-0.7));
#455=CARTESIAN_POINT('Origin',(1.48008687328948,4.80000000004892,0.));
#456=CARTESIAN_POINT('',(-1.51991312671052,4.80000000004892,0.7));
#457=CARTESIAN_POINT('',(-1.51991312671052,4.80000000004892,0.));
#458=CARTESIAN_POINT('',(1.48008687328948,4.80000000004892,0.7));
#459=CARTESIAN_POINT('',(1.48008687328948,4.80000000004892,0.));
#460=CARTESIAN_POINT('',(-1.51991312671052,4.80000000004892,0.7));
#461=CARTESIAN_POINT('Origin',(1.97746067859639,-5.19997709456355,0.));
#462=CARTESIAN_POINT('',(1.97746067859639,-5.19997709456355,0.7));
#463=CARTESIAN_POINT('',(1.97746067859639,-5.19997709456355,0.));
#464=CARTESIAN_POINT('',(1.48008687328948,4.80000000004892,0.7));
#465=CARTESIAN_POINT('Origin',(-1.51991312671052,4.80000000004891,0.));
#466=CARTESIAN_POINT('',(-2.02253932140361,-5.19997709456355,0.7));
#467=CARTESIAN_POINT('',(-2.02253932140361,-5.19997709456355,0.));
#468=CARTESIAN_POINT('',(-2.02253932140361,-5.19997709456355,0.7));
#469=CARTESIAN_POINT('Origin',(-0.0225393214036132,-0.199988547257319,0.7));
#470=CARTESIAN_POINT('',(-2.02380169585362,-5.19997709456355,0.7));
#471=CARTESIAN_POINT('Origin',(-0.022565550703646,-4.19997709456561,-2.65));
#472=CARTESIAN_POINT('',(3.97993296889634,-5.19997709456355,-2.65));
#473=CARTESIAN_POINT('',(-4.02506407030364,-5.19997709456355,-2.65));
#474=CARTESIAN_POINT('',(-2.02253932140361,-5.19997709456355,-2.65));
#475=CARTESIAN_POINT('',(-3.92453860110774,-3.19997709456766,-2.65));
#476=CARTESIAN_POINT('',(-4.02506407030364,-5.19997709456355,-2.65));
#477=CARTESIAN_POINT('',(3.88045797998385,-3.19997709456766,-2.65));
#478=CARTESIAN_POINT('',(-3.14195234333813,-3.19997709456766,-2.65));
#479=CARTESIAN_POINT('',(3.42287417024181,6.00000000004892,-2.65));
#480=CARTESIAN_POINT('Origin',(-3.92453860110774,-3.19997709456766,0.));
#481=CARTESIAN_POINT('',(-4.02506407030364,-5.19997709456355,2.65));
#482=CARTESIAN_POINT('',(-4.02506407030364,-5.19997709456355,0.));
#483=CARTESIAN_POINT('',(-3.92453860110774,-3.19997709456766,2.65));
#484=CARTESIAN_POINT('',(-4.02506407030364,-5.19997709456355,2.65));
#485=CARTESIAN_POINT('',(-3.92453860110774,-3.19997709456766,0.));
#486=CARTESIAN_POINT('Origin',(3.97993296889634,-5.19997709456355,0.));
#487=CARTESIAN_POINT('',(3.88045797998385,-3.19997709456766,2.65));
#488=CARTESIAN_POINT('',(3.88045797998385,-3.19997709456766,0.));
#489=CARTESIAN_POINT('',(3.97993296889634,-5.19997709456355,2.65));
#490=CARTESIAN_POINT('',(3.42287417024181,6.00000000004892,2.65));
#491=CARTESIAN_POINT('',(3.97993296889634,-5.19997709456355,0.));
#492=CARTESIAN_POINT('Origin',(-4.02506407030364,-5.19997709456355,0.));
#493=CARTESIAN_POINT('',(-2.02253932140361,-5.19997709456355,2.65));
#494=CARTESIAN_POINT('Origin',(-0.022565550703646,-4.19997709456561,2.65));
#495=CARTESIAN_POINT('',(-3.14195234333813,-3.19997709456766,2.65));
#496=CARTESIAN_POINT('Origin',(0.,1.90001145274063,-7.5));
#497=CARTESIAN_POINT('',(-6.26133913597261,-3.19997709456766,-7.5));
#498=CARTESIAN_POINT('',(-6.26133913597261,-2.19997709456766,-7.5));
#499=CARTESIAN_POINT('',(-6.26133913597261,-2.19997709456766,-7.5));
#500=CARTESIAN_POINT('',(-1.83519937917459,7.00000000004892,-7.5));
#501=CARTESIAN_POINT('Origin',(-26.1020122217036,13.0101409689173,-7.5));
#502=CARTESIAN_POINT('',(1.83519937917459,7.00000000004892,-7.5));
#503=CARTESIAN_POINT('',(-1.83519937917459,7.00000000004892,-7.5));
#504=CARTESIAN_POINT('',(6.26133913597261,-2.19997709456766,-7.5));
#505=CARTESIAN_POINT('Origin',(26.1020122217036,13.0101409689173,-7.5));
#506=CARTESIAN_POINT('',(6.26133913597261,-3.19997709456766,-7.5));
#507=CARTESIAN_POINT('',(6.26133913597261,-2.19997709456766,-7.5));
#508=CARTESIAN_POINT('',(-7.06961688197086,-3.19997709456766,-7.5));
#509=CARTESIAN_POINT('Origin',(-26.1020122217036,13.0101409689173,0.));
#510=CARTESIAN_POINT('',(-6.26133913597261,-2.19997709456766,7.5));
#511=CARTESIAN_POINT('',(-6.26133913597261,-2.19997709456766,0.));
#512=CARTESIAN_POINT('',(-1.83519937917459,7.00000000004892,7.5));
#513=CARTESIAN_POINT('Origin',(-26.1020122217036,13.0101409689173,7.5));
#514=CARTESIAN_POINT('',(-1.83519937917459,7.00000000004892,0.));
#515=CARTESIAN_POINT('Origin',(1.83519937917459,7.00000000004891,0.));
#516=CARTESIAN_POINT('',(1.83519937917459,7.00000000004892,7.5));
#517=CARTESIAN_POINT('',(-1.83519937917459,7.00000000004892,7.5));
#518=CARTESIAN_POINT('',(1.83519937917459,7.00000000004891,0.));
#519=CARTESIAN_POINT('Origin',(26.1020122217036,13.0101409689173,0.));
#520=CARTESIAN_POINT('',(6.26133913597261,-2.19997709456766,7.5));
#521=CARTESIAN_POINT('Origin',(26.1020122217036,13.0101409689173,7.5));
#522=CARTESIAN_POINT('',(6.26133913597261,-2.19997709456766,0.));
#523=CARTESIAN_POINT('Origin',(6.26133913597261,-3.19997709456766,0.));
#524=CARTESIAN_POINT('',(6.26133913597261,-3.19997709456766,7.5));
#525=CARTESIAN_POINT('',(6.26133913597261,-2.19997709456766,7.5));
#526=CARTESIAN_POINT('',(6.26133913597261,-3.19997709456766,0.));
#527=CARTESIAN_POINT('Origin',(-6.26133913597261,-3.19997709456766,0.));
#528=CARTESIAN_POINT('',(-6.26133913597261,-3.19997709456766,7.5));
#529=CARTESIAN_POINT('',(-7.06961688197086,-3.19997709456766,7.5));
#530=CARTESIAN_POINT('',(-6.26133913597261,-3.19997709456766,0.));
#531=CARTESIAN_POINT('Origin',(-6.26133913597261,-2.19997709456766,0.));
#532=CARTESIAN_POINT('',(-6.26133913597261,-2.19997709456766,7.5));
#533=CARTESIAN_POINT('Origin',(0.,1.90001145274063,7.5));
#534=UNCERTAINTY_MEASURE_WITH_UNIT(LENGTH_MEASURE(0.01),#538,
'DISTANCE_ACCURACY_VALUE',
'Maximum model space distance between geometric entities at asserted c
onnectivities');
#535=UNCERTAINTY_MEASURE_WITH_UNIT(LENGTH_MEASURE(0.01),#538,
'DISTANCE_ACCURACY_VALUE',
'Maximum model space distance between geometric entities at asserted c
onnectivities');
#536=(
GEOMETRIC_REPRESENTATION_CONTEXT(3)
GLOBAL_UNCERTAINTY_ASSIGNED_CONTEXT((#534))
GLOBAL_UNIT_ASSIGNED_CONTEXT((#538,#540,#541))
REPRESENTATION_CONTEXT('','3D')
);
#537=(
GEOMETRIC_REPRESENTATION_CONTEXT(3)
GLOBAL_UNCERTAINTY_ASSIGNED_CONTEXT((#535))
GLOBAL_UNIT_ASSIGNED_CONTEXT((#538,#540,#541))
REPRESENTATION_CONTEXT('','3D')
);
#538=(
LENGTH_UNIT()
NAMED_UNIT(*)
SI_UNIT(.MILLI.,.METRE.)
);
#539=(
LENGTH_UNIT()
NAMED_UNIT(*)
SI_UNIT($,.METRE.)
);
#540=(
NAMED_UNIT(*)
PLANE_ANGLE_UNIT()
SI_UNIT($,.RADIAN.)
);
#541=(
NAMED_UNIT(*)
SI_UNIT($,.STERADIAN.)
SOLID_ANGLE_UNIT()
);
#542=SHAPE_DEFINITION_REPRESENTATION(#543,#544);
#543=PRODUCT_DEFINITION_SHAPE('',$,#546);
#544=SHAPE_REPRESENTATION('',(#338),#536);
#545=PRODUCT_DEFINITION_CONTEXT('part definition',#550,'design');
#546=PRODUCT_DEFINITION('capuchon slider 3','capuchon slider 3 v2',#547,
#545);
#547=PRODUCT_DEFINITION_FORMATION('',$,#552);
#548=PRODUCT_RELATED_PRODUCT_CATEGORY('capuchon slider 3 v2',
'capuchon slider 3 v2',(#552));
#549=APPLICATION_PROTOCOL_DEFINITION('international standard',
'automotive_design',2009,#550);
#550=APPLICATION_CONTEXT(
'Core Data for Automotive Mechanical Design Process');
#551=PRODUCT_CONTEXT('part definition',#550,'mechanical');
#552=PRODUCT('capuchon slider 3','capuchon slider 3 v2',$,(#551));
#553=PRESENTATION_STYLE_ASSIGNMENT((#555));
#554=PRESENTATION_STYLE_ASSIGNMENT((#556));
#555=SURFACE_STYLE_USAGE(.BOTH.,#557);
#556=SURFACE_STYLE_USAGE(.BOTH.,#558);
#557=SURFACE_SIDE_STYLE('',(#559));
#558=SURFACE_SIDE_STYLE('',(#560));
#559=SURFACE_STYLE_FILL_AREA(#561);
#560=SURFACE_STYLE_FILL_AREA(#562);
#561=FILL_AREA_STYLE('Steel - Satin',(#563));
#562=FILL_AREA_STYLE('Plastic - Matte (Black)',(#564));
#563=FILL_AREA_STYLE_COLOUR('Steel - Satin',#565);
#564=FILL_AREA_STYLE_COLOUR('Plastic - Matte (Black)',#566);
#565=COLOUR_RGB('Steel - Satin',0.627450980392157,0.627450980392157,0.627450980392157);
#566=COLOUR_RGB('Plastic - Matte (Black)',0.0980392156862745,0.0980392156862745,
0.0980392156862745);
ENDSEC;
END-ISO-10303-21;
