ISO-10303-21;
HEADER;
/* Generated by software containing ST-Developer
 * from STEP Tools, Inc. (www.steptools.com) 
 */

FILE_DESCRIPTION(
/* description */ (''),
/* implementation_level */ '2;1');

FILE_NAME(
/* name */ 'capuchon slider V2 1.step',
/* time_stamp */ '2025-12-24T21:57:17+01:00',
/* author */ (''),
/* organization */ (''),
/* preprocessor_version */ 'ST-DEVELOPER v20.1',
/* originating_system */ 'Autodesk Translation Framework v14.21.0.0',
/* authorisation */ '');

FILE_SCHEMA (('AUTOMOTIVE_DESIGN { 1 0 10303 214 3 1 1 }'));
ENDSEC;

DATA;
#10=MECHANICAL_DESIGN_GEOMETRIC_PRESENTATION_REPRESENTATION('',(#13),#1852);
#11=SHAPE_REPRESENTATION_RELATIONSHIP('SRR','None',#1859,#12);
#12=ADVANCED_BREP_SHAPE_REPRESENTATION('',(#14),#1851);
#13=STYLED_ITEM('',(#1869),#14);
#14=MANIFOLD_SOLID_BREP('Body2',#1116);
#15=FACE_BOUND('',#172,.T.);
#16=FACE_BOUND('',#180,.T.);
#17=CIRCLE('',#1133,1.);
#18=CIRCLE('',#1134,1.);
#19=CIRCLE('',#1136,30.);
#20=CIRCLE('',#1137,30.);
#21=CIRCLE('',#1138,30.);
#22=CIRCLE('',#1139,30.);
#23=CIRCLE('',#1140,30.);
#24=CIRCLE('',#1141,30.);
#25=CIRCLE('',#1142,30.);
#26=CIRCLE('',#1143,30.);
#27=CIRCLE('',#1144,30.);
#28=CIRCLE('',#1145,30.);
#29=CIRCLE('',#1146,30.);
#30=CIRCLE('',#1147,30.);
#31=CIRCLE('',#1148,1.);
#32=CIRCLE('',#1149,1.);
#33=CIRCLE('',#1150,1.);
#34=CIRCLE('',#1154,30.);
#35=CIRCLE('',#1156,30.);
#36=CIRCLE('',#1158,1.);
#37=CIRCLE('',#1159,1.);
#38=CIRCLE('',#1160,1.);
#39=CIRCLE('',#1161,30.);
#40=CIRCLE('',#1162,30.);
#41=CIRCLE('',#1163,30.);
#42=CIRCLE('',#1164,30.);
#43=CIRCLE('',#1165,30.);
#44=CIRCLE('',#1166,30.);
#45=CIRCLE('',#1167,30.);
#46=CIRCLE('',#1168,30.);
#47=CIRCLE('',#1169,30.);
#48=CIRCLE('',#1170,30.);
#49=CYLINDRICAL_SURFACE('',#1132,1.);
#50=CYLINDRICAL_SURFACE('',#1153,30.);
#51=CYLINDRICAL_SURFACE('',#1155,30.);
#52=CYLINDRICAL_SURFACE('',#1175,30.);
#53=CYLINDRICAL_SURFACE('',#1178,30.);
#54=CYLINDRICAL_SURFACE('',#1179,30.);
#55=CYLINDRICAL_SURFACE('',#1182,1.);
#56=CYLINDRICAL_SURFACE('',#1184,1.);
#57=CYLINDRICAL_SURFACE('',#1186,30.);
#58=CYLINDRICAL_SURFACE('',#1187,1.);
#59=CYLINDRICAL_SURFACE('',#1192,30.);
#60=CYLINDRICAL_SURFACE('',#1195,30.);
#61=CYLINDRICAL_SURFACE('',#1196,30.);
#62=CYLINDRICAL_SURFACE('',#1201,30.);
#63=CYLINDRICAL_SURFACE('',#1204,30.);
#64=CYLINDRICAL_SURFACE('',#1205,30.);
#65=FACE_OUTER_BOUND('',#122,.T.);
#66=FACE_OUTER_BOUND('',#123,.T.);
#67=FACE_OUTER_BOUND('',#124,.T.);
#68=FACE_OUTER_BOUND('',#125,.T.);
#69=FACE_OUTER_BOUND('',#126,.T.);
#70=FACE_OUTER_BOUND('',#127,.T.);
#71=FACE_OUTER_BOUND('',#128,.T.);
#72=FACE_OUTER_BOUND('',#129,.T.);
#73=FACE_OUTER_BOUND('',#130,.T.);
#74=FACE_OUTER_BOUND('',#131,.T.);
#75=FACE_OUTER_BOUND('',#132,.T.);
#76=FACE_OUTER_BOUND('',#133,.T.);
#77=FACE_OUTER_BOUND('',#134,.T.);
#78=FACE_OUTER_BOUND('',#135,.T.);
#79=FACE_OUTER_BOUND('',#136,.T.);
#80=FACE_OUTER_BOUND('',#137,.T.);
#81=FACE_OUTER_BOUND('',#138,.T.);
#82=FACE_OUTER_BOUND('',#139,.T.);
#83=FACE_OUTER_BOUND('',#140,.T.);
#84=FACE_OUTER_BOUND('',#141,.T.);
#85=FACE_OUTER_BOUND('',#142,.T.);
#86=FACE_OUTER_BOUND('',#143,.T.);
#87=FACE_OUTER_BOUND('',#144,.T.);
#88=FACE_OUTER_BOUND('',#145,.T.);
#89=FACE_OUTER_BOUND('',#146,.T.);
#90=FACE_OUTER_BOUND('',#147,.T.);
#91=FACE_OUTER_BOUND('',#148,.T.);
#92=FACE_OUTER_BOUND('',#149,.T.);
#93=FACE_OUTER_BOUND('',#150,.T.);
#94=FACE_OUTER_BOUND('',#151,.T.);
#95=FACE_OUTER_BOUND('',#152,.T.);
#96=FACE_OUTER_BOUND('',#153,.T.);
#97=FACE_OUTER_BOUND('',#154,.T.);
#98=FACE_OUTER_BOUND('',#155,.T.);
#99=FACE_OUTER_BOUND('',#156,.T.);
#100=FACE_OUTER_BOUND('',#157,.T.);
#101=FACE_OUTER_BOUND('',#158,.T.);
#102=FACE_OUTER_BOUND('',#159,.T.);
#103=FACE_OUTER_BOUND('',#160,.T.);
#104=FACE_OUTER_BOUND('',#161,.T.);
#105=FACE_OUTER_BOUND('',#162,.T.);
#106=FACE_OUTER_BOUND('',#163,.T.);
#107=FACE_OUTER_BOUND('',#164,.T.);
#108=FACE_OUTER_BOUND('',#165,.T.);
#109=FACE_OUTER_BOUND('',#166,.T.);
#110=FACE_OUTER_BOUND('',#167,.T.);
#111=FACE_OUTER_BOUND('',#168,.T.);
#112=FACE_OUTER_BOUND('',#169,.T.);
#113=FACE_OUTER_BOUND('',#170,.T.);
#114=FACE_OUTER_BOUND('',#171,.T.);
#115=FACE_OUTER_BOUND('',#173,.T.);
#116=FACE_OUTER_BOUND('',#174,.T.);
#117=FACE_OUTER_BOUND('',#175,.T.);
#118=FACE_OUTER_BOUND('',#176,.T.);
#119=FACE_OUTER_BOUND('',#177,.T.);
#120=FACE_OUTER_BOUND('',#178,.T.);
#121=FACE_OUTER_BOUND('',#179,.T.);
#122=EDGE_LOOP('',(#700,#701,#702,#703));
#123=EDGE_LOOP('',(#704,#705,#706,#707));
#124=EDGE_LOOP('',(#708,#709,#710,#711));
#125=EDGE_LOOP('',(#712,#713,#714,#715,#716,#717,#718,#719,#720,#721,#722,
#723,#724,#725,#726,#727,#728,#729,#730,#731,#732,#733,#734,#735,#736,#737,
#738,#739,#740,#741,#742,#743,#744,#745,#746,#747,#748,#749,#750,#751,#752,
#753,#754,#755,#756));
#126=EDGE_LOOP('',(#757,#758,#759,#760));
#127=EDGE_LOOP('',(#761,#762,#763,#764));
#128=EDGE_LOOP('',(#765,#766,#767,#768));
#129=EDGE_LOOP('',(#769,#770,#771,#772));
#130=EDGE_LOOP('',(#773,#774,#775,#776,#777,#778,#779,#780,#781,#782,#783,
#784,#785,#786,#787,#788,#789,#790,#791,#792,#793,#794,#795,#796,#797,#798,
#799,#800,#801,#802,#803,#804,#805,#806,#807,#808,#809,#810,#811,#812,#813,
#814,#815,#816,#817));
#131=EDGE_LOOP('',(#818,#819,#820,#821));
#132=EDGE_LOOP('',(#822,#823,#824,#825));
#133=EDGE_LOOP('',(#826,#827,#828,#829));
#134=EDGE_LOOP('',(#830,#831,#832,#833));
#135=EDGE_LOOP('',(#834,#835,#836,#837));
#136=EDGE_LOOP('',(#838,#839,#840,#841));
#137=EDGE_LOOP('',(#842,#843,#844,#845));
#138=EDGE_LOOP('',(#846,#847,#848,#849));
#139=EDGE_LOOP('',(#850,#851,#852,#853));
#140=EDGE_LOOP('',(#854,#855,#856,#857));
#141=EDGE_LOOP('',(#858,#859,#860,#861));
#142=EDGE_LOOP('',(#862,#863,#864,#865));
#143=EDGE_LOOP('',(#866,#867,#868,#869));
#144=EDGE_LOOP('',(#870,#871,#872,#873));
#145=EDGE_LOOP('',(#874,#875,#876,#877));
#146=EDGE_LOOP('',(#878,#879,#880,#881));
#147=EDGE_LOOP('',(#882,#883,#884,#885));
#148=EDGE_LOOP('',(#886,#887,#888,#889));
#149=EDGE_LOOP('',(#890,#891,#892,#893));
#150=EDGE_LOOP('',(#894,#895,#896,#897));
#151=EDGE_LOOP('',(#898,#899,#900,#901));
#152=EDGE_LOOP('',(#902,#903,#904,#905));
#153=EDGE_LOOP('',(#906,#907,#908,#909));
#154=EDGE_LOOP('',(#910,#911,#912,#913));
#155=EDGE_LOOP('',(#914,#915,#916,#917));
#156=EDGE_LOOP('',(#918,#919,#920,#921));
#157=EDGE_LOOP('',(#922,#923,#924,#925));
#158=EDGE_LOOP('',(#926,#927,#928,#929));
#159=EDGE_LOOP('',(#930,#931,#932,#933));
#160=EDGE_LOOP('',(#934,#935,#936,#937));
#161=EDGE_LOOP('',(#938,#939,#940,#941));
#162=EDGE_LOOP('',(#942,#943,#944,#945));
#163=EDGE_LOOP('',(#946,#947,#948,#949));
#164=EDGE_LOOP('',(#950,#951,#952,#953));
#165=EDGE_LOOP('',(#954,#955,#956,#957));
#166=EDGE_LOOP('',(#958,#959,#960,#961));
#167=EDGE_LOOP('',(#962,#963,#964,#965));
#168=EDGE_LOOP('',(#966,#967,#968,#969));
#169=EDGE_LOOP('',(#970,#971,#972,#973));
#170=EDGE_LOOP('',(#974,#975,#976,#977));
#171=EDGE_LOOP('',(#978,#979,#980,#981));
#172=EDGE_LOOP('',(#982,#983,#984,#985));
#173=EDGE_LOOP('',(#986,#987,#988,#989));
#174=EDGE_LOOP('',(#990,#991,#992,#993));
#175=EDGE_LOOP('',(#994,#995,#996,#997));
#176=EDGE_LOOP('',(#998,#999,#1000,#1001));
#177=EDGE_LOOP('',(#1002,#1003,#1004,#1005));
#178=EDGE_LOOP('',(#1006,#1007,#1008,#1009));
#179=EDGE_LOOP('',(#1010,#1011,#1012,#1013));
#180=EDGE_LOOP('',(#1014,#1015,#1016,#1017));
#181=LINE('',#1530,#308);
#182=LINE('',#1532,#309);
#183=LINE('',#1534,#310);
#184=LINE('',#1535,#311);
#185=LINE('',#1538,#312);
#186=LINE('',#1540,#313);
#187=LINE('',#1541,#314);
#188=LINE('',#1546,#315);
#189=LINE('',#1552,#316);
#190=LINE('',#1554,#317);
#191=LINE('',#1558,#318);
#192=LINE('',#1560,#319);
#193=LINE('',#1564,#320);
#194=LINE('',#1566,#321);
#195=LINE('',#1570,#322);
#196=LINE('',#1572,#323);
#197=LINE('',#1576,#324);
#198=LINE('',#1578,#325);
#199=LINE('',#1582,#326);
#200=LINE('',#1584,#327);
#201=LINE('',#1588,#328);
#202=LINE('',#1590,#329);
#203=LINE('',#1594,#330);
#204=LINE('',#1596,#331);
#205=LINE('',#1600,#332);
#206=LINE('',#1602,#333);
#207=LINE('',#1606,#334);
#208=LINE('',#1608,#335);
#209=LINE('',#1612,#336);
#210=LINE('',#1614,#337);
#211=LINE('',#1618,#338);
#212=LINE('',#1620,#339);
#213=LINE('',#1624,#340);
#214=LINE('',#1628,#341);
#215=LINE('',#1631,#342);
#216=LINE('',#1635,#343);
#217=LINE('',#1636,#344);
#218=LINE('',#1637,#345);
#219=LINE('',#1640,#346);
#220=LINE('',#1641,#347);
#221=LINE('',#1647,#348);
#222=LINE('',#1650,#349);
#223=LINE('',#1654,#350);
#224=LINE('',#1658,#351);
#225=LINE('',#1662,#352);
#226=LINE('',#1664,#353);
#227=LINE('',#1668,#354);
#228=LINE('',#1670,#355);
#229=LINE('',#1674,#356);
#230=LINE('',#1676,#357);
#231=LINE('',#1680,#358);
#232=LINE('',#1682,#359);
#233=LINE('',#1686,#360);
#234=LINE('',#1688,#361);
#235=LINE('',#1692,#362);
#236=LINE('',#1694,#363);
#237=LINE('',#1698,#364);
#238=LINE('',#1700,#365);
#239=LINE('',#1704,#366);
#240=LINE('',#1706,#367);
#241=LINE('',#1710,#368);
#242=LINE('',#1712,#369);
#243=LINE('',#1716,#370);
#244=LINE('',#1718,#371);
#245=LINE('',#1722,#372);
#246=LINE('',#1723,#373);
#247=LINE('',#1725,#374);
#248=LINE('',#1727,#375);
#249=LINE('',#1729,#376);
#250=LINE('',#1730,#377);
#251=LINE('',#1732,#378);
#252=LINE('',#1734,#379);
#253=LINE('',#1736,#380);
#254=LINE('',#1738,#381);
#255=LINE('',#1741,#382);
#256=LINE('',#1743,#383);
#257=LINE('',#1745,#384);
#258=LINE('',#1747,#385);
#259=LINE('',#1748,#386);
#260=LINE('',#1751,#387);
#261=LINE('',#1752,#388);
#262=LINE('',#1754,#389);
#263=LINE('',#1756,#390);
#264=LINE('',#1758,#391);
#265=LINE('',#1760,#392);
#266=LINE('',#1762,#393);
#267=LINE('',#1764,#394);
#268=LINE('',#1765,#395);
#269=LINE('',#1767,#396);
#270=LINE('',#1769,#397);
#271=LINE('',#1771,#398);
#272=LINE('',#1773,#399);
#273=LINE('',#1776,#400);
#274=LINE('',#1778,#401);
#275=LINE('',#1780,#402);
#276=LINE('',#1782,#403);
#277=LINE('',#1783,#404);
#278=LINE('',#1785,#405);
#279=LINE('',#1787,#406);
#280=LINE('',#1789,#407);
#281=LINE('',#1791,#408);
#282=LINE('',#1794,#409);
#283=LINE('',#1796,#410);
#284=LINE('',#1801,#411);
#285=LINE('',#1803,#412);
#286=LINE('',#1805,#413);
#287=LINE('',#1806,#414);
#288=LINE('',#1809,#415);
#289=LINE('',#1811,#416);
#290=LINE('',#1812,#417);
#291=LINE('',#1815,#418);
#292=LINE('',#1817,#419);
#293=LINE('',#1818,#420);
#294=LINE('',#1820,#421);
#295=LINE('',#1823,#422);
#296=LINE('',#1825,#423);
#297=LINE('',#1827,#424);
#298=LINE('',#1828,#425);
#299=LINE('',#1830,#426);
#300=LINE('',#1834,#427);
#301=LINE('',#1835,#428);
#302=LINE('',#1836,#429);
#303=LINE('',#1839,#430);
#304=LINE('',#1840,#431);
#305=LINE('',#1843,#432);
#306=LINE('',#1844,#433);
#307=LINE('',#1846,#434);
#308=VECTOR('',#1223,10.);
#309=VECTOR('',#1224,10.);
#310=VECTOR('',#1225,10.);
#311=VECTOR('',#1226,10.);
#312=VECTOR('',#1229,10.);
#313=VECTOR('',#1230,10.);
#314=VECTOR('',#1231,10.);
#315=VECTOR('',#1236,10.);
#316=VECTOR('',#1243,10.);
#317=VECTOR('',#1244,10.);
#318=VECTOR('',#1247,10.);
#319=VECTOR('',#1248,10.);
#320=VECTOR('',#1251,10.);
#321=VECTOR('',#1252,10.);
#322=VECTOR('',#1255,10.);
#323=VECTOR('',#1256,10.);
#324=VECTOR('',#1259,10.);
#325=VECTOR('',#1260,10.);
#326=VECTOR('',#1263,10.);
#327=VECTOR('',#1264,10.);
#328=VECTOR('',#1267,10.);
#329=VECTOR('',#1268,10.);
#330=VECTOR('',#1271,10.);
#331=VECTOR('',#1272,10.);
#332=VECTOR('',#1275,10.);
#333=VECTOR('',#1276,10.);
#334=VECTOR('',#1279,10.);
#335=VECTOR('',#1280,10.);
#336=VECTOR('',#1283,10.);
#337=VECTOR('',#1284,10.);
#338=VECTOR('',#1287,10.);
#339=VECTOR('',#1288,10.);
#340=VECTOR('',#1291,10.);
#341=VECTOR('',#1294,10.);
#342=VECTOR('',#1297,10.);
#343=VECTOR('',#1300,10.);
#344=VECTOR('',#1301,10.);
#345=VECTOR('',#1302,10.);
#346=VECTOR('',#1305,10.);
#347=VECTOR('',#1306,10.);
#348=VECTOR('',#1315,10.);
#349=VECTOR('',#1318,10.);
#350=VECTOR('',#1321,10.);
#351=VECTOR('',#1324,10.);
#352=VECTOR('',#1327,10.);
#353=VECTOR('',#1328,10.);
#354=VECTOR('',#1331,10.);
#355=VECTOR('',#1332,10.);
#356=VECTOR('',#1335,10.);
#357=VECTOR('',#1336,10.);
#358=VECTOR('',#1339,10.);
#359=VECTOR('',#1340,10.);
#360=VECTOR('',#1343,10.);
#361=VECTOR('',#1344,10.);
#362=VECTOR('',#1347,10.);
#363=VECTOR('',#1348,10.);
#364=VECTOR('',#1351,10.);
#365=VECTOR('',#1352,10.);
#366=VECTOR('',#1355,10.);
#367=VECTOR('',#1356,10.);
#368=VECTOR('',#1359,10.);
#369=VECTOR('',#1360,10.);
#370=VECTOR('',#1363,10.);
#371=VECTOR('',#1364,10.);
#372=VECTOR('',#1367,10.);
#373=VECTOR('',#1368,10.);
#374=VECTOR('',#1371,10.);
#375=VECTOR('',#1374,10.);
#376=VECTOR('',#1377,10.);
#377=VECTOR('',#1378,10.);
#378=VECTOR('',#1381,10.);
#379=VECTOR('',#1384,10.);
#380=VECTOR('',#1387,10.);
#381=VECTOR('',#1390,10.);
#382=VECTOR('',#1395,10.);
#383=VECTOR('',#1398,10.);
#384=VECTOR('',#1401,10.);
#385=VECTOR('',#1404,10.);
#386=VECTOR('',#1405,10.);
#387=VECTOR('',#1410,10.);
#388=VECTOR('',#1411,10.);
#389=VECTOR('',#1414,1.);
#390=VECTOR('',#1417,10.);
#391=VECTOR('',#1420,10.);
#392=VECTOR('',#1423,10.);
#393=VECTOR('',#1426,10.);
#394=VECTOR('',#1429,10.);
#395=VECTOR('',#1430,10.);
#396=VECTOR('',#1433,10.);
#397=VECTOR('',#1436,10.);
#398=VECTOR('',#1439,10.);
#399=VECTOR('',#1442,10.);
#400=VECTOR('',#1447,10.);
#401=VECTOR('',#1450,10.);
#402=VECTOR('',#1453,10.);
#403=VECTOR('',#1456,10.);
#404=VECTOR('',#1457,10.);
#405=VECTOR('',#1460,10.);
#406=VECTOR('',#1463,10.);
#407=VECTOR('',#1466,10.);
#408=VECTOR('',#1469,10.);
#409=VECTOR('',#1474,10.);
#410=VECTOR('',#1477,10.);
#411=VECTOR('',#1482,10.);
#412=VECTOR('',#1483,10.);
#413=VECTOR('',#1484,10.);
#414=VECTOR('',#1485,10.);
#415=VECTOR('',#1488,10.);
#416=VECTOR('',#1489,10.);
#417=VECTOR('',#1490,10.);
#418=VECTOR('',#1493,10.);
#419=VECTOR('',#1494,10.);
#420=VECTOR('',#1495,10.);
#421=VECTOR('',#1498,10.);
#422=VECTOR('',#1499,10.);
#423=VECTOR('',#1500,10.);
#424=VECTOR('',#1501,10.);
#425=VECTOR('',#1502,10.);
#426=VECTOR('',#1505,10.);
#427=VECTOR('',#1508,10.);
#428=VECTOR('',#1509,10.);
#429=VECTOR('',#1510,10.);
#430=VECTOR('',#1513,10.);
#431=VECTOR('',#1514,10.);
#432=VECTOR('',#1517,10.);
#433=VECTOR('',#1518,10.);
#434=VECTOR('',#1521,10.);
#435=VERTEX_POINT('',#1528);
#436=VERTEX_POINT('',#1529);
#437=VERTEX_POINT('',#1531);
#438=VERTEX_POINT('',#1533);
#439=VERTEX_POINT('',#1537);
#440=VERTEX_POINT('',#1539);
#441=VERTEX_POINT('',#1543);
#442=VERTEX_POINT('',#1545);
#443=VERTEX_POINT('',#1549);
#444=VERTEX_POINT('',#1551);
#445=VERTEX_POINT('',#1553);
#446=VERTEX_POINT('',#1555);
#447=VERTEX_POINT('',#1557);
#448=VERTEX_POINT('',#1559);
#449=VERTEX_POINT('',#1561);
#450=VERTEX_POINT('',#1563);
#451=VERTEX_POINT('',#1565);
#452=VERTEX_POINT('',#1567);
#453=VERTEX_POINT('',#1569);
#454=VERTEX_POINT('',#1571);
#455=VERTEX_POINT('',#1573);
#456=VERTEX_POINT('',#1575);
#457=VERTEX_POINT('',#1577);
#458=VERTEX_POINT('',#1579);
#459=VERTEX_POINT('',#1581);
#460=VERTEX_POINT('',#1583);
#461=VERTEX_POINT('',#1585);
#462=VERTEX_POINT('',#1587);
#463=VERTEX_POINT('',#1589);
#464=VERTEX_POINT('',#1591);
#465=VERTEX_POINT('',#1593);
#466=VERTEX_POINT('',#1595);
#467=VERTEX_POINT('',#1597);
#468=VERTEX_POINT('',#1599);
#469=VERTEX_POINT('',#1601);
#470=VERTEX_POINT('',#1603);
#471=VERTEX_POINT('',#1605);
#472=VERTEX_POINT('',#1607);
#473=VERTEX_POINT('',#1609);
#474=VERTEX_POINT('',#1611);
#475=VERTEX_POINT('',#1613);
#476=VERTEX_POINT('',#1615);
#477=VERTEX_POINT('',#1617);
#478=VERTEX_POINT('',#1619);
#479=VERTEX_POINT('',#1621);
#480=VERTEX_POINT('',#1623);
#481=VERTEX_POINT('',#1625);
#482=VERTEX_POINT('',#1627);
#483=VERTEX_POINT('',#1629);
#484=VERTEX_POINT('',#1633);
#485=VERTEX_POINT('',#1634);
#486=VERTEX_POINT('',#1639);
#487=VERTEX_POINT('',#1645);
#488=VERTEX_POINT('',#1649);
#489=VERTEX_POINT('',#1651);
#490=VERTEX_POINT('',#1653);
#491=VERTEX_POINT('',#1655);
#492=VERTEX_POINT('',#1657);
#493=VERTEX_POINT('',#1659);
#494=VERTEX_POINT('',#1661);
#495=VERTEX_POINT('',#1663);
#496=VERTEX_POINT('',#1665);
#497=VERTEX_POINT('',#1667);
#498=VERTEX_POINT('',#1669);
#499=VERTEX_POINT('',#1671);
#500=VERTEX_POINT('',#1673);
#501=VERTEX_POINT('',#1675);
#502=VERTEX_POINT('',#1677);
#503=VERTEX_POINT('',#1679);
#504=VERTEX_POINT('',#1681);
#505=VERTEX_POINT('',#1683);
#506=VERTEX_POINT('',#1685);
#507=VERTEX_POINT('',#1687);
#508=VERTEX_POINT('',#1689);
#509=VERTEX_POINT('',#1691);
#510=VERTEX_POINT('',#1693);
#511=VERTEX_POINT('',#1695);
#512=VERTEX_POINT('',#1697);
#513=VERTEX_POINT('',#1699);
#514=VERTEX_POINT('',#1701);
#515=VERTEX_POINT('',#1703);
#516=VERTEX_POINT('',#1705);
#517=VERTEX_POINT('',#1707);
#518=VERTEX_POINT('',#1709);
#519=VERTEX_POINT('',#1711);
#520=VERTEX_POINT('',#1713);
#521=VERTEX_POINT('',#1715);
#522=VERTEX_POINT('',#1717);
#523=VERTEX_POINT('',#1719);
#524=VERTEX_POINT('',#1721);
#525=VERTEX_POINT('',#1799);
#526=VERTEX_POINT('',#1800);
#527=VERTEX_POINT('',#1802);
#528=VERTEX_POINT('',#1804);
#529=VERTEX_POINT('',#1808);
#530=VERTEX_POINT('',#1810);
#531=VERTEX_POINT('',#1814);
#532=VERTEX_POINT('',#1816);
#533=VERTEX_POINT('',#1821);
#534=VERTEX_POINT('',#1822);
#535=VERTEX_POINT('',#1824);
#536=VERTEX_POINT('',#1826);
#537=VERTEX_POINT('',#1832);
#538=VERTEX_POINT('',#1833);
#539=VERTEX_POINT('',#1838);
#540=VERTEX_POINT('',#1842);
#541=EDGE_CURVE('',#435,#436,#181,.T.);
#542=EDGE_CURVE('',#437,#435,#182,.T.);
#543=EDGE_CURVE('',#438,#437,#183,.T.);
#544=EDGE_CURVE('',#436,#438,#184,.T.);
#545=EDGE_CURVE('',#439,#435,#185,.T.);
#546=EDGE_CURVE('',#440,#439,#186,.T.);
#547=EDGE_CURVE('',#437,#440,#187,.T.);
#548=EDGE_CURVE('',#438,#441,#17,.T.);
#549=EDGE_CURVE('',#441,#442,#188,.T.);
#550=EDGE_CURVE('',#442,#436,#18,.T.);
#551=EDGE_CURVE('',#440,#443,#19,.T.);
#552=EDGE_CURVE('',#443,#444,#189,.T.);
#553=EDGE_CURVE('',#444,#445,#190,.T.);
#554=EDGE_CURVE('',#445,#446,#20,.T.);
#555=EDGE_CURVE('',#446,#447,#191,.T.);
#556=EDGE_CURVE('',#447,#448,#192,.T.);
#557=EDGE_CURVE('',#448,#449,#21,.T.);
#558=EDGE_CURVE('',#449,#450,#193,.T.);
#559=EDGE_CURVE('',#450,#451,#194,.T.);
#560=EDGE_CURVE('',#451,#452,#22,.T.);
#561=EDGE_CURVE('',#452,#453,#195,.T.);
#562=EDGE_CURVE('',#453,#454,#196,.T.);
#563=EDGE_CURVE('',#454,#455,#23,.T.);
#564=EDGE_CURVE('',#455,#456,#197,.T.);
#565=EDGE_CURVE('',#456,#457,#198,.T.);
#566=EDGE_CURVE('',#457,#458,#24,.T.);
#567=EDGE_CURVE('',#458,#459,#199,.T.);
#568=EDGE_CURVE('',#459,#460,#200,.T.);
#569=EDGE_CURVE('',#460,#461,#25,.T.);
#570=EDGE_CURVE('',#461,#462,#201,.T.);
#571=EDGE_CURVE('',#462,#463,#202,.T.);
#572=EDGE_CURVE('',#463,#464,#26,.T.);
#573=EDGE_CURVE('',#464,#465,#203,.T.);
#574=EDGE_CURVE('',#465,#466,#204,.T.);
#575=EDGE_CURVE('',#466,#467,#27,.T.);
#576=EDGE_CURVE('',#467,#468,#205,.T.);
#577=EDGE_CURVE('',#468,#469,#206,.T.);
#578=EDGE_CURVE('',#469,#470,#28,.T.);
#579=EDGE_CURVE('',#470,#471,#207,.T.);
#580=EDGE_CURVE('',#471,#472,#208,.T.);
#581=EDGE_CURVE('',#472,#473,#29,.T.);
#582=EDGE_CURVE('',#473,#474,#209,.T.);
#583=EDGE_CURVE('',#474,#475,#210,.T.);
#584=EDGE_CURVE('',#475,#476,#30,.T.);
#585=EDGE_CURVE('',#476,#477,#211,.T.);
#586=EDGE_CURVE('',#477,#478,#212,.T.);
#587=EDGE_CURVE('',#479,#478,#31,.T.);
#588=EDGE_CURVE('',#479,#480,#213,.T.);
#589=EDGE_CURVE('',#481,#480,#32,.T.);
#590=EDGE_CURVE('',#481,#482,#214,.T.);
#591=EDGE_CURVE('',#483,#482,#33,.T.);
#592=EDGE_CURVE('',#483,#441,#215,.T.);
#593=EDGE_CURVE('',#484,#485,#216,.T.);
#594=EDGE_CURVE('',#444,#484,#217,.T.);
#595=EDGE_CURVE('',#485,#443,#218,.T.);
#596=EDGE_CURVE('',#486,#484,#219,.T.);
#597=EDGE_CURVE('',#445,#486,#220,.T.);
#598=EDGE_CURVE('',#485,#439,#34,.T.);
#599=EDGE_CURVE('',#487,#486,#35,.T.);
#600=EDGE_CURVE('',#487,#446,#221,.T.);
#601=EDGE_CURVE('',#442,#488,#222,.T.);
#602=EDGE_CURVE('',#489,#488,#36,.T.);
#603=EDGE_CURVE('',#489,#490,#223,.T.);
#604=EDGE_CURVE('',#491,#490,#37,.T.);
#605=EDGE_CURVE('',#491,#492,#224,.T.);
#606=EDGE_CURVE('',#493,#492,#38,.T.);
#607=EDGE_CURVE('',#493,#494,#225,.T.);
#608=EDGE_CURVE('',#494,#495,#226,.T.);
#609=EDGE_CURVE('',#495,#496,#39,.T.);
#610=EDGE_CURVE('',#496,#497,#227,.T.);
#611=EDGE_CURVE('',#497,#498,#228,.T.);
#612=EDGE_CURVE('',#498,#499,#40,.T.);
#613=EDGE_CURVE('',#499,#500,#229,.T.);
#614=EDGE_CURVE('',#500,#501,#230,.T.);
#615=EDGE_CURVE('',#501,#502,#41,.T.);
#616=EDGE_CURVE('',#502,#503,#231,.T.);
#617=EDGE_CURVE('',#503,#504,#232,.T.);
#618=EDGE_CURVE('',#504,#505,#42,.T.);
#619=EDGE_CURVE('',#505,#506,#233,.T.);
#620=EDGE_CURVE('',#506,#507,#234,.T.);
#621=EDGE_CURVE('',#507,#508,#43,.T.);
#622=EDGE_CURVE('',#508,#509,#235,.T.);
#623=EDGE_CURVE('',#509,#510,#236,.T.);
#624=EDGE_CURVE('',#510,#511,#44,.T.);
#625=EDGE_CURVE('',#511,#512,#237,.T.);
#626=EDGE_CURVE('',#512,#513,#238,.T.);
#627=EDGE_CURVE('',#513,#514,#45,.T.);
#628=EDGE_CURVE('',#514,#515,#239,.T.);
#629=EDGE_CURVE('',#515,#516,#240,.T.);
#630=EDGE_CURVE('',#516,#517,#46,.T.);
#631=EDGE_CURVE('',#517,#518,#241,.T.);
#632=EDGE_CURVE('',#518,#519,#242,.T.);
#633=EDGE_CURVE('',#519,#520,#47,.T.);
#634=EDGE_CURVE('',#520,#521,#243,.T.);
#635=EDGE_CURVE('',#521,#522,#244,.T.);
#636=EDGE_CURVE('',#522,#523,#48,.T.);
#637=EDGE_CURVE('',#523,#524,#245,.T.);
#638=EDGE_CURVE('',#524,#487,#246,.T.);
#639=EDGE_CURVE('',#447,#524,#247,.T.);
#640=EDGE_CURVE('',#448,#523,#248,.T.);
#641=EDGE_CURVE('',#450,#521,#249,.T.);
#642=EDGE_CURVE('',#522,#449,#250,.T.);
#643=EDGE_CURVE('',#451,#520,#251,.T.);
#644=EDGE_CURVE('',#519,#452,#252,.T.);
#645=EDGE_CURVE('',#453,#518,#253,.T.);
#646=EDGE_CURVE('',#454,#517,#254,.T.);
#647=EDGE_CURVE('',#516,#455,#255,.T.);
#648=EDGE_CURVE('',#456,#515,#256,.T.);
#649=EDGE_CURVE('',#457,#514,#257,.T.);
#650=EDGE_CURVE('',#488,#483,#258,.T.);
#651=EDGE_CURVE('',#482,#489,#259,.T.);
#652=EDGE_CURVE('',#480,#491,#260,.T.);
#653=EDGE_CURVE('',#490,#481,#261,.T.);
#654=EDGE_CURVE('',#492,#479,#262,.T.);
#655=EDGE_CURVE('',#513,#458,#263,.T.);
#656=EDGE_CURVE('',#478,#493,#264,.T.);
#657=EDGE_CURVE('',#477,#494,#265,.T.);
#658=EDGE_CURVE('',#495,#476,#266,.T.);
#659=EDGE_CURVE('',#475,#496,#267,.T.);
#660=EDGE_CURVE('',#474,#497,#268,.T.);
#661=EDGE_CURVE('',#498,#473,#269,.T.);
#662=EDGE_CURVE('',#472,#499,#270,.T.);
#663=EDGE_CURVE('',#471,#500,#271,.T.);
#664=EDGE_CURVE('',#501,#470,#272,.T.);
#665=EDGE_CURVE('',#469,#502,#273,.T.);
#666=EDGE_CURVE('',#468,#503,#274,.T.);
#667=EDGE_CURVE('',#504,#467,#275,.T.);
#668=EDGE_CURVE('',#466,#505,#276,.T.);
#669=EDGE_CURVE('',#465,#506,#277,.T.);
#670=EDGE_CURVE('',#507,#464,#278,.T.);
#671=EDGE_CURVE('',#463,#508,#279,.T.);
#672=EDGE_CURVE('',#462,#509,#280,.T.);
#673=EDGE_CURVE('',#510,#461,#281,.T.);
#674=EDGE_CURVE('',#460,#511,#282,.T.);
#675=EDGE_CURVE('',#459,#512,#283,.T.);
#676=EDGE_CURVE('',#525,#526,#284,.T.);
#677=EDGE_CURVE('',#527,#525,#285,.T.);
#678=EDGE_CURVE('',#528,#527,#286,.T.);
#679=EDGE_CURVE('',#526,#528,#287,.T.);
#680=EDGE_CURVE('',#529,#525,#288,.T.);
#681=EDGE_CURVE('',#529,#530,#289,.T.);
#682=EDGE_CURVE('',#530,#527,#290,.T.);
#683=EDGE_CURVE('',#531,#529,#291,.T.);
#684=EDGE_CURVE('',#532,#531,#292,.T.);
#685=EDGE_CURVE('',#530,#532,#293,.T.);
#686=EDGE_CURVE('',#528,#532,#294,.T.);
#687=EDGE_CURVE('',#533,#534,#295,.T.);
#688=EDGE_CURVE('',#534,#535,#296,.T.);
#689=EDGE_CURVE('',#535,#536,#297,.T.);
#690=EDGE_CURVE('',#536,#533,#298,.T.);
#691=EDGE_CURVE('',#526,#531,#299,.T.);
#692=EDGE_CURVE('',#537,#538,#300,.T.);
#693=EDGE_CURVE('',#534,#537,#301,.T.);
#694=EDGE_CURVE('',#538,#533,#302,.T.);
#695=EDGE_CURVE('',#539,#538,#303,.T.);
#696=EDGE_CURVE('',#536,#539,#304,.T.);
#697=EDGE_CURVE('',#537,#540,#305,.T.);
#698=EDGE_CURVE('',#540,#535,#306,.T.);
#699=EDGE_CURVE('',#539,#540,#307,.T.);
#700=ORIENTED_EDGE('',*,*,#541,.F.);
#701=ORIENTED_EDGE('',*,*,#542,.F.);
#702=ORIENTED_EDGE('',*,*,#543,.F.);
#703=ORIENTED_EDGE('',*,*,#544,.F.);
#704=ORIENTED_EDGE('',*,*,#545,.F.);
#705=ORIENTED_EDGE('',*,*,#546,.F.);
#706=ORIENTED_EDGE('',*,*,#547,.F.);
#707=ORIENTED_EDGE('',*,*,#542,.T.);
#708=ORIENTED_EDGE('',*,*,#544,.T.);
#709=ORIENTED_EDGE('',*,*,#548,.T.);
#710=ORIENTED_EDGE('',*,*,#549,.T.);
#711=ORIENTED_EDGE('',*,*,#550,.T.);
#712=ORIENTED_EDGE('',*,*,#543,.T.);
#713=ORIENTED_EDGE('',*,*,#547,.T.);
#714=ORIENTED_EDGE('',*,*,#551,.T.);
#715=ORIENTED_EDGE('',*,*,#552,.T.);
#716=ORIENTED_EDGE('',*,*,#553,.T.);
#717=ORIENTED_EDGE('',*,*,#554,.T.);
#718=ORIENTED_EDGE('',*,*,#555,.T.);
#719=ORIENTED_EDGE('',*,*,#556,.T.);
#720=ORIENTED_EDGE('',*,*,#557,.T.);
#721=ORIENTED_EDGE('',*,*,#558,.T.);
#722=ORIENTED_EDGE('',*,*,#559,.T.);
#723=ORIENTED_EDGE('',*,*,#560,.T.);
#724=ORIENTED_EDGE('',*,*,#561,.T.);
#725=ORIENTED_EDGE('',*,*,#562,.T.);
#726=ORIENTED_EDGE('',*,*,#563,.T.);
#727=ORIENTED_EDGE('',*,*,#564,.T.);
#728=ORIENTED_EDGE('',*,*,#565,.T.);
#729=ORIENTED_EDGE('',*,*,#566,.T.);
#730=ORIENTED_EDGE('',*,*,#567,.T.);
#731=ORIENTED_EDGE('',*,*,#568,.T.);
#732=ORIENTED_EDGE('',*,*,#569,.T.);
#733=ORIENTED_EDGE('',*,*,#570,.T.);
#734=ORIENTED_EDGE('',*,*,#571,.T.);
#735=ORIENTED_EDGE('',*,*,#572,.T.);
#736=ORIENTED_EDGE('',*,*,#573,.T.);
#737=ORIENTED_EDGE('',*,*,#574,.T.);
#738=ORIENTED_EDGE('',*,*,#575,.T.);
#739=ORIENTED_EDGE('',*,*,#576,.T.);
#740=ORIENTED_EDGE('',*,*,#577,.T.);
#741=ORIENTED_EDGE('',*,*,#578,.T.);
#742=ORIENTED_EDGE('',*,*,#579,.T.);
#743=ORIENTED_EDGE('',*,*,#580,.T.);
#744=ORIENTED_EDGE('',*,*,#581,.T.);
#745=ORIENTED_EDGE('',*,*,#582,.T.);
#746=ORIENTED_EDGE('',*,*,#583,.T.);
#747=ORIENTED_EDGE('',*,*,#584,.T.);
#748=ORIENTED_EDGE('',*,*,#585,.T.);
#749=ORIENTED_EDGE('',*,*,#586,.T.);
#750=ORIENTED_EDGE('',*,*,#587,.F.);
#751=ORIENTED_EDGE('',*,*,#588,.T.);
#752=ORIENTED_EDGE('',*,*,#589,.F.);
#753=ORIENTED_EDGE('',*,*,#590,.T.);
#754=ORIENTED_EDGE('',*,*,#591,.F.);
#755=ORIENTED_EDGE('',*,*,#592,.T.);
#756=ORIENTED_EDGE('',*,*,#548,.F.);
#757=ORIENTED_EDGE('',*,*,#593,.F.);
#758=ORIENTED_EDGE('',*,*,#594,.F.);
#759=ORIENTED_EDGE('',*,*,#552,.F.);
#760=ORIENTED_EDGE('',*,*,#595,.F.);
#761=ORIENTED_EDGE('',*,*,#596,.F.);
#762=ORIENTED_EDGE('',*,*,#597,.F.);
#763=ORIENTED_EDGE('',*,*,#553,.F.);
#764=ORIENTED_EDGE('',*,*,#594,.T.);
#765=ORIENTED_EDGE('',*,*,#546,.T.);
#766=ORIENTED_EDGE('',*,*,#598,.F.);
#767=ORIENTED_EDGE('',*,*,#595,.T.);
#768=ORIENTED_EDGE('',*,*,#551,.F.);
#769=ORIENTED_EDGE('',*,*,#597,.T.);
#770=ORIENTED_EDGE('',*,*,#599,.F.);
#771=ORIENTED_EDGE('',*,*,#600,.T.);
#772=ORIENTED_EDGE('',*,*,#554,.F.);
#773=ORIENTED_EDGE('',*,*,#541,.T.);
#774=ORIENTED_EDGE('',*,*,#550,.F.);
#775=ORIENTED_EDGE('',*,*,#601,.T.);
#776=ORIENTED_EDGE('',*,*,#602,.F.);
#777=ORIENTED_EDGE('',*,*,#603,.T.);
#778=ORIENTED_EDGE('',*,*,#604,.F.);
#779=ORIENTED_EDGE('',*,*,#605,.T.);
#780=ORIENTED_EDGE('',*,*,#606,.F.);
#781=ORIENTED_EDGE('',*,*,#607,.T.);
#782=ORIENTED_EDGE('',*,*,#608,.T.);
#783=ORIENTED_EDGE('',*,*,#609,.T.);
#784=ORIENTED_EDGE('',*,*,#610,.T.);
#785=ORIENTED_EDGE('',*,*,#611,.T.);
#786=ORIENTED_EDGE('',*,*,#612,.T.);
#787=ORIENTED_EDGE('',*,*,#613,.T.);
#788=ORIENTED_EDGE('',*,*,#614,.T.);
#789=ORIENTED_EDGE('',*,*,#615,.T.);
#790=ORIENTED_EDGE('',*,*,#616,.T.);
#791=ORIENTED_EDGE('',*,*,#617,.T.);
#792=ORIENTED_EDGE('',*,*,#618,.T.);
#793=ORIENTED_EDGE('',*,*,#619,.T.);
#794=ORIENTED_EDGE('',*,*,#620,.T.);
#795=ORIENTED_EDGE('',*,*,#621,.T.);
#796=ORIENTED_EDGE('',*,*,#622,.T.);
#797=ORIENTED_EDGE('',*,*,#623,.T.);
#798=ORIENTED_EDGE('',*,*,#624,.T.);
#799=ORIENTED_EDGE('',*,*,#625,.T.);
#800=ORIENTED_EDGE('',*,*,#626,.T.);
#801=ORIENTED_EDGE('',*,*,#627,.T.);
#802=ORIENTED_EDGE('',*,*,#628,.T.);
#803=ORIENTED_EDGE('',*,*,#629,.T.);
#804=ORIENTED_EDGE('',*,*,#630,.T.);
#805=ORIENTED_EDGE('',*,*,#631,.T.);
#806=ORIENTED_EDGE('',*,*,#632,.T.);
#807=ORIENTED_EDGE('',*,*,#633,.T.);
#808=ORIENTED_EDGE('',*,*,#634,.T.);
#809=ORIENTED_EDGE('',*,*,#635,.T.);
#810=ORIENTED_EDGE('',*,*,#636,.T.);
#811=ORIENTED_EDGE('',*,*,#637,.T.);
#812=ORIENTED_EDGE('',*,*,#638,.T.);
#813=ORIENTED_EDGE('',*,*,#599,.T.);
#814=ORIENTED_EDGE('',*,*,#596,.T.);
#815=ORIENTED_EDGE('',*,*,#593,.T.);
#816=ORIENTED_EDGE('',*,*,#598,.T.);
#817=ORIENTED_EDGE('',*,*,#545,.T.);
#818=ORIENTED_EDGE('',*,*,#638,.F.);
#819=ORIENTED_EDGE('',*,*,#639,.F.);
#820=ORIENTED_EDGE('',*,*,#555,.F.);
#821=ORIENTED_EDGE('',*,*,#600,.F.);
#822=ORIENTED_EDGE('',*,*,#637,.F.);
#823=ORIENTED_EDGE('',*,*,#640,.F.);
#824=ORIENTED_EDGE('',*,*,#556,.F.);
#825=ORIENTED_EDGE('',*,*,#639,.T.);
#826=ORIENTED_EDGE('',*,*,#635,.F.);
#827=ORIENTED_EDGE('',*,*,#641,.F.);
#828=ORIENTED_EDGE('',*,*,#558,.F.);
#829=ORIENTED_EDGE('',*,*,#642,.F.);
#830=ORIENTED_EDGE('',*,*,#634,.F.);
#831=ORIENTED_EDGE('',*,*,#643,.F.);
#832=ORIENTED_EDGE('',*,*,#559,.F.);
#833=ORIENTED_EDGE('',*,*,#641,.T.);
#834=ORIENTED_EDGE('',*,*,#643,.T.);
#835=ORIENTED_EDGE('',*,*,#633,.F.);
#836=ORIENTED_EDGE('',*,*,#644,.T.);
#837=ORIENTED_EDGE('',*,*,#560,.F.);
#838=ORIENTED_EDGE('',*,*,#632,.F.);
#839=ORIENTED_EDGE('',*,*,#645,.F.);
#840=ORIENTED_EDGE('',*,*,#561,.F.);
#841=ORIENTED_EDGE('',*,*,#644,.F.);
#842=ORIENTED_EDGE('',*,*,#631,.F.);
#843=ORIENTED_EDGE('',*,*,#646,.F.);
#844=ORIENTED_EDGE('',*,*,#562,.F.);
#845=ORIENTED_EDGE('',*,*,#645,.T.);
#846=ORIENTED_EDGE('',*,*,#640,.T.);
#847=ORIENTED_EDGE('',*,*,#636,.F.);
#848=ORIENTED_EDGE('',*,*,#642,.T.);
#849=ORIENTED_EDGE('',*,*,#557,.F.);
#850=ORIENTED_EDGE('',*,*,#646,.T.);
#851=ORIENTED_EDGE('',*,*,#630,.F.);
#852=ORIENTED_EDGE('',*,*,#647,.T.);
#853=ORIENTED_EDGE('',*,*,#563,.F.);
#854=ORIENTED_EDGE('',*,*,#629,.F.);
#855=ORIENTED_EDGE('',*,*,#648,.F.);
#856=ORIENTED_EDGE('',*,*,#564,.F.);
#857=ORIENTED_EDGE('',*,*,#647,.F.);
#858=ORIENTED_EDGE('',*,*,#628,.F.);
#859=ORIENTED_EDGE('',*,*,#649,.F.);
#860=ORIENTED_EDGE('',*,*,#565,.F.);
#861=ORIENTED_EDGE('',*,*,#648,.T.);
#862=ORIENTED_EDGE('',*,*,#602,.T.);
#863=ORIENTED_EDGE('',*,*,#650,.T.);
#864=ORIENTED_EDGE('',*,*,#591,.T.);
#865=ORIENTED_EDGE('',*,*,#651,.T.);
#866=ORIENTED_EDGE('',*,*,#650,.F.);
#867=ORIENTED_EDGE('',*,*,#601,.F.);
#868=ORIENTED_EDGE('',*,*,#549,.F.);
#869=ORIENTED_EDGE('',*,*,#592,.F.);
#870=ORIENTED_EDGE('',*,*,#589,.T.);
#871=ORIENTED_EDGE('',*,*,#652,.T.);
#872=ORIENTED_EDGE('',*,*,#604,.T.);
#873=ORIENTED_EDGE('',*,*,#653,.T.);
#874=ORIENTED_EDGE('',*,*,#652,.F.);
#875=ORIENTED_EDGE('',*,*,#588,.F.);
#876=ORIENTED_EDGE('',*,*,#654,.F.);
#877=ORIENTED_EDGE('',*,*,#605,.F.);
#878=ORIENTED_EDGE('',*,*,#649,.T.);
#879=ORIENTED_EDGE('',*,*,#627,.F.);
#880=ORIENTED_EDGE('',*,*,#655,.T.);
#881=ORIENTED_EDGE('',*,*,#566,.F.);
#882=ORIENTED_EDGE('',*,*,#606,.T.);
#883=ORIENTED_EDGE('',*,*,#654,.T.);
#884=ORIENTED_EDGE('',*,*,#587,.T.);
#885=ORIENTED_EDGE('',*,*,#656,.T.);
#886=ORIENTED_EDGE('',*,*,#607,.F.);
#887=ORIENTED_EDGE('',*,*,#656,.F.);
#888=ORIENTED_EDGE('',*,*,#586,.F.);
#889=ORIENTED_EDGE('',*,*,#657,.T.);
#890=ORIENTED_EDGE('',*,*,#608,.F.);
#891=ORIENTED_EDGE('',*,*,#657,.F.);
#892=ORIENTED_EDGE('',*,*,#585,.F.);
#893=ORIENTED_EDGE('',*,*,#658,.F.);
#894=ORIENTED_EDGE('',*,*,#610,.F.);
#895=ORIENTED_EDGE('',*,*,#659,.F.);
#896=ORIENTED_EDGE('',*,*,#583,.F.);
#897=ORIENTED_EDGE('',*,*,#660,.T.);
#898=ORIENTED_EDGE('',*,*,#611,.F.);
#899=ORIENTED_EDGE('',*,*,#660,.F.);
#900=ORIENTED_EDGE('',*,*,#582,.F.);
#901=ORIENTED_EDGE('',*,*,#661,.F.);
#902=ORIENTED_EDGE('',*,*,#661,.T.);
#903=ORIENTED_EDGE('',*,*,#581,.F.);
#904=ORIENTED_EDGE('',*,*,#662,.T.);
#905=ORIENTED_EDGE('',*,*,#612,.F.);
#906=ORIENTED_EDGE('',*,*,#613,.F.);
#907=ORIENTED_EDGE('',*,*,#662,.F.);
#908=ORIENTED_EDGE('',*,*,#580,.F.);
#909=ORIENTED_EDGE('',*,*,#663,.T.);
#910=ORIENTED_EDGE('',*,*,#614,.F.);
#911=ORIENTED_EDGE('',*,*,#663,.F.);
#912=ORIENTED_EDGE('',*,*,#579,.F.);
#913=ORIENTED_EDGE('',*,*,#664,.F.);
#914=ORIENTED_EDGE('',*,*,#658,.T.);
#915=ORIENTED_EDGE('',*,*,#584,.F.);
#916=ORIENTED_EDGE('',*,*,#659,.T.);
#917=ORIENTED_EDGE('',*,*,#609,.F.);
#918=ORIENTED_EDGE('',*,*,#664,.T.);
#919=ORIENTED_EDGE('',*,*,#578,.F.);
#920=ORIENTED_EDGE('',*,*,#665,.T.);
#921=ORIENTED_EDGE('',*,*,#615,.F.);
#922=ORIENTED_EDGE('',*,*,#616,.F.);
#923=ORIENTED_EDGE('',*,*,#665,.F.);
#924=ORIENTED_EDGE('',*,*,#577,.F.);
#925=ORIENTED_EDGE('',*,*,#666,.T.);
#926=ORIENTED_EDGE('',*,*,#617,.F.);
#927=ORIENTED_EDGE('',*,*,#666,.F.);
#928=ORIENTED_EDGE('',*,*,#576,.F.);
#929=ORIENTED_EDGE('',*,*,#667,.F.);
#930=ORIENTED_EDGE('',*,*,#619,.F.);
#931=ORIENTED_EDGE('',*,*,#668,.F.);
#932=ORIENTED_EDGE('',*,*,#574,.F.);
#933=ORIENTED_EDGE('',*,*,#669,.T.);
#934=ORIENTED_EDGE('',*,*,#620,.F.);
#935=ORIENTED_EDGE('',*,*,#669,.F.);
#936=ORIENTED_EDGE('',*,*,#573,.F.);
#937=ORIENTED_EDGE('',*,*,#670,.F.);
#938=ORIENTED_EDGE('',*,*,#670,.T.);
#939=ORIENTED_EDGE('',*,*,#572,.F.);
#940=ORIENTED_EDGE('',*,*,#671,.T.);
#941=ORIENTED_EDGE('',*,*,#621,.F.);
#942=ORIENTED_EDGE('',*,*,#622,.F.);
#943=ORIENTED_EDGE('',*,*,#671,.F.);
#944=ORIENTED_EDGE('',*,*,#571,.F.);
#945=ORIENTED_EDGE('',*,*,#672,.T.);
#946=ORIENTED_EDGE('',*,*,#623,.F.);
#947=ORIENTED_EDGE('',*,*,#672,.F.);
#948=ORIENTED_EDGE('',*,*,#570,.F.);
#949=ORIENTED_EDGE('',*,*,#673,.F.);
#950=ORIENTED_EDGE('',*,*,#667,.T.);
#951=ORIENTED_EDGE('',*,*,#575,.F.);
#952=ORIENTED_EDGE('',*,*,#668,.T.);
#953=ORIENTED_EDGE('',*,*,#618,.F.);
#954=ORIENTED_EDGE('',*,*,#673,.T.);
#955=ORIENTED_EDGE('',*,*,#569,.F.);
#956=ORIENTED_EDGE('',*,*,#674,.T.);
#957=ORIENTED_EDGE('',*,*,#624,.F.);
#958=ORIENTED_EDGE('',*,*,#625,.F.);
#959=ORIENTED_EDGE('',*,*,#674,.F.);
#960=ORIENTED_EDGE('',*,*,#568,.F.);
#961=ORIENTED_EDGE('',*,*,#675,.T.);
#962=ORIENTED_EDGE('',*,*,#626,.F.);
#963=ORIENTED_EDGE('',*,*,#675,.F.);
#964=ORIENTED_EDGE('',*,*,#567,.F.);
#965=ORIENTED_EDGE('',*,*,#655,.F.);
#966=ORIENTED_EDGE('',*,*,#676,.F.);
#967=ORIENTED_EDGE('',*,*,#677,.F.);
#968=ORIENTED_EDGE('',*,*,#678,.F.);
#969=ORIENTED_EDGE('',*,*,#679,.F.);
#970=ORIENTED_EDGE('',*,*,#680,.F.);
#971=ORIENTED_EDGE('',*,*,#681,.T.);
#972=ORIENTED_EDGE('',*,*,#682,.T.);
#973=ORIENTED_EDGE('',*,*,#677,.T.);
#974=ORIENTED_EDGE('',*,*,#683,.F.);
#975=ORIENTED_EDGE('',*,*,#684,.F.);
#976=ORIENTED_EDGE('',*,*,#685,.F.);
#977=ORIENTED_EDGE('',*,*,#681,.F.);
#978=ORIENTED_EDGE('',*,*,#685,.T.);
#979=ORIENTED_EDGE('',*,*,#686,.F.);
#980=ORIENTED_EDGE('',*,*,#678,.T.);
#981=ORIENTED_EDGE('',*,*,#682,.F.);
#982=ORIENTED_EDGE('',*,*,#687,.T.);
#983=ORIENTED_EDGE('',*,*,#688,.T.);
#984=ORIENTED_EDGE('',*,*,#689,.T.);
#985=ORIENTED_EDGE('',*,*,#690,.T.);
#986=ORIENTED_EDGE('',*,*,#691,.F.);
#987=ORIENTED_EDGE('',*,*,#679,.T.);
#988=ORIENTED_EDGE('',*,*,#686,.T.);
#989=ORIENTED_EDGE('',*,*,#684,.T.);
#990=ORIENTED_EDGE('',*,*,#692,.F.);
#991=ORIENTED_EDGE('',*,*,#693,.F.);
#992=ORIENTED_EDGE('',*,*,#687,.F.);
#993=ORIENTED_EDGE('',*,*,#694,.F.);
#994=ORIENTED_EDGE('',*,*,#695,.T.);
#995=ORIENTED_EDGE('',*,*,#694,.T.);
#996=ORIENTED_EDGE('',*,*,#690,.F.);
#997=ORIENTED_EDGE('',*,*,#696,.T.);
#998=ORIENTED_EDGE('',*,*,#693,.T.);
#999=ORIENTED_EDGE('',*,*,#697,.T.);
#1000=ORIENTED_EDGE('',*,*,#698,.T.);
#1001=ORIENTED_EDGE('',*,*,#688,.F.);
#1002=ORIENTED_EDGE('',*,*,#697,.F.);
#1003=ORIENTED_EDGE('',*,*,#692,.T.);
#1004=ORIENTED_EDGE('',*,*,#695,.F.);
#1005=ORIENTED_EDGE('',*,*,#699,.T.);
#1006=ORIENTED_EDGE('',*,*,#699,.F.);
#1007=ORIENTED_EDGE('',*,*,#696,.F.);
#1008=ORIENTED_EDGE('',*,*,#689,.F.);
#1009=ORIENTED_EDGE('',*,*,#698,.F.);
#1010=ORIENTED_EDGE('',*,*,#651,.F.);
#1011=ORIENTED_EDGE('',*,*,#590,.F.);
#1012=ORIENTED_EDGE('',*,*,#653,.F.);
#1013=ORIENTED_EDGE('',*,*,#603,.F.);
#1014=ORIENTED_EDGE('',*,*,#680,.T.);
#1015=ORIENTED_EDGE('',*,*,#676,.T.);
#1016=ORIENTED_EDGE('',*,*,#691,.T.);
#1017=ORIENTED_EDGE('',*,*,#683,.T.);
#1018=PLANE('',#1130);
#1019=PLANE('',#1131);
#1020=PLANE('',#1135);
#1021=PLANE('',#1151);
#1022=PLANE('',#1152);
#1023=PLANE('',#1157);
#1024=PLANE('',#1171);
#1025=PLANE('',#1172);
#1026=PLANE('',#1173);
#1027=PLANE('',#1174);
#1028=PLANE('',#1176);
#1029=PLANE('',#1177);
#1030=PLANE('',#1180);
#1031=PLANE('',#1181);
#1032=PLANE('',#1183);
#1033=PLANE('',#1185);
#1034=PLANE('',#1188);
#1035=PLANE('',#1189);
#1036=PLANE('',#1190);
#1037=PLANE('',#1191);
#1038=PLANE('',#1193);
#1039=PLANE('',#1194);
#1040=PLANE('',#1197);
#1041=PLANE('',#1198);
#1042=PLANE('',#1199);
#1043=PLANE('',#1200);
#1044=PLANE('',#1202);
#1045=PLANE('',#1203);
#1046=PLANE('',#1206);
#1047=PLANE('',#1207);
#1048=PLANE('',#1208);
#1049=PLANE('',#1209);
#1050=PLANE('',#1210);
#1051=PLANE('',#1211);
#1052=PLANE('',#1212);
#1053=PLANE('',#1213);
#1054=PLANE('',#1214);
#1055=PLANE('',#1215);
#1056=PLANE('',#1216);
#1057=PLANE('',#1217);
#1058=PLANE('',#1218);
#1059=ADVANCED_FACE('',(#65),#1018,.F.);
#1060=ADVANCED_FACE('',(#66),#1019,.F.);
#1061=ADVANCED_FACE('',(#67),#49,.T.);
#1062=ADVANCED_FACE('',(#68),#1020,.T.);
#1063=ADVANCED_FACE('',(#69),#1021,.F.);
#1064=ADVANCED_FACE('',(#70),#1022,.F.);
#1065=ADVANCED_FACE('',(#71),#50,.F.);
#1066=ADVANCED_FACE('',(#72),#51,.F.);
#1067=ADVANCED_FACE('',(#73),#1023,.F.);
#1068=ADVANCED_FACE('',(#74),#1024,.F.);
#1069=ADVANCED_FACE('',(#75),#1025,.F.);
#1070=ADVANCED_FACE('',(#76),#1026,.F.);
#1071=ADVANCED_FACE('',(#77),#1027,.F.);
#1072=ADVANCED_FACE('',(#78),#52,.F.);
#1073=ADVANCED_FACE('',(#79),#1028,.F.);
#1074=ADVANCED_FACE('',(#80),#1029,.F.);
#1075=ADVANCED_FACE('',(#81),#53,.F.);
#1076=ADVANCED_FACE('',(#82),#54,.F.);
#1077=ADVANCED_FACE('',(#83),#1030,.F.);
#1078=ADVANCED_FACE('',(#84),#1031,.F.);
#1079=ADVANCED_FACE('',(#85),#55,.T.);
#1080=ADVANCED_FACE('',(#86),#1032,.T.);
#1081=ADVANCED_FACE('',(#87),#56,.T.);
#1082=ADVANCED_FACE('',(#88),#1033,.T.);
#1083=ADVANCED_FACE('',(#89),#57,.F.);
#1084=ADVANCED_FACE('',(#90),#58,.T.);
#1085=ADVANCED_FACE('',(#91),#1034,.F.);
#1086=ADVANCED_FACE('',(#92),#1035,.F.);
#1087=ADVANCED_FACE('',(#93),#1036,.F.);
#1088=ADVANCED_FACE('',(#94),#1037,.F.);
#1089=ADVANCED_FACE('',(#95),#59,.F.);
#1090=ADVANCED_FACE('',(#96),#1038,.F.);
#1091=ADVANCED_FACE('',(#97),#1039,.F.);
#1092=ADVANCED_FACE('',(#98),#60,.F.);
#1093=ADVANCED_FACE('',(#99),#61,.F.);
#1094=ADVANCED_FACE('',(#100),#1040,.F.);
#1095=ADVANCED_FACE('',(#101),#1041,.F.);
#1096=ADVANCED_FACE('',(#102),#1042,.F.);
#1097=ADVANCED_FACE('',(#103),#1043,.F.);
#1098=ADVANCED_FACE('',(#104),#62,.F.);
#1099=ADVANCED_FACE('',(#105),#1044,.F.);
#1100=ADVANCED_FACE('',(#106),#1045,.F.);
#1101=ADVANCED_FACE('',(#107),#63,.F.);
#1102=ADVANCED_FACE('',(#108),#64,.F.);
#1103=ADVANCED_FACE('',(#109),#1046,.F.);
#1104=ADVANCED_FACE('',(#110),#1047,.F.);
#1105=ADVANCED_FACE('',(#111),#1048,.T.);
#1106=ADVANCED_FACE('',(#112),#1049,.T.);
#1107=ADVANCED_FACE('',(#113),#1050,.T.);
#1108=ADVANCED_FACE('',(#114,#15),#1051,.T.);
#1109=ADVANCED_FACE('',(#115),#1052,.T.);
#1110=ADVANCED_FACE('',(#116),#1053,.F.);
#1111=ADVANCED_FACE('',(#117),#1054,.F.);
#1112=ADVANCED_FACE('',(#118),#1055,.F.);
#1113=ADVANCED_FACE('',(#119),#1056,.F.);
#1114=ADVANCED_FACE('',(#120),#1057,.F.);
#1115=ADVANCED_FACE('',(#121,#16),#1058,.T.);
#1116=CLOSED_SHELL('',(#1059,#1060,#1061,#1062,#1063,#1064,#1065,#1066,
#1067,#1068,#1069,#1070,#1071,#1072,#1073,#1074,#1075,#1076,#1077,#1078,
#1079,#1080,#1081,#1082,#1083,#1084,#1085,#1086,#1087,#1088,#1089,#1090,
#1091,#1092,#1093,#1094,#1095,#1096,#1097,#1098,#1099,#1100,#1101,#1102,
#1103,#1104,#1105,#1106,#1107,#1108,#1109,#1110,#1111,#1112,#1113,#1114,
#1115));
#1117=DERIVED_UNIT_ELEMENT(#1119,1.);
#1118=DERIVED_UNIT_ELEMENT(#1854,-3.);
#1119=(
MASS_UNIT()
NAMED_UNIT(*)
SI_UNIT(.KILO.,.GRAM.)
);
#1120=DERIVED_UNIT((#1117,#1118));
#1121=MEASURE_REPRESENTATION_ITEM('density measure',
POSITIVE_RATIO_MEASURE(7850.),#1120);
#1122=PROPERTY_DEFINITION_REPRESENTATION(#1127,#1124);
#1123=PROPERTY_DEFINITION_REPRESENTATION(#1128,#1125);
#1124=REPRESENTATION('material name',(#1126),#1851);
#1125=REPRESENTATION('density',(#1121),#1851);
#1126=DESCRIPTIVE_REPRESENTATION_ITEM('Steel','Steel');
#1127=PROPERTY_DEFINITION('material property','material name',#1861);
#1128=PROPERTY_DEFINITION('material property','density of part',#1861);
#1129=AXIS2_PLACEMENT_3D('',#1526,#1219,#1220);
#1130=AXIS2_PLACEMENT_3D('',#1527,#1221,#1222);
#1131=AXIS2_PLACEMENT_3D('',#1536,#1227,#1228);
#1132=AXIS2_PLACEMENT_3D('',#1542,#1232,#1233);
#1133=AXIS2_PLACEMENT_3D('',#1544,#1234,#1235);
#1134=AXIS2_PLACEMENT_3D('',#1547,#1237,#1238);
#1135=AXIS2_PLACEMENT_3D('',#1548,#1239,#1240);
#1136=AXIS2_PLACEMENT_3D('',#1550,#1241,#1242);
#1137=AXIS2_PLACEMENT_3D('',#1556,#1245,#1246);
#1138=AXIS2_PLACEMENT_3D('',#1562,#1249,#1250);
#1139=AXIS2_PLACEMENT_3D('',#1568,#1253,#1254);
#1140=AXIS2_PLACEMENT_3D('',#1574,#1257,#1258);
#1141=AXIS2_PLACEMENT_3D('',#1580,#1261,#1262);
#1142=AXIS2_PLACEMENT_3D('',#1586,#1265,#1266);
#1143=AXIS2_PLACEMENT_3D('',#1592,#1269,#1270);
#1144=AXIS2_PLACEMENT_3D('',#1598,#1273,#1274);
#1145=AXIS2_PLACEMENT_3D('',#1604,#1277,#1278);
#1146=AXIS2_PLACEMENT_3D('',#1610,#1281,#1282);
#1147=AXIS2_PLACEMENT_3D('',#1616,#1285,#1286);
#1148=AXIS2_PLACEMENT_3D('',#1622,#1289,#1290);
#1149=AXIS2_PLACEMENT_3D('',#1626,#1292,#1293);
#1150=AXIS2_PLACEMENT_3D('',#1630,#1295,#1296);
#1151=AXIS2_PLACEMENT_3D('',#1632,#1298,#1299);
#1152=AXIS2_PLACEMENT_3D('',#1638,#1303,#1304);
#1153=AXIS2_PLACEMENT_3D('',#1642,#1307,#1308);
#1154=AXIS2_PLACEMENT_3D('',#1643,#1309,#1310);
#1155=AXIS2_PLACEMENT_3D('',#1644,#1311,#1312);
#1156=AXIS2_PLACEMENT_3D('',#1646,#1313,#1314);
#1157=AXIS2_PLACEMENT_3D('',#1648,#1316,#1317);
#1158=AXIS2_PLACEMENT_3D('',#1652,#1319,#1320);
#1159=AXIS2_PLACEMENT_3D('',#1656,#1322,#1323);
#1160=AXIS2_PLACEMENT_3D('',#1660,#1325,#1326);
#1161=AXIS2_PLACEMENT_3D('',#1666,#1329,#1330);
#1162=AXIS2_PLACEMENT_3D('',#1672,#1333,#1334);
#1163=AXIS2_PLACEMENT_3D('',#1678,#1337,#1338);
#1164=AXIS2_PLACEMENT_3D('',#1684,#1341,#1342);
#1165=AXIS2_PLACEMENT_3D('',#1690,#1345,#1346);
#1166=AXIS2_PLACEMENT_3D('',#1696,#1349,#1350);
#1167=AXIS2_PLACEMENT_3D('',#1702,#1353,#1354);
#1168=AXIS2_PLACEMENT_3D('',#1708,#1357,#1358);
#1169=AXIS2_PLACEMENT_3D('',#1714,#1361,#1362);
#1170=AXIS2_PLACEMENT_3D('',#1720,#1365,#1366);
#1171=AXIS2_PLACEMENT_3D('',#1724,#1369,#1370);
#1172=AXIS2_PLACEMENT_3D('',#1726,#1372,#1373);
#1173=AXIS2_PLACEMENT_3D('',#1728,#1375,#1376);
#1174=AXIS2_PLACEMENT_3D('',#1731,#1379,#1380);
#1175=AXIS2_PLACEMENT_3D('',#1733,#1382,#1383);
#1176=AXIS2_PLACEMENT_3D('',#1735,#1385,#1386);
#1177=AXIS2_PLACEMENT_3D('',#1737,#1388,#1389);
#1178=AXIS2_PLACEMENT_3D('',#1739,#1391,#1392);
#1179=AXIS2_PLACEMENT_3D('',#1740,#1393,#1394);
#1180=AXIS2_PLACEMENT_3D('',#1742,#1396,#1397);
#1181=AXIS2_PLACEMENT_3D('',#1744,#1399,#1400);
#1182=AXIS2_PLACEMENT_3D('',#1746,#1402,#1403);
#1183=AXIS2_PLACEMENT_3D('',#1749,#1406,#1407);
#1184=AXIS2_PLACEMENT_3D('',#1750,#1408,#1409);
#1185=AXIS2_PLACEMENT_3D('',#1753,#1412,#1413);
#1186=AXIS2_PLACEMENT_3D('',#1755,#1415,#1416);
#1187=AXIS2_PLACEMENT_3D('',#1757,#1418,#1419);
#1188=AXIS2_PLACEMENT_3D('',#1759,#1421,#1422);
#1189=AXIS2_PLACEMENT_3D('',#1761,#1424,#1425);
#1190=AXIS2_PLACEMENT_3D('',#1763,#1427,#1428);
#1191=AXIS2_PLACEMENT_3D('',#1766,#1431,#1432);
#1192=AXIS2_PLACEMENT_3D('',#1768,#1434,#1435);
#1193=AXIS2_PLACEMENT_3D('',#1770,#1437,#1438);
#1194=AXIS2_PLACEMENT_3D('',#1772,#1440,#1441);
#1195=AXIS2_PLACEMENT_3D('',#1774,#1443,#1444);
#1196=AXIS2_PLACEMENT_3D('',#1775,#1445,#1446);
#1197=AXIS2_PLACEMENT_3D('',#1777,#1448,#1449);
#1198=AXIS2_PLACEMENT_3D('',#1779,#1451,#1452);
#1199=AXIS2_PLACEMENT_3D('',#1781,#1454,#1455);
#1200=AXIS2_PLACEMENT_3D('',#1784,#1458,#1459);
#1201=AXIS2_PLACEMENT_3D('',#1786,#1461,#1462);
#1202=AXIS2_PLACEMENT_3D('',#1788,#1464,#1465);
#1203=AXIS2_PLACEMENT_3D('',#1790,#1467,#1468);
#1204=AXIS2_PLACEMENT_3D('',#1792,#1470,#1471);
#1205=AXIS2_PLACEMENT_3D('',#1793,#1472,#1473);
#1206=AXIS2_PLACEMENT_3D('',#1795,#1475,#1476);
#1207=AXIS2_PLACEMENT_3D('',#1797,#1478,#1479);
#1208=AXIS2_PLACEMENT_3D('',#1798,#1480,#1481);
#1209=AXIS2_PLACEMENT_3D('',#1807,#1486,#1487);
#1210=AXIS2_PLACEMENT_3D('',#1813,#1491,#1492);
#1211=AXIS2_PLACEMENT_3D('',#1819,#1496,#1497);
#1212=AXIS2_PLACEMENT_3D('',#1829,#1503,#1504);
#1213=AXIS2_PLACEMENT_3D('',#1831,#1506,#1507);
#1214=AXIS2_PLACEMENT_3D('',#1837,#1511,#1512);
#1215=AXIS2_PLACEMENT_3D('',#1841,#1515,#1516);
#1216=AXIS2_PLACEMENT_3D('',#1845,#1519,#1520);
#1217=AXIS2_PLACEMENT_3D('',#1847,#1522,#1523);
#1218=AXIS2_PLACEMENT_3D('',#1848,#1524,#1525);
#1219=DIRECTION('axis',(0.,0.,1.));
#1220=DIRECTION('refdir',(1.,0.,0.));
#1221=DIRECTION('center_axis',(0.906307787036651,-0.422618261740696,0.));
#1222=DIRECTION('ref_axis',(-0.422618261740696,-0.906307787036651,0.));
#1223=DIRECTION('',(0.422618261740696,0.906307787036651,0.));
#1224=DIRECTION('',(0.,0.,-1.));
#1225=DIRECTION('',(-0.422618261740696,-0.906307787036651,0.));
#1226=DIRECTION('',(0.,0.,1.));
#1227=DIRECTION('center_axis',(-0.422618261740695,-0.906307787036652,0.));
#1228=DIRECTION('ref_axis',(-0.906307787036652,0.422618261740695,0.));
#1229=DIRECTION('',(0.906307787036652,-0.422618261740695,0.));
#1230=DIRECTION('',(0.,0.,-1.));
#1231=DIRECTION('',(-0.906307787036652,0.422618261740695,0.));
#1232=DIRECTION('center_axis',(0.,0.,1.));
#1233=DIRECTION('ref_axis',(0.49149031509418,0.870883040464461,0.));
#1234=DIRECTION('center_axis',(0.,0.,-1.));
#1235=DIRECTION('ref_axis',(0.49149031509418,0.870883040464461,0.));
#1236=DIRECTION('',(0.,0.,-1.));
#1237=DIRECTION('center_axis',(0.,0.,1.));
#1238=DIRECTION('ref_axis',(0.49149031509418,0.870883040464461,0.));
#1239=DIRECTION('center_axis',(0.,0.,1.));
#1240=DIRECTION('ref_axis',(1.,0.,0.));
#1241=DIRECTION('center_axis',(0.,0.,-1.));
#1242=DIRECTION('ref_axis',(1.,0.,0.));
#1243=DIRECTION('',(-0.474600369747638,-0.880201391180113,0.));
#1244=DIRECTION('',(-0.880201391180113,0.474600369747636,0.));
#1245=DIRECTION('center_axis',(0.,0.,-1.));
#1246=DIRECTION('ref_axis',(1.,0.,0.));
#1247=DIRECTION('',(-0.524976580334557,-0.851116672437001,0.));
#1248=DIRECTION('',(-0.851116672437002,0.524976580334556,0.));
#1249=DIRECTION('center_axis',(0.,0.,-1.));
#1250=DIRECTION('ref_axis',(1.,0.,0.));
#1251=DIRECTION('',(-0.573576436351043,-0.819152044288994,0.));
#1252=DIRECTION('',(-0.819152044288994,0.573576436351042,0.));
#1253=DIRECTION('center_axis',(0.,0.,-1.));
#1254=DIRECTION('ref_axis',(1.,0.,0.));
#1255=DIRECTION('',(-0.620235491268257,-0.784415664919578,0.));
#1256=DIRECTION('',(-0.784415664919579,0.620235491268257,0.));
#1257=DIRECTION('center_axis',(0.,0.,-1.));
#1258=DIRECTION('ref_axis',(1.,0.,0.));
#1259=DIRECTION('',(-0.664795865613935,-0.747025071240998,0.));
#1260=DIRECTION('',(-0.747025071240999,0.664795865613934,0.));
#1261=DIRECTION('center_axis',(0.,0.,-1.));
#1262=DIRECTION('ref_axis',(1.,0.,0.));
#1263=DIRECTION('',(-0.707106781186551,-0.707106781186544,0.));
#1264=DIRECTION('',(-0.707106781186545,0.70710678118655,0.));
#1265=DIRECTION('center_axis',(0.,0.,-1.));
#1266=DIRECTION('ref_axis',(1.,0.,0.));
#1267=DIRECTION('',(-0.747025071240999,-0.664795865613934,0.));
#1268=DIRECTION('',(-0.664795865613935,0.747025071240998,0.));
#1269=DIRECTION('center_axis',(0.,0.,-1.));
#1270=DIRECTION('ref_axis',(1.,0.,0.));
#1271=DIRECTION('',(-0.784415664919579,-0.620235491268257,0.));
#1272=DIRECTION('',(-0.620235491268257,0.784415664919578,0.));
#1273=DIRECTION('center_axis',(0.,0.,-1.));
#1274=DIRECTION('ref_axis',(1.,0.,0.));
#1275=DIRECTION('',(-0.819152044288994,-0.573576436351042,0.));
#1276=DIRECTION('',(-0.573576436351043,0.819152044288994,0.));
#1277=DIRECTION('center_axis',(0.,0.,-1.));
#1278=DIRECTION('ref_axis',(1.,0.,0.));
#1279=DIRECTION('',(-0.851116672437002,-0.524976580334556,0.));
#1280=DIRECTION('',(-0.524976580334557,0.851116672437001,0.));
#1281=DIRECTION('center_axis',(0.,0.,-1.));
#1282=DIRECTION('ref_axis',(1.,0.,0.));
#1283=DIRECTION('',(-0.880201391180113,-0.474600369747636,0.));
#1284=DIRECTION('',(-0.474600369747638,0.880201391180113,0.));
#1285=DIRECTION('center_axis',(0.,0.,-1.));
#1286=DIRECTION('ref_axis',(1.,0.,0.));
#1287=DIRECTION('',(-0.906307787036652,-0.422618261740695,0.));
#1288=DIRECTION('',(-0.422618261740696,0.906307787036651,0.));
#1289=DIRECTION('center_axis',(0.,0.,-1.));
#1290=DIRECTION('ref_axis',(0.262094724922892,0.965042152015959,0.));
#1291=DIRECTION('',(-0.173646740671232,-0.98480800639224,0.));
#1292=DIRECTION('center_axis',(0.,0.,-1.));
#1293=DIRECTION('ref_axis',(-0.766043974152671,-0.642788168578407,0.));
#1294=DIRECTION('',(1.,0.,0.));
#1295=DIRECTION('center_axis',(0.,0.,-1.));
#1296=DIRECTION('ref_axis',(0.766044443118978,-0.642787609686539,0.));
#1297=DIRECTION('',(-0.17364817766693,0.984807753012208,0.));
#1298=DIRECTION('center_axis',(0.880201391180113,-0.474600369747638,0.));
#1299=DIRECTION('ref_axis',(-0.474600369747638,-0.880201391180113,0.));
#1300=DIRECTION('',(0.474600369747638,0.880201391180113,0.));
#1301=DIRECTION('',(0.,0.,-1.));
#1302=DIRECTION('',(0.,0.,1.));
#1303=DIRECTION('center_axis',(-0.474600369747636,-0.880201391180113,0.));
#1304=DIRECTION('ref_axis',(-0.880201391180113,0.474600369747636,0.));
#1305=DIRECTION('',(0.880201391180113,-0.474600369747636,0.));
#1306=DIRECTION('',(0.,0.,-1.));
#1307=DIRECTION('center_axis',(0.,0.,1.));
#1308=DIRECTION('ref_axis',(1.,0.,0.));
#1309=DIRECTION('center_axis',(0.,0.,1.));
#1310=DIRECTION('ref_axis',(1.,0.,0.));
#1311=DIRECTION('center_axis',(0.,0.,1.));
#1312=DIRECTION('ref_axis',(1.,0.,0.));
#1313=DIRECTION('center_axis',(0.,0.,1.));
#1314=DIRECTION('ref_axis',(1.,0.,0.));
#1315=DIRECTION('',(0.,0.,1.));
#1316=DIRECTION('center_axis',(0.,0.,1.));
#1317=DIRECTION('ref_axis',(1.,0.,0.));
#1318=DIRECTION('',(0.17364817766693,-0.984807753012208,0.));
#1319=DIRECTION('center_axis',(0.,0.,1.));
#1320=DIRECTION('ref_axis',(0.766044443118978,-0.642787609686539,0.));
#1321=DIRECTION('',(-1.,0.,0.));
#1322=DIRECTION('center_axis',(0.,0.,1.));
#1323=DIRECTION('ref_axis',(-0.766043974152671,-0.642788168578407,0.));
#1324=DIRECTION('',(0.173646740671232,0.98480800639224,0.));
#1325=DIRECTION('center_axis',(0.,0.,1.));
#1326=DIRECTION('ref_axis',(0.262094724922892,0.965042152015959,0.));
#1327=DIRECTION('',(0.422618261740696,-0.906307787036651,0.));
#1328=DIRECTION('',(0.906307787036652,0.422618261740695,0.));
#1329=DIRECTION('center_axis',(0.,0.,1.));
#1330=DIRECTION('ref_axis',(1.,0.,0.));
#1331=DIRECTION('',(0.474600369747638,-0.880201391180113,0.));
#1332=DIRECTION('',(0.880201391180113,0.474600369747636,0.));
#1333=DIRECTION('center_axis',(0.,0.,1.));
#1334=DIRECTION('ref_axis',(1.,0.,0.));
#1335=DIRECTION('',(0.524976580334557,-0.851116672437001,0.));
#1336=DIRECTION('',(0.851116672437002,0.524976580334556,0.));
#1337=DIRECTION('center_axis',(0.,0.,1.));
#1338=DIRECTION('ref_axis',(1.,0.,0.));
#1339=DIRECTION('',(0.573576436351043,-0.819152044288994,0.));
#1340=DIRECTION('',(0.819152044288994,0.573576436351042,0.));
#1341=DIRECTION('center_axis',(0.,0.,1.));
#1342=DIRECTION('ref_axis',(1.,0.,0.));
#1343=DIRECTION('',(0.620235491268257,-0.784415664919578,0.));
#1344=DIRECTION('',(0.784415664919579,0.620235491268257,0.));
#1345=DIRECTION('center_axis',(0.,0.,1.));
#1346=DIRECTION('ref_axis',(1.,0.,0.));
#1347=DIRECTION('',(0.664795865613935,-0.747025071240998,0.));
#1348=DIRECTION('',(0.747025071240999,0.664795865613934,0.));
#1349=DIRECTION('center_axis',(0.,0.,1.));
#1350=DIRECTION('ref_axis',(1.,0.,0.));
#1351=DIRECTION('',(0.707106781186545,-0.70710678118655,0.));
#1352=DIRECTION('',(0.707106781186551,0.707106781186544,0.));
#1353=DIRECTION('center_axis',(0.,0.,1.));
#1354=DIRECTION('ref_axis',(1.,0.,0.));
#1355=DIRECTION('',(0.747025071240999,-0.664795865613934,0.));
#1356=DIRECTION('',(0.664795865613935,0.747025071240998,0.));
#1357=DIRECTION('center_axis',(0.,0.,1.));
#1358=DIRECTION('ref_axis',(1.,0.,0.));
#1359=DIRECTION('',(0.784415664919579,-0.620235491268257,0.));
#1360=DIRECTION('',(0.620235491268257,0.784415664919578,0.));
#1361=DIRECTION('center_axis',(0.,0.,1.));
#1362=DIRECTION('ref_axis',(1.,0.,0.));
#1363=DIRECTION('',(0.819152044288994,-0.573576436351042,0.));
#1364=DIRECTION('',(0.573576436351043,0.819152044288994,0.));
#1365=DIRECTION('center_axis',(0.,0.,1.));
#1366=DIRECTION('ref_axis',(1.,0.,0.));
#1367=DIRECTION('',(0.851116672437002,-0.524976580334556,0.));
#1368=DIRECTION('',(0.524976580334557,0.851116672437001,0.));
#1369=DIRECTION('center_axis',(0.851116672437002,-0.524976580334557,0.));
#1370=DIRECTION('ref_axis',(-0.524976580334557,-0.851116672437001,0.));
#1371=DIRECTION('',(0.,0.,-1.));
#1372=DIRECTION('center_axis',(-0.524976580334556,-0.851116672437002,0.));
#1373=DIRECTION('ref_axis',(-0.851116672437002,0.524976580334556,0.));
#1374=DIRECTION('',(0.,0.,-1.));
#1375=DIRECTION('center_axis',(0.819152044288994,-0.573576436351043,0.));
#1376=DIRECTION('ref_axis',(-0.573576436351043,-0.819152044288994,0.));
#1377=DIRECTION('',(0.,0.,-1.));
#1378=DIRECTION('',(0.,0.,1.));
#1379=DIRECTION('center_axis',(-0.573576436351042,-0.819152044288994,0.));
#1380=DIRECTION('ref_axis',(-0.819152044288994,0.573576436351042,0.));
#1381=DIRECTION('',(0.,0.,-1.));
#1382=DIRECTION('center_axis',(0.,0.,1.));
#1383=DIRECTION('ref_axis',(1.,0.,0.));
#1384=DIRECTION('',(0.,0.,1.));
#1385=DIRECTION('center_axis',(0.784415664919578,-0.620235491268257,0.));
#1386=DIRECTION('ref_axis',(-0.620235491268257,-0.784415664919578,0.));
#1387=DIRECTION('',(0.,0.,-1.));
#1388=DIRECTION('center_axis',(-0.620235491268257,-0.784415664919579,0.));
#1389=DIRECTION('ref_axis',(-0.784415664919579,0.620235491268257,0.));
#1390=DIRECTION('',(0.,0.,-1.));
#1391=DIRECTION('center_axis',(0.,0.,1.));
#1392=DIRECTION('ref_axis',(1.,0.,0.));
#1393=DIRECTION('center_axis',(0.,0.,1.));
#1394=DIRECTION('ref_axis',(1.,0.,0.));
#1395=DIRECTION('',(0.,0.,1.));
#1396=DIRECTION('center_axis',(0.747025071240998,-0.664795865613935,0.));
#1397=DIRECTION('ref_axis',(-0.664795865613935,-0.747025071240998,0.));
#1398=DIRECTION('',(0.,0.,-1.));
#1399=DIRECTION('center_axis',(-0.664795865613934,-0.747025071240999,0.));
#1400=DIRECTION('ref_axis',(-0.747025071240999,0.664795865613934,0.));
#1401=DIRECTION('',(0.,0.,-1.));
#1402=DIRECTION('center_axis',(0.,0.,-1.));
#1403=DIRECTION('ref_axis',(0.766044443118978,-0.642787609686539,0.));
#1404=DIRECTION('',(0.,0.,1.));
#1405=DIRECTION('',(0.,0.,-1.));
#1406=DIRECTION('center_axis',(0.984807753012208,0.17364817766693,0.));
#1407=DIRECTION('ref_axis',(-0.17364817766693,0.984807753012208,0.));
#1408=DIRECTION('center_axis',(0.,0.,1.));
#1409=DIRECTION('ref_axis',(-0.766043974152671,-0.642788168578407,0.));
#1410=DIRECTION('',(0.,0.,-1.));
#1411=DIRECTION('',(0.,0.,1.));
#1412=DIRECTION('center_axis',(-0.98480800639224,0.173646740671232,0.));
#1413=DIRECTION('ref_axis',(-0.173646740671232,-0.98480800639224,0.));
#1414=DIRECTION('',(0.,0.,1.));
#1415=DIRECTION('center_axis',(0.,0.,1.));
#1416=DIRECTION('ref_axis',(1.,0.,0.));
#1417=DIRECTION('',(0.,0.,1.));
#1418=DIRECTION('center_axis',(0.,0.,1.));
#1419=DIRECTION('ref_axis',(0.262094724922892,0.965042152015959,0.));
#1420=DIRECTION('',(0.,0.,-1.));
#1421=DIRECTION('center_axis',(-0.906307787036651,-0.422618261740696,0.));
#1422=DIRECTION('ref_axis',(-0.422618261740696,0.906307787036651,0.));
#1423=DIRECTION('',(0.,0.,-1.));
#1424=DIRECTION('center_axis',(0.422618261740695,-0.906307787036652,0.));
#1425=DIRECTION('ref_axis',(-0.906307787036652,-0.422618261740695,0.));
#1426=DIRECTION('',(0.,0.,1.));
#1427=DIRECTION('center_axis',(-0.880201391180113,-0.474600369747638,0.));
#1428=DIRECTION('ref_axis',(-0.474600369747638,0.880201391180113,0.));
#1429=DIRECTION('',(0.,0.,-1.));
#1430=DIRECTION('',(0.,0.,-1.));
#1431=DIRECTION('center_axis',(0.474600369747636,-0.880201391180113,0.));
#1432=DIRECTION('ref_axis',(-0.880201391180113,-0.474600369747636,0.));
#1433=DIRECTION('',(0.,0.,1.));
#1434=DIRECTION('center_axis',(0.,0.,1.));
#1435=DIRECTION('ref_axis',(1.,0.,0.));
#1436=DIRECTION('',(0.,0.,-1.));
#1437=DIRECTION('center_axis',(-0.851116672437002,-0.524976580334557,0.));
#1438=DIRECTION('ref_axis',(-0.524976580334557,0.851116672437001,0.));
#1439=DIRECTION('',(0.,0.,-1.));
#1440=DIRECTION('center_axis',(0.524976580334556,-0.851116672437002,0.));
#1441=DIRECTION('ref_axis',(-0.851116672437002,-0.524976580334556,0.));
#1442=DIRECTION('',(0.,0.,1.));
#1443=DIRECTION('center_axis',(0.,0.,1.));
#1444=DIRECTION('ref_axis',(1.,0.,0.));
#1445=DIRECTION('center_axis',(0.,0.,1.));
#1446=DIRECTION('ref_axis',(1.,0.,0.));
#1447=DIRECTION('',(0.,0.,-1.));
#1448=DIRECTION('center_axis',(-0.819152044288994,-0.573576436351043,0.));
#1449=DIRECTION('ref_axis',(-0.573576436351043,0.819152044288994,0.));
#1450=DIRECTION('',(0.,0.,-1.));
#1451=DIRECTION('center_axis',(0.573576436351042,-0.819152044288994,0.));
#1452=DIRECTION('ref_axis',(-0.819152044288994,-0.573576436351042,0.));
#1453=DIRECTION('',(0.,0.,1.));
#1454=DIRECTION('center_axis',(-0.784415664919578,-0.620235491268257,0.));
#1455=DIRECTION('ref_axis',(-0.620235491268257,0.784415664919578,0.));
#1456=DIRECTION('',(0.,0.,-1.));
#1457=DIRECTION('',(0.,0.,-1.));
#1458=DIRECTION('center_axis',(0.620235491268257,-0.784415664919579,0.));
#1459=DIRECTION('ref_axis',(-0.784415664919579,-0.620235491268257,0.));
#1460=DIRECTION('',(0.,0.,1.));
#1461=DIRECTION('center_axis',(0.,0.,1.));
#1462=DIRECTION('ref_axis',(1.,0.,0.));
#1463=DIRECTION('',(0.,0.,-1.));
#1464=DIRECTION('center_axis',(-0.747025071240998,-0.664795865613935,0.));
#1465=DIRECTION('ref_axis',(-0.664795865613935,0.747025071240998,0.));
#1466=DIRECTION('',(0.,0.,-1.));
#1467=DIRECTION('center_axis',(0.664795865613934,-0.747025071240999,0.));
#1468=DIRECTION('ref_axis',(-0.747025071240999,-0.664795865613934,0.));
#1469=DIRECTION('',(0.,0.,1.));
#1470=DIRECTION('center_axis',(0.,0.,1.));
#1471=DIRECTION('ref_axis',(1.,0.,0.));
#1472=DIRECTION('center_axis',(0.,0.,1.));
#1473=DIRECTION('ref_axis',(1.,0.,0.));
#1474=DIRECTION('',(0.,0.,-1.));
#1475=DIRECTION('center_axis',(-0.70710678118655,-0.707106781186545,0.));
#1476=DIRECTION('ref_axis',(-0.707106781186545,0.70710678118655,0.));
#1477=DIRECTION('',(0.,0.,-1.));
#1478=DIRECTION('center_axis',(0.707106781186544,-0.707106781186551,0.));
#1479=DIRECTION('ref_axis',(-0.707106781186551,-0.707106781186544,0.));
#1480=DIRECTION('center_axis',(-0.998739217130064,0.050199364203405,0.));
#1481=DIRECTION('ref_axis',(-0.050199364203405,-0.998739217130064,0.));
#1482=DIRECTION('',(0.,0.,1.));
#1483=DIRECTION('',(0.050199364203405,0.998739217130064,0.));
#1484=DIRECTION('',(0.,0.,-1.));
#1485=DIRECTION('',(-0.050199364203405,-0.998739217130064,0.));
#1486=DIRECTION('center_axis',(0.,0.,-1.));
#1487=DIRECTION('ref_axis',(-1.,0.,0.));
#1488=DIRECTION('',(-1.,0.,0.));
#1489=DIRECTION('',(0.0496760876018824,-0.99876538101827,0.));
#1490=DIRECTION('',(-1.,0.,0.));
#1491=DIRECTION('center_axis',(0.99876538101827,0.0496760876018824,0.));
#1492=DIRECTION('ref_axis',(-0.0496760876018824,0.99876538101827,0.));
#1493=DIRECTION('',(0.,0.,-1.));
#1494=DIRECTION('',(-0.0496760876018824,0.99876538101827,0.));
#1495=DIRECTION('',(0.,0.,1.));
#1496=DIRECTION('center_axis',(0.,-1.,0.));
#1497=DIRECTION('ref_axis',(1.,0.,0.));
#1498=DIRECTION('',(1.,0.,0.));
#1499=DIRECTION('',(-1.,0.,0.));
#1500=DIRECTION('',(0.,0.,1.));
#1501=DIRECTION('',(1.,0.,0.));
#1502=DIRECTION('',(0.,0.,-1.));
#1503=DIRECTION('center_axis',(0.,0.,1.));
#1504=DIRECTION('ref_axis',(1.,0.,0.));
#1505=DIRECTION('',(1.,0.,0.));
#1506=DIRECTION('center_axis',(0.,0.,-1.));
#1507=DIRECTION('ref_axis',(-1.,0.,0.));
#1508=DIRECTION('',(1.,1.8503717077086E-16,0.));
#1509=DIRECTION('',(0.0501993642034059,0.998739217130064,0.));
#1510=DIRECTION('',(0.0496760876018833,-0.99876538101827,0.));
#1511=DIRECTION('center_axis',(0.99876538101827,0.0496760876018833,0.));
#1512=DIRECTION('ref_axis',(-0.0496760876018833,0.99876538101827,0.));
#1513=DIRECTION('',(0.,0.,-1.));
#1514=DIRECTION('',(-0.0496760876018833,0.99876538101827,0.));
#1515=DIRECTION('center_axis',(-0.998739217130064,0.0501993642034059,0.));
#1516=DIRECTION('ref_axis',(-0.0501993642034059,-0.998739217130064,0.));
#1517=DIRECTION('',(0.,0.,1.));
#1518=DIRECTION('',(-0.0501993642034059,-0.998739217130064,0.));
#1519=DIRECTION('center_axis',(-1.8503717077086E-16,1.,0.));
#1520=DIRECTION('ref_axis',(-1.,-1.8503717077086E-16,0.));
#1521=DIRECTION('',(-1.,-1.8503717077086E-16,0.));
#1522=DIRECTION('center_axis',(0.,0.,1.));
#1523=DIRECTION('ref_axis',(1.,0.,0.));
#1524=DIRECTION('center_axis',(0.,-1.,0.));
#1525=DIRECTION('ref_axis',(1.,0.,0.));
#1526=CARTESIAN_POINT('',(0.,0.,0.));
#1527=CARTESIAN_POINT('Origin',(10.9083644146111,8.05348705476752,5.));
#1528=CARTESIAN_POINT('',(10.4946321075472,7.16623525903061,-5.));
#1529=CARTESIAN_POINT('',(10.9052534723182,8.04681561749115,-5.));
#1530=CARTESIAN_POINT('',(8.89735416070717,3.74086164805486,-5.));
#1531=CARTESIAN_POINT('',(10.4946321075472,7.16623525903061,5.));
#1532=CARTESIAN_POINT('',(10.4946321075472,7.16623525903061,5.));
#1533=CARTESIAN_POINT('',(10.9052534723182,8.04681561749115,5.));
#1534=CARTESIAN_POINT('',(8.89735416070717,3.74086164805486,5.));
#1535=CARTESIAN_POINT('',(10.9052534723182,8.04681561749115,0.));
#1536=CARTESIAN_POINT('Origin',(10.4946321075472,7.16623525903061,5.));
#1537=CARTESIAN_POINT('',(9.60738031181027,7.57996756609451,-5.));
#1538=CARTESIAN_POINT('',(7.05146105465515,8.77181228933176,-5.));
#1539=CARTESIAN_POINT('',(9.60738031181027,7.57996756609451,5.));
#1540=CARTESIAN_POINT('',(9.60738031181028,7.57996756609451,0.));
#1541=CARTESIAN_POINT('',(7.05146105465515,8.77181228933176,5.));
#1542=CARTESIAN_POINT('Origin',(11.1714264221961,7.08289032953916,0.));
#1543=CARTESIAN_POINT('',(12.1562341752083,7.25653850720609,5.));
#1544=CARTESIAN_POINT('Origin',(11.1714264221961,7.08289032953916,5.));
#1545=CARTESIAN_POINT('',(12.1562341752083,7.25653850720609,-5.));
#1546=CARTESIAN_POINT('',(12.1562341752083,7.25653850720609,0.));
#1547=CARTESIAN_POINT('Origin',(11.1714264221961,7.08289032953916,-5.));
#1548=CARTESIAN_POINT('Origin',(1.80101919156073E-6,2.6393903019445,5.));
#1549=CARTESIAN_POINT('',(9.26496397465729,7.46650314896013,5.));
#1550=CARTESIAN_POINT('Origin',(0.,36.,5.));
#1551=CARTESIAN_POINT('',(8.80034253331138,6.60480883704411,5.));
#1552=CARTESIAN_POINT('',(7.21326991822383,3.66139873298808,5.));
#1553=CARTESIAN_POINT('',(7.93864822139535,7.06943027839002,5.));
#1554=CARTESIAN_POINT('',(6.21955550292578,7.99635682950834,5.));
#1555=CARTESIAN_POINT('',(7.59021382936846,6.97606756443118,5.));
#1556=CARTESIAN_POINT('Origin',(0.,36.,5.));
#1557=CARTESIAN_POINT('',(7.07627538562559,6.14284643712467,5.));
#1558=CARTESIAN_POINT('',(5.57543196817224,3.70960864488294,5.));
#1559=CARTESIAN_POINT('',(6.24305425831906,6.65678488086754,5.));
#1560=CARTESIAN_POINT('',(5.29595123264717,7.24096672542957,5.));
#1561=CARTESIAN_POINT('',(5.88978080310658,6.58383977995501,5.));
#1562=CARTESIAN_POINT('Origin',(0.,36.,5.));
#1563=CARTESIAN_POINT('',(5.328264361977,5.78191119380288,5.));
#1564=CARTESIAN_POINT('',(3.99429930031002,3.87681164991955,5.));
#1565=CARTESIAN_POINT('',(4.52633577582486,6.34342763493246,5.));
#1566=CARTESIAN_POINT('',(4.27885636372986,6.51671458483309,5.));
#1567=CARTESIAN_POINT('',(4.16941862297313,6.29114697019751,5.));
#1568=CARTESIAN_POINT('Origin',(0.,36.,5.));
#1569=CARTESIAN_POINT('',(3.5622241783498,5.52322439769079,5.));
#1570=CARTESIAN_POINT('',(2.47911706654311,4.1534121292092,5.));
#1571=CARTESIAN_POINT('',(2.79430160584307,6.13041884231413,5.));
#1572=CARTESIAN_POINT('',(3.16781732380284,5.83508090455259,5.));
#1573=CARTESIAN_POINT('',(2.4349484500179,6.09897951497716,5.));
#1574=CARTESIAN_POINT('Origin',(0.,36.,5.));
#1575=CARTESIAN_POINT('',(1.78413055569853,5.36766136302106,5.));
#1576=CARTESIAN_POINT('',(1.03783262372008,4.52905316065452,5.));
#1577=CARTESIAN_POINT('',(1.05281240374242,6.01847925734043,5.));
#1578=CARTESIAN_POINT('',(1.963773057497,5.20779311082738,5.));
#1579=CARTESIAN_POINT('',(0.692239182272576,6.00798764813328,5.));
#1580=CARTESIAN_POINT('Origin',(0.,36.,5.));
#1581=CARTESIAN_POINT('',(0.,5.31574846586071,5.));
#1582=CARTESIAN_POINT('',(-0.322969499587966,4.99277896627274,5.));
#1583=CARTESIAN_POINT('',(-0.692239182272564,6.00798764813327,5.));
#1584=CARTESIAN_POINT('',(0.66908999123385,4.64665847462685,5.));
#1585=CARTESIAN_POINT('',(-1.05281240374242,6.01847925734043,5.));
#1586=CARTESIAN_POINT('Origin',(0.,36.,5.));
#1587=CARTESIAN_POINT('',(-1.78413055569853,5.36766136302106,5.));
#1588=CARTESIAN_POINT('',(-1.59811297646656,5.53320295240774,5.));
#1589=CARTESIAN_POINT('',(-2.4349484500179,6.09897951497716,5.));
#1590=CARTESIAN_POINT('',(-0.712422880593586,4.1633931902558,5.));
#1591=CARTESIAN_POINT('',(-2.79430160584307,6.13041884231413,5.));
#1592=CARTESIAN_POINT('Origin',(0.,36.,5.));
#1593=CARTESIAN_POINT('',(-3.5622241783498,5.52322439769079,5.));
#1594=CARTESIAN_POINT('',(-2.78385492936808,6.13867900310051,5.));
#1595=CARTESIAN_POINT('',(-4.16941862297313,6.29114697019751,5.));
#1596=CARTESIAN_POINT('',(-2.17551915139365,3.7694499667196,5.));
#1597=CARTESIAN_POINT('',(-4.52633577582486,6.34342763493246,5.));
#1598=CARTESIAN_POINT('Origin',(0.,36.,5.));
#1599=CARTESIAN_POINT('',(-5.328264361977,5.78191119380288,5.));
#1600=CARTESIAN_POINT('',(-3.87789086215177,6.7974736516001,5.));
#1601=CARTESIAN_POINT('',(-5.88978080310658,6.58383977995501,5.));
#1602=CARTESIAN_POINT('',(-3.71354048722806,3.47584651064126,5.));
#1603=CARTESIAN_POINT('',(-6.24305425831906,6.65678488086754,5.));
#1604=CARTESIAN_POINT('Origin',(0.,36.,5.));
#1605=CARTESIAN_POINT('',(-7.07627538562559,6.14284643712467,5.));
#1606=CARTESIAN_POINT('',(-4.87933936433634,7.49793675202577,5.));
#1607=CARTESIAN_POINT('',(-7.59021382936846,6.97606756443118,5.));
#1608=CARTESIAN_POINT('',(-5.31846224993918,3.29299727650491,5.));
#1609=CARTESIAN_POINT('',(-7.93864822139535,7.06943027839002,5.));
#1610=CARTESIAN_POINT('Origin',(0.,36.,5.));
#1611=CARTESIAN_POINT('',(-8.80034253331138,6.60480883704411,5.));
#1612=CARTESIAN_POINT('',(-5.78870695162006,8.22866830254608,5.));
#1613=CARTESIAN_POINT('',(-9.26496397465729,7.46650314896013,5.));
#1614=CARTESIAN_POINT('',(-6.98095879187939,3.23055082466528,5.));
#1615=CARTESIAN_POINT('',(-9.60738031181027,7.57996756609451,5.));
#1616=CARTESIAN_POINT('Origin',(0.,36.,5.));
#1617=CARTESIAN_POINT('',(-10.4946321075472,7.16623525903061,5.));
#1618=CARTESIAN_POINT('',(-6.60783367744069,8.97867913269408,5.));
#1619=CARTESIAN_POINT('',(-10.9083644146111,8.05348705476752,5.));
#1620=CARTESIAN_POINT('',(-8.69048768550204,3.29723506035603,5.));
#1621=CARTESIAN_POINT('',(-12.1552671459262,7.2620916434228,5.));
#1622=CARTESIAN_POINT('Origin',(-11.170459139534,7.08844490275156,5.));
#1623=CARTESIAN_POINT('',(-13.7930525775478,-2.02633035389643,5.));
#1624=CARTESIAN_POINT('',(-13.9999999999894,-3.19999752285646,5.));
#1625=CARTESIAN_POINT('',(-12.8082445711555,-3.19997709456767,5.));
#1626=CARTESIAN_POINT('Origin',(-12.8082445711555,-2.19997709456767,5.));
#1627=CARTESIAN_POINT('',(12.8082464074058,-3.19997709456767,5.));
#1628=CARTESIAN_POINT('',(22.9120710222662,-3.19997709456767,5.));
#1629=CARTESIAN_POINT('',(13.793054160418,-2.02632891690074,5.));
#1630=CARTESIAN_POINT('Origin',(12.8082464074058,-2.19997709456767,5.));
#1631=CARTESIAN_POINT('',(14.,-3.19997709456767,5.));
#1632=CARTESIAN_POINT('Origin',(9.26496397465729,7.46650314896013,5.));
#1633=CARTESIAN_POINT('',(8.80034253331138,6.60480883704411,-5.));
#1634=CARTESIAN_POINT('',(9.26496397465729,7.46650314896013,-5.));
#1635=CARTESIAN_POINT('',(7.21326991822383,3.66139873298808,-5.));
#1636=CARTESIAN_POINT('',(8.80034253331138,6.60480883704411,5.));
#1637=CARTESIAN_POINT('',(9.26496397465728,7.46650314896012,0.));
#1638=CARTESIAN_POINT('Origin',(8.80034253331138,6.60480883704411,5.));
#1639=CARTESIAN_POINT('',(7.93864822139535,7.06943027839002,-5.));
#1640=CARTESIAN_POINT('',(6.21955550292578,7.99635682950834,-5.));
#1641=CARTESIAN_POINT('',(7.93864822139536,7.06943027839002,0.));
#1642=CARTESIAN_POINT('Origin',(0.,36.,0.));
#1643=CARTESIAN_POINT('Origin',(0.,36.,-5.));
#1644=CARTESIAN_POINT('Origin',(0.,36.,0.));
#1645=CARTESIAN_POINT('',(7.59021382936846,6.97606756443118,-5.));
#1646=CARTESIAN_POINT('Origin',(0.,36.,-5.));
#1647=CARTESIAN_POINT('',(7.59021382936846,6.97606756443118,0.));
#1648=CARTESIAN_POINT('Origin',(1.80101919156073E-6,2.6393903019445,-5.));
#1649=CARTESIAN_POINT('',(13.793054160418,-2.02632891690074,-5.));
#1650=CARTESIAN_POINT('',(14.,-3.19997709456767,-5.));
#1651=CARTESIAN_POINT('',(12.8082464074058,-3.19997709456767,-5.));
#1652=CARTESIAN_POINT('Origin',(12.8082464074058,-2.19997709456767,-5.));
#1653=CARTESIAN_POINT('',(-12.8082445711555,-3.19997709456767,-5.));
#1654=CARTESIAN_POINT('',(22.9120710222662,-3.19997709456767,-5.));
#1655=CARTESIAN_POINT('',(-13.7930525775478,-2.02633035389643,-5.));
#1656=CARTESIAN_POINT('Origin',(-12.8082445711555,-2.19997709456767,-5.));
#1657=CARTESIAN_POINT('',(-12.1552671459262,7.2620916434228,-5.));
#1658=CARTESIAN_POINT('',(-13.9999999999894,-3.19999752285646,-5.));
#1659=CARTESIAN_POINT('',(-10.9083644146111,8.05348705476752,-5.));
#1660=CARTESIAN_POINT('Origin',(-11.170459139534,7.08844490275156,-5.));
#1661=CARTESIAN_POINT('',(-10.4946321075472,7.16623525903061,-5.));
#1662=CARTESIAN_POINT('',(-8.69048768550204,3.29723506035603,-5.));
#1663=CARTESIAN_POINT('',(-9.60738031181027,7.57996756609451,-5.));
#1664=CARTESIAN_POINT('',(-6.60783367744069,8.97867913269408,-5.));
#1665=CARTESIAN_POINT('',(-9.26496397465729,7.46650314896013,-5.));
#1666=CARTESIAN_POINT('Origin',(0.,36.,-5.));
#1667=CARTESIAN_POINT('',(-8.80034253331138,6.60480883704411,-5.));
#1668=CARTESIAN_POINT('',(-6.98095879187939,3.23055082466528,-5.));
#1669=CARTESIAN_POINT('',(-7.93864822139535,7.06943027839002,-5.));
#1670=CARTESIAN_POINT('',(-5.78870695162006,8.22866830254608,-5.));
#1671=CARTESIAN_POINT('',(-7.59021382936846,6.97606756443118,-5.));
#1672=CARTESIAN_POINT('Origin',(0.,36.,-5.));
#1673=CARTESIAN_POINT('',(-7.07627538562559,6.14284643712467,-5.));
#1674=CARTESIAN_POINT('',(-5.31846224993918,3.29299727650491,-5.));
#1675=CARTESIAN_POINT('',(-6.24305425831907,6.65678488086754,-5.));
#1676=CARTESIAN_POINT('',(-4.87933936433634,7.49793675202577,-5.));
#1677=CARTESIAN_POINT('',(-5.88978080310658,6.58383977995501,-5.));
#1678=CARTESIAN_POINT('Origin',(0.,36.,-5.));
#1679=CARTESIAN_POINT('',(-5.328264361977,5.78191119380288,-5.));
#1680=CARTESIAN_POINT('',(-3.71354048722806,3.47584651064126,-5.));
#1681=CARTESIAN_POINT('',(-4.52633577582486,6.34342763493246,-5.));
#1682=CARTESIAN_POINT('',(-3.87789086215177,6.7974736516001,-5.));
#1683=CARTESIAN_POINT('',(-4.16941862297313,6.29114697019751,-5.));
#1684=CARTESIAN_POINT('Origin',(0.,36.,-5.));
#1685=CARTESIAN_POINT('',(-3.5622241783498,5.52322439769079,-5.));
#1686=CARTESIAN_POINT('',(-2.17551915139365,3.7694499667196,-5.));
#1687=CARTESIAN_POINT('',(-2.79430160584307,6.13041884231413,-5.));
#1688=CARTESIAN_POINT('',(-2.78385492936808,6.13867900310051,-5.));
#1689=CARTESIAN_POINT('',(-2.4349484500179,6.09897951497716,-5.));
#1690=CARTESIAN_POINT('Origin',(0.,36.,-5.));
#1691=CARTESIAN_POINT('',(-1.78413055569853,5.36766136302106,-5.));
#1692=CARTESIAN_POINT('',(-0.712422880593586,4.1633931902558,-5.));
#1693=CARTESIAN_POINT('',(-1.05281240374243,6.01847925734043,-5.));
#1694=CARTESIAN_POINT('',(-1.59811297646656,5.53320295240774,-5.));
#1695=CARTESIAN_POINT('',(-0.692239182272564,6.00798764813327,-5.));
#1696=CARTESIAN_POINT('Origin',(0.,36.,-5.));
#1697=CARTESIAN_POINT('',(0.,5.31574846586071,-5.));
#1698=CARTESIAN_POINT('',(0.66908999123385,4.64665847462685,-5.));
#1699=CARTESIAN_POINT('',(0.692239182272576,6.00798764813328,-5.));
#1700=CARTESIAN_POINT('',(-0.322969499587966,4.99277896627274,-5.));
#1701=CARTESIAN_POINT('',(1.05281240374242,6.01847925734043,-5.));
#1702=CARTESIAN_POINT('Origin',(0.,36.,-5.));
#1703=CARTESIAN_POINT('',(1.78413055569853,5.36766136302106,-5.));
#1704=CARTESIAN_POINT('',(1.963773057497,5.20779311082738,-5.));
#1705=CARTESIAN_POINT('',(2.4349484500179,6.09897951497716,-5.));
#1706=CARTESIAN_POINT('',(1.03783262372008,4.52905316065452,-5.));
#1707=CARTESIAN_POINT('',(2.79430160584307,6.13041884231413,-5.));
#1708=CARTESIAN_POINT('Origin',(0.,36.,-5.));
#1709=CARTESIAN_POINT('',(3.5622241783498,5.52322439769079,-5.));
#1710=CARTESIAN_POINT('',(3.16781732380284,5.83508090455259,-5.));
#1711=CARTESIAN_POINT('',(4.16941862297313,6.29114697019751,-5.));
#1712=CARTESIAN_POINT('',(2.47911706654311,4.1534121292092,-5.));
#1713=CARTESIAN_POINT('',(4.52633577582486,6.34342763493246,-5.));
#1714=CARTESIAN_POINT('Origin',(0.,36.,-5.));
#1715=CARTESIAN_POINT('',(5.328264361977,5.78191119380288,-5.));
#1716=CARTESIAN_POINT('',(4.27885636372986,6.51671458483309,-5.));
#1717=CARTESIAN_POINT('',(5.88978080310658,6.58383977995501,-5.));
#1718=CARTESIAN_POINT('',(3.99429930031002,3.87681164991955,-5.));
#1719=CARTESIAN_POINT('',(6.24305425831906,6.65678488086754,-5.));
#1720=CARTESIAN_POINT('Origin',(0.,36.,-5.));
#1721=CARTESIAN_POINT('',(7.07627538562559,6.14284643712467,-5.));
#1722=CARTESIAN_POINT('',(5.29595123264717,7.24096672542957,-5.));
#1723=CARTESIAN_POINT('',(5.57543196817224,3.70960864488294,-5.));
#1724=CARTESIAN_POINT('Origin',(7.59021382936846,6.97606756443118,5.));
#1725=CARTESIAN_POINT('',(7.07627538562559,6.14284643712467,5.));
#1726=CARTESIAN_POINT('Origin',(7.07627538562559,6.14284643712467,5.));
#1727=CARTESIAN_POINT('',(6.24305425831907,6.65678488086754,0.));
#1728=CARTESIAN_POINT('Origin',(5.88978080310658,6.58383977995501,5.));
#1729=CARTESIAN_POINT('',(5.328264361977,5.78191119380288,5.));
#1730=CARTESIAN_POINT('',(5.88978080310658,6.58383977995502,0.));
#1731=CARTESIAN_POINT('Origin',(5.328264361977,5.78191119380288,5.));
#1732=CARTESIAN_POINT('',(4.52633577582486,6.34342763493246,0.));
#1733=CARTESIAN_POINT('Origin',(0.,36.,0.));
#1734=CARTESIAN_POINT('',(4.16941862297314,6.29114697019751,0.));
#1735=CARTESIAN_POINT('Origin',(4.16941862297313,6.29114697019751,5.));
#1736=CARTESIAN_POINT('',(3.5622241783498,5.52322439769079,5.));
#1737=CARTESIAN_POINT('Origin',(3.5622241783498,5.52322439769079,5.));
#1738=CARTESIAN_POINT('',(2.79430160584307,6.13041884231413,0.));
#1739=CARTESIAN_POINT('Origin',(0.,36.,0.));
#1740=CARTESIAN_POINT('Origin',(0.,36.,0.));
#1741=CARTESIAN_POINT('',(2.4349484500179,6.09897951497716,0.));
#1742=CARTESIAN_POINT('Origin',(2.4349484500179,6.09897951497716,5.));
#1743=CARTESIAN_POINT('',(1.78413055569853,5.36766136302106,5.));
#1744=CARTESIAN_POINT('Origin',(1.78413055569853,5.36766136302106,5.));
#1745=CARTESIAN_POINT('',(1.05281240374243,6.01847925734043,0.));
#1746=CARTESIAN_POINT('Origin',(12.8082464074058,-2.19997709456767,0.));
#1747=CARTESIAN_POINT('',(13.793054160418,-2.02632891690074,0.));
#1748=CARTESIAN_POINT('',(12.8082464074058,-3.19997709456767,0.));
#1749=CARTESIAN_POINT('Origin',(14.,-3.19997709456767,0.));
#1750=CARTESIAN_POINT('Origin',(-12.8082445711555,-2.19997709456767,0.));
#1751=CARTESIAN_POINT('',(-13.7930525775478,-2.02633035389643,0.));
#1752=CARTESIAN_POINT('',(-12.8082445711555,-3.19997709456767,0.));
#1753=CARTESIAN_POINT('Origin',(-11.9407379244225,8.47875769845666,0.));
#1754=CARTESIAN_POINT('',(-12.1552671459262,7.26209164342279,0.));
#1755=CARTESIAN_POINT('Origin',(0.,36.,0.));
#1756=CARTESIAN_POINT('',(0.692239182272565,6.00798764813327,0.));
#1757=CARTESIAN_POINT('Origin',(-11.170459139534,7.08844490275156,0.));
#1758=CARTESIAN_POINT('',(-10.9083644146111,8.05348705476752,0.));
#1759=CARTESIAN_POINT('Origin',(-10.4946321075472,7.16623525903061,5.));
#1760=CARTESIAN_POINT('',(-10.4946321075472,7.16623525903061,5.));
#1761=CARTESIAN_POINT('Origin',(-9.60738031181027,7.57996756609451,5.));
#1762=CARTESIAN_POINT('',(-9.60738031181028,7.57996756609451,0.));
#1763=CARTESIAN_POINT('Origin',(-8.80034253331138,6.60480883704411,5.));
#1764=CARTESIAN_POINT('',(-9.26496397465728,7.46650314896012,0.));
#1765=CARTESIAN_POINT('',(-8.80034253331138,6.60480883704411,5.));
#1766=CARTESIAN_POINT('Origin',(-7.93864822139535,7.06943027839002,5.));
#1767=CARTESIAN_POINT('',(-7.93864822139535,7.06943027839002,0.));
#1768=CARTESIAN_POINT('Origin',(0.,36.,0.));
#1769=CARTESIAN_POINT('',(-7.59021382936846,6.97606756443118,0.));
#1770=CARTESIAN_POINT('Origin',(-7.07627538562559,6.14284643712466,5.));
#1771=CARTESIAN_POINT('',(-7.07627538562559,6.14284643712467,5.));
#1772=CARTESIAN_POINT('Origin',(-6.24305425831906,6.65678488086754,5.));
#1773=CARTESIAN_POINT('',(-6.24305425831907,6.65678488086754,0.));
#1774=CARTESIAN_POINT('Origin',(0.,36.,0.));
#1775=CARTESIAN_POINT('Origin',(0.,36.,0.));
#1776=CARTESIAN_POINT('',(-5.88978080310658,6.58383977995501,0.));
#1777=CARTESIAN_POINT('Origin',(-5.328264361977,5.78191119380288,5.));
#1778=CARTESIAN_POINT('',(-5.328264361977,5.78191119380288,5.));
#1779=CARTESIAN_POINT('Origin',(-4.52633577582486,6.34342763493246,5.));
#1780=CARTESIAN_POINT('',(-4.52633577582486,6.34342763493246,0.));
#1781=CARTESIAN_POINT('Origin',(-3.5622241783498,5.52322439769079,5.));
#1782=CARTESIAN_POINT('',(-4.16941862297313,6.29114697019751,0.));
#1783=CARTESIAN_POINT('',(-3.5622241783498,5.52322439769079,5.));
#1784=CARTESIAN_POINT('Origin',(-2.79430160584307,6.13041884231413,5.));
#1785=CARTESIAN_POINT('',(-2.79430160584307,6.13041884231413,0.));
#1786=CARTESIAN_POINT('Origin',(0.,36.,0.));
#1787=CARTESIAN_POINT('',(-2.4349484500179,6.09897951497716,0.));
#1788=CARTESIAN_POINT('Origin',(-1.78413055569853,5.36766136302106,5.));
#1789=CARTESIAN_POINT('',(-1.78413055569853,5.36766136302106,5.));
#1790=CARTESIAN_POINT('Origin',(-1.05281240374242,6.01847925734043,5.));
#1791=CARTESIAN_POINT('',(-1.05281240374243,6.01847925734043,0.));
#1792=CARTESIAN_POINT('Origin',(0.,36.,0.));
#1793=CARTESIAN_POINT('Origin',(0.,36.,0.));
#1794=CARTESIAN_POINT('',(-0.692239182272558,6.00798764813327,0.));
#1795=CARTESIAN_POINT('Origin',(0.,5.31574846586071,5.));
#1796=CARTESIAN_POINT('',(0.,5.31574846586071,5.));
#1797=CARTESIAN_POINT('Origin',(0.692239182272576,6.00798764813328,5.));
#1798=CARTESIAN_POINT('Origin',(-3.43945165253138,6.,0.));
#1799=CARTESIAN_POINT('',(-3.901867659545,-3.19997709456767,-2.65));
#1800=CARTESIAN_POINT('',(-3.901867659545,-3.19997709456767,2.65));
#1801=CARTESIAN_POINT('',(-3.90186765954499,-3.19997709456767,0.));
#1802=CARTESIAN_POINT('',(-4.00239312874136,-5.19997709456766,-2.65));
#1803=CARTESIAN_POINT('',(-4.00239312874136,-5.19997709456766,-2.65));
#1804=CARTESIAN_POINT('',(-4.00239312874136,-5.19997709456766,2.65));
#1805=CARTESIAN_POINT('',(-4.00239312874136,-5.19997709456766,0.));
#1806=CARTESIAN_POINT('',(-4.00239312874136,-5.19997709456766,2.65));
#1807=CARTESIAN_POINT('Origin',(0.000105390858418652,0.400011452716169,
-2.65));
#1808=CARTESIAN_POINT('',(3.90312892154512,-3.19997709456767,-2.65));
#1809=CARTESIAN_POINT('',(-6.9999455035516,-3.19997709456767,-2.65));
#1810=CARTESIAN_POINT('',(4.0026039104582,-5.19997709456355,-2.65));
#1811=CARTESIAN_POINT('',(3.44554511180282,6.,-2.65));
#1812=CARTESIAN_POINT('',(-1.99986837984134,-5.19997709456766,-2.65));
#1813=CARTESIAN_POINT('Origin',(4.0026039104582,-5.19997709456355,0.));
#1814=CARTESIAN_POINT('',(3.90312892154512,-3.19997709456767,2.65));
#1815=CARTESIAN_POINT('',(3.90312892154512,-3.19997709456767,0.));
#1816=CARTESIAN_POINT('',(4.0026039104582,-5.19997709456355,2.65));
#1817=CARTESIAN_POINT('',(3.44554511180282,6.,2.65));
#1818=CARTESIAN_POINT('',(4.0026039104582,-5.19997709456355,0.));
#1819=CARTESIAN_POINT('Origin',(-4.00239312874136,-5.19997709456766,0.));
#1820=CARTESIAN_POINT('',(-1.99986837984134,-5.19997709456766,2.65));
#1821=CARTESIAN_POINT('',(2.00013162015824,-5.19997709456355,-0.7));
#1822=CARTESIAN_POINT('',(-1.99986837984134,-5.19997709456766,-0.7));
#1823=CARTESIAN_POINT('',(-2.00113075429145,-5.19997709456766,-0.7));
#1824=CARTESIAN_POINT('',(-1.99986837984134,-5.19997709456766,0.7));
#1825=CARTESIAN_POINT('',(-1.99986837984134,-5.19997709456767,0.));
#1826=CARTESIAN_POINT('',(2.00013162015824,-5.19997709456355,0.7));
#1827=CARTESIAN_POINT('',(-2.00113075429145,-5.19997709456766,0.7));
#1828=CARTESIAN_POINT('',(2.00013162015845,-5.19997709456766,0.));
#1829=CARTESIAN_POINT('Origin',(0.000105390858418652,0.400011452716169,
2.65));
#1830=CARTESIAN_POINT('',(-6.9999455035516,-3.19997709456767,2.65));
#1831=CARTESIAN_POINT('Origin',(0.000656860300094209,0.800011452716167,
-0.7));
#1832=CARTESIAN_POINT('',(-1.49724218514917,4.8,-0.7));
#1833=CARTESIAN_POINT('',(1.50275781485083,4.8,-0.7));
#1834=CARTESIAN_POINT('',(-1.49724218514917,4.8,-0.7));
#1835=CARTESIAN_POINT('',(-1.99986837984134,-5.19997709456766,-0.7));
#1836=CARTESIAN_POINT('',(1.50275781485083,4.8,-0.7));
#1837=CARTESIAN_POINT('Origin',(1.90065663124516,-3.19997709456767,0.));
#1838=CARTESIAN_POINT('',(1.50275781485083,4.8,0.7));
#1839=CARTESIAN_POINT('',(1.50275781485083,4.8,0.));
#1840=CARTESIAN_POINT('',(1.50275781485083,4.8,0.7));
#1841=CARTESIAN_POINT('Origin',(-1.49724218514917,4.8,0.));
#1842=CARTESIAN_POINT('',(-1.49724218514917,4.8,0.7));
#1843=CARTESIAN_POINT('',(-1.49724218514917,4.8,0.));
#1844=CARTESIAN_POINT('',(-1.99986837984134,-5.19997709456766,0.7));
#1845=CARTESIAN_POINT('Origin',(1.50275781485083,4.8,0.));
#1846=CARTESIAN_POINT('',(-1.49724218514917,4.8,0.7));
#1847=CARTESIAN_POINT('Origin',(0.000656860300094209,0.800011452716167,
0.7));
#1848=CARTESIAN_POINT('Origin',(-13.9999963979616,-3.19997709456767,0.));
#1849=UNCERTAINTY_MEASURE_WITH_UNIT(LENGTH_MEASURE(0.01),#1853,
'DISTANCE_ACCURACY_VALUE',
'Maximum model space distance between geometric entities at asserted c
onnectivities');
#1850=UNCERTAINTY_MEASURE_WITH_UNIT(LENGTH_MEASURE(0.01),#1853,
'DISTANCE_ACCURACY_VALUE',
'Maximum model space distance between geometric entities at asserted c
onnectivities');
#1851=(
GEOMETRIC_REPRESENTATION_CONTEXT(3)
GLOBAL_UNCERTAINTY_ASSIGNED_CONTEXT((#1849))
GLOBAL_UNIT_ASSIGNED_CONTEXT((#1853,#1855,#1856))
REPRESENTATION_CONTEXT('','3D')
);
#1852=(
GEOMETRIC_REPRESENTATION_CONTEXT(3)
GLOBAL_UNCERTAINTY_ASSIGNED_CONTEXT((#1850))
GLOBAL_UNIT_ASSIGNED_CONTEXT((#1853,#1855,#1856))
REPRESENTATION_CONTEXT('','3D')
);
#1853=(
LENGTH_UNIT()
NAMED_UNIT(*)
SI_UNIT(.MILLI.,.METRE.)
);
#1854=(
LENGTH_UNIT()
NAMED_UNIT(*)
SI_UNIT($,.METRE.)
);
#1855=(
NAMED_UNIT(*)
PLANE_ANGLE_UNIT()
SI_UNIT($,.RADIAN.)
);
#1856=(
NAMED_UNIT(*)
SI_UNIT($,.STERADIAN.)
SOLID_ANGLE_UNIT()
);
#1857=SHAPE_DEFINITION_REPRESENTATION(#1858,#1859);
#1858=PRODUCT_DEFINITION_SHAPE('',$,#1861);
#1859=SHAPE_REPRESENTATION('',(#1129),#1851);
#1860=PRODUCT_DEFINITION_CONTEXT('part definition',#1865,'design');
#1861=PRODUCT_DEFINITION('capuchon slider','capuchon slider v6',#1862,#1860);
#1862=PRODUCT_DEFINITION_FORMATION('',$,#1867);
#1863=PRODUCT_RELATED_PRODUCT_CATEGORY('capuchon slider v6',
'capuchon slider v6',(#1867));
#1864=APPLICATION_PROTOCOL_DEFINITION('international standard',
'automotive_design',2009,#1865);
#1865=APPLICATION_CONTEXT(
'Core Data for Automotive Mechanical Design Process');
#1866=PRODUCT_CONTEXT('part definition',#1865,'mechanical');
#1867=PRODUCT('capuchon slider','capuchon slider v6',$,(#1866));
#1868=PRESENTATION_STYLE_ASSIGNMENT((#1870));
#1869=PRESENTATION_STYLE_ASSIGNMENT((#1871));
#1870=SURFACE_STYLE_USAGE(.BOTH.,#1872);
#1871=SURFACE_STYLE_USAGE(.BOTH.,#1873);
#1872=SURFACE_SIDE_STYLE('',(#1874));
#1873=SURFACE_SIDE_STYLE('',(#1875));
#1874=SURFACE_STYLE_FILL_AREA(#1876);
#1875=SURFACE_STYLE_FILL_AREA(#1877);
#1876=FILL_AREA_STYLE('Steel - Satin',(#1878));
#1877=FILL_AREA_STYLE('Plastic - Matte (Black)',(#1879));
#1878=FILL_AREA_STYLE_COLOUR('Steel - Satin',#1880);
#1879=FILL_AREA_STYLE_COLOUR('Plastic - Matte (Black)',#1881);
#1880=COLOUR_RGB('Steel - Satin',0.627450980392157,0.627450980392157,0.627450980392157);
#1881=COLOUR_RGB('Plastic - Matte (Black)',0.0980392156862745,0.0980392156862745,
0.0980392156862745);
ENDSEC;
END-ISO-10303-21;
