ISO-10303-21;
HEADER;
/* Generated by software containing ST-Developer
 * from STEP Tools, Inc. (www.steptools.com) 
 */

FILE_DESCRIPTION(
/* description */ (''),
/* implementation_level */ '2;1');

FILE_NAME(
/* name */ 'Support Sensor part 1 V2 x5.step',
/* time_stamp */ '2025-12-10T20:28:04+01:00',
/* author */ (''),
/* organization */ (''),
/* preprocessor_version */ 'ST-DEVELOPER v20.1',
/* originating_system */ 'Autodesk Translation Framework v14.21.0.0',
/* authorisation */ '');

FILE_SCHEMA (('AUTOMOTIVE_DESIGN { 1 0 10303 214 3 1 1 }'));
ENDSEC;

DATA;
#10=MECHANICAL_DESIGN_GEOMETRIC_PRESENTATION_REPRESENTATION('',(#17),#720);
#11=ITEM_DEFINED_TRANSFORMATION($,$,#422,#468);
#12=(
REPRESENTATION_RELATIONSHIP($,$,#731,#730)
REPRESENTATION_RELATIONSHIP_WITH_TRANSFORMATION(#11)
SHAPE_REPRESENTATION_RELATIONSHIP()
);
#13=CONTEXT_DEPENDENT_SHAPE_REPRESENTATION(#12,#729);
#14=NEXT_ASSEMBLY_USAGE_OCCURRENCE('Support sensor:1',
'Support sensor:1','Support sensor:1',#733,#734,'Support sensor:1');
#15=SHAPE_REPRESENTATION_RELATIONSHIP('SRR','None',#731,#16);
#16=ADVANCED_BREP_SHAPE_REPRESENTATION('',(#18),#719);
#17=STYLED_ITEM('',(#744),#18);
#18=MANIFOLD_SOLID_BREP('Body1',#408);
#19=FACE_BOUND('',#74,.T.);
#20=FACE_BOUND('',#75,.T.);
#21=FACE_BOUND('',#87,.T.);
#22=FACE_BOUND('',#88,.T.);
#23=PLANE('',#429);
#24=PLANE('',#430);
#25=PLANE('',#434);
#26=PLANE('',#438);
#27=PLANE('',#439);
#28=PLANE('',#440);
#29=PLANE('',#444);
#30=PLANE('',#446);
#31=PLANE('',#454);
#32=PLANE('',#457);
#33=PLANE('',#460);
#34=PLANE('',#465);
#35=PLANE('',#466);
#36=PLANE('',#467);
#37=FACE_OUTER_BOUND('',#61,.T.);
#38=FACE_OUTER_BOUND('',#62,.T.);
#39=FACE_OUTER_BOUND('',#63,.T.);
#40=FACE_OUTER_BOUND('',#64,.T.);
#41=FACE_OUTER_BOUND('',#65,.T.);
#42=FACE_OUTER_BOUND('',#66,.T.);
#43=FACE_OUTER_BOUND('',#67,.T.);
#44=FACE_OUTER_BOUND('',#68,.T.);
#45=FACE_OUTER_BOUND('',#69,.T.);
#46=FACE_OUTER_BOUND('',#70,.T.);
#47=FACE_OUTER_BOUND('',#71,.T.);
#48=FACE_OUTER_BOUND('',#72,.T.);
#49=FACE_OUTER_BOUND('',#73,.T.);
#50=FACE_OUTER_BOUND('',#76,.T.);
#51=FACE_OUTER_BOUND('',#77,.T.);
#52=FACE_OUTER_BOUND('',#78,.T.);
#53=FACE_OUTER_BOUND('',#79,.T.);
#54=FACE_OUTER_BOUND('',#80,.T.);
#55=FACE_OUTER_BOUND('',#81,.T.);
#56=FACE_OUTER_BOUND('',#82,.T.);
#57=FACE_OUTER_BOUND('',#83,.T.);
#58=FACE_OUTER_BOUND('',#84,.T.);
#59=FACE_OUTER_BOUND('',#85,.T.);
#60=FACE_OUTER_BOUND('',#86,.T.);
#61=EDGE_LOOP('',(#266,#267,#268,#269));
#62=EDGE_LOOP('',(#270,#271,#272,#273));
#63=EDGE_LOOP('',(#274));
#64=EDGE_LOOP('',(#275));
#65=EDGE_LOOP('',(#276,#277,#278,#279));
#66=EDGE_LOOP('',(#280));
#67=EDGE_LOOP('',(#281,#282,#283,#284));
#68=EDGE_LOOP('',(#285));
#69=EDGE_LOOP('',(#286,#287,#288,#289));
#70=EDGE_LOOP('',(#290,#291,#292,#293));
#71=EDGE_LOOP('',(#294,#295,#296,#297));
#72=EDGE_LOOP('',(#298,#299,#300,#301,#302));
#73=EDGE_LOOP('',(#303,#304,#305,#306,#307,#308,#309,#310,#311,#312,#313,
#314,#315));
#74=EDGE_LOOP('',(#316));
#75=EDGE_LOOP('',(#317));
#76=EDGE_LOOP('',(#318,#319,#320,#321,#322,#323));
#77=EDGE_LOOP('',(#324,#325,#326,#327));
#78=EDGE_LOOP('',(#328,#329,#330,#331));
#79=EDGE_LOOP('',(#332,#333,#334,#335));
#80=EDGE_LOOP('',(#336,#337,#338,#339));
#81=EDGE_LOOP('',(#340,#341,#342,#343));
#82=EDGE_LOOP('',(#344,#345,#346,#347));
#83=EDGE_LOOP('',(#348,#349,#350,#351));
#84=EDGE_LOOP('',(#352,#353,#354,#355,#356,#357));
#85=EDGE_LOOP('',(#358,#359,#360,#361));
#86=EDGE_LOOP('',(#362,#363,#364,#365,#366,#367,#368,#369,#370,#371));
#87=EDGE_LOOP('',(#372));
#88=EDGE_LOOP('',(#373));
#89=LINE('',#604,#122);
#90=LINE('',#610,#123);
#91=LINE('',#618,#124);
#92=LINE('',#625,#125);
#93=LINE('',#631,#126);
#94=LINE('',#633,#127);
#95=LINE('',#635,#128);
#96=LINE('',#636,#129);
#97=LINE('',#640,#130);
#98=LINE('',#642,#131);
#99=LINE('',#644,#132);
#100=LINE('',#645,#133);
#101=LINE('',#651,#134);
#102=LINE('',#657,#135);
#103=LINE('',#661,#136);
#104=LINE('',#665,#137);
#105=LINE('',#669,#138);
#106=LINE('',#672,#139);
#107=LINE('',#675,#140);
#108=LINE('',#678,#141);
#109=LINE('',#682,#142);
#110=LINE('',#683,#143);
#111=LINE('',#684,#144);
#112=LINE('',#688,#145);
#113=LINE('',#692,#146);
#114=LINE('',#693,#147);
#115=LINE('',#694,#148);
#116=LINE('',#698,#149);
#117=LINE('',#701,#150);
#118=LINE('',#702,#151);
#119=LINE('',#705,#152);
#120=LINE('',#710,#153);
#121=LINE('',#712,#154);
#122=VECTOR('',#477,1.45);
#123=VECTOR('',#484,1.45);
#124=VECTOR('',#495,1.24);
#125=VECTOR('',#504,1.24);
#126=VECTOR('',#511,10.);
#127=VECTOR('',#512,10.);
#128=VECTOR('',#513,10.);
#129=VECTOR('',#514,10.);
#130=VECTOR('',#517,10.);
#131=VECTOR('',#518,10.);
#132=VECTOR('',#519,10.);
#133=VECTOR('',#520,10.);
#134=VECTOR('',#529,10.);
#135=VECTOR('',#536,10.);
#136=VECTOR('',#539,10.);
#137=VECTOR('',#542,10.);
#138=VECTOR('',#545,10.);
#139=VECTOR('',#548,10.);
#140=VECTOR('',#551,10.);
#141=VECTOR('',#554,10.);
#142=VECTOR('',#557,10.);
#143=VECTOR('',#558,10.);
#144=VECTOR('',#559,10.);
#145=VECTOR('',#564,10.);
#146=VECTOR('',#567,10.);
#147=VECTOR('',#568,10.);
#148=VECTOR('',#569,10.);
#149=VECTOR('',#574,10.);
#150=VECTOR('',#577,10.);
#151=VECTOR('',#578,10.);
#152=VECTOR('',#581,10.);
#153=VECTOR('',#590,10.);
#154=VECTOR('',#593,10.);
#155=CIRCLE('',#424,1.45);
#156=CIRCLE('',#425,1.45);
#157=CIRCLE('',#427,1.45);
#158=CIRCLE('',#428,1.45);
#159=CIRCLE('',#432,1.24);
#160=CIRCLE('',#433,1.24);
#161=CIRCLE('',#436,1.24);
#162=CIRCLE('',#437,1.24);
#163=CIRCLE('',#442,0.259999320163876);
#164=CIRCLE('',#443,0.259999320163876);
#165=CIRCLE('',#445,5.5);
#166=CIRCLE('',#447,5.5);
#167=CIRCLE('',#448,7.);
#168=CIRCLE('',#449,2.85000000000001);
#169=CIRCLE('',#450,7.);
#170=CIRCLE('',#451,2.85);
#171=CIRCLE('',#453,5.5);
#172=CIRCLE('',#456,2.85);
#173=CIRCLE('',#459,2.85000000000001);
#174=CIRCLE('',#462,7.);
#175=CIRCLE('',#464,7.);
#176=VERTEX_POINT('',#601);
#177=VERTEX_POINT('',#603);
#178=VERTEX_POINT('',#607);
#179=VERTEX_POINT('',#609);
#180=VERTEX_POINT('',#615);
#181=VERTEX_POINT('',#617);
#182=VERTEX_POINT('',#622);
#183=VERTEX_POINT('',#624);
#184=VERTEX_POINT('',#629);
#185=VERTEX_POINT('',#630);
#186=VERTEX_POINT('',#632);
#187=VERTEX_POINT('',#634);
#188=VERTEX_POINT('',#638);
#189=VERTEX_POINT('',#639);
#190=VERTEX_POINT('',#641);
#191=VERTEX_POINT('',#643);
#192=VERTEX_POINT('',#650);
#193=VERTEX_POINT('',#654);
#194=VERTEX_POINT('',#656);
#195=VERTEX_POINT('',#658);
#196=VERTEX_POINT('',#660);
#197=VERTEX_POINT('',#662);
#198=VERTEX_POINT('',#664);
#199=VERTEX_POINT('',#666);
#200=VERTEX_POINT('',#668);
#201=VERTEX_POINT('',#670);
#202=VERTEX_POINT('',#674);
#203=VERTEX_POINT('',#676);
#204=VERTEX_POINT('',#680);
#205=VERTEX_POINT('',#681);
#206=VERTEX_POINT('',#686);
#207=VERTEX_POINT('',#690);
#208=VERTEX_POINT('',#691);
#209=VERTEX_POINT('',#696);
#210=VERTEX_POINT('',#700);
#211=VERTEX_POINT('',#704);
#212=EDGE_CURVE('',#176,#176,#155,.T.);
#213=EDGE_CURVE('',#176,#177,#89,.T.);
#214=EDGE_CURVE('',#177,#177,#156,.T.);
#215=EDGE_CURVE('',#178,#178,#157,.T.);
#216=EDGE_CURVE('',#178,#179,#90,.T.);
#217=EDGE_CURVE('',#179,#179,#158,.T.);
#218=EDGE_CURVE('',#180,#180,#159,.T.);
#219=EDGE_CURVE('',#180,#181,#91,.T.);
#220=EDGE_CURVE('',#181,#181,#160,.T.);
#221=EDGE_CURVE('',#182,#182,#161,.T.);
#222=EDGE_CURVE('',#182,#183,#92,.T.);
#223=EDGE_CURVE('',#183,#183,#162,.T.);
#224=EDGE_CURVE('',#184,#185,#93,.T.);
#225=EDGE_CURVE('',#186,#184,#94,.T.);
#226=EDGE_CURVE('',#186,#187,#95,.T.);
#227=EDGE_CURVE('',#185,#187,#96,.T.);
#228=EDGE_CURVE('',#188,#189,#97,.T.);
#229=EDGE_CURVE('',#188,#190,#98,.T.);
#230=EDGE_CURVE('',#190,#191,#99,.T.);
#231=EDGE_CURVE('',#189,#191,#100,.T.);
#232=EDGE_CURVE('',#185,#188,#163,.T.);
#233=EDGE_CURVE('',#187,#190,#164,.T.);
#234=EDGE_CURVE('',#192,#186,#101,.T.);
#235=EDGE_CURVE('',#191,#192,#165,.T.);
#236=EDGE_CURVE('',#189,#193,#166,.T.);
#237=EDGE_CURVE('',#193,#194,#102,.T.);
#238=EDGE_CURVE('',#194,#195,#167,.T.);
#239=EDGE_CURVE('',#195,#196,#103,.T.);
#240=EDGE_CURVE('',#196,#197,#168,.T.);
#241=EDGE_CURVE('',#197,#198,#104,.T.);
#242=EDGE_CURVE('',#198,#199,#169,.T.);
#243=EDGE_CURVE('',#199,#200,#105,.T.);
#244=EDGE_CURVE('',#200,#201,#170,.T.);
#245=EDGE_CURVE('',#201,#184,#106,.T.);
#246=EDGE_CURVE('',#202,#192,#107,.T.);
#247=EDGE_CURVE('',#203,#202,#171,.T.);
#248=EDGE_CURVE('',#203,#193,#108,.T.);
#249=EDGE_CURVE('',#204,#205,#109,.T.);
#250=EDGE_CURVE('',#204,#200,#110,.T.);
#251=EDGE_CURVE('',#205,#199,#111,.T.);
#252=EDGE_CURVE('',#204,#206,#172,.T.);
#253=EDGE_CURVE('',#206,#201,#112,.T.);
#254=EDGE_CURVE('',#207,#208,#113,.T.);
#255=EDGE_CURVE('',#198,#208,#114,.T.);
#256=EDGE_CURVE('',#207,#197,#115,.T.);
#257=EDGE_CURVE('',#209,#207,#173,.T.);
#258=EDGE_CURVE('',#209,#196,#116,.T.);
#259=EDGE_CURVE('',#209,#210,#117,.T.);
#260=EDGE_CURVE('',#210,#195,#118,.T.);
#261=EDGE_CURVE('',#211,#194,#119,.T.);
#262=EDGE_CURVE('',#211,#210,#174,.T.);
#263=EDGE_CURVE('',#208,#205,#175,.T.);
#264=EDGE_CURVE('',#206,#202,#120,.T.);
#265=EDGE_CURVE('',#203,#211,#121,.T.);
#266=ORIENTED_EDGE('',*,*,#212,.F.);
#267=ORIENTED_EDGE('',*,*,#213,.T.);
#268=ORIENTED_EDGE('',*,*,#214,.T.);
#269=ORIENTED_EDGE('',*,*,#213,.F.);
#270=ORIENTED_EDGE('',*,*,#215,.F.);
#271=ORIENTED_EDGE('',*,*,#216,.T.);
#272=ORIENTED_EDGE('',*,*,#217,.T.);
#273=ORIENTED_EDGE('',*,*,#216,.F.);
#274=ORIENTED_EDGE('',*,*,#214,.F.);
#275=ORIENTED_EDGE('',*,*,#217,.F.);
#276=ORIENTED_EDGE('',*,*,#218,.F.);
#277=ORIENTED_EDGE('',*,*,#219,.T.);
#278=ORIENTED_EDGE('',*,*,#220,.F.);
#279=ORIENTED_EDGE('',*,*,#219,.F.);
#280=ORIENTED_EDGE('',*,*,#218,.T.);
#281=ORIENTED_EDGE('',*,*,#221,.F.);
#282=ORIENTED_EDGE('',*,*,#222,.T.);
#283=ORIENTED_EDGE('',*,*,#223,.F.);
#284=ORIENTED_EDGE('',*,*,#222,.F.);
#285=ORIENTED_EDGE('',*,*,#221,.T.);
#286=ORIENTED_EDGE('',*,*,#224,.F.);
#287=ORIENTED_EDGE('',*,*,#225,.F.);
#288=ORIENTED_EDGE('',*,*,#226,.T.);
#289=ORIENTED_EDGE('',*,*,#227,.F.);
#290=ORIENTED_EDGE('',*,*,#228,.F.);
#291=ORIENTED_EDGE('',*,*,#229,.T.);
#292=ORIENTED_EDGE('',*,*,#230,.T.);
#293=ORIENTED_EDGE('',*,*,#231,.F.);
#294=ORIENTED_EDGE('',*,*,#232,.F.);
#295=ORIENTED_EDGE('',*,*,#227,.T.);
#296=ORIENTED_EDGE('',*,*,#233,.T.);
#297=ORIENTED_EDGE('',*,*,#229,.F.);
#298=ORIENTED_EDGE('',*,*,#233,.F.);
#299=ORIENTED_EDGE('',*,*,#226,.F.);
#300=ORIENTED_EDGE('',*,*,#234,.F.);
#301=ORIENTED_EDGE('',*,*,#235,.F.);
#302=ORIENTED_EDGE('',*,*,#230,.F.);
#303=ORIENTED_EDGE('',*,*,#224,.T.);
#304=ORIENTED_EDGE('',*,*,#232,.T.);
#305=ORIENTED_EDGE('',*,*,#228,.T.);
#306=ORIENTED_EDGE('',*,*,#236,.T.);
#307=ORIENTED_EDGE('',*,*,#237,.T.);
#308=ORIENTED_EDGE('',*,*,#238,.T.);
#309=ORIENTED_EDGE('',*,*,#239,.T.);
#310=ORIENTED_EDGE('',*,*,#240,.T.);
#311=ORIENTED_EDGE('',*,*,#241,.T.);
#312=ORIENTED_EDGE('',*,*,#242,.T.);
#313=ORIENTED_EDGE('',*,*,#243,.T.);
#314=ORIENTED_EDGE('',*,*,#244,.T.);
#315=ORIENTED_EDGE('',*,*,#245,.T.);
#316=ORIENTED_EDGE('',*,*,#220,.T.);
#317=ORIENTED_EDGE('',*,*,#223,.T.);
#318=ORIENTED_EDGE('',*,*,#231,.T.);
#319=ORIENTED_EDGE('',*,*,#235,.T.);
#320=ORIENTED_EDGE('',*,*,#246,.F.);
#321=ORIENTED_EDGE('',*,*,#247,.F.);
#322=ORIENTED_EDGE('',*,*,#248,.T.);
#323=ORIENTED_EDGE('',*,*,#236,.F.);
#324=ORIENTED_EDGE('',*,*,#249,.F.);
#325=ORIENTED_EDGE('',*,*,#250,.T.);
#326=ORIENTED_EDGE('',*,*,#243,.F.);
#327=ORIENTED_EDGE('',*,*,#251,.F.);
#328=ORIENTED_EDGE('',*,*,#252,.T.);
#329=ORIENTED_EDGE('',*,*,#253,.T.);
#330=ORIENTED_EDGE('',*,*,#244,.F.);
#331=ORIENTED_EDGE('',*,*,#250,.F.);
#332=ORIENTED_EDGE('',*,*,#254,.T.);
#333=ORIENTED_EDGE('',*,*,#255,.F.);
#334=ORIENTED_EDGE('',*,*,#241,.F.);
#335=ORIENTED_EDGE('',*,*,#256,.F.);
#336=ORIENTED_EDGE('',*,*,#257,.T.);
#337=ORIENTED_EDGE('',*,*,#256,.T.);
#338=ORIENTED_EDGE('',*,*,#240,.F.);
#339=ORIENTED_EDGE('',*,*,#258,.F.);
#340=ORIENTED_EDGE('',*,*,#259,.F.);
#341=ORIENTED_EDGE('',*,*,#258,.T.);
#342=ORIENTED_EDGE('',*,*,#239,.F.);
#343=ORIENTED_EDGE('',*,*,#260,.F.);
#344=ORIENTED_EDGE('',*,*,#260,.T.);
#345=ORIENTED_EDGE('',*,*,#238,.F.);
#346=ORIENTED_EDGE('',*,*,#261,.F.);
#347=ORIENTED_EDGE('',*,*,#262,.T.);
#348=ORIENTED_EDGE('',*,*,#251,.T.);
#349=ORIENTED_EDGE('',*,*,#242,.F.);
#350=ORIENTED_EDGE('',*,*,#255,.T.);
#351=ORIENTED_EDGE('',*,*,#263,.T.);
#352=ORIENTED_EDGE('',*,*,#225,.T.);
#353=ORIENTED_EDGE('',*,*,#245,.F.);
#354=ORIENTED_EDGE('',*,*,#253,.F.);
#355=ORIENTED_EDGE('',*,*,#264,.T.);
#356=ORIENTED_EDGE('',*,*,#246,.T.);
#357=ORIENTED_EDGE('',*,*,#234,.T.);
#358=ORIENTED_EDGE('',*,*,#265,.T.);
#359=ORIENTED_EDGE('',*,*,#261,.T.);
#360=ORIENTED_EDGE('',*,*,#237,.F.);
#361=ORIENTED_EDGE('',*,*,#248,.F.);
#362=ORIENTED_EDGE('',*,*,#265,.F.);
#363=ORIENTED_EDGE('',*,*,#247,.T.);
#364=ORIENTED_EDGE('',*,*,#264,.F.);
#365=ORIENTED_EDGE('',*,*,#252,.F.);
#366=ORIENTED_EDGE('',*,*,#249,.T.);
#367=ORIENTED_EDGE('',*,*,#263,.F.);
#368=ORIENTED_EDGE('',*,*,#254,.F.);
#369=ORIENTED_EDGE('',*,*,#257,.F.);
#370=ORIENTED_EDGE('',*,*,#259,.T.);
#371=ORIENTED_EDGE('',*,*,#262,.F.);
#372=ORIENTED_EDGE('',*,*,#212,.T.);
#373=ORIENTED_EDGE('',*,*,#215,.T.);
#374=CYLINDRICAL_SURFACE('',#423,1.45);
#375=CYLINDRICAL_SURFACE('',#426,1.45);
#376=CYLINDRICAL_SURFACE('',#431,1.24);
#377=CYLINDRICAL_SURFACE('',#435,1.24);
#378=CYLINDRICAL_SURFACE('',#441,0.259999320163876);
#379=CYLINDRICAL_SURFACE('',#452,5.5);
#380=CYLINDRICAL_SURFACE('',#455,2.85);
#381=CYLINDRICAL_SURFACE('',#458,2.85000000000001);
#382=CYLINDRICAL_SURFACE('',#461,7.);
#383=CYLINDRICAL_SURFACE('',#463,7.);
#384=ADVANCED_FACE('',(#37),#374,.F.);
#385=ADVANCED_FACE('',(#38),#375,.F.);
#386=ADVANCED_FACE('',(#39),#23,.F.);
#387=ADVANCED_FACE('',(#40),#24,.F.);
#388=ADVANCED_FACE('',(#41),#376,.T.);
#389=ADVANCED_FACE('',(#42),#25,.T.);
#390=ADVANCED_FACE('',(#43),#377,.T.);
#391=ADVANCED_FACE('',(#44),#26,.T.);
#392=ADVANCED_FACE('',(#45),#27,.F.);
#393=ADVANCED_FACE('',(#46),#28,.F.);
#394=ADVANCED_FACE('',(#47),#378,.F.);
#395=ADVANCED_FACE('',(#48),#29,.T.);
#396=ADVANCED_FACE('',(#49,#19,#20),#30,.T.);
#397=ADVANCED_FACE('',(#50),#379,.F.);
#398=ADVANCED_FACE('',(#51),#31,.T.);
#399=ADVANCED_FACE('',(#52),#380,.T.);
#400=ADVANCED_FACE('',(#53),#32,.T.);
#401=ADVANCED_FACE('',(#54),#381,.T.);
#402=ADVANCED_FACE('',(#55),#33,.T.);
#403=ADVANCED_FACE('',(#56),#382,.T.);
#404=ADVANCED_FACE('',(#57),#383,.T.);
#405=ADVANCED_FACE('',(#58),#34,.T.);
#406=ADVANCED_FACE('',(#59),#35,.T.);
#407=ADVANCED_FACE('',(#60,#21,#22),#36,.F.);
#408=CLOSED_SHELL('',(#384,#385,#386,#387,#388,#389,#390,#391,#392,#393,
#394,#395,#396,#397,#398,#399,#400,#401,#402,#403,#404,#405,#406,#407));
#409=DERIVED_UNIT_ELEMENT(#411,1.);
#410=DERIVED_UNIT_ELEMENT(#722,-3.);
#411=(
MASS_UNIT()
NAMED_UNIT(*)
SI_UNIT(.KILO.,.GRAM.)
);
#412=DERIVED_UNIT((#409,#410));
#413=MEASURE_REPRESENTATION_ITEM('density measure',
POSITIVE_RATIO_MEASURE(7850.),#412);
#414=PROPERTY_DEFINITION_REPRESENTATION(#419,#416);
#415=PROPERTY_DEFINITION_REPRESENTATION(#420,#417);
#416=REPRESENTATION('material name',(#418),#719);
#417=REPRESENTATION('density',(#413),#719);
#418=DESCRIPTIVE_REPRESENTATION_ITEM('Steel','Steel');
#419=PROPERTY_DEFINITION('material property','material name',#734);
#420=PROPERTY_DEFINITION('material property','density of part',#734);
#421=AXIS2_PLACEMENT_3D('',#598,#469,#470);
#422=AXIS2_PLACEMENT_3D('',#599,#471,#472);
#423=AXIS2_PLACEMENT_3D('',#600,#473,#474);
#424=AXIS2_PLACEMENT_3D('',#602,#475,#476);
#425=AXIS2_PLACEMENT_3D('',#605,#478,#479);
#426=AXIS2_PLACEMENT_3D('',#606,#480,#481);
#427=AXIS2_PLACEMENT_3D('',#608,#482,#483);
#428=AXIS2_PLACEMENT_3D('',#611,#485,#486);
#429=AXIS2_PLACEMENT_3D('',#612,#487,#488);
#430=AXIS2_PLACEMENT_3D('',#613,#489,#490);
#431=AXIS2_PLACEMENT_3D('',#614,#491,#492);
#432=AXIS2_PLACEMENT_3D('',#616,#493,#494);
#433=AXIS2_PLACEMENT_3D('',#619,#496,#497);
#434=AXIS2_PLACEMENT_3D('',#620,#498,#499);
#435=AXIS2_PLACEMENT_3D('',#621,#500,#501);
#436=AXIS2_PLACEMENT_3D('',#623,#502,#503);
#437=AXIS2_PLACEMENT_3D('',#626,#505,#506);
#438=AXIS2_PLACEMENT_3D('',#627,#507,#508);
#439=AXIS2_PLACEMENT_3D('',#628,#509,#510);
#440=AXIS2_PLACEMENT_3D('',#637,#515,#516);
#441=AXIS2_PLACEMENT_3D('',#646,#521,#522);
#442=AXIS2_PLACEMENT_3D('',#647,#523,#524);
#443=AXIS2_PLACEMENT_3D('',#648,#525,#526);
#444=AXIS2_PLACEMENT_3D('',#649,#527,#528);
#445=AXIS2_PLACEMENT_3D('',#652,#530,#531);
#446=AXIS2_PLACEMENT_3D('',#653,#532,#533);
#447=AXIS2_PLACEMENT_3D('',#655,#534,#535);
#448=AXIS2_PLACEMENT_3D('',#659,#537,#538);
#449=AXIS2_PLACEMENT_3D('',#663,#540,#541);
#450=AXIS2_PLACEMENT_3D('',#667,#543,#544);
#451=AXIS2_PLACEMENT_3D('',#671,#546,#547);
#452=AXIS2_PLACEMENT_3D('',#673,#549,#550);
#453=AXIS2_PLACEMENT_3D('',#677,#552,#553);
#454=AXIS2_PLACEMENT_3D('',#679,#555,#556);
#455=AXIS2_PLACEMENT_3D('',#685,#560,#561);
#456=AXIS2_PLACEMENT_3D('',#687,#562,#563);
#457=AXIS2_PLACEMENT_3D('',#689,#565,#566);
#458=AXIS2_PLACEMENT_3D('',#695,#570,#571);
#459=AXIS2_PLACEMENT_3D('',#697,#572,#573);
#460=AXIS2_PLACEMENT_3D('',#699,#575,#576);
#461=AXIS2_PLACEMENT_3D('',#703,#579,#580);
#462=AXIS2_PLACEMENT_3D('',#706,#582,#583);
#463=AXIS2_PLACEMENT_3D('',#707,#584,#585);
#464=AXIS2_PLACEMENT_3D('',#708,#586,#587);
#465=AXIS2_PLACEMENT_3D('',#709,#588,#589);
#466=AXIS2_PLACEMENT_3D('',#711,#591,#592);
#467=AXIS2_PLACEMENT_3D('',#713,#594,#595);
#468=AXIS2_PLACEMENT_3D('',#714,#596,#597);
#469=DIRECTION('axis',(0.,0.,1.));
#470=DIRECTION('refdir',(1.,0.,0.));
#471=DIRECTION('axis',(0.,0.,1.));
#472=DIRECTION('refdir',(1.,0.,0.));
#473=DIRECTION('center_axis',(0.,1.,0.));
#474=DIRECTION('ref_axis',(-1.,0.,-3.53910913336346E-48));
#475=DIRECTION('center_axis',(-5.30635176511483E-48,1.,-2.77555756156289E-17));
#476=DIRECTION('ref_axis',(-1.,0.,-3.53910913336346E-48));
#477=DIRECTION('',(0.,1.,0.));
#478=DIRECTION('center_axis',(1.42222518970134E-31,1.,-2.77555756156289E-17));
#479=DIRECTION('ref_axis',(-1.,1.27509844593914E-31,-3.53910913336346E-48));
#480=DIRECTION('center_axis',(0.,1.,0.));
#481=DIRECTION('ref_axis',(-1.,0.,-3.53910913336345E-48));
#482=DIRECTION('center_axis',(-5.30635176511483E-48,1.,-2.77555756156289E-17));
#483=DIRECTION('ref_axis',(-1.,0.,-3.53910913336345E-48));
#484=DIRECTION('',(0.,1.,0.));
#485=DIRECTION('center_axis',(1.18518765808445E-31,1.,-2.77555756156289E-17));
#486=DIRECTION('ref_axis',(-1.,1.27509844593914E-31,-3.53910913336345E-48));
#487=DIRECTION('center_axis',(1.41748443906901E-31,1.,-2.77555756156289E-17));
#488=DIRECTION('ref_axis',(-1.,1.41748443906901E-31,-3.93430965325571E-48));
#489=DIRECTION('center_axis',(1.17096540618744E-31,1.,-2.77555756156289E-17));
#490=DIRECTION('ref_axis',(-1.,1.17096540618744E-31,-3.25008188747211E-48));
#491=DIRECTION('center_axis',(0.,1.,0.));
#492=DIRECTION('ref_axis',(-1.,0.,-3.38675465143195E-48));
#493=DIRECTION('center_axis',(1.22020695889474E-31,1.,-2.77555756156289E-17));
#494=DIRECTION('ref_axis',(-1.,1.22020695889474E-31,-3.38675465143195E-48));
#495=DIRECTION('',(0.,-1.,0.));
#496=DIRECTION('center_axis',(5.30635176511483E-48,-1.,2.77555756156289E-17));
#497=DIRECTION('ref_axis',(-1.,0.,-3.38675465143195E-48));
#498=DIRECTION('center_axis',(1.22020695889474E-31,1.,-2.77555756156289E-17));
#499=DIRECTION('ref_axis',(-1.,1.22020695889474E-31,-3.38675465143195E-48));
#500=DIRECTION('center_axis',(0.,1.,0.));
#501=DIRECTION('ref_axis',(-1.,0.,-3.38675465143195E-48));
#502=DIRECTION('center_axis',(1.22020695889474E-31,1.,-2.77555756156289E-17));
#503=DIRECTION('ref_axis',(-1.,1.22020695889474E-31,-3.38675465143195E-48));
#504=DIRECTION('',(0.,-1.,0.));
#505=DIRECTION('center_axis',(5.30635176511483E-48,-1.,2.77555756156289E-17));
#506=DIRECTION('ref_axis',(-1.,0.,-3.38675465143195E-48));
#507=DIRECTION('center_axis',(1.22020695889474E-31,1.,-2.77555756156289E-17));
#508=DIRECTION('ref_axis',(-1.,1.22020695889474E-31,-3.38675465143195E-48));
#509=DIRECTION('center_axis',(0.707106781190684,0.,0.707106781182411));
#510=DIRECTION('ref_axis',(-0.707106781182411,1.96261557336618E-17,0.707106781190684));
#511=DIRECTION('',(-0.707106781182411,1.9626155733662E-17,0.707106781190684));
#512=DIRECTION('',(0.,1.,0.));
#513=DIRECTION('',(-0.707106781182411,1.96261557336618E-17,0.707106781190684));
#514=DIRECTION('',(0.,-1.,0.));
#515=DIRECTION('center_axis',(-0.70710678118416,0.,0.707106781188935));
#516=DIRECTION('ref_axis',(-0.707106781188935,-1.96261557334808E-17,-0.70710678118416));
#517=DIRECTION('',(-0.707106781188935,-1.96261557334809E-17,-0.70710678118416));
#518=DIRECTION('',(0.,-1.,0.));
#519=DIRECTION('',(-0.707106781188935,-1.96261557334808E-17,-0.70710678118416));
#520=DIRECTION('',(0.,-1.,0.));
#521=DIRECTION('center_axis',(0.,-1.,0.));
#522=DIRECTION('ref_axis',(-0.707114793223154,0.,0.707098769059157));
#523=DIRECTION('center_axis',(5.30635176511483E-48,-1.,2.77555756156289E-17));
#524=DIRECTION('ref_axis',(-0.707114793223154,0.,0.707098769059157));
#525=DIRECTION('center_axis',(4.04059396763694E-44,-1.,2.77555756156289E-17));
#526=DIRECTION('ref_axis',(-0.707114793223154,1.96259333523395E-17,0.707098769059157));
#527=DIRECTION('center_axis',(-5.30635176511483E-48,1.,-2.77555756156289E-17));
#528=DIRECTION('ref_axis',(-1.,-5.30635176511483E-48,0.));
#529=DIRECTION('',(0.85606392312871,1.43460233647419E-17,0.516869963837601));
#530=DIRECTION('center_axis',(-5.30635176511483E-48,1.,-2.77555756156289E-17));
#531=DIRECTION('ref_axis',(0.999543713269719,0.,0.0302053846686625));
#532=DIRECTION('center_axis',(-5.30635176511483E-48,1.,-2.77555756156289E-17));
#533=DIRECTION('ref_axis',(-1.,-5.30635176511483E-48,-1.18072616964182E-79));
#534=DIRECTION('center_axis',(5.30635176511483E-48,-1.,2.77555756156289E-17));
#535=DIRECTION('ref_axis',(0.999543713269719,8.38367838170219E-19,0.0302053846686625));
#536=DIRECTION('',(0.876587397193367,1.33571681140936E-17,0.481242698730856));
#537=DIRECTION('center_axis',(-5.30635176511483E-48,1.,-2.77555756156289E-17));
#538=DIRECTION('ref_axis',(0.990648652306857,3.78690707222246E-18,0.136437706234782));
#539=DIRECTION('',(-0.707106781186549,-1.96261557335471E-17,-0.707106781186546));
#540=DIRECTION('center_axis',(-5.30635176511483E-48,1.,-2.77555756156289E-17));
#541=DIRECTION('ref_axis',(-1.,-5.30635176511483E-48,-1.01205100255013E-79));
#542=DIRECTION('',(0.707106781186546,1.96261557335472E-17,0.707106781186549));
#543=DIRECTION('center_axis',(-5.30635176511483E-48,1.,-2.77555756156289E-17));
#544=DIRECTION('ref_axis',(0.990648652306857,3.78690707222246E-18,0.136437706234782));
#545=DIRECTION('',(0.707106781186546,1.96261557335472E-17,0.707106781186549));
#546=DIRECTION('center_axis',(-5.30635176511483E-48,1.,-2.77555756156289E-17));
#547=DIRECTION('ref_axis',(-1.,-5.30635176511483E-48,-1.01205100255013E-79));
#548=DIRECTION('',(-0.85606392312871,-1.43460233647419E-17,-0.516869963837601));
#549=DIRECTION('center_axis',(0.,1.,0.));
#550=DIRECTION('ref_axis',(-0.965979821833428,0.,-0.258617446841195));
#551=DIRECTION('',(0.,1.,0.));
#552=DIRECTION('center_axis',(-5.30635176511483E-48,1.,-2.77555756156289E-17));
#553=DIRECTION('ref_axis',(0.999543713269719,8.38367838170219E-19,0.0302053846686625));
#554=DIRECTION('',(0.,1.,0.));
#555=DIRECTION('center_axis',(-0.707106781186549,0.,0.707106781186546));
#556=DIRECTION('ref_axis',(0.707106781186546,1.96261557335472E-17,0.707106781186549));
#557=DIRECTION('',(-0.707106781186546,-1.96261557335472E-17,-0.707106781186549));
#558=DIRECTION('',(0.,1.,0.));
#559=DIRECTION('',(0.,1.,0.));
#560=DIRECTION('center_axis',(0.,1.,0.));
#561=DIRECTION('ref_axis',(0.787352001569901,0.,0.616503710957096));
#562=DIRECTION('center_axis',(-5.30635176511483E-48,1.,-2.77555756156289E-17));
#563=DIRECTION('ref_axis',(-1.,-5.30635176511483E-48,-1.01205100255013E-79));
#564=DIRECTION('',(0.,1.,0.));
#565=DIRECTION('center_axis',(-0.707106781186549,0.,0.707106781186546));
#566=DIRECTION('ref_axis',(0.707106781186546,1.96261557335472E-17,0.707106781186549));
#567=DIRECTION('',(0.707106781186546,1.96261557335472E-17,0.707106781186549));
#568=DIRECTION('',(0.,-1.,0.));
#569=DIRECTION('',(0.,1.,0.));
#570=DIRECTION('center_axis',(0.,1.,0.));
#571=DIRECTION('ref_axis',(-1.,0.,-1.01205100255013E-79));
#572=DIRECTION('center_axis',(-5.30635176511483E-48,1.,-2.77555756156289E-17));
#573=DIRECTION('ref_axis',(-1.,-5.30635176511483E-48,-1.01205100255013E-79));
#574=DIRECTION('',(0.,1.,0.));
#575=DIRECTION('center_axis',(0.707106781186546,0.,-0.707106781186549));
#576=DIRECTION('ref_axis',(-0.707106781186549,-1.96261557335471E-17,-0.707106781186546));
#577=DIRECTION('',(0.707106781186549,1.96261557335471E-17,0.707106781186546));
#578=DIRECTION('',(0.,1.,0.));
#579=DIRECTION('center_axis',(0.,1.,0.));
#580=DIRECTION('ref_axis',(0.990648652306857,0.,0.136437706234782));
#581=DIRECTION('',(0.,1.,0.));
#582=DIRECTION('center_axis',(-5.30635176511483E-48,1.,-2.77555756156289E-17));
#583=DIRECTION('ref_axis',(0.990648652306857,3.78690707222246E-18,0.136437706234782));
#584=DIRECTION('center_axis',(0.,1.,0.));
#585=DIRECTION('ref_axis',(-0.707106781186548,0.,0.707106781186547));
#586=DIRECTION('center_axis',(-5.30635176511483E-48,1.,-2.77555756156289E-17));
#587=DIRECTION('ref_axis',(0.990648652306857,3.78690707222246E-18,0.136437706234782));
#588=DIRECTION('center_axis',(0.516869963837601,0.,-0.85606392312871));
#589=DIRECTION('ref_axis',(-0.85606392312871,-1.43460233647419E-17,-0.516869963837601));
#590=DIRECTION('',(-0.85606392312871,-1.43460233647419E-17,-0.516869963837601));
#591=DIRECTION('center_axis',(-0.481242698730856,0.,0.876587397193367));
#592=DIRECTION('ref_axis',(0.876587397193367,1.33571681140936E-17,0.481242698730856));
#593=DIRECTION('',(0.876587397193367,1.33571681140936E-17,0.481242698730856));
#594=DIRECTION('center_axis',(-5.30635176511483E-48,1.,-2.77555756156289E-17));
#595=DIRECTION('ref_axis',(-1.,-5.30635176511483E-48,-1.18072616964182E-79));
#596=DIRECTION('',(0.,0.,1.));
#597=DIRECTION('',(1.,0.,0.));
#598=CARTESIAN_POINT('',(0.,0.,0.));
#599=CARTESIAN_POINT('',(0.,0.,0.));
#600=CARTESIAN_POINT('Origin',(51.5883168247998,1.51,70.0883168248009));
#601=CARTESIAN_POINT('',(53.0383168247998,1.51,70.0883168248009));
#602=CARTESIAN_POINT('Origin',(51.5883168247998,1.51,70.0883168248009));
#603=CARTESIAN_POINT('',(53.0383168247998,3.51,70.0883168248009));
#604=CARTESIAN_POINT('',(53.0383168247998,1.51,70.0883168248009));
#605=CARTESIAN_POINT('Origin',(51.5883168247998,3.51,70.0883168248009));
#606=CARTESIAN_POINT('Origin',(36.411683980193,1.51,54.9116839801941));
#607=CARTESIAN_POINT('',(37.861683980193,1.51,54.9116839801941));
#608=CARTESIAN_POINT('Origin',(36.411683980193,1.51,54.9116839801941));
#609=CARTESIAN_POINT('',(37.861683980193,3.51,54.9116839801941));
#610=CARTESIAN_POINT('',(37.861683980193,1.51,54.9116839801941));
#611=CARTESIAN_POINT('Origin',(36.411683980193,3.51,54.9116839801941));
#612=CARTESIAN_POINT('Origin',(51.5883168247998,3.51,70.0883168248009));
#613=CARTESIAN_POINT('Origin',(36.411683980193,3.51,54.9116839801941));
#614=CARTESIAN_POINT('Origin',(51.5883168247998,9.79,70.0883168248009));
#615=CARTESIAN_POINT('',(52.8283168247998,10.79,70.0883168248009));
#616=CARTESIAN_POINT('Origin',(51.5883168247998,10.79,70.0883168248009));
#617=CARTESIAN_POINT('',(52.8283168247998,9.79,70.0883168248009));
#618=CARTESIAN_POINT('',(52.8283168247998,9.79,70.0883168248009));
#619=CARTESIAN_POINT('Origin',(51.5883168247998,9.79,70.0883168248009));
#620=CARTESIAN_POINT('Origin',(51.5883168247998,10.79,70.0883168248009));
#621=CARTESIAN_POINT('Origin',(36.4116839801929,9.79,54.9116839801941));
#622=CARTESIAN_POINT('',(37.6516839801929,10.79,54.9116839801941));
#623=CARTESIAN_POINT('Origin',(36.4116839801929,10.79,54.9116839801941));
#624=CARTESIAN_POINT('',(37.6516839801929,9.79,54.9116839801941));
#625=CARTESIAN_POINT('',(37.6516839801929,9.79,54.9116839801941));
#626=CARTESIAN_POINT('Origin',(36.4116839801929,9.79,54.9116839801941));
#627=CARTESIAN_POINT('Origin',(36.4116839801929,10.79,54.9116839801941));
#628=CARTESIAN_POINT('Origin',(51.2312681869067,9.79,66.5435488298653));
#629=CARTESIAN_POINT('',(51.2312681869115,9.79,66.5435488298701));
#630=CARTESIAN_POINT('',(48.8595910490963,9.79,68.9152259677077));
#631=CARTESIAN_POINT('',(50.4343382787496,9.79,67.3404787380317));
#632=CARTESIAN_POINT('',(51.2312681869115,6.79,66.5435488298701));
#633=CARTESIAN_POINT('',(51.2312681869055,5.65,66.5435488298665));
#634=CARTESIAN_POINT('',(48.8595910490963,6.79,68.9152259677077));
#635=CARTESIAN_POINT('',(50.4152243652555,6.79,67.3595926515261));
#636=CARTESIAN_POINT('',(48.8595910490963,9.79,68.9152259677077));
#637=CARTESIAN_POINT('Origin',(48.4918939204698,9.79,68.9152243652802));
#638=CARTESIAN_POINT('',(48.4918939204698,9.79,68.9152243652802));
#639=CARTESIAN_POINT('',(46.8066508796866,9.79,67.2299813245083));
#640=CARTESIAN_POINT('',(45.7651147457682,9.79,66.1884451905969));
#641=CARTESIAN_POINT('',(48.4918939204698,6.79,68.9152243652802));
#642=CARTESIAN_POINT('',(48.4918939204698,9.79,68.9152243652802));
#643=CARTESIAN_POINT('',(46.8066508796866,6.79,67.2299813245083));
#644=CARTESIAN_POINT('',(48.4918939204698,6.79,68.9152243652802));
#645=CARTESIAN_POINT('',(46.8066508796866,1.51,67.2299813245083));
#646=CARTESIAN_POINT('Origin',(48.6757432859857,9.79,68.7313791660361));
#647=CARTESIAN_POINT('Origin',(48.6757432859857,9.79,68.7313791660361));
#648=CARTESIAN_POINT('Origin',(48.6757432859857,6.79,68.7313791660361));
#649=CARTESIAN_POINT('Origin',(49.018959533299,6.79,67.047114998432));
#650=CARTESIAN_POINT('',(48.8451186997881,6.79,65.102851510664));
#651=CARTESIAN_POINT('',(49.9816451841089,6.79,65.7890577471147));
#652=CARTESIAN_POINT('Origin',(44.0000006556511,6.79,62.5000009313226));
#653=CARTESIAN_POINT('Origin',(44.0000006556511,9.79,62.5000009313226));
#654=CARTESIAN_POINT('',(49.4974910786345,9.79,62.6661305470002));
#655=CARTESIAN_POINT('Origin',(44.0000006556511,9.79,62.5000009313226));
#656=CARTESIAN_POINT('',(50.9345412217991,9.79,63.4550648749661));
#657=CARTESIAN_POINT('',(49.4974910786345,9.79,62.6661305470002));
#658=CARTESIAN_POINT('',(41.494331603102,9.79,55.9638229503388));
#659=CARTESIAN_POINT('Origin',(44.0000006556511,9.79,62.5000009313226));
#660=CARTESIAN_POINT('',(38.4269383263817,9.79,52.8964296736184));
#661=CARTESIAN_POINT('',(38.4269383263817,9.79,52.8964296736184));
#662=CARTESIAN_POINT('',(34.3964296736183,9.79,56.9269383263818));
#663=CARTESIAN_POINT('Origin',(36.411684,9.79,54.9116840000001));
#664=CARTESIAN_POINT('',(37.4638228274549,9.79,59.9943314802184));
#665=CARTESIAN_POINT('',(34.3964296736183,9.79,56.9269383263818));
#666=CARTESIAN_POINT('',(46.5056701067553,9.79,69.0361787595187));
#667=CARTESIAN_POINT('Origin',(44.0000006556511,9.79,62.5000009313226));
#668=CARTESIAN_POINT('',(49.5730616736183,9.79,72.1035703263818));
#669=CARTESIAN_POINT('',(49.5730616736183,9.79,72.1035703263818));
#670=CARTESIAN_POINT('',(53.0613953969372,9.79,67.6485338190833));
#671=CARTESIAN_POINT('Origin',(51.588316,9.79,70.0883160000001));
#672=CARTESIAN_POINT('',(53.0613953969372,9.79,67.6485338190833));
#673=CARTESIAN_POINT('Origin',(44.0000006556511,1.51,62.5000009313226));
#674=CARTESIAN_POINT('',(48.8451186997881,1.51,65.102851510664));
#675=CARTESIAN_POINT('',(48.8451186997881,1.51,65.102851510664));
#676=CARTESIAN_POINT('',(49.4974910786345,1.51,62.6661305470002));
#677=CARTESIAN_POINT('Origin',(44.0000006556511,1.51,62.5000009313226));
#678=CARTESIAN_POINT('',(49.4974910786345,1.51,62.6661305470002));
#679=CARTESIAN_POINT('Origin',(46.5056701067553,1.51,69.0361787595187));
#680=CARTESIAN_POINT('',(49.5730616736183,1.51,72.1035703263818));
#681=CARTESIAN_POINT('',(46.5056701067553,1.51,69.0361787595187));
#682=CARTESIAN_POINT('',(49.5730616736183,1.51,72.1035703263818));
#683=CARTESIAN_POINT('',(49.5730616736183,1.51,72.1035703263818));
#684=CARTESIAN_POINT('',(46.5056701067553,1.51,69.0361787595187));
#685=CARTESIAN_POINT('Origin',(51.588316,1.51,70.0883160000001));
#686=CARTESIAN_POINT('',(53.0613953969372,1.51,67.6485338190833));
#687=CARTESIAN_POINT('Origin',(51.588316,1.51,70.0883160000001));
#688=CARTESIAN_POINT('',(53.0613953969372,1.51,67.6485338190833));
#689=CARTESIAN_POINT('Origin',(34.3964296736183,1.51,56.9269383263818));
#690=CARTESIAN_POINT('',(34.3964296736183,1.51,56.9269383263818));
#691=CARTESIAN_POINT('',(37.4638228274549,1.51,59.9943314802184));
#692=CARTESIAN_POINT('',(34.3964296736183,1.51,56.9269383263818));
#693=CARTESIAN_POINT('',(37.4638228274549,1.51,59.9943314802184));
#694=CARTESIAN_POINT('',(34.3964296736183,1.51,56.9269383263818));
#695=CARTESIAN_POINT('Origin',(36.411684,1.51,54.9116840000001));
#696=CARTESIAN_POINT('',(38.4269383263817,1.51,52.8964296736184));
#697=CARTESIAN_POINT('Origin',(36.411684,1.51,54.9116840000001));
#698=CARTESIAN_POINT('',(38.4269383263817,1.51,52.8964296736184));
#699=CARTESIAN_POINT('Origin',(41.494331603102,1.51,55.9638229503388));
#700=CARTESIAN_POINT('',(41.494331603102,1.51,55.9638229503388));
#701=CARTESIAN_POINT('',(38.4269383263817,1.51,52.8964296736184));
#702=CARTESIAN_POINT('',(41.494331603102,1.51,55.9638229503388));
#703=CARTESIAN_POINT('Origin',(44.0000006556511,1.51,62.5000009313226));
#704=CARTESIAN_POINT('',(50.9345412217991,1.51,63.4550648749661));
#705=CARTESIAN_POINT('',(50.9345412217991,1.51,63.4550648749661));
#706=CARTESIAN_POINT('Origin',(44.0000006556511,1.51,62.5000009313226));
#707=CARTESIAN_POINT('Origin',(44.0000006556511,1.51,62.5000009313226));
#708=CARTESIAN_POINT('Origin',(44.0000006556511,1.51,62.5000009313226));
#709=CARTESIAN_POINT('Origin',(50.1304876906494,1.51,65.8789251260505));
#710=CARTESIAN_POINT('',(53.0613953969372,1.51,67.6485338190833));
#711=CARTESIAN_POINT('Origin',(49.4974910786345,1.51,62.6661305470002));
#712=CARTESIAN_POINT('',(49.4974910786345,1.51,62.6661305470002));
#713=CARTESIAN_POINT('Origin',(44.0000006556511,1.51,62.5000009313226));
#714=CARTESIAN_POINT('',(0.,0.,0.));
#715=UNCERTAINTY_MEASURE_WITH_UNIT(LENGTH_MEASURE(0.01),#721,
'DISTANCE_ACCURACY_VALUE',
'Maximum model space distance between geometric entities at asserted c
onnectivities');
#716=UNCERTAINTY_MEASURE_WITH_UNIT(LENGTH_MEASURE(0.01),#721,
'DISTANCE_ACCURACY_VALUE',
'Maximum model space distance between geometric entities at asserted c
onnectivities');
#717=UNCERTAINTY_MEASURE_WITH_UNIT(LENGTH_MEASURE(0.01),#721,
'DISTANCE_ACCURACY_VALUE',
'Maximum model space distance between geometric entities at asserted c
onnectivities');
#718=(
GEOMETRIC_REPRESENTATION_CONTEXT(3)
GLOBAL_UNCERTAINTY_ASSIGNED_CONTEXT((#715))
GLOBAL_UNIT_ASSIGNED_CONTEXT((#721,#723,#724))
REPRESENTATION_CONTEXT('','3D')
);
#719=(
GEOMETRIC_REPRESENTATION_CONTEXT(3)
GLOBAL_UNCERTAINTY_ASSIGNED_CONTEXT((#716))
GLOBAL_UNIT_ASSIGNED_CONTEXT((#721,#723,#724))
REPRESENTATION_CONTEXT('','3D')
);
#720=(
GEOMETRIC_REPRESENTATION_CONTEXT(3)
GLOBAL_UNCERTAINTY_ASSIGNED_CONTEXT((#717))
GLOBAL_UNIT_ASSIGNED_CONTEXT((#721,#723,#724))
REPRESENTATION_CONTEXT('','3D')
);
#721=(
LENGTH_UNIT()
NAMED_UNIT(*)
SI_UNIT(.MILLI.,.METRE.)
);
#722=(
LENGTH_UNIT()
NAMED_UNIT(*)
SI_UNIT($,.METRE.)
);
#723=(
NAMED_UNIT(*)
PLANE_ANGLE_UNIT()
SI_UNIT($,.RADIAN.)
);
#724=(
NAMED_UNIT(*)
SI_UNIT($,.STERADIAN.)
SOLID_ANGLE_UNIT()
);
#725=SHAPE_DEFINITION_REPRESENTATION(#727,#730);
#726=SHAPE_DEFINITION_REPRESENTATION(#728,#731);
#727=PRODUCT_DEFINITION_SHAPE('',$,#733);
#728=PRODUCT_DEFINITION_SHAPE('',$,#734);
#729=PRODUCT_DEFINITION_SHAPE($,$,#14);
#730=SHAPE_REPRESENTATION('',(#421,#468),#718);
#731=SHAPE_REPRESENTATION('',(#422),#719);
#732=PRODUCT_DEFINITION_CONTEXT('part definition',#740,'design');
#733=PRODUCT_DEFINITION('Case Volume Mixer','Case Volume Mixer v45',#735,
#732);
#734=PRODUCT_DEFINITION('Support sensor','Support sensor',#736,#732);
#735=PRODUCT_DEFINITION_FORMATION('',$,#742);
#736=PRODUCT_DEFINITION_FORMATION('',$,#743);
#737=PRODUCT_RELATED_PRODUCT_CATEGORY('Case Volume Mixer v45',
'Case Volume Mixer v45',(#742));
#738=PRODUCT_RELATED_PRODUCT_CATEGORY('Support sensor','Support sensor',
(#743));
#739=APPLICATION_PROTOCOL_DEFINITION('international standard',
'automotive_design',2009,#740);
#740=APPLICATION_CONTEXT(
'Core Data for Automotive Mechanical Design Process');
#741=PRODUCT_CONTEXT('part definition',#740,'mechanical');
#742=PRODUCT('Case Volume Mixer','Case Volume Mixer v45',$,(#741));
#743=PRODUCT('Support sensor','Support sensor',$,(#741));
#744=PRESENTATION_STYLE_ASSIGNMENT((#745));
#745=SURFACE_STYLE_USAGE(.BOTH.,#746);
#746=SURFACE_SIDE_STYLE('',(#747));
#747=SURFACE_STYLE_FILL_AREA(#748);
#748=FILL_AREA_STYLE('Steel - Satin',(#749));
#749=FILL_AREA_STYLE_COLOUR('Steel - Satin',#750);
#750=COLOUR_RGB('Steel - Satin',0.627450980392157,0.627450980392157,0.627450980392157);
ENDSEC;
END-ISO-10303-21;
