ISO-10303-21;
HEADER;
/* Generated by software containing ST-Developer
 * from STEP Tools, Inc. (www.steptools.com) 
 */

FILE_DESCRIPTION(
/* description */ (''),
/* implementation_level */ '2;1');

FILE_NAME(
/* name */ 'Support sensor part 2 V2 x10.step',
/* time_stamp */ '2025-12-10T20:28:32+01:00',
/* author */ (''),
/* organization */ (''),
/* preprocessor_version */ 'ST-DEVELOPER v20.1',
/* originating_system */ 'Autodesk Translation Framework v14.21.0.0',
/* authorisation */ '');

FILE_SCHEMA (('AUTOMOTIVE_DESIGN { 1 0 10303 214 3 1 1 }'));
ENDSEC;

DATA;
#10=MECHANICAL_DESIGN_GEOMETRIC_PRESENTATION_REPRESENTATION('',(#17),#145);
#11=ITEM_DEFINED_TRANSFORMATION($,$,#85,#95);
#12=(
REPRESENTATION_RELATIONSHIP($,$,#156,#155)
REPRESENTATION_RELATIONSHIP_WITH_TRANSFORMATION(#11)
SHAPE_REPRESENTATION_RELATIONSHIP()
);
#13=CONTEXT_DEPENDENT_SHAPE_REPRESENTATION(#12,#154);
#14=NEXT_ASSEMBLY_USAGE_OCCURRENCE('Support sensor:1',
'Support sensor:1','Support sensor:1',#158,#159,'Support sensor:1');
#15=SHAPE_REPRESENTATION_RELATIONSHIP('SRR','None',#156,#16);
#16=ADVANCED_BREP_SHAPE_REPRESENTATION('',(#18),#144);
#17=STYLED_ITEM('',(#169),#18);
#18=MANIFOLD_SOLID_BREP('Body4',#71);
#19=FACE_BOUND('',#32,.T.);
#20=PLANE('',#89);
#21=PLANE('',#93);
#22=PLANE('',#94);
#23=FACE_OUTER_BOUND('',#28,.T.);
#24=FACE_OUTER_BOUND('',#29,.T.);
#25=FACE_OUTER_BOUND('',#30,.T.);
#26=FACE_OUTER_BOUND('',#31,.T.);
#27=FACE_OUTER_BOUND('',#33,.T.);
#28=EDGE_LOOP('',(#52,#53,#54,#55));
#29=EDGE_LOOP('',(#56));
#30=EDGE_LOOP('',(#57,#58,#59,#60));
#31=EDGE_LOOP('',(#61));
#32=EDGE_LOOP('',(#62));
#33=EDGE_LOOP('',(#63));
#34=LINE('',#128,#36);
#35=LINE('',#135,#37);
#36=VECTOR('',#104,1.2);
#37=VECTOR('',#113,2.85);
#38=CIRCLE('',#87,1.2);
#39=CIRCLE('',#88,1.2);
#40=CIRCLE('',#91,2.85);
#41=CIRCLE('',#92,2.85);
#42=VERTEX_POINT('',#125);
#43=VERTEX_POINT('',#127);
#44=VERTEX_POINT('',#132);
#45=VERTEX_POINT('',#134);
#46=EDGE_CURVE('',#42,#42,#38,.T.);
#47=EDGE_CURVE('',#42,#43,#34,.T.);
#48=EDGE_CURVE('',#43,#43,#39,.T.);
#49=EDGE_CURVE('',#44,#44,#40,.T.);
#50=EDGE_CURVE('',#44,#45,#35,.T.);
#51=EDGE_CURVE('',#45,#45,#41,.T.);
#52=ORIENTED_EDGE('',*,*,#46,.F.);
#53=ORIENTED_EDGE('',*,*,#47,.T.);
#54=ORIENTED_EDGE('',*,*,#48,.F.);
#55=ORIENTED_EDGE('',*,*,#47,.F.);
#56=ORIENTED_EDGE('',*,*,#46,.T.);
#57=ORIENTED_EDGE('',*,*,#49,.F.);
#58=ORIENTED_EDGE('',*,*,#50,.T.);
#59=ORIENTED_EDGE('',*,*,#51,.F.);
#60=ORIENTED_EDGE('',*,*,#50,.F.);
#61=ORIENTED_EDGE('',*,*,#51,.T.);
#62=ORIENTED_EDGE('',*,*,#48,.T.);
#63=ORIENTED_EDGE('',*,*,#49,.T.);
#64=CYLINDRICAL_SURFACE('',#86,1.2);
#65=CYLINDRICAL_SURFACE('',#90,2.85);
#66=ADVANCED_FACE('',(#23),#64,.T.);
#67=ADVANCED_FACE('',(#24),#20,.T.);
#68=ADVANCED_FACE('',(#25),#65,.T.);
#69=ADVANCED_FACE('',(#26,#19),#21,.T.);
#70=ADVANCED_FACE('',(#27),#22,.F.);
#71=CLOSED_SHELL('',(#66,#67,#68,#69,#70));
#72=DERIVED_UNIT_ELEMENT(#74,1.);
#73=DERIVED_UNIT_ELEMENT(#147,-3.);
#74=(
MASS_UNIT()
NAMED_UNIT(*)
SI_UNIT(.KILO.,.GRAM.)
);
#75=DERIVED_UNIT((#72,#73));
#76=MEASURE_REPRESENTATION_ITEM('density measure',
POSITIVE_RATIO_MEASURE(7850.),#75);
#77=PROPERTY_DEFINITION_REPRESENTATION(#82,#79);
#78=PROPERTY_DEFINITION_REPRESENTATION(#83,#80);
#79=REPRESENTATION('material name',(#81),#144);
#80=REPRESENTATION('density',(#76),#144);
#81=DESCRIPTIVE_REPRESENTATION_ITEM('Steel','Steel');
#82=PROPERTY_DEFINITION('material property','material name',#159);
#83=PROPERTY_DEFINITION('material property','density of part',#159);
#84=AXIS2_PLACEMENT_3D('',#122,#96,#97);
#85=AXIS2_PLACEMENT_3D('',#123,#98,#99);
#86=AXIS2_PLACEMENT_3D('',#124,#100,#101);
#87=AXIS2_PLACEMENT_3D('',#126,#102,#103);
#88=AXIS2_PLACEMENT_3D('',#129,#105,#106);
#89=AXIS2_PLACEMENT_3D('',#130,#107,#108);
#90=AXIS2_PLACEMENT_3D('',#131,#109,#110);
#91=AXIS2_PLACEMENT_3D('',#133,#111,#112);
#92=AXIS2_PLACEMENT_3D('',#136,#114,#115);
#93=AXIS2_PLACEMENT_3D('',#137,#116,#117);
#94=AXIS2_PLACEMENT_3D('',#138,#118,#119);
#95=AXIS2_PLACEMENT_3D('',#139,#120,#121);
#96=DIRECTION('axis',(0.,0.,1.));
#97=DIRECTION('refdir',(1.,0.,0.));
#98=DIRECTION('axis',(0.,0.,1.));
#99=DIRECTION('refdir',(1.,0.,0.));
#100=DIRECTION('center_axis',(0.,1.,0.));
#101=DIRECTION('ref_axis',(-1.,0.,-4.2764235361475E-48));
#102=DIRECTION('center_axis',(1.42222518970134E-31,1.,-2.77555756156289E-17));
#103=DIRECTION('ref_axis',(-1.,1.54074395550979E-31,-4.2764235361475E-48));
#104=DIRECTION('',(0.,-1.,0.));
#105=DIRECTION('center_axis',(5.30635176511483E-48,-1.,2.77555756156289E-17));
#106=DIRECTION('ref_axis',(-1.,0.,-4.2764235361475E-48));
#107=DIRECTION('center_axis',(1.41748443906901E-31,1.,-2.77555756156289E-17));
#108=DIRECTION('ref_axis',(-1.,1.41748443906901E-31,-3.93430965325571E-48));
#109=DIRECTION('center_axis',(0.,-1.,0.));
#110=DIRECTION('ref_axis',(-1.,0.,-1.01205100255013E-79));
#111=DIRECTION('center_axis',(5.30635176511483E-48,-1.,2.77555756156289E-17));
#112=DIRECTION('ref_axis',(-1.,-5.30635176511483E-48,-1.01205100255013E-79));
#113=DIRECTION('',(0.,1.,0.));
#114=DIRECTION('center_axis',(-5.30635176511483E-48,1.,-2.77555756156289E-17));
#115=DIRECTION('ref_axis',(-1.,-5.30635176511483E-48,-1.01205100255013E-79));
#116=DIRECTION('center_axis',(-5.30635176511483E-48,1.,-2.77555756156289E-17));
#117=DIRECTION('ref_axis',(-1.,-5.30635176511483E-48,-1.01205100255013E-79));
#118=DIRECTION('center_axis',(-5.30635176511483E-48,1.,-2.77555756156289E-17));
#119=DIRECTION('ref_axis',(-1.,-5.30635176511483E-48,-1.01205100255013E-79));
#120=DIRECTION('',(0.,0.,1.));
#121=DIRECTION('',(1.,0.,0.));
#122=CARTESIAN_POINT('',(0.,0.,0.));
#123=CARTESIAN_POINT('',(0.,0.,0.));
#124=CARTESIAN_POINT('Origin',(51.5883168247998,1.51,70.0883168248009));
#125=CARTESIAN_POINT('',(52.7883168247998,3.01000000000001,70.0883168248009));
#126=CARTESIAN_POINT('Origin',(51.5883168247998,3.01000000000001,70.0883168248009));
#127=CARTESIAN_POINT('',(52.7883168247998,1.51,70.0883168248009));
#128=CARTESIAN_POINT('',(52.7883168247998,1.51,70.0883168248009));
#129=CARTESIAN_POINT('Origin',(51.5883168247998,1.51,70.0883168248009));
#130=CARTESIAN_POINT('Origin',(51.5883168247998,3.01000000000001,70.0883168248009));
#131=CARTESIAN_POINT('Origin',(51.588316,1.51,70.0883160000001));
#132=CARTESIAN_POINT('',(54.438316,0.0100000000000042,70.0883160000001));
#133=CARTESIAN_POINT('Origin',(51.588316,0.0100000000000042,70.0883160000001));
#134=CARTESIAN_POINT('',(54.438316,1.51,70.0883160000001));
#135=CARTESIAN_POINT('',(54.438316,1.51,70.0883160000001));
#136=CARTESIAN_POINT('Origin',(51.588316,1.51,70.0883160000001));
#137=CARTESIAN_POINT('Origin',(51.588316,1.51,70.0883160000001));
#138=CARTESIAN_POINT('Origin',(51.588316,0.0100000000000042,70.0883160000001));
#139=CARTESIAN_POINT('',(0.,0.,0.));
#140=UNCERTAINTY_MEASURE_WITH_UNIT(LENGTH_MEASURE(0.01),#146,
'DISTANCE_ACCURACY_VALUE',
'Maximum model space distance between geometric entities at asserted c
onnectivities');
#141=UNCERTAINTY_MEASURE_WITH_UNIT(LENGTH_MEASURE(0.01),#146,
'DISTANCE_ACCURACY_VALUE',
'Maximum model space distance between geometric entities at asserted c
onnectivities');
#142=UNCERTAINTY_MEASURE_WITH_UNIT(LENGTH_MEASURE(0.01),#146,
'DISTANCE_ACCURACY_VALUE',
'Maximum model space distance between geometric entities at asserted c
onnectivities');
#143=(
GEOMETRIC_REPRESENTATION_CONTEXT(3)
GLOBAL_UNCERTAINTY_ASSIGNED_CONTEXT((#140))
GLOBAL_UNIT_ASSIGNED_CONTEXT((#146,#148,#149))
REPRESENTATION_CONTEXT('','3D')
);
#144=(
GEOMETRIC_REPRESENTATION_CONTEXT(3)
GLOBAL_UNCERTAINTY_ASSIGNED_CONTEXT((#141))
GLOBAL_UNIT_ASSIGNED_CONTEXT((#146,#148,#149))
REPRESENTATION_CONTEXT('','3D')
);
#145=(
GEOMETRIC_REPRESENTATION_CONTEXT(3)
GLOBAL_UNCERTAINTY_ASSIGNED_CONTEXT((#142))
GLOBAL_UNIT_ASSIGNED_CONTEXT((#146,#148,#149))
REPRESENTATION_CONTEXT('','3D')
);
#146=(
LENGTH_UNIT()
NAMED_UNIT(*)
SI_UNIT(.MILLI.,.METRE.)
);
#147=(
LENGTH_UNIT()
NAMED_UNIT(*)
SI_UNIT($,.METRE.)
);
#148=(
NAMED_UNIT(*)
PLANE_ANGLE_UNIT()
SI_UNIT($,.RADIAN.)
);
#149=(
NAMED_UNIT(*)
SI_UNIT($,.STERADIAN.)
SOLID_ANGLE_UNIT()
);
#150=SHAPE_DEFINITION_REPRESENTATION(#152,#155);
#151=SHAPE_DEFINITION_REPRESENTATION(#153,#156);
#152=PRODUCT_DEFINITION_SHAPE('',$,#158);
#153=PRODUCT_DEFINITION_SHAPE('',$,#159);
#154=PRODUCT_DEFINITION_SHAPE($,$,#14);
#155=SHAPE_REPRESENTATION('',(#84,#95),#143);
#156=SHAPE_REPRESENTATION('',(#85),#144);
#157=PRODUCT_DEFINITION_CONTEXT('part definition',#165,'design');
#158=PRODUCT_DEFINITION('Case Volume Mixer','Case Volume Mixer v45',#160,
#157);
#159=PRODUCT_DEFINITION('Support sensor','Support sensor',#161,#157);
#160=PRODUCT_DEFINITION_FORMATION('',$,#167);
#161=PRODUCT_DEFINITION_FORMATION('',$,#168);
#162=PRODUCT_RELATED_PRODUCT_CATEGORY('Case Volume Mixer v45',
'Case Volume Mixer v45',(#167));
#163=PRODUCT_RELATED_PRODUCT_CATEGORY('Support sensor','Support sensor',
(#168));
#164=APPLICATION_PROTOCOL_DEFINITION('international standard',
'automotive_design',2009,#165);
#165=APPLICATION_CONTEXT(
'Core Data for Automotive Mechanical Design Process');
#166=PRODUCT_CONTEXT('part definition',#165,'mechanical');
#167=PRODUCT('Case Volume Mixer','Case Volume Mixer v45',$,(#166));
#168=PRODUCT('Support sensor','Support sensor',$,(#166));
#169=PRESENTATION_STYLE_ASSIGNMENT((#170));
#170=SURFACE_STYLE_USAGE(.BOTH.,#171);
#171=SURFACE_SIDE_STYLE('',(#172));
#172=SURFACE_STYLE_FILL_AREA(#173);
#173=FILL_AREA_STYLE('Steel - Satin',(#174));
#174=FILL_AREA_STYLE_COLOUR('Steel - Satin',#175);
#175=COLOUR_RGB('Steel - Satin',0.627450980392157,0.627450980392157,0.627450980392157);
ENDSEC;
END-ISO-10303-21;
