<svg xmlns="http://www.w3.org/2000/svg" fill="none" viewBox="0 0 30 30" id="Niconico-Logo-1--Streamline-Logos" height="30" width="30">
  <desc>
    Niconico Logo 1 Streamline Icon: https://streamlinehq.com
  </desc>
  <path fill="#000000" fill-rule="evenodd" d="M11.3575 7.5 7.24125 3.38375l1.7674999999999998 -1.7674999999999998L14.8925 7.5h0.21499999999999997l5.88375 -5.88375 1.7674999999999998 1.7674999999999998L18.6425 7.5H26.875A1.875 1.875 0 0 1 28.75 9.375v15a1.875 1.875 0 0 1 -1.875 1.875h-3.4375l-1.6875 2.25a0.625 0.625 0 0 1 -1 0L19.0625 26.25h-8.125L9.25 28.5a0.625 0.625 0 0 1 -1 0L6.5625 26.25H3.125A1.875 1.875 0 0 1 1.25 24.375v-15A1.875 1.875 0 0 1 3.125 7.5h8.2325Z" clip-rule="evenodd" stroke-width="1.25"></path>
</svg>