<svg xmlns="http://www.w3.org/2000/svg" fill="none" viewBox="0 0 30 30" id="Nintendo-Switch-Logo--Streamline-Logos" height="30" width="30">
  <desc>
    Nintendo Switch Logo Streamline Icon: https://streamlinehq.com
  </desc>
  <path fill="#000000" fill-rule="evenodd" d="M6.875 3.4375A4.0625 4.0625 0 0 0 2.8125 7.5v15a4.0625 4.0625 0 0 0 4.0625 4.0625h5.3125V3.4375H6.875ZM0.9375 7.5A5.9375 5.9375 0 0 1 6.875 1.5625h7.1875v26.875H6.875A5.9375 5.9375 0 0 1 0.9375 22.5V7.5Zm9.375 2.5a2.5 2.5 0 1 1 -5 0 2.5 2.5 0 0 1 5 0ZM23.125 1.5625h-7.1875v26.875h7.1875A5.9375 5.9375 0 0 0 29.0625 22.5V7.5a5.9375 5.9375 0 0 0 -5.9375 -5.9375ZM25 16.25a2.5 2.5 0 1 1 -5 0 2.5 2.5 0 0 1 5 0Z" clip-rule="evenodd" stroke-width="1.25"></path>
</svg>