<svg xmlns="http://www.w3.org/2000/svg" fill="none" viewBox="0 0 30 30" id="Obs-Studio-Logo--Streamline-Logos" height="30" width="30">
  <desc>
    Obs Studio Logo Streamline Icon: https://streamlinehq.com
  </desc>
  <path fill="#000000" fill-rule="evenodd" d="M28.75 15c0 7.59375 -6.15625 13.75 -13.75 13.75S1.25 22.59375 1.25 15 7.40625 1.25 15 1.25s13.75 6.15625 13.75 13.75Zm-4.34875 5.4075a4.565 4.565 0 0 0 -6.5375000000000005 -6.035 4.565 4.565 0 0 0 -1.1400000000000001 6.4025 0.5825 0.5825 0 0 1 0 0.73A6.949999999999999 6.949999999999999 0 0 1 15 22.988749999999996a6.8475 6.8475 0 0 1 -9.01625 -1.9962499999999999 4.56625 4.56625 0 0 0 8.16 -3.15 4.565 4.565 0 0 0 -4.96375 -4.2 0.55875 0.55875 0 0 1 -0.6174999999999999 -0.36624999999999996 6.6537500000000005 6.6537500000000005 0 0 1 -0.41000000000000003 -2.2712499999999998 6.8475 6.8475 0 0 1 6.38 -6.8475 4.565 4.565 0 1 0 2.4425 8.651250000000001 4.475 4.475 0 0 0 2.1675 -2.2025 0.5925 0.5925 0 0 1 0.62875 -0.35374999999999995 6.475 6.475 0 0 1 2.07625 0.81 6.84875 6.84875 0 0 1 2.55375 9.345Z" clip-rule="evenodd" stroke-width="1.25"></path>
</svg>