<svg xmlns="http://www.w3.org/2000/svg" fill="none" viewBox="0 0 30 30" id="Overcast-Logo--Streamline-Logos" height="30" width="30">
  <desc>
    Overcast Logo Streamline Icon: https://streamlinehq.com
  </desc>
  <path fill="#000000" fill-rule="evenodd" d="M15 2.8125A12.1875 12.1875 0 0 0 2.8125 15a12.19125 12.19125 0 0 0 7.7975 11.3725l2.8249999999999997 -9.4225a2.5 2.5 0 1 1 3.1274999999999995 0l2.8275 9.4225A12.19125 12.19125 0 0 0 27.1875 15 12.1875 12.1875 0 0 0 15 2.8125Zm0 24.375a12.235 12.235 0 0 1 -2.595 -0.27625l0.0975 -0.3225L15 24.34125l2.4975 2.2475 0.0975 0.3225A12.235 12.235 0 0 1 15 27.1875ZM0.9375 15C0.9375 7.23375 7.23375 0.9375 15 0.9375S29.0625 7.23375 29.0625 15 22.76625 29.0625 15 29.0625 0.9375 22.76625 0.9375 15Zm15.86875 9.285 -0.8724999999999999 -0.785 0.5025000000000001 -0.45125 0.37 1.2375ZM15 22.66l1.0374999999999999 -0.935 -1.0374999999999999 -3.4625 -1.0374999999999999 3.4625 1.0374999999999999 0.93375Zm-1.8062500000000001 1.625 0.8724999999999999 -0.785 -0.5025000000000001 -0.45125 -0.37 1.2375ZM8.6875 8.625a0.9375 0.9375 0 0 1 0.1875 1.3125c-0.55 0.7324999999999999 -1.6875 2.8312500000000003 -1.6875 5.0625 0 2.2312499999999997 1.1375 4.33 1.6875 5.0625a0.9375 0.9375 0 1 1 -1.5 1.125c-0.7000000000000001 -0.93375 -2.0625 -3.4187499999999997 -2.0625 -6.1875 0 -2.76875 1.3625 -5.25375 2.0625 -6.1875a0.9375 0.9375 0 0 1 1.3125 -0.1875Zm2.6 2.5875a0.9375 0.9375 0 0 1 0 1.3250000000000002c-0.2975 0.2975 -0.9750000000000001 1.28125 -0.9750000000000001 2.4625 0 1.18125 0.6775 2.165 0.9750000000000001 2.4625a0.9375 0.9375 0 1 1 -1.3250000000000002 1.3250000000000002c-0.5375 -0.535 -1.525 -1.96875 -1.525 -3.7874999999999996 0 -1.81875 0.9875 -3.2525 1.525 -3.7874999999999996a0.9375 0.9375 0 0 1 1.3250000000000002 0Zm11.3375 -2.4a0.9375 0.9375 0 0 0 -1.5 1.125c0.55 0.7324999999999999 1.6875 2.8312500000000003 1.6875 5.0625 0 2.2312499999999997 -1.1375 4.33 -1.6875 5.0625a0.9375 0.9375 0 1 0 1.5 1.125c0.7000000000000001 -0.93375 2.0625 -3.4187499999999997 2.0625 -6.1875 0 -2.76875 -1.3625 -5.25375 -2.0625 -6.1875Zm-3.9124999999999996 2.4a0.9375 0.9375 0 0 1 1.3250000000000002 0c0.5375 0.535 1.525 1.96875 1.525 3.7874999999999996 0 1.81875 -0.9875 3.2525 -1.525 3.7874999999999996a0.9375 0.9375 0 1 1 -1.3250000000000002 -1.3250000000000002c0.2975 -0.2975 0.9750000000000001 -1.28125 0.9750000000000001 -2.4625 0 -1.18125 -0.6775 -2.165 -0.9750000000000001 -2.4625a0.9375 0.9375 0 0 1 0 -1.3250000000000002Z" clip-rule="evenodd" stroke-width="1.25"></path>
</svg>