<svg fill="none" height="192" width="192" xmlns="http://www.w3.org/2000/svg"><g stroke="#000" stroke-linecap="round"><path d="m140.672 157.486a76.004 76.004 0 0 1 -102.464-12.128 76.001 76.001 0 0 1 107.15-107.15 76.004 76.004 0 0 1 12.128 102.464" stroke-width="8"/><path d="m124.807 142.105a54.364 54.364 0 1 1 17.296-17.296" stroke-linejoin="round" stroke-miterlimit="15" stroke-width="8"/><path d="m95.997 117.193c11.705 0 21.193-9.488 21.193-21.193 0-11.704-9.488-21.193-21.193-21.193-11.704 0-21.193 9.489-21.193 21.193 0 11.705 9.489 21.193 21.193 21.193z" stroke-linejoin="round" stroke-miterlimit="15" stroke-width="8"/><path d="m95.997 98.103a2.103 2.103 0 1 0 0-4.205 2.103 2.103 0 0 0 0 4.205z" fill="#000" stroke-linejoin="round" stroke-miterlimit="15" stroke-width="3.799"/></g><path d="m121.193 121.196 41.871 41.625z" fill="#000"/><path d="m121.193 121.196 41.871 41.625" stroke="#000" stroke-linecap="round" stroke-linejoin="round" stroke-miterlimit="15" stroke-width="12"/></svg>