<svg xmlns="http://www.w3.org/2000/svg" fill="none" viewBox="0 0 30 30" id="Reason-Studios-Logo--Streamline-Logos" height="30" width="30">
  <desc>
    Reason Studios Logo Streamline Icon: https://streamlinehq.com
  </desc>
  <path fill="#000000" fill-rule="evenodd" d="M14.33375 1.42875 3.0375 7.970000000000001c-0.41125 0.2375 -0.6637500000000001 0.675 -0.6637500000000001 1.1500000000000001v11.76c0 0.475 0.2525 0.9125 0.6625000000000001 1.1500000000000001l11.299999999999999 6.54125c0.41125 0.2375 0.91875 0.2375 1.3312499999999998 0l11.2975 -6.54125c0.41125 -0.2375 0.6637500000000001 -0.675 0.6637500000000001 -1.1500000000000001V9.120000000000001c0 -0.475 -0.2525 -0.9125 -0.6625000000000001 -1.1500000000000001l-11.299999999999999 -6.54125a1.3325 1.3325 0 0 0 -1.3312499999999998 0ZM15 6.25 6.875 10.625v8.75l8.125 5v-10l8.125 -3.75L15 6.25Z" clip-rule="evenodd" stroke-width="1.25"></path>
</svg>