<svg xmlns="http://www.w3.org/2000/svg" fill="none" viewBox="0 0 30 30" id="Skype-Logo-2--Streamline-Logos" height="30" width="30">
  <desc>
    Skype Logo 2 Streamline Icon: https://streamlinehq.com
  </desc>
  <path fill="#000000" fill-rule="evenodd" d="M1.25 9.375a8.125 8.125 0 0 1 11.633750000000001 -7.33 13.134999999999998 13.134999999999998 0 0 0 -10.83875 10.8375A8.095 8.095 0 0 1 1.25 9.375Zm26.705000000000002 7.741249999999999a13.134999999999998 13.134999999999998 0 0 1 -10.8375 10.83875 8.125 8.125 0 0 0 10.83875 -10.83875ZM26.875 15a11.875 11.875 0 1 1 -23.75 0 11.875 11.875 0 0 1 23.75 0Zm-6.022499999999999 -4.61625c-0.20625000000000002 -1.4874999999999998 -2.3175 -3.085 -5.925000000000001 -3.2925C11.15 6.8675 8.74375 8.89625 8.75 11.83375c0 3.1424999999999996 3.02875 3.875 5.5825000000000005 4.49375 1.8625 0.44999999999999996 3.4712500000000004 0.8400000000000001 3.4712500000000004 2.05875 0 0.8025 -0.71875 1.94875 -2.8125 1.94875 -1.66625 0 -2.3975 -0.87125 -3.04375 -1.6425 -0.5125 -0.61 -0.9725 -1.1575 -1.80125 -1.1575a1.41375 1.41375 0 0 0 -1.3087499999999999 1.4449999999999998c-0.01625 2.4962500000000003 3.185 3.9475 6.3687499999999995 3.9475 3.61875 0 6.04375 -1.995 6.04375 -5.038749999999999 0 -3.1550000000000002 -3.2125 -3.92875 -5.8 -4.55125 -1.7425 -0.42000000000000004 -3.2 -0.77125 -3.2 -1.7349999999999999 0 -1.1487500000000002 1.07 -1.6775000000000002 2.3375000000000004 -1.6775000000000002 1.59375 0 2.33625 0.705 2.97875 1.31375 0.49 0.46499999999999997 0.92125 0.875 1.6275 0.875a1.5375 1.5375 0 0 0 1.65875 -1.73Z" clip-rule="evenodd" stroke-width="1.25"></path>
</svg>