<svg xmlns="http://www.w3.org/2000/svg" fill="none" viewBox="0 0 30 30" id="Steam-Logo--Streamline-Logos" height="30" width="30">
  <desc>
    Steam Logo Streamline Icon: https://streamlinehq.com
  </desc>
  <path fill="#000000" fill-rule="evenodd" d="M15 28.75c7.59375 0 13.75 -6.15625 13.75 -13.75S22.59375 1.25 15 1.25C7.8100000000000005 1.25 1.90875 6.76875 1.30125 13.8025l7.4 3.1175a4.04375 4.04375 0 0 1 2.3649999999999998 -0.6675l3.0112499999999995 -4.29125a5.3125 5.3125 0 1 1 5.1587499999999995 4.9125000000000005l-4.2575 3.0175a4.0625 4.0625 0 0 1 -8.05875 1.025l-5.1537500000000005 -2.17125C3.3975 24.52 8.70375 28.75 15 28.75Zm-4.0625 -5.463750000000001a2.9749999999999996 2.9749999999999996 0 0 1 -2.7475 -1.8337500000000002l1.7000000000000002 0.715A2.1875 2.1875 0 0 0 11.587499999999999 18.1375l-1.5575 -0.65625a2.97375 2.97375 0 1 1 0.9075 5.8062499999999995Zm8.629999999999999 -13.908750000000001a2.1875 2.1875 0 1 0 0 4.375 2.1875 2.1875 0 0 0 0 -4.375Zm-3.4375 2.1875a3.4375 3.4375 0 1 1 6.875 0 3.4375 3.4375 0 0 1 -6.875 0Z" clip-rule="evenodd" stroke-width="1.25"></path>
</svg>