<svg xmlns="http://www.w3.org/2000/svg" fill="none" viewBox="0 0 30 30" id="Trello-Logo--Streamline-Logos" height="30" width="30">
  <desc>
    Trello Logo Streamline Icon: https://streamlinehq.com
  </desc>
  <path fill="#000000" fill-rule="evenodd" d="M1.25 7.5a6.25 6.25 0 0 1 6.25 -6.25h15a6.25 6.25 0 0 1 6.25 6.25v15a6.25 6.25 0 0 1 -6.25 6.25H7.5a6.25 6.25 0 0 1 -6.25 -6.25V7.5Zm5 0a1.25 1.25 0 0 1 1.25 -1.25h4.375a1.25 1.25 0 0 1 1.25 1.25v13.75a1.25 1.25 0 0 1 -1.25 1.25H7.5a1.25 1.25 0 0 1 -1.25 -1.25V7.5Zm11.875 -1.25a1.25 1.25 0 0 0 -1.25 1.25v6.875a1.25 1.25 0 0 0 1.25 1.25H22.5a1.25 1.25 0 0 0 1.25 -1.25V7.5a1.25 1.25 0 0 0 -1.25 -1.25h-4.375Z" clip-rule="evenodd" stroke-width="1.25"></path>
</svg>