<svg xmlns="http://www.w3.org/2000/svg" fill="none" viewBox="0 0 30 30" id="Volume-Level-High--Streamline-Core" height="30" width="30">
  <desc>
    Volume Level High Streamline Icon: https://streamlinehq.com
  </desc>
  <g id="volume-level-high--speaker-high-volume-control-audio-music-entertainment">
    <path id="Union" fill="#000000" fill-rule="evenodd" d="M19.285714285714285 6.439285714285714A3.1157142857142857 3.1157142857142857 0 0 0 14.391428571428571 3.814285714285714l-0.0064285714285714285 0.004285714285714286L6.09 9.642857142857142H3.2142857142857144C1.4571428571428573 9.642857142857142 0 11.1 0 12.857142857142858v4.285714285714286c0 1.757142857142857 1.4571428571428573 3.2142857142857144 3.2142857142857144 3.2142857142857144h2.869285714285714l8.1 5.82 0.015 0.010714285714285714c2.0785714285714283 1.44 5.031428571428571 -0.05142857142857143 5.087142857142857 -2.5928571428571425V6.439285714285714Zm5.873571428571428 0.8742857142857142a1.6071428571428572 1.6071428571428572 0 0 1 2.262857142857143 0.2142857142857143c1.7785714285714285 2.149285714285714 2.517857142857143 4.729285714285714 2.517857142857143 7.472142857142857 0 2.742857142857143 -0.7414285714285713 5.322857142857143 -2.517857142857143 7.472142857142857a1.6071428571428572 1.6071428571428572 0 0 1 -2.477142857142857 -2.0485714285714285c1.2128571428571426 -1.4657142857142857 1.7807142857142855 -3.2785714285714285 1.7807142857142855 -5.423571428571429 0 -2.1449999999999996 -0.5678571428571428 -3.9578571428571427 -1.7785714285714285 -5.421428571428571a1.6071428571428572 1.6071428571428572 0 0 1 0.2142857142857143 -2.2649999999999997Zm-3.3 4.017857142857142a1.6071428571428572 1.6071428571428572 0 0 1 2.1342857142857143 0.7757142857142857c0.42214285714285715 0.8978571428571428 0.6257142857142857 1.887857142857143 0.5914285714285714 2.892857142857143a6.3 6.3 0 0 1 -0.5914285714285714 2.892857142857143 1.6071428571428572 1.6071428571428572 0 0 1 -2.91 -1.3607142857142858 3.0857142857142854 3.0857142857142854 0 0 0 0.28714285714285714 -1.4571428571428573 1.5964285714285713 1.5964285714285713 0 0 1 0 -0.15000000000000002 3.0857142857142854 3.0857142857142854 0 0 0 -0.28714285714285714 -1.4571428571428573 1.6071428571428572 1.6071428571428572 0 0 1 0.7735714285714286 -2.1364285714285716Z" clip-rule="evenodd" stroke-width="2.1429"></path>
  </g>
</svg>