<svg xmlns="http://www.w3.org/2000/svg" fill="none" viewBox="0 0 30 30" id="Wechat-Logo--Streamline-Logos" height="30" width="30">
  <desc>
    WeChat Logo Streamline Icon: https://streamlinehq.com
  </desc>
  <path fill="#000000" fill-rule="evenodd" d="m11.25 20.375 0.0325 0a7.13125 7.13125 0 0 1 -0.2625 -1.9225c0 -4.68625 4.4725 -8.11625 9.49 -8.11625 0.13875 0 0.2775 0.0025 0.41500000000000004 0.0075C19.8 6.90875 15.89625 4.375 11.25 4.375c-5.5225 0 -10 3.5812500000000003 -10 8 0 2.5212499999999998 1.45875 4.77125 3.7375000000000003 6.237500000000001l-0.40375 3.7624999999999997 4.4025 -2.20625A12.445 12.445 0 0 0 11.25 20.375ZM7.9037500000000005 10.95a1.25 1.25 0 1 0 0 -2.5 1.25 1.25 0 0 0 0 2.5Zm7.9 -1.25a1.25 1.25 0 1 1 -2.5 0 1.25 1.25 0 0 1 2.5 0Zm4.70625 15.618749999999999c-4.55 0 -8.23875 -3.075 -8.23875 -6.866250000000001 0 -3.7924999999999995 3.6875 -6.866250000000001 8.23875 -6.866250000000001 4.55 0 8.24 3.075 8.24 6.866250000000001 0 2.03375 -1.06125 3.86125 -2.74625 5.117500000000001l0.6875 3.8087500000000003 -4.8075 -2.155c-0.44625 0.0625 -0.905 0.095 -1.37375 0.095ZM17.8 17.2a0.9375 0.9375 0 1 0 0 -1.875 0.9375 0.9375 0 0 0 0 1.875Zm6.36625 -0.9375a0.9375 0.9375 0 1 1 -1.875 0 0.9375 0.9375 0 0 1 1.875 0Z" clip-rule="evenodd" stroke-width="1.25"></path>
</svg>