<svg xmlns="http://www.w3.org/2000/svg" fill="none" viewBox="0 0 30 30" id="Youtube-Gaming-Logo-3--Streamline-Logos" height="30" width="30">
  <desc>
    Youtube Gaming Logo 3 Streamline Icon: https://streamlinehq.com
  </desc>
  <path fill="#000000" fill-rule="evenodd" d="M7.5 5 1.25 8.125V16.25l13.75 6.875L28.75 16.25V8.125L22.5 5l-7.5 3.125L7.5 5Zm15.625 8.125a1.25 1.25 0 1 1 0 -2.5 1.25 1.25 0 0 1 0 2.5ZM18.75 13.75a1.25 1.25 0 1 0 2.5 0 1.25 1.25 0 0 0 -2.5 0Zm-11.25 1.875V13.75H5.625V11.875H7.5V10h1.875v1.875H11.25V13.75H9.375v1.875H7.5Z" clip-rule="evenodd" stroke-width="1.25"></path>
</svg>