<svg xmlns="http://www.w3.org/2000/svg" fill="none" viewBox="0 0 30 30" id="Youtube-Music-Logo--Streamline-Logos" height="30" width="30">
  <desc>
    Youtube Music Logo Streamline Icon: https://streamlinehq.com
  </desc>
  <path fill="#000000" fill-rule="evenodd" d="M28.75 15c0 7.59375 -6.15625 13.75 -13.75 13.75S1.25 22.59375 1.25 15 7.40625 1.25 15 1.25s13.75 6.15625 13.75 13.75ZM15 8.75a6.25 6.25 0 1 0 0 12.5 6.25 6.25 0 0 0 0 -12.5Zm-7.5 6.25a7.5 7.5 0 1 1 15 0 7.5 7.5 0 0 1 -15 0Zm11.25 0 -6.25 -3.75v7.5l6.25 -3.75Z" clip-rule="evenodd" stroke-width="1.25"></path>
</svg>