<svg xmlns="http://www.w3.org/2000/svg" fill="none" viewBox="0 0 30 30" id="Zcool-Logo-2--Streamline-Logos" height="30" width="30">
  <desc>
    Zcool Logo 2 Streamline Icon: https://streamlinehq.com
  </desc>
  <path fill="#000000" fill-rule="evenodd" d="M1.25 18.27a10.47625 10.47625 0 0 0 20.768749999999997 1.965c3.5199999999999996 -1.0474999999999999 6.0375 -4.8425 6.57625 -7.106249999999999 -1.1925 0.725 -2.0875 0.8450000000000001 -3.44625 0.6687500000000001C27.41875 11.61875 28.75 5.54125 28.75 2.55625c-1.955 2.67625 -6.63625 4.375 -9.516250000000001 4.70875 1.205 -1.90625 0.5912499999999999 -4.475 0.12875 -5.94125 -1.1325 3.18875 -5.135 5.0875 -7.63625 5.60625C5.345 8.252500000000001 1.25 12.485 1.25 18.27Zm15.56 -0.9375s-3.50125 1.99875 -7.512499999999999 2.45c0.06625 0.77875 1.25 2.20625 3.97 1.6375000000000002 2.72125 -0.56875 3.37125 -2.9675000000000002 3.5425 -4.0875ZM5.995 19.6125c-2.06875 -0.3025 -3.77625 -1.6075 -3.77625 -1.6075 0.09375 1.0374999999999999 0.28125 2.55 1.4874999999999998 2.8925 1.29 0.36624999999999996 2.0749999999999997 -0.6825000000000001 2.28875 -1.2850000000000001Z" clip-rule="evenodd" stroke-width="1.25"></path>
</svg>