<svg xmlns="http://www.w3.org/2000/svg" fill="none" viewBox="0 0 30 30" id="Adobe-After-Effects-Logo--Streamline-Logos" height="30" width="30">
  <desc>
    Adobe After Effects Logo Streamline Icon: https://streamlinehq.com
  </desc>
  <path fill="#000000" fill-rule="evenodd" d="M5.8125 0.9375a4.875 4.875 0 0 0 -4.875 4.875v18.375a4.875 4.875 0 0 0 4.875 4.875h18.375a4.875 4.875 0 0 0 4.875 -4.875V5.8125a4.875 4.875 0 0 0 -4.875 -4.875H5.8125Zm-3 4.875a3 3 0 0 1 3 -3h18.375a3 3 0 0 1 3 3v18.375a3 3 0 0 1 -3 3H5.8125a3 3 0 0 1 -3 -3V5.8125Zm1.5775000000000001 14.7775 3.9924999999999997 -11.41v-0.8250000000000001h3.1875l4.4174999999999995 12.235H13.25l-1.04 -2.8587499999999997H7.88625l-0.96875 2.8587499999999997H4.39Zm4.18125 -5.29125H11.5L10.0375 10.5275l-1.4649999999999999 4.77125ZM24.161250000000003 18.25v2.125c-0.43374999999999997 0.17500000000000002 -1.635 0.52125 -2.97625 0.52125 -1.6775000000000002 0 -4.725 -0.80375 -4.725 -4.985 0 -3.685 2.7175 -4.7475000000000005 4.725 -4.7475000000000005 1.795 0 3.8024999999999998 1.3225 3.8024999999999998 3.85v1.65375h-5.81c0.165 0.6687500000000001 0.8637499999999999 2.0075000000000003 2.3375000000000004 2.0075000000000003 1.4749999999999999 0 2.37875 -0.28375 2.64625 -0.42500000000000004Zm-4.96125 -3.35375h3.3787499999999997c-0.04 -0.5825 -0.42500000000000004 -1.74875 -1.65375 -1.74875 -1.22875 0 -1.6625 1.165 -1.7249999999999999 1.74875Z" clip-rule="evenodd" stroke-width="1.25"></path>
</svg>