<svg xmlns="http://www.w3.org/2000/svg" fill="none" viewBox="0 0 30 30" id="Audacity-Logo--Streamline-Logos" height="30" width="30">
  <desc>
    Audacity Logo Streamline Icon: https://streamlinehq.com
  </desc>
  <path fill="#000000" fill-rule="evenodd" d="M6.5625 12.5a8.4375 8.4375 0 0 1 16.875 0v5.433750000000001l-1.2475 1.4849999999999999 -1.3125 -3.4975a0.9375 0.9375 0 0 0 -1.7474999999999998 -0.01875l-1.4825 3.7037500000000003 -1.74625 -6.11375a0.9375 0.9375 0 0 0 -1.8025 0l-1.74625 6.1125 -1.4825 -3.7025a0.9375 0.9375 0 0 0 -1.7474999999999998 0.01875l-1.3125 3.4975 -1.2475 -1.4849999999999999V12.5Zm0 8.3475v4.5287500000000005a0.9375 0.9375 0 0 1 -1.3875000000000002 0.8225A8.12375 8.12375 0 0 1 0.9375 19.0625a8.11875 8.11875 0 0 1 3.75375 -6.8500000000000005 10.3125 10.3125 0 0 1 20.6175 0 8.11875 8.11875 0 0 1 3.75375 6.8500000000000005 8.12375 8.12375 0 0 1 -4.2375 7.1375 0.9375 0.9375 0 0 1 -1.3875000000000002 -0.82375v-4.5287500000000005l-0.8450000000000001 1.00625a0.9375 0.9375 0 0 1 -1.595 -0.275l-1.025 -2.7337499999999997 -1.6025 4.00375a0.9375 0.9375 0 0 1 -1.77125 -0.09125L15 17.1625l-1.59875 5.595a0.9375 0.9375 0 0 1 -1.77125 0.09125l-1.6012499999999998 -4.00375 -1.025 2.7337499999999997a0.9375 0.9375 0 0 1 -1.59625 0.275l-0.8450000000000001 -1.00625Z" clip-rule="evenodd" stroke-width="1.25"></path>
</svg>