<svg xmlns="http://www.w3.org/2000/svg" fill="none" viewBox="0 0 30 30" id="Beyondcorp-Enterprise-Logo--Streamline-Logos" height="30" width="30">
  <desc>
    Beyondcorp Enterprise Logo Streamline Icon: https://streamlinehq.com
  </desc>
  <path fill="#000000" fill-rule="evenodd" d="M7.5 20a2.5 2.5 0 0 1 -2.5 -2.5V1.875c3.125 0 5 1.25 5 3.75V17.5a2.5 2.5 0 0 1 -2.5 2.5Zm15.87 3.5999999999999996A9.95375 9.95375 0 0 0 25 18.125c0 -2.02125 -0.6 -3.9025 -1.6300000000000001 -5.475a3.7437500000000004 3.7437500000000004 0 0 1 -3.85 3.3325c0.3075 0.65 0.48 1.375 0.48 2.1425 0 0.7675 -0.17250000000000001 1.4937500000000001 -0.48125 2.1425a3.745 3.745 0 0 1 3.85 3.3325ZM15 28.125a10.00375 10.00375 0 0 1 -9.70875 -7.59375A3.7325000000000004 3.7325000000000004 0 0 0 7.5 21.25c1.13625 0 2.155 -0.505 2.8425000000000002 -1.30375a5.001250000000001 5.001250000000001 0 0 0 7.75 2.1075 2.5 2.5 0 1 1 3.09875 3.9250000000000003A9.96875 9.96875 0 0 1 15 28.125Zm0 -15a4.987500000000001 4.987500000000001 0 0 0 -3.75 1.6925000000000001V8.8525a9.9725 9.9725 0 0 1 3.75 -0.7274999999999999c2.335 0 4.4875 0.8025 6.19125 2.14625a2.5 2.5 0 1 1 -3.0975 3.9250000000000003A4.9675 4.9675 0 0 0 15 13.125Z" clip-rule="evenodd" stroke-width="1.25"></path>
</svg>