<svg xmlns="http://www.w3.org/2000/svg" fill="none" viewBox="0 0 30 30" id="Button-Fast-Forward-2--Streamline-Core" height="30" width="30">
  <desc>
    Button Fast Forward 2 Streamline Icon: https://streamlinehq.com
  </desc>
  <g id="button-fast-forward-2--button-controls-fast-forward-movies-television-video-tv">
    <path id="Union" fill="#000000" fill-rule="evenodd" d="M27.857142857142858 4.787142857142857a2.142857142857143 2.142857142857143 0 0 1 2.142857142857143 2.142857142857143v16.14a2.142857142857143 2.142857142857143 0 1 1 -4.285714285714286 0V18.818571428571428l-9.070714285714285 5.985c-1.1485714285714286 0.7007142857142857 -2.7214285714285715 -0.18428571428571427 -2.7214285714285715 -1.5514285714285714l0 -0.0064285714285714285V17.412857142857142l-11.200714285714286 7.392857142857143C1.575 25.502142857142857 0 24.617142857142856 0 23.25l0 -0.0064285714285714285v-16.54285714285714a1.7635714285714283 1.7635714285714283 0 0 1 0.7499999999999999 -1.3885714285714286c0.5614285714285714 -0.40499999999999997 1.3371428571428572 -0.5078571428571428 1.9714285714285715 -0.12l11.200714285714286 7.435714285714286V6.702857142857143a1.7635714285714283 1.7635714285714283 0 0 1 0.7499999999999999 -1.3885714285714286 1.7828571428571427 1.7828571428571427 0 0 1 1.9714285714285715 -0.12L25.714285714285715 11.215714285714286v-4.285714285714286a2.142857142857143 2.142857142857143 0 0 1 2.142857142857143 -2.142857142857143Z" clip-rule="evenodd" stroke-width="2.1429"></path>
  </g>
</svg>