<?xml version="1.0" standalone="no"?>
<!DOCTYPE svg PUBLIC "-//W3C//DTD SVG 20010904//EN"
 "http://www.w3.org/TR/2001/REC-SVG-20010904/DTD/svg10.dtd">
<svg version="1.0" xmlns="http://www.w3.org/2000/svg"
 width="30.000000pt" height="30.000000pt" viewBox="0 0 30.000000 30.000000"
 preserveAspectRatio="xMidYMid meet">
<metadata>
Created by potrace 1.16, written by Peter Selinger 2001-2019
</metadata>
<g transform="translate(0.000000,30.000000) scale(0.100000,-0.100000)"
fill="#000000" stroke="none">
<path d="M56 273 c-6 -14 -9 -15 -15 -4 -6 9 -10 -1 -13 -29 -5 -54 2 -111 12
-105 5 3 12 -9 15 -27 7 -29 9 -30 21 -14 11 16 13 15 20 -19 6 -33 8 -35 18
-19 9 17 11 16 16 -11 7 -39 33 -39 40 0 5 27 7 28 16 11 10 -16 12 -14 18 19
7 34 9 35 20 19 12 -16 14 -15 21 14 3 18 10 30 15 27 11 -7 17 59 9 108 -3
23 -7 35 -8 27 -1 -12 -4 -12 -15 3 -17 22 -22 22 -30 -5 -7 -22 -8 -22 -15
-4 -7 18 -8 18 -14 2 -4 -10 -7 -27 -7 -38 0 -17 -3 -18 -15 -8 -12 10 -18 10
-30 0 -12 -10 -15 -9 -15 8 0 11 -3 28 -7 38 -6 16 -7 16 -14 -2 -7 -18 -8
-18 -15 4 -8 26 -19 28 -28 5z"/>
<path d="M2 210 c0 -14 2 -19 5 -12 2 6 2 18 0 25 -3 6 -5 1 -5 -13z"/>
<path d="M292 210 c0 -14 2 -19 5 -12 2 6 2 18 0 25 -3 6 -5 1 -5 -13z"/>
</g>
</svg>
