<svg xmlns="http://www.w3.org/2000/svg" fill="none" viewBox="0 0 30 30" id="Discord-Logo-2--Streamline-Logos" height="30" width="30">
  <desc>
    Discord Logo 2 Streamline Icon: https://streamlinehq.com
  </desc>
  <path fill="#000000" fill-rule="evenodd" d="M11.25 4.375c-2.2825 0 -4.00875 0.385 -5.8999999999999995 1.31375a0.625 0.625 0 0 0 -0.26125 0.24C3.79 8.09375 1.25 14.12 1.25 21.25a0.625 0.625 0 0 0 0.17500000000000002 0.43499999999999994c1.19 1.22625 2.2712499999999998 2.12875 3.4312500000000004 2.7662500000000003 1.16625 0.64 2.38125 0.9962500000000001 3.81875 1.1687500000000002a0.625 0.625 0 0 0 0.61125 -0.29874999999999996l0.6375 -1.065c-0.92875 -0.325 -1.8775 -0.75625 -2.4625 -1.34125a0.9375 0.9375 0 1 1 1.32625 -1.3250000000000002c0.31875 0.31875 1.0675 0.68125 2.125 1.02 0.8737499999999999 0.22875 2.395 0.515 4.0875 0.515s3.21375 -0.28625 4.0875 -0.515c1.0574999999999999 -0.33875 1.8062500000000001 -0.7025000000000001 2.125 -1.02a0.9375 0.9375 0 1 1 1.3250000000000002 1.3250000000000002c-0.58375 0.5850000000000001 -1.5325 1.0162499999999999 -2.4625 1.34125l0.63875 1.065a0.625 0.625 0 0 0 0.61125 0.3c1.4375 -0.17375000000000002 2.6525 -0.53 3.81875 -1.1700000000000002 1.1600000000000001 -0.6375 2.24125 -1.54 3.43 -2.7662500000000003A0.625 0.625 0 0 0 28.75 21.25c0 -7.13 -2.54 -13.15625 -3.83875 -15.32125a0.625 0.625 0 0 0 -0.26125 -0.24C22.75875 4.76 21.0325 4.375 18.75 4.375a0.625 0.625 0 0 0 -0.5925 0.42750000000000005L17.7375 6.0625A9 9 0 0 0 15 5.625a9 9 0 0 0 -2.7375 0.4375l-0.42000000000000004 -1.26A0.625 0.625 0 0 0 11.25 4.375Zm1.25 11.5625c0 1.2075 -0.8400000000000001 2.1875 -1.875 2.1875S8.75 17.145 8.75 15.9375 9.59 13.75 10.625 13.75s1.875 0.98 1.875 2.1875Zm6.875 2.1875c1.035 0 1.875 -0.98 1.875 -2.1875S20.41 13.75 19.375 13.75s-1.875 0.98 -1.875 2.1875 0.8400000000000001 2.1875 1.875 2.1875Z" clip-rule="evenodd" stroke-width="1.25"></path>
</svg>