<svg xmlns="http://www.w3.org/2000/svg" fill="none" viewBox="0 0 30 30" id="Fitbit-Logo--Streamline-Logos" height="30" width="30">
  <desc>
    Fitbit Logo Streamline Icon: https://streamlinehq.com
  </desc>
  <path fill="#000000" fill-rule="evenodd" d="M13.125 5.625a1.875 1.875 0 1 0 0 -3.75 1.875 1.875 0 0 0 0 3.75ZM7.5 11.25a1.875 1.875 0 1 0 0 -3.75 1.875 1.875 0 0 0 0 3.75Zm21.25 3.75a2.8125 2.8125 0 1 1 -5.625 0 2.8125 2.8125 0 0 1 5.625 0Zm-6.875 0a2.5 2.5 0 1 1 -5 0 2.5 2.5 0 0 1 5 0Zm-8.75 1.875a1.875 1.875 0 1 0 0 -3.75 1.875 1.875 0 0 0 0 3.75Zm-3.75 -1.875a1.875 1.875 0 1 1 -3.75 0 1.875 1.875 0 0 1 3.75 0Zm-6.5625 1.5625a1.5625 1.5625 0 1 0 0 -3.125 1.5625 1.5625 0 0 0 0 3.125ZM9.375 20.625a1.875 1.875 0 1 1 -3.75 0 1.875 1.875 0 0 1 3.75 0Zm5.625 0a1.875 1.875 0 1 1 -3.75 0 1.875 1.875 0 0 1 3.75 0Zm-1.875 7.5a1.875 1.875 0 1 0 0 -3.75 1.875 1.875 0 0 0 0 3.75Zm1.875 -18.75a1.875 1.875 0 1 1 -3.75 0 1.875 1.875 0 0 1 3.75 0Zm6.875 11.875a2.5 2.5 0 1 1 -5 0 2.5 2.5 0 0 1 5 0Zm-2.5 -10a2.5 2.5 0 1 0 0 -5 2.5 2.5 0 0 0 0 5Z" clip-rule="evenodd" stroke-width="1.25"></path>
</svg>