<svg xmlns="http://www.w3.org/2000/svg" fill="none" viewBox="0 0 30 30" id="Gabbr-Logo--Streamline-Logos" height="30" width="30">
  <desc>
    Gabbr Logo Streamline Icon: https://streamlinehq.com
  </desc>
  <path fill="#000000" fill-rule="evenodd" d="M16.25 1.25C9.346250000000001 1.25 3.75 6.84625 3.75 13.75s5.59625 12.5 12.5 12.5a12.4875 12.4875 0 0 0 4.0024999999999995 -0.655l5.45875 3.0112499999999995 -0.47125 -6.171250000000001A12.46125 12.46125 0 0 0 28.75 13.75c0 -6.90375 -5.59625 -12.5 -12.5 -12.5Zm3.85 6.1475 1.3225 -1.375 -1.35 -1.3 -1.34 1.3912499999999999a5.24 5.24 0 0 0 -2.7950000000000004 -0.80125c-2.6900000000000004 0 -5 2.0300000000000002 -5 4.6875 0 1.4975 0.7337499999999999 2.79625 1.8562500000000002 3.64375 -0.7875 0.41500000000000004 -1.6025 1.1300000000000001 -1.6025 2.3400000000000003 0 0.63375 0.24625000000000002 1.1875 0.75 1.555 0.44125 0.3225 0.9812500000000001 0.42875 1.44 0.4675 0.7037499999999999 0.06 1.59375 -0.02125 2.4137500000000003 -0.09625 0.23125 -0.02125 0.45625 -0.0425 0.67 -0.05875 1.08375 -0.085 1.9525000000000001 -0.08750000000000001 2.535 0.125 0.2625 0.09625 0.41625 0.21875 0.515 0.36124999999999996 0.1 0.14375000000000002 0.2 0.39625 0.2 0.8525 0 0.76875 -0.26625 1.24625 -0.6475 1.5675 -0.41250000000000003 0.35000000000000003 -1.045 0.5874999999999999 -1.855 0.67 -1.6375000000000002 0.17 -3.61875 -0.33 -4.827500000000001 -1.1125l-1.0187499999999998 1.575c1.575 1.0187499999999998 3.9837499999999997 1.615 6.0375 1.40375 1.0374999999999999 -0.10749999999999998 2.0774999999999997 -0.42999999999999994 2.875 -1.105 0.8300000000000001 -0.7025000000000001 1.3125 -1.71625 1.3125 -3 0 -0.735 -0.16625 -1.3850000000000002 -0.5325 -1.9162499999999998 -0.36874999999999997 -0.53375 -0.8787499999999999 -0.8624999999999999 -1.41625 -1.0574999999999999 -1.0162499999999999 -0.37 -2.2775 -0.315 -3.325 -0.23249999999999998 -0.28875 0.0225 -0.56375 0.0475 -0.8250000000000001 0.07 -0.78 0.07125000000000001 -1.43 0.13 -1.9525000000000001 0.08625000000000001 -1.07375 -0.09125 0.11249999999999999 -0.8624999999999999 0.5775 -1.03125 0.60375 -0.21749999999999997 1.22 -0.3125 1.65875 -0.38125l0.24875000000000003 -0.04c2.65125 -0.0425 4.9125000000000005 -2.0575 4.9125000000000005 -4.68625 0 -0.9750000000000001 -0.31125 -1.8662500000000002 -0.8375 -2.6025Zm-4.1625 -0.21000000000000002c-1.7974999999999999 0 -3.125 1.3287499999999999 -3.125 2.8125s1.3275000000000001 2.8125 3.125 2.8125 3.125 -1.3287499999999999 3.125 -2.8125 -1.3275000000000001 -2.8125 -3.125 -2.8125ZM8.75 27.349999999999998c0.7174999999999999 0 1.4124999999999999 -0.1 2.07 -0.28625a14.39875 14.39875 0 0 1 -8.69375 -10.625A7.34375 7.34375 0 0 0 1.25 19.92625a7.3625 7.3625 0 0 0 2.10625 5.1587499999999995L3.07375 28.75l3.2750000000000004 -1.7874999999999999A7.5875 7.5875 0 0 0 8.75 27.349999999999998Z" clip-rule="evenodd" stroke-width="1.25"></path>
</svg>