<svg xmlns="http://www.w3.org/2000/svg" fill="none" viewBox="0 0 30 30" id="Google-Buzz-Logo--Streamline-Logos" height="30" width="30">
  <desc>
    Google Buzz Logo Streamline Icon: https://streamlinehq.com
  </desc>
  <path fill="#000000" fill-rule="evenodd" d="M23.80875 21.90875C21.425 23.44875 18.35125 24.375 15 24.375c-0.95 0 -1.8775 -0.075 -2.7750000000000004 -0.21625 -3.805 2.6937499999999996 -7.24375 2.30375 -8.754999999999999 1.5474999999999999 1.5125 -1.1949999999999998 2.415 -2.8775 2.415 -4a32.5975 32.5975 0 0 1 -0.02125 -0.01625l9.43 -8.48 8.515 8.69875Zm1.51125 -1.1375 -8.63125 -8.815 7.095000000000001 -6.3812500000000005C26.817500000000003 7.5249999999999995 28.75 10.462499999999999 28.75 13.75c0 2.69125 -1.295 5.15 -3.43 7.02125Zm-3.2800000000000002 -16.15L10.916250000000002 14.625 3.9050000000000002 7.4725C6.407500000000001 4.836250000000001 10.445 3.125 15 3.125c2.5725 0 4.98125 0.54625 7.039999999999999 1.49625ZM2.72875 8.95125C1.78375 10.3925 1.25 12.0225 1.25 13.75c0 2.56375 1.1749999999999998 4.915 3.1325 6.75l5.1375 -4.62L2.7300000000000004 8.95Z" clip-rule="evenodd" stroke-width="1.25"></path>
</svg>