<svg xmlns="http://www.w3.org/2000/svg" fill="none" viewBox="0 0 30 30" id="Google-Hangouts-Chat-Logo--Streamline-Logos" height="30" width="30">
  <desc>
    Google Hangouts Chat Logo Streamline Icon: https://streamlinehq.com
  </desc>
  <path fill="#000000" fill-rule="evenodd" d="M15 24.82125a11.78625 11.78625 0 1 1 11.78625 -11.785c0 8.379999999999999 -7.8575 13.9675 -11.78625 15.71375v-3.92875ZM15 7.8125a5.3125 5.3125 0 1 0 1.78375 10.318750000000001l0.62875 1.76625a7.1875 7.1875 0 1 1 4.7749999999999995 -6.7725v1.25a2.8125 2.8125 0 0 1 -4.9575000000000005 1.81875 3.75 3.75 0 1 1 -0.6675 -6.005000000000001V9.6875h1.875v4.6875a0.9375 0.9375 0 0 0 1.875 0v-1.25A5.3125 5.3125 0 0 0 15 7.8125Zm-0.3125 3.75a1.875 1.875 0 1 1 0 3.75 1.875 1.875 0 0 1 0 -3.75Z" clip-rule="evenodd" stroke-width="1.25"></path>
</svg>