<svg xmlns="http://www.w3.org/2000/svg" fill="none" viewBox="0 0 30 30" id="Google-Logo--Streamline-Logos" height="30" width="30">
  <desc>
    Google Logo Streamline Icon: https://streamlinehq.com
  </desc>
  <path fill="#000000" fill-rule="evenodd" d="M15 1.25C10.09625 1.25 5.805 3.9375 3.4587499999999998 7.95375L7.95375 11.55A8.125 8.125 0 0 1 20.503749999999997 8.75L24.375 4.64125C22.13375 2.52875 18.98875 1.25 15 1.25Zm0 27.5c3.55375 0 6.4375 -1.0150000000000001 8.608749999999999 -2.7300000000000004l-4.7275 -3.69375 0.0325 -0.04125a8.125 8.125 0 0 1 -10.927500000000002 -3.77L3.43 22C5.772500000000001 26.041249999999998 10.07625 28.75 15 28.75Zm9.9975 -4.025c2.2675 -2.4875 3.4399999999999995 -5.92625 3.4399999999999995 -9.725 0 -0.85375 -0.05875 -1.68875 -0.1775 -2.5H15v5h8.045a8.13625 8.13625 0 0 1 -2.5187500000000003 3.7312499999999997l4.4712499999999995 3.4949999999999997ZM7.1875 15c0 0.5625 0.057499999999999996 1.11 0.165 1.63875l-4.7625 3.64375A13.985000000000001 13.985000000000001 0 0 1 1.5625 15c0 -1.8875 0.3725 -3.6875 1.045 -5.32625l4.72625 3.78125c-0.09625 0.5 -0.14625000000000002 1.0162499999999999 -0.14625000000000002 1.545Z" clip-rule="evenodd" stroke-width="1.25"></path>
</svg>