<svg xmlns="http://www.w3.org/2000/svg" fill="none" viewBox="0 0 30 30" id="Google-Meet-Logo--Streamline-Logos" height="30" width="30">
  <desc>
    Google Meet Logo Streamline Icon: https://streamlinehq.com
  </desc>
  <path fill="#000000" fill-rule="evenodd" d="M7.8125 12.1875v5.625H1.25v-5.625h6.5625ZM1.25 24.375v-4.6875h6.5625V26.25H3.125A1.875 1.875 0 0 1 1.25 24.375ZM21.25 26.25H9.6875v-6.5625h7.1875v-2.305l6.25 5.2875000000000005V24.375A1.875 1.875 0 0 1 21.25 26.25Zm-4.375 -13.63125V10.3125H9.6875V3.75H21.25a1.875 1.875 0 0 1 1.875 1.875v1.705l-6.25 5.2875000000000005ZM1.30375 10.3125 7.8125 3.80375V10.3125H1.30375ZM25 21.98625V8.0125l1.705 -1.40375A1.25 1.25 0 0 1 28.75 7.574999999999999v14.850000000000001a1.25 1.25 0 0 1 -2.045 0.9650000000000001L25 21.9875Zm-1.875 -12.2L16.9625 15l6.1625 5.21375V9.7875Z" clip-rule="evenodd" stroke-width="1.25"></path>
</svg>