<svg xmlns="http://www.w3.org/2000/svg" fill="none" viewBox="0 0 30 30" id="Adobe-Indesign-Logo--Streamline-Logos" height="30" width="30">
  <desc>
    Adobe Indesign Logo Streamline Icon: https://streamlinehq.com
  </desc>
  <path fill="#000000" fill-rule="evenodd" d="M5.8125 0.9375a4.875 4.875 0 0 0 -4.875 4.875v18.375a4.875 4.875 0 0 0 4.875 4.875h18.375a4.875 4.875 0 0 0 4.875 -4.875V5.8125a4.875 4.875 0 0 0 -4.875 -4.875H5.8125Zm-3 4.875a3 3 0 0 1 3 -3h18.375a3 3 0 0 1 3 3v18.375a3 3 0 0 1 -3 3H5.8125a3 3 0 0 1 -3 -3V5.8125ZM18.75 8.125h2.5v12.237499999999999c-0.7062499999999999 0.245 -2.4425 0.7374999999999999 -3.735 0.7374999999999999 -1.615 0 -4.4775 -0.83125 -4.4775 -4.7075 0 -3.3587499999999997 2.79625 -4.625 5.7125 -4.625V8.125Zm0 5.779999999999999v5c-1.0374999999999999 0 -3.125 -0.26625 -3.125 -2.5s2.0875 -2.5 3.125 -2.5ZM11.25 9.375H8.75v11.25h2.5v-11.25Z" clip-rule="evenodd" stroke-width="1.25"></path>
</svg>