<svg xmlns="http://www.w3.org/2000/svg" fill="none" viewBox="0 0 30 30" id="Incognito-Mode--Streamline-Core" height="30" width="30">
  <desc>
    Incognito Mode Streamline Icon: https://streamlinehq.com
  </desc>
  <g id="incognito-mode--internet-safe-mode-browser">
    <path id="Union" fill="#000000" fill-rule="evenodd" d="M5.452478571428571 2.609292857142857C5.7034714285714285 1.1035842857142857 7.006221428571428 0 8.532707142857143 0h12.934864285714285c1.526357142857143 0 2.829214285714286 1.1036485714285715 3.080142857142857 2.6094214285714283l1.527 9.162749999999999h2.258785714285714c0.8875714285714286 0 1.6071428571428572 0.7195499999999999 1.6071428571428572 1.6071428571428572s-0.7195714285714285 1.6071428571428572 -1.6071428571428572 1.6071428571428572H1.6665214285714285c-0.8876014285714287 0 -1.6071428571428572 -0.7195499999999999 -1.6071428571428572 -1.6071428571428572s0.7195414285714284 -1.6071428571428572 1.6071428571428572 -1.6071428571428572h2.258635714285714l1.5273214285714285 -9.162878571428571ZM18.75 23.35607142857143c0 -1.7757857142857143 1.4395499999999999 -3.2154000000000003 3.2153571428571426 -3.2154000000000003 1.7757857142857143 0 3.2153571428571426 1.4396142857142855 3.2153571428571426 3.2154000000000003 0 1.7757857142857143 -1.4395714285714285 3.2153571428571426 -3.2153571428571426 3.2153571428571426 -1.7758071428571427 0 -3.2153571428571426 -1.4395714285714285 -3.2153571428571426 -3.2153571428571426Zm3.2153571428571426 -6.429685714285713c-2.277921428571428 0 -4.279157142857143 1.1845714285714284 -5.4213 2.9712857142857145 -0.4627928571428571 -0.19283571428571428 -0.9816214285714285 -0.29290714285714287 -1.5471428571428572 -0.29290714285714287 -0.5641285714285714 0 -1.0817999999999999 0.09957857142857142 -1.5437142857142858 0.29149285714285716 -1.1423357142857142 -1.7857714285714286 -3.142992857142857 -2.9695714285714283 -5.420164285714286 -2.9695714285714283 -3.5509500000000003 0 -6.429555000000001 2.8786071428571427 -6.429555000000001 6.4296 0 3.5509285714285714 2.878605 6.429428571428571 6.429555000000001 6.429428571428571 3.5509500000000003 0 6.429557142857142 -2.8785 6.429557142857142 -6.429428571428571l0 -0.0045c0.0018214285714285713 -0.017357142857142856 0.004692857142857143 -0.039857142857142855 0.00915 -0.06664285714285714 0.015942857142857144 -0.09578571428571428 0.04487142857142857 -0.19885714285714284 0.0867 -0.2824285714285714 0.03867857142857143 -0.07735714285714286 0.0714642857142857 -0.10585714285714286 0.09051428571428571 -0.1185l0.00045 -0.0004285714285714286c0.011078571428571429 -0.007285714285714285 0.09653571428571428 -0.06471428571428571 0.34750714285714285 -0.06471428571428571 0.25099285714285713 0 0.3364285714285714 0.057428571428571426 0.34750714285714285 0.06471428571428571l0.00045 0.0004285714285714286c0.01907142857142857 0.012642857142857141 0.051835714285714284 0.04114285714285714 0.09053571428571429 0.1185 0.041807142857142855 0.08357142857142857 0.07073571428571428 0.18664285714285714 0.0867 0.2824285714285714 0.00735 0.04414285714285714 0.010392857142857143 0.07735714285714286 0.011528571428571428 0.09321428571428571l0.0003214285714285714 0.004928571428571428c0.0003857142857142857 0.02207142857142857 0.0011785714285714286 0.04371428571428572 0.0024214285714285713 0.06535714285714285 0.04958571428571429 3.508285714285714 2.908928571428571 6.337071428571429 6.428978571428571 6.337071428571429 3.5509285714285714 0 6.429642857142857 -2.8787142857142856 6.429642857142857 -6.429642857142857 0 -3.551035714285714 -2.8787142857142856 -6.429685714285713 -6.429642857142857 -6.429685714285713ZM8.033035714285713 20.14097142857143c1.7488071428571428 0 3.1715142857142857 1.3962428571428571 3.2142857142857144 3.134742857142857l-0.00008571428571428571 0.0025714285714285713 -0.001157142857142857 0.04564285714285714 -0.0002142857142857143 0.017785714285714287 -0.00004285714285714286 0.0075 0 0.0036428571428571426 0 0.0015 0.0024857142857142855 0.0002142857142857143v0.0015h-0.0024857142857142855c0 0.024642857142857143 0.0005571428571428571 0.04928571428571429 0.0016714285714285713 0.07392857142857143 -0.03917142857142857 1.7417142857142855 -1.4633357142857142 3.1414285714285715 -3.214457142857143 3.1414285714285715 -1.775742857142857 0 -3.215271428571428 -1.4393571428571428 -3.215271428571428 -3.215142857142857s1.4395285714285715 -3.215314285714286 3.215271428571428 -3.215314285714286Z" clip-rule="evenodd" stroke-width="2.1429"></path>
  </g>
</svg>