<svg xmlns="http://www.w3.org/2000/svg" fill="none" viewBox="0 0 30 30" id="Iq-Logo-2--Streamline-Logos" height="30" width="30">
  <desc>
    Iq Logo 2 Streamline Icon: https://streamlinehq.com
  </desc>
  <path fill="#000000" fill-rule="evenodd" d="M13.125 1.25c-1.42375 0 -2.4625 0.53875 -3.1312499999999996 1.3800000000000001 -0.65125 0.8187500000000001 -0.9037499999999999 1.8625 -0.9037499999999999 2.8187499999999996 0 0.53 0.1525 1.1837499999999999 0.385 1.8375 0.2375 0.665 0.5725 1.37625 0.9750000000000001 2.0324999999999998 0.4 0.6525000000000001 0.88125 1.2725 1.41625 1.7374999999999998 0.5275 0.45875 1.1712500000000001 0.8187500000000001 1.8837499999999998 0.8187500000000001 0.7625 0 1.37 -0.44999999999999996 1.8175 -0.98 0.4525 -0.5375 0.8150000000000001 -1.24125 1.0975 -1.9575 0.55875 -1.4212500000000001 0.86625 -3.07125 0.8350000000000001 -3.96a3.72125 3.72125 0 0 0 -1.1525 -2.5774999999999997c-0.75 -0.7124999999999999 -1.8375 -1.1500000000000001 -3.2224999999999997 -1.1500000000000001Zm14.967500000000001 8.5525c-0.4 -1.2 -1.3025 -2.34875 -2.5374999999999996 -2.94625 -1.2675 -0.6125 -2.8299999999999996 -0.61625 -4.4275 0.40375 -1.1300000000000001 0.72125 -2.34125 1.9100000000000001 -3.1674999999999995 3.13875 -0.41250000000000003 0.615 -0.75 1.2675 -0.9199999999999999 1.9 -0.16875 0.63 -0.1925 1.31 0.12375 1.90625 0.32625000000000004 0.61625 0.99375 0.9925 1.665 1.2275 0.6950000000000001 0.24375000000000002 1.52875 0.38375 2.3649999999999998 0.44375 1.6500000000000001 0.1175 3.4949999999999997 -0.065 4.535 -0.52625 2.09625 -0.9325 3.1725 -3.1225000000000005 2.36375 -5.547499999999999Zm-5.80375 9.38625c0.55625 0.3925 1.0574999999999999 0.84375 1.36875 1.3087499999999999 0.6074999999999999 0.9125 0.94875 1.9500000000000002 0.83375 2.9749999999999996 -0.11875 1.0474999999999999 -0.7025000000000001 1.995 -1.7737500000000002 2.7087499999999998 -1.025 0.6837500000000001 -2.0825 1.00625 -3.12875 0.8787499999999999 -1.0474999999999999 -0.1275 -1.98875 -0.6950000000000001 -2.8025 -1.6075 -0.3825 -0.42750000000000005 -0.6675 -1.0675 -0.8699999999999999 -1.7337500000000001a10.6125 10.6125 0 0 1 -0.41125 -2.215c-0.05875 -0.7525 -0.0375 -1.51625 0.09875 -2.1625 0.12875 -0.6125 0.39625 -1.28 0.97 -1.61625 0.525 -0.30625 1.2 -0.3125 1.8125 -0.21749999999999997 0.64 0.09875 1.3387499999999999 0.325 2.0075000000000003 0.6174999999999999a10.9375 10.9375 0 0 1 1.895 1.0625Zm-10.22 -1.6025c-0.5125 -0.30374999999999996 -1.15625 -0.24125000000000002 -1.6975000000000002 -0.10375000000000001 -0.5750000000000001 0.14625000000000002 -1.20875 0.42125 -1.8275 0.7537499999999999 -1.2375 0.6625000000000001 -2.5225 1.61 -3.32125 2.40875 -1.4775 1.4775 -1.7525 2.9825 -1.41 4.26875 0.32625000000000004 1.2275 1.1875 2.15875 1.8162500000000001 2.6350000000000002 1.9425000000000001 1.4749999999999999 4.9399999999999995 1.20875 6.61625 -0.9625 0.475 -0.61375 0.77 -1.4349999999999998 0.9425 -2.28125 0.17500000000000002 -0.8550000000000001 0.23625000000000002 -1.7874999999999999 0.20875000000000002 -2.6675 -0.027499999999999997 -0.8775 -0.14375000000000002 -1.7274999999999998 -0.3375 -2.4175a4.49 4.49 0 0 0 -0.365 -0.9375c-0.14375000000000002 -0.26125 -0.34375 -0.5287499999999999 -0.625 -0.69625ZM3.92 10.017499999999998c0.83625 -0.44499999999999995 1.87 -0.47750000000000004 2.9299999999999997 -0.12375 0.86625 0.28875 1.8912499999999999 0.9825 2.6624999999999996 1.7537500000000001 0.3875 0.39 0.7374999999999999 0.82375 0.9750000000000001 1.2675 0.23125 0.4325 0.395 0.9525 0.28125 1.4725 -0.21000000000000002 0.9675 -1.07 1.47875 -1.96125 1.75 -0.915 0.27875 -2.07375 0.375 -3.2637500000000004 0.375 -1.4575 0 -2.3874999999999997 -0.625 -2.86625 -1.5412500000000002 -0.44875 -0.8562500000000001 -0.45499999999999996 -1.8725 -0.33 -2.63125 0.17250000000000001 -1.0474999999999999 0.7274999999999999 -1.8725 1.5725 -2.3225000000000002Z" clip-rule="evenodd" stroke-width="1.25"></path>
</svg>