<svg xmlns="http://www.w3.org/2000/svg" fill="none" viewBox="0 0 30 30" id="Lastfm-Logo--Streamline-Logos" height="30" width="30">
  <desc>
    Lastfm Logo Streamline Icon: https://streamlinehq.com
  </desc>
  <path fill="#000000" fill-rule="evenodd" d="M3.14875 9.85C4.525 8.375 6.6025 7.5 9.375 7.5c1.1875 0 2.20375 0.22749999999999998 3.0675000000000003 0.68 0.8674999999999999 0.45499999999999996 1.51 1.1 1.9975 1.8275 0.8350000000000001 1.245 1.27 2.8375 1.645 4.21375l0.12125 0.44499999999999995c0.43999999999999995 1.58625 0.8687499999999999 2.8875 1.6625 3.8225C18.583750000000002 19.335 19.7125 20 21.875 20c0.54125 0 1.7937500000000002 -0.0975 2.8625 -0.47750000000000004 1.14625 -0.40625 1.5125 -0.8975 1.5125 -1.3975000000000002 0 -0.27125 -0.09375 -0.515 -0.6975 -0.83125 -0.63375 -0.3325 -1.50625 -0.5625 -2.59125 -0.8462500000000001l-0.15375 -0.04125c-1.06 -0.27875 -2.335 -0.62125 -3.3375 -1.22625C18.39125 14.5275 17.5 13.485 17.5 11.875c0 -1.105 0.6575 -2.2075 1.59 -2.98875C20.0625 8.07 21.4425 7.5 23.125 7.5c3.5349999999999997 0 5.231249999999999 2.02 5.5874999999999995 3.44625l-2.425 0.6074999999999999C26.2275 11.3125 25.590000000000003 10 23.125 10c-1.10375 0 -1.9125 0.3675 -2.42875 0.80125 -0.56 0.46875 -0.69625 0.92875 -0.69625 1.07375 0 0.49625 0.20375000000000001 0.82625 0.7625 1.165 0.64 0.3875 1.5525 0.6525000000000001 2.68125 0.94875l0.25 0.065c0.98 0.25625 2.12 0.555 3.01875 1.025 1.0374999999999999 0.54375 2.0374999999999996 1.4749999999999999 2.0374999999999996 3.0462499999999997 0 2.2025 -1.82125 3.27375 -3.175 3.75375 -1.43125 0.5075000000000001 -2.99125 0.62125 -3.7 0.62125 -2.7700000000000005 0 -4.6450000000000005 -0.8975 -5.915 -2.395 -1.1937499999999999 -1.40875 -1.73625 -3.2325 -2.1625 -4.77125l-0.10749999999999998 -0.39125c-0.40625 -1.4749999999999999 -0.7324999999999999 -2.6587499999999995 -1.32625 -3.54375a2.925 2.925 0 0 0 -1.08125 -1.0050000000000001C10.8425 10.16375 10.237499999999999 10 9.375 10c-2.2275 0 -3.5875000000000004 0.6875 -4.39875 1.5562500000000001C4.1475 12.44375 3.75 13.674999999999999 3.75 15c0 1.15625 0.59 2.4162500000000002 1.5875 3.4125C6.33375 19.408749999999998 7.59375 20 8.75 20c1.11 0 1.9575 -0.185 2.54875 -0.39625a4.1499999999999995 4.1499999999999995 0 0 0 0.6875 -0.3125 2.10625 2.10625 0 0 0 0.255 -0.17500000000000002l1.7674999999999998 1.7674999999999998C13.3 21.595 11.487499999999999 22.5 8.75 22.5c-1.96875 0 -3.83375 -0.9712500000000001 -5.1812499999999995 -2.31875C2.2225 18.833750000000002 1.25 16.96875 1.25 15c0 -1.7999999999999998 0.54 -3.695 1.89875 -5.15Z" clip-rule="evenodd" stroke-width="1.25"></path>
</svg>