<svg xmlns="http://www.w3.org/2000/svg" fill="none" viewBox="0 0 30 30" id="Loom-Logo--Streamline-Logos" height="30" width="30">
  <desc>
    Loom Logo Streamline Icon: https://streamlinehq.com
  </desc>
  <path fill="#000000" fill-rule="evenodd" d="M16.25 1.25h-2.5v9.084999999999999L9.2075 2.4675l-2.165 1.25 4.5424999999999995 7.8675 -7.8675 -4.5424999999999995 -1.25 2.165L10.335 13.75H1.25v2.5h9.084999999999999l-7.8675 4.5424999999999995 1.25 2.165 7.8675 -4.5424999999999995 -4.5424999999999995 7.8675 2.165 1.25L13.75 19.665V28.75h2.5v-9.084999999999999l4.5424999999999995 7.8675 2.165 -1.25 -4.5424999999999995 -7.8675 7.8675 4.5424999999999995 1.25 -2.165L19.665 16.25H28.75v-2.5h-9.084999999999999l7.8675 -4.5424999999999995 -1.25 -2.165 -7.8675 4.5424999999999995 4.5424999999999995 -7.8675 -2.165 -1.25L16.25 10.335V1.25Zm-1.25 17.5a3.75 3.75 0 1 0 0 -7.5 3.75 3.75 0 0 0 0 7.5Z" clip-rule="evenodd" stroke-width="1.25"></path>
</svg>