<svg xmlns="http://www.w3.org/2000/svg" fill="none" viewBox="0 0 30 30" id="Messages-Logo--Streamline-Logos" height="30" width="30">
  <desc>
    Messages Logo Streamline Icon: https://streamlinehq.com
  </desc>
  <path fill="#000000" fill-rule="evenodd" d="M1.3312499999999998 5.317499999999999A0.625 0.625 0 0 1 1.875 5h22.5A4.375 4.375 0 0 1 28.75 9.375v11.25a4.375 4.375 0 0 1 -4.375 4.375h-15A4.375 4.375 0 0 1 5 20.625V12.0475l-3.66125 -6.1a0.625 0.625 0 0 1 -0.0075 -0.63ZM9.375 9.0625a0.9375 0.9375 0 0 0 0 1.875h15a0.9375 0.9375 0 0 0 0 -1.875h-15Zm0 4.375a0.9375 0.9375 0 0 0 0 1.875h15a0.9375 0.9375 0 0 0 0 -1.875h-15ZM8.4375 18.75a0.9375 0.9375 0 0 1 0.9375 -0.9375H20a0.9375 0.9375 0 0 1 0 1.875H9.375a0.9375 0.9375 0 0 1 -0.9375 -0.9375Z" clip-rule="evenodd" stroke-width="1.25"></path>
</svg>