<svg xmlns="http://www.w3.org/2000/svg" fill="none" viewBox="0 0 30 30" id="Music-Note-Off-2--Streamline-Core" height="30" width="30">
  <desc>
    Music Note Off 2 Streamline Icon: https://streamlinehq.com
  </desc>
  <g id="music-note-off-2--music-audio-note-off-mute-entertainment">
    <path id="Union" fill="#000000" fill-rule="evenodd" d="M0.47072142857142857 2.7435642857142857c-0.6276280714285715 -0.6276278571428572 -0.6276280714285715 -1.6452149999999999 0 -2.272842857142857 0.6276278571428572 -0.6276285 1.6452149999999999 -0.6276285 2.272842857142857 0l5.610428571428571 5.610428571428571c0.3401142857142857 -0.4003714285714286 0.7939071428571428 -0.6894642857142856 1.3025142857142857 -0.8280000000000001L25.892571428571426 0.7477178571428571c0.38528571428571423 -0.10377857142857143 0.7894285714285714 -0.11772857142857143 1.181142857142857 -0.040774285714285714 0.3915 0.07695214285714286 0.7602857142857142 0.24275785714285714 1.0778571428571428 0.48464785714285713 0.3173571428571429 0.24188357142857142 0.5751428571428572 0.5534035714285714 0.7532142857142856 0.9105771428571428 0.17828571428571427 0.35716714285714285 0.27192857142857146 0.7504671428571428 0.2742857142857143 1.1495742857142857l0 0.008935714285714286 0 15.38745c0.008571428571428572 0.12295714285714285 0.012857142857142857 0.24707142857142855 0.012857142857142857 0.37221428571428566 0 2.1356142857142855 -1.2683571428571427 3.9748714285714284 -3.093 4.805657142857143l3.430285714285714 3.4305c0.6276428571428571 0.6276428571428571 0.6276428571428571 1.6450714285714285 0 2.2727142857142857 -0.6276428571428571 0.6276428571428571 -1.6450714285714285 0.6276428571428571 -2.2727142857142857 0L0.47072142857142857 2.7435642857142857Zm18.63792857142857 14.092242857142857c0.8307642857142856 -1.8246214285714284 2.6700642857142856 -3.0930857142857144 4.805635714285715 -3.0930857142857144 0.7373571428571428 0 1.4393571428571428 0.15117857142857144 2.076642857142857 0.4242214285714286V8.899178571428571L14.4246 12.151757142857143l4.68405 4.68405ZM7.733592857142857 19.415078571428573V13.377642857142856L10.921714285714286 16.565785714285713v7.328357142857143c0.008678571428571428 0.12364285714285714 0.013092857142857142 0.24857142857142858 0.013092857142857142 0.37435714285714283 0 2.9147142857142856 -2.3628857142857145 5.277642857142856 -5.277621428571428 5.277642857142856 -2.914757142857143 0 -5.277634285714286 -2.3629285714285713 -5.277634285714286 -5.277642857142856 0 -2.9147142857142856 2.3628771428571427 -5.277578571428571 5.277634285714286 -5.277578571428571 0.7372071428571428 0 1.4390999999999998 0.15115714285714285 2.0764071428571427 0.42415714285714284Z" clip-rule="evenodd" stroke-width="2.1429"></path>
  </g>
</svg>