M48
; DRILL file {KiCad 9.0.0} date 2025-05-31T21:27:46+0200
; FORMAT={-:-/ absolute / inch / decimal}
; #@! TF.CreationDate,2025-05-31T21:27:46+02:00
; #@! TF.GenerationSoftware,Kicad,Pcbnew,9.0.0
; #@! TF.FileFunction,Plated,1,4,PTH
FMAT,2
INCH
; #@! TA.AperFunction,Plated,PTH,ViaDrill
T1C0.0118
; #@! TA.AperFunction,Plated,PTH,ComponentDrill
T2C0.0236
; #@! TA.AperFunction,Plated,PTH,ComponentDrill
T3C0.0256
; #@! TA.AperFunction,Plated,PTH,ComponentDrill
T4C0.0354
; #@! TA.AperFunction,Plated,PTH,ComponentDrill
T5C0.0394
; #@! TA.AperFunction,Plated,PTH,ComponentDrill
T6C0.0453
; #@! TA.AperFunction,Plated,PTH,ComponentDrill
T7C0.0472
; #@! TA.AperFunction,Plated,PTH,ComponentDrill
T8C0.0551
; #@! TA.AperFunction,Plated,PTH,ComponentDrill
T9C0.0748
%
G90
G05
T1
X1.7973Y-1.3844
X1.7973Y-1.5813
X1.7973Y-1.7781
X1.7973Y-1.975
X1.7973Y-2.1718
X1.7973Y-2.3687
X1.7973Y-2.5655
X1.7973Y-2.7624
X1.7973Y-2.9592
X1.7973Y-3.1561
X1.7973Y-3.3529
X1.7973Y-3.5498
X1.7973Y-3.7466
X1.7973Y-3.9435
X1.7973Y-4.1403
X1.7973Y-4.3372
X1.7973Y-5.5183
X1.7973Y-5.7151
X1.7973Y-5.912
X1.7973Y-6.1088
X1.7973Y-6.2694
X1.8823Y-4.8294
X1.9941Y-1.3844
X1.9941Y-6.2694
X2.0616Y-1.5813
X2.0616Y-1.7781
X2.0616Y-1.975
X2.0616Y-2.1718
X2.0616Y-2.3687
X2.0616Y-2.5655
X2.0616Y-2.7624
X2.0616Y-2.9592
X2.0616Y-3.1561
X2.0616Y-3.3529
X2.0616Y-3.5498
X2.0616Y-3.7466
X2.0616Y-3.9435
X2.0616Y-4.1403
X2.0616Y-4.3372
X2.0616Y-4.534
X2.0616Y-4.7309
X2.0616Y-5.5183
X2.0616Y-5.7151
X2.0616Y-5.912
X2.0616Y-6.1088
X2.0628Y-5.0194
X2.0823Y-5.2794
X2.191Y-1.3844
X2.191Y-6.2694
X2.2323Y-4.9494
X2.2323Y-5.0444
X2.2584Y-1.5813
X2.2584Y-2.1718
X2.2584Y-2.3687
X2.2584Y-2.5655
X2.2584Y-2.7624
X2.2584Y-2.9592
X2.2584Y-3.1561
X2.2584Y-3.7466
X2.2584Y-3.9435
X2.2584Y-4.1403
X2.2584Y-4.3372
X2.2584Y-4.534
X2.2584Y-4.7309
X2.2584Y-5.1246
X2.2584Y-5.5183
X2.2584Y-5.7151
X2.2584Y-5.912
X2.3573Y-3.5794
X2.3878Y-1.3844
X2.3878Y-6.2694
X2.4553Y-1.5813
X2.4553Y-2.1718
X2.4553Y-2.3687
X2.4553Y-2.5655
X2.4553Y-2.7624
X2.4553Y-2.9592
X2.4553Y-3.1561
X2.4553Y-3.7466
X2.4553Y-3.9435
X2.4553Y-4.1403
X2.4553Y-4.3372
X2.4553Y-4.534
X2.4553Y-4.7309
X2.4553Y-5.1246
X2.4553Y-5.3214
X2.4553Y-5.5183
X2.4553Y-5.7151
X2.4553Y-5.912
X2.534Y-1.3844
X2.5423Y-1.8844
X2.5847Y-6.2694
X2.6423Y-5.8944
X2.6521Y-2.3687
X2.6521Y-2.5655
X2.6521Y-2.7624
X2.6521Y-2.9592
X2.6521Y-3.1561
X2.6521Y-3.3529
X2.6521Y-3.7466
X2.6521Y-3.9435
X2.6521Y-4.1403
X2.6521Y-4.3372
X2.6521Y-4.534
X2.6521Y-4.7309
X2.6521Y-5.1246
X2.6521Y-5.3214
X2.6521Y-5.5183
X2.6915Y-1.3844
X2.6915Y-2.0931
X2.7223Y-1.7944
X2.7473Y-1.6244
X2.7573Y-4.9444
X2.7573Y-5.0594
X2.7573Y-5.8344
X2.7702Y-5.9907
X2.7743Y-1.794
X2.7793Y-6.1938
X2.7815Y-1.3844
X2.7873Y-6.2544
X2.7923Y-1.4544
X2.7973Y-6.6194
X2.8078Y-1.794
X2.8423Y-2.5544
X2.849Y-2.7624
X2.849Y-2.9592
X2.849Y-3.1561
X2.849Y-3.3529
X2.849Y-3.7466
X2.849Y-3.9435
X2.849Y-4.1403
X2.849Y-4.3372
X2.849Y-4.534
X2.849Y-4.7309
X2.849Y-5.5183
X2.849Y-5.7151
X2.8883Y-1.3844
X2.8883Y-2.0931
X2.9023Y-1.7944
X2.9273Y-1.6544
X2.9323Y-6.1944
X2.9373Y-6.2544
X2.9473Y-5.8944
X2.9671Y-6.2663
X3.0173Y-2.3994
X3.0223Y-5.3144
X3.0458Y-1.3844
X3.0458Y-1.5813
X3.0458Y-2.1718
X3.0458Y-2.7624
X3.0458Y-2.9592
X3.0458Y-3.1561
X3.0458Y-3.7466
X3.0458Y-3.9435
X3.0458Y-3.9435
X3.0458Y-4.1403
X3.0458Y-4.3372
X3.0458Y-4.534
X3.0458Y-4.7309
X3.0458Y-5.5183
X3.0458Y-5.7151
X3.1423Y-3.6294
X3.1752Y-1.3844
X3.2273Y-3.5772
X3.2427Y-1.5813
X3.2427Y-2.1718
X3.2427Y-2.3687
X3.2427Y-3.1561
X3.2427Y-3.7466
X3.2427Y-3.9435
X3.2427Y-4.1403
X3.2427Y-4.3372
X3.2427Y-4.534
X3.2427Y-4.7309
X3.2427Y-5.5183
X3.2427Y-5.7151
X3.2427Y-5.912
X3.2427Y-6.1088
X3.2923Y-2.9944
X3.2973Y-5.0044
X3.299Y-4.8894
X3.3123Y-4.9444
X3.3273Y-2.1994
X3.3423Y-5.3144
X3.3721Y-1.3844
X3.4123Y-2.8944
X3.4173Y-1.8919
X3.4373Y-2.0744
X3.4395Y-1.5813
X3.4395Y-2.3687
X3.4395Y-3.1561
X3.4395Y-3.9435
X3.4395Y-4.1403
X3.4395Y-4.3372
X3.4395Y-6.1088
X3.4573Y-5.7794
X3.5073Y-6.3194
X3.5123Y-3.2744
X3.5523Y-5.2244
X3.5689Y-1.3844
X3.5728Y-1.9244
X3.5823Y-3.4844
X3.5823Y-4.2044
X3.5973Y-3.7844
X3.5973Y-5.5894
X3.6148Y-2.7469
X3.6173Y-5.4594
X3.6364Y-1.7781
X3.6364Y-4.7309
X3.6623Y-5.7269
X3.6623Y-6.3194
X3.6623Y-6.6194
X3.6673Y-1.6694
X3.6873Y-4.5244
X3.6873Y-5.1794
X3.6923Y-3.0944
X3.7023Y-5.3794
X3.7373Y-3.9494
X3.7373Y-5.2294
X3.7423Y-5.9994
X3.7473Y-3.3894
X3.7473Y-5.8944
X3.7545Y-6.1088
X3.7545Y-6.2663
X3.7658Y-1.3844
X3.7673Y-5.1894
X3.7923Y-4.9044
X3.8123Y-5.2244
X3.8323Y-5.1894
X3.8332Y-1.7781
X3.8332Y-2.1718
X3.8332Y-2.3687
X3.8373Y-4.6794
X3.8473Y-5.1344
X3.8623Y-3.8344
X3.8723Y-4.3594
X3.8773Y-4.9894
X3.9123Y-3.0994
X3.9362Y-4.7994
X3.9373Y-3.7494
X3.9473Y-2.6744
X3.9473Y-5.1594
X3.9523Y-5.3294
X3.9573Y-4.4344
X3.9623Y-5.7994
X3.9626Y-1.3844
X3.9673Y-6.1244
X3.9723Y-4.5894
X3.9773Y-5.0894
X3.9823Y-5.6594
X3.9907Y-5.0065
X3.9924Y-5.4829
X3.9973Y-4.1094
X4.0063Y-5.4494
X4.0066Y-5.5223
X4.0164Y-5.4965
X4.0173Y-5.6102
X4.0202Y-5.0879
X4.0273Y-5.4694
X4.0301Y-1.5813
X4.0301Y-2.1718
X4.0301Y-2.3687
X4.0301Y-2.5655
X4.0323Y-2.2644
X4.0323Y-4.1444
X4.0323Y-4.1894
X4.0323Y-4.3194
X4.0323Y-4.6794
X4.0373Y-4.2694
X4.0398Y-2.2269
X4.0423Y-5.1044
X4.0523Y-4.0794
X4.0523Y-5.5244
X4.0525Y-5.4583
X4.0548Y-5.1319
X4.0623Y-5.4894
X4.0623Y-5.6844
X4.0673Y-4.6494
X4.0673Y-4.9644
X4.0748Y-5.5937
X4.0823Y-5.5144
X4.0858Y-5.6319
X4.0858Y-5.6594
X4.0923Y-6.0644
X4.0973Y-3.5744
X4.1055Y-5.8612
X4.1088Y-5.912
X4.1291Y-5.8376
X4.1437Y-5.6544
X4.1473Y-3.9894
X4.1473Y-5.4844
X4.1522Y-5.539
X4.1523Y-4.9644
X4.1523Y-5.5665
X4.1548Y-5.6069
X4.1573Y-6.2758
X4.1595Y-1.3844
X4.1613Y-2.1884
X4.1623Y-4.6494
X4.1623Y-5.1294
X4.1623Y-5.8494
X4.1629Y-5.6844
X4.1723Y-5.0594
X4.1723Y-5.0894
X4.1723Y-5.1944
X4.1749Y-5.459
X4.1773Y-3.7944
X4.1773Y-5.6294
X4.1797Y-5.4894
X4.1835Y-5.5869
X4.1869Y-2.4998
X4.1873Y-4.3144
X4.1873Y-4.5894
X4.1876Y-4.8883
X4.2021Y-5.4631
X4.2073Y-5.1594
X4.2073Y-5.6794
X4.2123Y-2.4594
X4.2123Y-3.0494
X4.2135Y-5.6206
X4.2323Y-4.4244
X4.238Y-3.0744
X4.2548Y-3.7969
X4.2723Y-4.1444
X4.2723Y-4.1894
X4.2823Y-5.1594
X4.3023Y-5.2544
X4.3173Y-5.0994
X4.3173Y-5.5669
X4.3273Y-1.5094
X4.3273Y-4.6744
X4.3563Y-1.3844
X4.3563Y-6.2694
X4.3773Y-4.6744
X4.3848Y-5.3569
X4.3862Y-5.5546
X4.3923Y-6.0144
X4.4238Y-2.9592
X4.4238Y-3.1561
X4.4273Y-4.6744
X4.4323Y-2.3194
X4.4773Y-2.6944
X4.4773Y-4.2294
X4.4823Y-4.9844
X4.4823Y-5.5994
X4.5223Y-4.4294
X4.5273Y-4.2494
X4.5273Y-6.3144
X4.5273Y-6.6194
X4.5323Y-3.9944
X4.5523Y-2.3194
X4.5523Y-3.1844
X4.5523Y-3.7794
X4.5532Y-1.3844
X4.5873Y-5.8465
X4.6023Y-4.6944
X4.6073Y-5.0244
X4.6206Y-5.7151
X4.6423Y-3.8294
X4.6423Y-3.8744
X4.6423Y-5.0544
X4.6473Y-4.1444
X4.6523Y-4.2044
X4.6623Y-4.4694
X4.6723Y-5.6894
X4.6773Y-5.0944
X4.6773Y-5.4244
X4.6873Y-2.3194
X4.75Y-1.3844
X4.7623Y-4.7544
X4.7773Y-3.5744
X4.7773Y-4.1444
X4.7823Y-3.8294
X4.7823Y-3.8744
X4.7923Y-5.0244
X4.8175Y-1.5813
X4.8175Y-2.1718
X4.8175Y-2.3687
X4.8175Y-2.5655
X4.8175Y-2.7624
X4.8175Y-5.7151
X4.8175Y-5.912
X4.8323Y-3.7644
X4.8773Y-3.6244
X4.8823Y-5.3344
X4.9469Y-1.3844
X4.9598Y-4.7544
X4.9623Y-3.5744
X5.0143Y-1.5813
X5.0143Y-2.1718
X5.0143Y-2.3687
X5.0143Y-2.5655
X5.0143Y-2.9592
X5.0143Y-3.1561
X5.0143Y-3.9435
X5.0143Y-5.7151
X5.0143Y-5.912
X5.0573Y-4.7894
X5.0598Y-4.7194
X5.1073Y-3.7794
X5.1123Y-2.0244
X5.1273Y-4.4694
X5.1273Y-5.0244
X5.1437Y-1.3844
X5.1673Y-5.1744
X5.1873Y-5.3344
X5.1923Y-2.0444
X5.2073Y-5.6644
X5.2112Y-1.5813
X5.2112Y-2.1718
X5.2112Y-2.3687
X5.2112Y-2.9592
X5.2112Y-3.7466
X5.2112Y-3.9435
X5.2112Y-4.1403
X5.2373Y-5.2144
X5.2373Y-5.7913
X5.2573Y-4.6394
X5.2573Y-4.8544
X5.2623Y-3.4994
X5.2923Y-5.5044
X5.3406Y-1.3844
X5.3523Y-5.6544
X5.3673Y-5.2344
X5.3773Y-4.7044
X5.3823Y-5.4494
X5.3923Y-6.0894
X5.3923Y-6.1544
X5.3923Y-6.6194
X5.4073Y-5.2794
X5.408Y-2.1718
X5.408Y-2.7624
X5.408Y-2.9592
X5.408Y-3.1561
X5.408Y-3.3529
X5.408Y-3.7466
X5.408Y-3.9435
X5.4123Y-5.1094
X5.4273Y-4.8094
X5.4523Y-5.3194
X5.4623Y-5.1344
X5.5123Y-5.1744
X5.5374Y-1.3844
X5.538Y-6.0894
X5.5573Y-5.7913
X5.5623Y-5.2144
X5.5673Y-5.2894
X5.5823Y-6.1544
X5.5923Y-2.5344
X5.5923Y-4.2194
X5.6049Y-1.5813
X5.6049Y-2.3687
X5.6049Y-2.5655
X5.6049Y-2.7624
X5.6049Y-2.9592
X5.6049Y-3.1561
X5.6049Y-3.7466
X5.6049Y-4.3372
X5.6049Y-4.534
X5.6049Y-5.3214
X5.6049Y-5.7151
X5.6523Y-4.9944
X5.6773Y-4.7294
X5.6773Y-4.9194
X5.6923Y-3.5744
X5.6923Y-3.9244
X5.7023Y-4.1794
X5.7123Y-4.3994
X5.7323Y-4.1494
X5.7343Y-1.3844
X5.7473Y-4.9294
X5.7873Y-3.9594
X5.7973Y-3.8144
X5.8017Y-1.5813
X5.8017Y-2.1718
X5.8017Y-2.5655
X5.8017Y-2.7624
X5.8017Y-2.9592
X5.8017Y-3.1561
X5.8017Y-5.3214
X5.8017Y-5.7151
X5.8017Y-5.912
X5.8823Y-4.7844
X5.9273Y-4.9294
X5.9311Y-1.3844
X5.9923Y-4.9944
X5.9986Y-1.5813
X5.9986Y-2.3687
X5.9986Y-2.5655
X5.9986Y-2.7624
X5.9986Y-2.9592
X5.9986Y-3.1561
X5.9986Y-5.1246
X5.9986Y-5.3214
X5.9986Y-5.7151
X5.9986Y-6.2663
X6.0673Y-6.2494
X6.0773Y-4.0244
X6.0923Y-2.5994
X6.1023Y-1.3844
X6.1223Y-5.8944
X6.1523Y-3.7994
X6.1954Y-1.5813
X6.1954Y-4.7309
X6.1954Y-4.9277
X6.1954Y-5.1246
X6.1954Y-5.3214
X6.1954Y-5.5183
X6.1954Y-5.7151
X6.2023Y-4.6794
X6.2173Y-3.7994
X6.2173Y-4.1644
X6.2547Y-6.197
X6.2573Y-6.6194
X6.2723Y-1.3844
X6.3073Y-4.7844
X6.3923Y-1.3844
X6.3923Y-1.5813
X6.3923Y-2.7624
X6.3923Y-2.9592
X6.3923Y-3.1561
X6.3923Y-3.3529
X6.3923Y-3.5498
X6.3923Y-4.534
X6.3923Y-4.7309
X6.3923Y-4.9277
X6.3923Y-5.1246
X6.3923Y-5.3214
X6.3923Y-5.5183
X6.3923Y-5.7151
X6.3923Y-5.912
X6.3923Y-6.1088
X6.3923Y-6.2663
T3
X1.9264Y-5.0615
X1.9264Y-5.1115
X1.9264Y-5.1615
X1.9264Y-5.2115
X1.9264Y-5.2615
X1.9764Y-5.0615
X1.9764Y-5.1115
X1.9764Y-5.1615
X1.9764Y-5.2115
X1.9764Y-5.2615
T4
X4.4526Y-1.5748
X4.5026Y-1.5748
X4.5526Y-1.5748
X4.6026Y-1.5748
T5
X6.3423Y-3.659
X6.3423Y-3.759
X6.3423Y-3.859
X6.3423Y-3.959
X6.3423Y-4.104
X6.3423Y-4.204
X6.3423Y-4.304
X6.3423Y-4.404
X6.3523Y-1.7344
X6.3523Y-1.8344
X6.3523Y-1.9344
X6.3523Y-2.0344
X6.3523Y-2.1344
X6.3523Y-2.2344
X6.3523Y-2.3344
X6.3523Y-2.4344
X6.3523Y-2.5344
X6.3523Y-2.6344
T6
X5.2697Y-1.6917
X5.2937Y-1.4618
X5.3051Y-1.5917
X5.3051Y-1.8453
X5.4823Y-1.5917
X5.4823Y-1.8453
X5.4937Y-1.4618
X5.5177Y-1.6917
T7
X2.2122Y-1.765
X2.3122Y-1.765
X2.4122Y-1.765
X2.5122Y-1.765
X3.0783Y-1.765
X3.1783Y-1.765
X3.2783Y-1.765
X3.3783Y-1.765
X3.9445Y-1.765
X4.0445Y-1.765
X4.1445Y-1.765
X4.2445Y-1.765
X4.8106Y-1.765
X4.9106Y-1.765
X5.0106Y-1.765
X5.1106Y-1.765
X5.6768Y-1.765
X5.7768Y-1.765
X5.8768Y-1.765
X5.9768Y-1.765
T8
X2.2933Y-3.2776
X2.4311Y-3.2776
X2.4311Y-6.1713
X3.1594Y-3.2776
X3.2972Y-3.2776
X3.2972Y-6.1713
X4.0256Y-3.2776
X4.1634Y-3.2776
X4.1634Y-6.1713
X4.8917Y-3.2776
X5.0295Y-3.2776
X5.0295Y-6.1713
X5.7579Y-3.2776
X5.8957Y-3.2776
X5.8957Y-6.1713
T9
X2.1949Y-3.4409
X2.1949Y-6.0079
X2.5295Y-3.4882
X2.5295Y-5.9606
X3.061Y-3.4409
X3.061Y-6.0079
X3.3957Y-3.4882
X3.3957Y-5.9606
X3.9272Y-3.4409
X3.9272Y-6.0079
X4.2618Y-3.4882
X4.2618Y-5.9606
X4.7933Y-3.4409
X4.7933Y-6.0079
X5.128Y-3.4882
X5.128Y-5.9606
X5.6594Y-3.4409
X5.6594Y-6.0079
X5.9941Y-3.4882
X5.9941Y-5.9606
T2
G00X2.6222Y-1.3653
M15
G01X2.6222Y-1.3416
M16
G05
G00X2.6222Y-1.5397
M15
G01X2.6222Y-1.4964
M16
G05
G00X2.9624Y-1.3653
M15
G01X2.9624Y-1.3416
M16
G05
G00X2.9624Y-1.5397
M15
G01X2.9624Y-1.4964
M16
G05
M30
