%TF.GenerationSoftware,KiCad,Pcbnew,9.0.0*%
%TF.CreationDate,2025-05-31T21:27:46+02:00*%
%TF.ProjectId,volume-mixer,766f6c75-6d65-42d6-9d69-7865722e6b69,rev?*%
%TF.SameCoordinates,Original*%
%TF.FileFunction,Soldermask,Top*%
%TF.FilePolarity,Negative*%
%FSLAX46Y46*%
G04 Gerber Fmt 4.6, Leading zero omitted, Abs format (unit mm)*
G04 Created by KiCad (PCBNEW 9.0.0) date 2025-05-31 21:27:46*
%MOMM*%
%LPD*%
G01*
G04 APERTURE LIST*
G04 Aperture macros list*
%AMRoundRect*
0 Rectangle with rounded corners*
0 $1 Rounding radius*
0 $2 $3 $4 $5 $6 $7 $8 $9 X,Y pos of 4 corners*
0 Add a 4 corners polygon primitive as box body*
4,1,4,$2,$3,$4,$5,$6,$7,$8,$9,$2,$3,0*
0 Add four circle primitives for the rounded corners*
1,1,$1+$1,$2,$3*
1,1,$1+$1,$4,$5*
1,1,$1+$1,$6,$7*
1,1,$1+$1,$8,$9*
0 Add four rect primitives between the rounded corners*
20,1,$1+$1,$2,$3,$4,$5,0*
20,1,$1+$1,$4,$5,$6,$7,0*
20,1,$1+$1,$6,$7,$8,$9,0*
20,1,$1+$1,$8,$9,$2,$3,0*%
G04 Aperture macros list end*
%ADD10R,0.810000X2.470000*%
%ADD11C,0.787400*%
%ADD12R,1.700000X1.700000*%
%ADD13O,1.700000X1.700000*%
%ADD14RoundRect,0.250000X0.650000X-1.450000X0.650000X1.450000X-0.650000X1.450000X-0.650000X-1.450000X0*%
%ADD15C,2.200000*%
%ADD16C,2.400000*%
%ADD17C,2.900000*%
%ADD18RoundRect,0.225000X-0.225000X-0.250000X0.225000X-0.250000X0.225000X0.250000X-0.225000X0.250000X0*%
%ADD19R,1.000000X1.000000*%
%ADD20O,1.000000X1.000000*%
%ADD21RoundRect,0.225000X-0.250000X0.225000X-0.250000X-0.225000X0.250000X-0.225000X0.250000X0.225000X0*%
%ADD22RoundRect,0.200000X-0.275000X0.200000X-0.275000X-0.200000X0.275000X-0.200000X0.275000X0.200000X0*%
%ADD23R,0.600000X1.450000*%
%ADD24R,0.300000X1.450000*%
%ADD25RoundRect,0.175000X-0.175000X-0.325000X0.175000X-0.325000X0.175000X0.325000X-0.175000X0.325000X0*%
%ADD26RoundRect,0.150000X-0.200000X-0.150000X0.200000X-0.150000X0.200000X0.150000X-0.200000X0.150000X0*%
%ADD27RoundRect,0.225000X0.225000X0.250000X-0.225000X0.250000X-0.225000X-0.250000X0.225000X-0.250000X0*%
%ADD28O,1.070000X1.800000*%
%ADD29R,1.070000X1.800000*%
%ADD30C,2.150000*%
%ADD31C,0.800000*%
G04 APERTURE END LIST*
D10*
%TO.C,D6*%
X124650000Y-171000000D03*
X127350000Y-171000000D03*
%TD*%
%TO.C,D5*%
X105350000Y-171000000D03*
X102650000Y-171000000D03*
%TD*%
D11*
%TO.C,CON1*%
X50191250Y-122857500D03*
X48921250Y-122857500D03*
X50191250Y-121587500D03*
X48921250Y-121587500D03*
X50191250Y-120317500D03*
X48921250Y-120317500D03*
%TD*%
D12*
%TO.C,J3*%
X161094000Y-104242000D03*
D13*
X161094000Y-106782000D03*
X161094000Y-109322000D03*
X161094000Y-111862000D03*
%TD*%
D14*
%TO.C,TP1*%
X71000000Y-171000000D03*
%TD*%
D12*
%TO.C,J8*%
X100190000Y-44830000D03*
D15*
X102730000Y-44830000D03*
X105270000Y-44830000D03*
X107810000Y-44830000D03*
%TD*%
D14*
%TO.C,TP4*%
X137000000Y-171000000D03*
%TD*%
%TO.C,TP5*%
X159000000Y-171000000D03*
%TD*%
D16*
%TO.C,RV2*%
X83750000Y-83250000D03*
X80250000Y-83250000D03*
X83750000Y-156750000D03*
D17*
X77750000Y-87400000D03*
X86250000Y-88600000D03*
X86250000Y-151400000D03*
X77750000Y-152600000D03*
%TD*%
D18*
%TO.C,C32*%
X75610000Y-42022000D03*
X77160000Y-42022000D03*
%TD*%
D16*
%TO.C,RV5*%
X149750000Y-83250000D03*
X146250000Y-83250000D03*
X149750000Y-156750000D03*
D17*
X143750000Y-87400000D03*
X152250000Y-88600000D03*
X152250000Y-151400000D03*
X143750000Y-152600000D03*
%TD*%
D19*
%TO.C,J4*%
X48931250Y-128562500D03*
D20*
X50201250Y-128562500D03*
X48931250Y-129832500D03*
X50201250Y-129832500D03*
X48931250Y-131102500D03*
X50201250Y-131102500D03*
X48931250Y-132372500D03*
X50201250Y-132372500D03*
X48931250Y-133642500D03*
X50201250Y-133642500D03*
%TD*%
D12*
%TO.C,J10*%
X144190000Y-44830000D03*
D15*
X146730000Y-44830000D03*
X149270000Y-44830000D03*
X151810000Y-44830000D03*
%TD*%
D21*
%TO.C,C34*%
X66987000Y-45552000D03*
X66987000Y-47102000D03*
%TD*%
D14*
%TO.C,TP3*%
X115000000Y-171000000D03*
%TD*%
D12*
%TO.C,J7*%
X78190000Y-44830000D03*
D15*
X80730000Y-44830000D03*
X83270000Y-44830000D03*
X85810000Y-44830000D03*
%TD*%
D16*
%TO.C,RV3*%
X105750000Y-83250000D03*
X102250000Y-83250000D03*
X105750000Y-156750000D03*
D17*
X99750000Y-87400000D03*
X108250000Y-88600000D03*
X108250000Y-151400000D03*
X99750000Y-152600000D03*
%TD*%
D10*
%TO.C,D4*%
X80650000Y-171000000D03*
X83350000Y-171000000D03*
%TD*%
D22*
%TO.C,R35*%
X68479250Y-41959000D03*
X68479250Y-43609000D03*
%TD*%
D23*
%TO.C,USB1*%
X74149000Y-39472500D03*
X73374000Y-39472500D03*
D24*
X72674000Y-39472500D03*
X72174000Y-39472500D03*
X71674000Y-39472500D03*
X71174000Y-39472500D03*
X70674000Y-39472500D03*
X70174000Y-39472500D03*
X69674000Y-39472500D03*
X69174000Y-39472500D03*
D23*
X68474000Y-39472500D03*
X67699000Y-39472500D03*
%TD*%
D16*
%TO.C,RV1*%
X61750000Y-83250000D03*
X58250000Y-83250000D03*
X61750000Y-156750000D03*
D17*
X55750000Y-87400000D03*
X64250000Y-88600000D03*
X64250000Y-151400000D03*
X55750000Y-152600000D03*
%TD*%
D25*
%TO.C,U5*%
X69892250Y-42796000D03*
D26*
X69892250Y-44496000D03*
X71892250Y-44496000D03*
X71892250Y-42596000D03*
%TD*%
D10*
%TO.C,D7*%
X149350000Y-171000000D03*
X146650000Y-171000000D03*
%TD*%
D14*
%TO.C,TP2*%
X93000000Y-171000000D03*
%TD*%
D27*
%TO.C,C33*%
X66365000Y-42022000D03*
X64815000Y-42022000D03*
%TD*%
D10*
%TO.C,D3*%
X61350000Y-171000000D03*
X58650000Y-171000000D03*
%TD*%
D12*
%TO.C,J6*%
X56190000Y-44830000D03*
D15*
X58730000Y-44830000D03*
X61270000Y-44830000D03*
X63810000Y-44830000D03*
%TD*%
D12*
%TO.C,J2*%
X161348000Y-44054000D03*
D13*
X161348000Y-46594000D03*
X161348000Y-49134000D03*
X161348000Y-51674000D03*
X161348000Y-54214000D03*
X161348000Y-56754000D03*
X161348000Y-59294000D03*
X161348000Y-61834000D03*
X161348000Y-64374000D03*
X161348000Y-66914000D03*
%TD*%
D22*
%TO.C,R36*%
X73305250Y-41959000D03*
X73305250Y-43609000D03*
%TD*%
D28*
%TO.C,D1*%
X114365000Y-40000000D03*
D29*
X113095000Y-40000000D03*
D28*
X115635000Y-40000000D03*
X116905000Y-40000000D03*
%TD*%
D12*
%TO.C,J9*%
X122190000Y-44830000D03*
D15*
X124730000Y-44830000D03*
X127270000Y-44830000D03*
X129810000Y-44830000D03*
%TD*%
D16*
%TO.C,RV4*%
X127750000Y-83250000D03*
X124250000Y-83250000D03*
X127750000Y-156750000D03*
D17*
X121750000Y-87400000D03*
X130250000Y-88600000D03*
X130250000Y-151400000D03*
X121750000Y-152600000D03*
%TD*%
D12*
%TO.C,J1*%
X161094000Y-100559000D03*
D13*
X161094000Y-98019000D03*
X161094000Y-95479000D03*
X161094000Y-92939000D03*
%TD*%
D30*
%TO.C,SW3*%
X139540000Y-37130000D03*
X134460000Y-37130000D03*
X140150000Y-42970000D03*
X133850000Y-42970000D03*
X139250000Y-46870000D03*
X139250000Y-40430000D03*
X134750000Y-46870000D03*
X134750000Y-40430000D03*
%TD*%
D31*
%TO.C,SW1*%
X96500000Y-40000000D03*
X89500000Y-40000000D03*
%TD*%
M02*
