%TF.GenerationSoftware,KiCad,Pcbnew,9.0.0*%
%TF.CreationDate,2025-05-31T21:27:46+02:00*%
%TF.ProjectId,volume-mixer,766f6c75-6d65-42d6-9d69-7865722e6b69,rev?*%
%TF.SameCoordinates,Original*%
%TF.FileFunction,Soldermask,Bot*%
%TF.FilePolarity,Negative*%
%FSLAX46Y46*%
G04 Gerber Fmt 4.6, Leading zero omitted, Abs format (unit mm)*
G04 Created by KiCad (PCBNEW 9.0.0) date 2025-05-31 21:27:46*
%MOMM*%
%LPD*%
G01*
G04 APERTURE LIST*
G04 Aperture macros list*
%AMRoundRect*
0 Rectangle with rounded corners*
0 $1 Rounding radius*
0 $2 $3 $4 $5 $6 $7 $8 $9 X,Y pos of 4 corners*
0 Add a 4 corners polygon primitive as box body*
4,1,4,$2,$3,$4,$5,$6,$7,$8,$9,$2,$3,0*
0 Add four circle primitives for the rounded corners*
1,1,$1+$1,$2,$3*
1,1,$1+$1,$4,$5*
1,1,$1+$1,$6,$7*
1,1,$1+$1,$8,$9*
0 Add four rect primitives between the rounded corners*
20,1,$1+$1,$2,$3,$4,$5,0*
20,1,$1+$1,$4,$5,$6,$7,0*
20,1,$1+$1,$6,$7,$8,$9,0*
20,1,$1+$1,$8,$9,$2,$3,0*%
G04 Aperture macros list end*
%ADD10C,0.990600*%
%ADD11R,1.700000X1.700000*%
%ADD12O,1.700000X1.700000*%
%ADD13C,2.200000*%
%ADD14C,2.400000*%
%ADD15C,2.900000*%
%ADD16R,1.000000X1.000000*%
%ADD17O,1.000000X1.000000*%
%ADD18C,0.650000*%
%ADD19O,1.000000X2.100000*%
%ADD20O,1.000000X1.600000*%
%ADD21O,1.070000X1.800000*%
%ADD22R,1.070000X1.800000*%
%ADD23RoundRect,0.225000X0.250000X-0.225000X0.250000X0.225000X-0.250000X0.225000X-0.250000X-0.225000X0*%
%ADD24RoundRect,0.200000X-0.275000X0.200000X-0.275000X-0.200000X0.275000X-0.200000X0.275000X0.200000X0*%
%ADD25RoundRect,0.225000X0.225000X0.250000X-0.225000X0.250000X-0.225000X-0.250000X0.225000X-0.250000X0*%
%ADD26RoundRect,0.150000X-0.825000X-0.150000X0.825000X-0.150000X0.825000X0.150000X-0.825000X0.150000X0*%
%ADD27RoundRect,0.200000X-0.200000X-0.275000X0.200000X-0.275000X0.200000X0.275000X-0.200000X0.275000X0*%
%ADD28RoundRect,0.225000X-0.250000X0.225000X-0.250000X-0.225000X0.250000X-0.225000X0.250000X0.225000X0*%
%ADD29RoundRect,0.200000X0.275000X-0.200000X0.275000X0.200000X-0.275000X0.200000X-0.275000X-0.200000X0*%
%ADD30RoundRect,0.200000X0.335876X0.053033X0.053033X0.335876X-0.335876X-0.053033X-0.053033X-0.335876X0*%
%ADD31RoundRect,0.200000X0.200000X0.275000X-0.200000X0.275000X-0.200000X-0.275000X0.200000X-0.275000X0*%
%ADD32RoundRect,0.243750X-0.243750X-0.456250X0.243750X-0.456250X0.243750X0.456250X-0.243750X0.456250X0*%
%ADD33C,2.150000*%
%ADD34RoundRect,0.225000X-0.225000X-0.250000X0.225000X-0.250000X0.225000X0.250000X-0.225000X0.250000X0*%
%ADD35R,1.200000X1.800000*%
%ADD36R,0.600000X1.550000*%
%ADD37RoundRect,0.150000X0.150000X-0.587500X0.150000X0.587500X-0.150000X0.587500X-0.150000X-0.587500X0*%
%ADD38RoundRect,0.250000X0.250000X0.475000X-0.250000X0.475000X-0.250000X-0.475000X0.250000X-0.475000X0*%
%ADD39R,2.000000X2.000000*%
%ADD40R,1.500000X2.000000*%
%ADD41C,0.800000*%
%ADD42RoundRect,0.100000X-0.100000X0.637500X-0.100000X-0.637500X0.100000X-0.637500X0.100000X0.637500X0*%
%ADD43RoundRect,0.150000X-0.150000X0.587500X-0.150000X-0.587500X0.150000X-0.587500X0.150000X0.587500X0*%
%ADD44R,1.100000X1.800000*%
%ADD45RoundRect,0.225000X-0.017678X0.335876X-0.335876X0.017678X0.017678X-0.335876X0.335876X-0.017678X0*%
%ADD46RoundRect,0.225000X0.335876X0.017678X0.017678X0.335876X-0.335876X-0.017678X-0.017678X-0.335876X0*%
%ADD47RoundRect,0.150000X0.150000X-0.512500X0.150000X0.512500X-0.150000X0.512500X-0.150000X-0.512500X0*%
%ADD48RoundRect,0.150000X0.150000X-0.825000X0.150000X0.825000X-0.150000X0.825000X-0.150000X-0.825000X0*%
%ADD49RoundRect,0.075000X-0.075000X0.662500X-0.075000X-0.662500X0.075000X-0.662500X0.075000X0.662500X0*%
%ADD50RoundRect,0.075000X-0.662500X0.075000X-0.662500X-0.075000X0.662500X-0.075000X0.662500X0.075000X0*%
%ADD51RoundRect,0.150000X-0.150000X0.825000X-0.150000X-0.825000X0.150000X-0.825000X0.150000X0.825000X0*%
%ADD52R,0.900000X0.800000*%
%ADD53RoundRect,0.250000X-0.475000X0.250000X-0.475000X-0.250000X0.475000X-0.250000X0.475000X0.250000X0*%
G04 APERTURE END LIST*
D10*
%TO.C,CON1*%
X49556250Y-124127500D03*
X48540250Y-119047500D03*
X50572250Y-119047500D03*
%TD*%
D11*
%TO.C,J3*%
X161094000Y-104242000D03*
D12*
X161094000Y-106782000D03*
X161094000Y-109322000D03*
X161094000Y-111862000D03*
%TD*%
D11*
%TO.C,J8*%
X100190000Y-44830000D03*
D13*
X102730000Y-44830000D03*
X105270000Y-44830000D03*
X107810000Y-44830000D03*
%TD*%
D14*
%TO.C,RV2*%
X83750000Y-83250000D03*
X80250000Y-83250000D03*
X83750000Y-156750000D03*
D15*
X77750000Y-87400000D03*
X86250000Y-88600000D03*
X86250000Y-151400000D03*
X77750000Y-152600000D03*
%TD*%
D14*
%TO.C,RV5*%
X149750000Y-83250000D03*
X146250000Y-83250000D03*
X149750000Y-156750000D03*
D15*
X143750000Y-87400000D03*
X152250000Y-88600000D03*
X152250000Y-151400000D03*
X143750000Y-152600000D03*
%TD*%
D16*
%TO.C,J4*%
X48931250Y-128562500D03*
D17*
X50201250Y-128562500D03*
X48931250Y-129832500D03*
X50201250Y-129832500D03*
X48931250Y-131102500D03*
X50201250Y-131102500D03*
X48931250Y-132372500D03*
X50201250Y-132372500D03*
X48931250Y-133642500D03*
X50201250Y-133642500D03*
%TD*%
D11*
%TO.C,J10*%
X144190000Y-44830000D03*
D13*
X146730000Y-44830000D03*
X149270000Y-44830000D03*
X151810000Y-44830000D03*
%TD*%
D11*
%TO.C,J7*%
X78190000Y-44830000D03*
D13*
X80730000Y-44830000D03*
X83270000Y-44830000D03*
X85810000Y-44830000D03*
%TD*%
D14*
%TO.C,RV3*%
X105750000Y-83250000D03*
X102250000Y-83250000D03*
X105750000Y-156750000D03*
D15*
X99750000Y-87400000D03*
X108250000Y-88600000D03*
X108250000Y-151400000D03*
X99750000Y-152600000D03*
%TD*%
D18*
%TO.C,USB1*%
X73814000Y-38027500D03*
X68034000Y-38027500D03*
D19*
X75244000Y-38557500D03*
D20*
X75244000Y-34377500D03*
D19*
X66604000Y-38557500D03*
D20*
X66604000Y-34377500D03*
%TD*%
D14*
%TO.C,RV1*%
X61750000Y-83250000D03*
X58250000Y-83250000D03*
X61750000Y-156750000D03*
D15*
X55750000Y-87400000D03*
X64250000Y-88600000D03*
X64250000Y-151400000D03*
X55750000Y-152600000D03*
%TD*%
D11*
%TO.C,J6*%
X56190000Y-44830000D03*
D13*
X58730000Y-44830000D03*
X61270000Y-44830000D03*
X63810000Y-44830000D03*
%TD*%
D11*
%TO.C,J2*%
X161348000Y-44054000D03*
D12*
X161348000Y-46594000D03*
X161348000Y-49134000D03*
X161348000Y-51674000D03*
X161348000Y-54214000D03*
X161348000Y-56754000D03*
X161348000Y-59294000D03*
X161348000Y-61834000D03*
X161348000Y-64374000D03*
X161348000Y-66914000D03*
%TD*%
D21*
%TO.C,D1*%
X114365000Y-40000000D03*
D22*
X113095000Y-40000000D03*
D21*
X115635000Y-40000000D03*
X116905000Y-40000000D03*
%TD*%
D11*
%TO.C,J9*%
X122190000Y-44830000D03*
D13*
X124730000Y-44830000D03*
X127270000Y-44830000D03*
X129810000Y-44830000D03*
%TD*%
D14*
%TO.C,RV4*%
X127750000Y-83250000D03*
X124250000Y-83250000D03*
X127750000Y-156750000D03*
D15*
X121750000Y-87400000D03*
X130250000Y-88600000D03*
X130250000Y-151400000D03*
X121750000Y-152600000D03*
%TD*%
D11*
%TO.C,J1*%
X161094000Y-100559000D03*
D12*
X161094000Y-98019000D03*
X161094000Y-95479000D03*
X161094000Y-92939000D03*
%TD*%
D23*
%TO.C,C14*%
X104452000Y-135126000D03*
X104452000Y-133576000D03*
%TD*%
D24*
%TO.C,R74*%
X147251000Y-88250500D03*
X147251000Y-89900500D03*
%TD*%
D23*
%TO.C,C55*%
X126804000Y-89850500D03*
X126804000Y-88300500D03*
%TD*%
%TO.C,C57*%
X148775000Y-89850500D03*
X148775000Y-88300500D03*
%TD*%
D25*
%TO.C,C48*%
X124722000Y-111999000D03*
X123172000Y-111999000D03*
%TD*%
D23*
%TO.C,C4*%
X71813000Y-147826000D03*
X71813000Y-146276000D03*
%TD*%
D24*
%TO.C,R26*%
X83751000Y-128319000D03*
X83751000Y-129969000D03*
%TD*%
D23*
%TO.C,C19*%
X158046000Y-94984000D03*
X158046000Y-93434000D03*
%TD*%
D26*
%TO.C,U2*%
X97659000Y-159405000D03*
X97659000Y-158135000D03*
X97659000Y-156865000D03*
X97659000Y-155595000D03*
X102609000Y-155595000D03*
X102609000Y-156865000D03*
X102609000Y-158135000D03*
X102609000Y-159405000D03*
%TD*%
D27*
%TO.C,R57*%
X123122000Y-113523000D03*
X124772000Y-113523000D03*
%TD*%
D28*
%TO.C,C50*%
X148026000Y-130020000D03*
X148026000Y-131570000D03*
%TD*%
D29*
%TO.C,R20*%
X110675000Y-61770000D03*
X110675000Y-60120000D03*
%TD*%
D27*
%TO.C,R65*%
X145029000Y-113142000D03*
X146679000Y-113142000D03*
%TD*%
%TO.C,R72*%
X123058000Y-127620000D03*
X124708000Y-127620000D03*
%TD*%
D29*
%TO.C,R8*%
X114993000Y-46149000D03*
X114993000Y-44499000D03*
%TD*%
D30*
%TO.C,R33*%
X111166726Y-149166726D03*
X110000000Y-148000000D03*
%TD*%
D29*
%TO.C,R7*%
X113469000Y-46149000D03*
X113469000Y-44499000D03*
%TD*%
D27*
%TO.C,R30*%
X92959000Y-141971000D03*
X94609000Y-141971000D03*
%TD*%
D24*
%TO.C,R59*%
X81211000Y-88187000D03*
X81211000Y-89837000D03*
%TD*%
%TO.C,R71*%
X125280000Y-88250500D03*
X125280000Y-89900500D03*
%TD*%
D25*
%TO.C,C16*%
X157932000Y-100559000D03*
X156382000Y-100559000D03*
%TD*%
D31*
%TO.C,R3*%
X136138000Y-147099500D03*
X134488000Y-147099500D03*
%TD*%
D25*
%TO.C,C39*%
X102687000Y-48118000D03*
X101137000Y-48118000D03*
%TD*%
D31*
%TO.C,R1*%
X69971000Y-149718000D03*
X68321000Y-149718000D03*
%TD*%
D32*
%TO.C,D2*%
X160156500Y-116952000D03*
X162031500Y-116952000D03*
%TD*%
D33*
%TO.C,SW3*%
X139540000Y-37130000D03*
X134460000Y-37130000D03*
X140150000Y-42970000D03*
X133850000Y-42970000D03*
X139250000Y-46870000D03*
X139250000Y-40430000D03*
X134750000Y-46870000D03*
X134750000Y-40430000D03*
%TD*%
D34*
%TO.C,C31*%
X107614000Y-127747000D03*
X109164000Y-127747000D03*
%TD*%
D28*
%TO.C,C23*%
X91752000Y-49883000D03*
X91752000Y-51433000D03*
%TD*%
D25*
%TO.C,C41*%
X124658000Y-48118000D03*
X123108000Y-48118000D03*
%TD*%
D28*
%TO.C,C2*%
X105468000Y-38580000D03*
X105468000Y-40130000D03*
%TD*%
D23*
%TO.C,C13*%
X105976000Y-135126000D03*
X105976000Y-133576000D03*
%TD*%
D35*
%TO.C,J5*%
X73692250Y-50901000D03*
X68092250Y-50901000D03*
D36*
X72392250Y-47026000D03*
X71392250Y-47026000D03*
X70392250Y-47026000D03*
X69392250Y-47026000D03*
%TD*%
D29*
%TO.C,R21*%
X114104000Y-61770000D03*
X114104000Y-60120000D03*
%TD*%
D37*
%TO.C,Q3*%
X136263000Y-153244000D03*
X134363000Y-153244000D03*
X135313000Y-151369000D03*
%TD*%
D25*
%TO.C,C56*%
X124658000Y-129144000D03*
X123108000Y-129144000D03*
%TD*%
%TO.C,C27*%
X157932000Y-104242000D03*
X156382000Y-104242000D03*
%TD*%
D31*
%TO.C,R67*%
X146679000Y-114666000D03*
X145029000Y-114666000D03*
%TD*%
D27*
%TO.C,R2*%
X71877000Y-149718000D03*
X73527000Y-149718000D03*
%TD*%
D31*
%TO.C,R66*%
X128836000Y-127620000D03*
X127186000Y-127620000D03*
%TD*%
D24*
%TO.C,R51*%
X113723000Y-69772000D03*
X113723000Y-71422000D03*
%TD*%
D29*
%TO.C,R42*%
X85402000Y-49705000D03*
X85402000Y-48055000D03*
%TD*%
D24*
%TO.C,R53*%
X96070000Y-69772000D03*
X96070000Y-71422000D03*
%TD*%
D38*
%TO.C,C18*%
X95115000Y-138923000D03*
X93215000Y-138923000D03*
%TD*%
D23*
%TO.C,C53*%
X104833000Y-89850000D03*
X104833000Y-88300000D03*
%TD*%
D27*
%TO.C,R31*%
X92959000Y-144003000D03*
X94609000Y-144003000D03*
%TD*%
D39*
%TO.C,SW1*%
X97200000Y-38000000D03*
X88800000Y-38000000D03*
D40*
X95250000Y-42300000D03*
X90750000Y-42300000D03*
D41*
X96500000Y-40000000D03*
X89500000Y-40000000D03*
%TD*%
D42*
%TO.C,U6*%
X100496000Y-70147500D03*
X101146000Y-70147500D03*
X101796000Y-70147500D03*
X102446000Y-70147500D03*
X103096000Y-70147500D03*
X103746000Y-70147500D03*
X104396000Y-70147500D03*
X105046000Y-70147500D03*
X105696000Y-70147500D03*
X106346000Y-70147500D03*
X106996000Y-70147500D03*
X107646000Y-70147500D03*
X107646000Y-75872500D03*
X106996000Y-75872500D03*
X106346000Y-75872500D03*
X105696000Y-75872500D03*
X105046000Y-75872500D03*
X104396000Y-75872500D03*
X103746000Y-75872500D03*
X103096000Y-75872500D03*
X102446000Y-75872500D03*
X101796000Y-75872500D03*
X101146000Y-75872500D03*
X100496000Y-75872500D03*
%TD*%
D34*
%TO.C,C21*%
X107868000Y-159370000D03*
X109418000Y-159370000D03*
%TD*%
D27*
%TO.C,R76*%
X144140000Y-156830000D03*
X145790000Y-156830000D03*
%TD*%
D29*
%TO.C,R48*%
X151442000Y-49705000D03*
X151442000Y-48055000D03*
%TD*%
D31*
%TO.C,R75*%
X150997000Y-126858000D03*
X149347000Y-126858000D03*
%TD*%
D43*
%TO.C,Q9*%
X89786000Y-54038500D03*
X91686000Y-54038500D03*
X90736000Y-55913500D03*
%TD*%
D31*
%TO.C,R68*%
X109468000Y-157719000D03*
X107818000Y-157719000D03*
%TD*%
D27*
%TO.C,R14*%
X134234000Y-157084000D03*
X135884000Y-157084000D03*
%TD*%
D29*
%TO.C,R39*%
X102166000Y-79804000D03*
X102166000Y-78154000D03*
%TD*%
D27*
%TO.C,R16*%
X138044000Y-157084000D03*
X139694000Y-157084000D03*
%TD*%
D44*
%TO.C,SW2*%
X80123000Y-132013000D03*
X80123000Y-138213000D03*
X83823000Y-132013000D03*
X83823000Y-138213000D03*
%TD*%
D24*
%TO.C,R54*%
X94546000Y-69772000D03*
X94546000Y-71422000D03*
%TD*%
D25*
%TO.C,C38*%
X80716000Y-49642000D03*
X79166000Y-49642000D03*
%TD*%
D45*
%TO.C,C9*%
X97848000Y-146162000D03*
X96751984Y-147258016D03*
%TD*%
D24*
%TO.C,R52*%
X112199000Y-69772000D03*
X112199000Y-71422000D03*
%TD*%
D28*
%TO.C,C28*%
X102039000Y-123289000D03*
X102039000Y-124839000D03*
%TD*%
D25*
%TO.C,C45*%
X102941000Y-132192000D03*
X101391000Y-132192000D03*
%TD*%
D31*
%TO.C,R5*%
X158744000Y-149718000D03*
X157094000Y-149718000D03*
%TD*%
D46*
%TO.C,C12*%
X99666008Y-136042008D03*
X98569992Y-134945992D03*
%TD*%
D31*
%TO.C,R6*%
X161903500Y-118857000D03*
X160253500Y-118857000D03*
%TD*%
D34*
%TO.C,C10*%
X110662000Y-141590000D03*
X112212000Y-141590000D03*
%TD*%
D25*
%TO.C,C7*%
X158694000Y-151242000D03*
X157144000Y-151242000D03*
%TD*%
D29*
%TO.C,R44*%
X107373000Y-49705000D03*
X107373000Y-48055000D03*
%TD*%
D27*
%TO.C,R12*%
X71877000Y-159624000D03*
X73527000Y-159624000D03*
%TD*%
D29*
%TO.C,R40*%
X63304000Y-49705000D03*
X63304000Y-48055000D03*
%TD*%
D25*
%TO.C,C36*%
X58745000Y-49642000D03*
X57195000Y-49642000D03*
%TD*%
D23*
%TO.C,C51*%
X82735000Y-89787000D03*
X82735000Y-88237000D03*
%TD*%
D27*
%TO.C,R58*%
X56129000Y-156830000D03*
X57779000Y-156830000D03*
%TD*%
D28*
%TO.C,C20*%
X157886000Y-44343000D03*
X157886000Y-45893000D03*
%TD*%
D29*
%TO.C,R41*%
X61780000Y-49705000D03*
X61780000Y-48055000D03*
%TD*%
D37*
%TO.C,Q1*%
X70096000Y-155989500D03*
X68196000Y-155989500D03*
X69146000Y-154114500D03*
%TD*%
%TO.C,Q2*%
X73652000Y-155989500D03*
X71752000Y-155989500D03*
X72702000Y-154114500D03*
%TD*%
%TO.C,Q5*%
X158869000Y-155862500D03*
X156969000Y-155862500D03*
X157919000Y-153987500D03*
%TD*%
%TO.C,Q8*%
X119372000Y-57310500D03*
X117472000Y-57310500D03*
X118422000Y-55435500D03*
%TD*%
D24*
%TO.C,R23*%
X112199000Y-60120000D03*
X112199000Y-61770000D03*
%TD*%
D31*
%TO.C,R11*%
X69717000Y-158100000D03*
X68067000Y-158100000D03*
%TD*%
D47*
%TO.C,U3*%
X100383000Y-125588000D03*
X98483000Y-125588000D03*
X99433000Y-123313000D03*
%TD*%
D28*
%TO.C,C30*%
X111183000Y-123289000D03*
X111183000Y-124839000D03*
%TD*%
D48*
%TO.C,U8*%
X151823000Y-123364000D03*
X150553000Y-123364000D03*
X149283000Y-123364000D03*
X148013000Y-123364000D03*
X146743000Y-123364000D03*
X145473000Y-123364000D03*
X144203000Y-123364000D03*
X144203000Y-118414000D03*
X145473000Y-118414000D03*
X146743000Y-118414000D03*
X148013000Y-118414000D03*
X149283000Y-118414000D03*
X150553000Y-118414000D03*
X151823000Y-118414000D03*
%TD*%
D37*
%TO.C,Q4*%
X139819000Y-153244000D03*
X137919000Y-153244000D03*
X138869000Y-151369000D03*
%TD*%
D25*
%TO.C,C5*%
X136088000Y-145527000D03*
X134538000Y-145527000D03*
%TD*%
D31*
%TO.C,R69*%
X150997000Y-114666000D03*
X149347000Y-114666000D03*
%TD*%
D49*
%TO.C,U1*%
X101250000Y-137337500D03*
X101750000Y-137337500D03*
X102250000Y-137337500D03*
X102750000Y-137337500D03*
X103250000Y-137337500D03*
X103750000Y-137337500D03*
X104250000Y-137337500D03*
X104750000Y-137337500D03*
X105250000Y-137337500D03*
X105750000Y-137337500D03*
X106250000Y-137337500D03*
X106750000Y-137337500D03*
D50*
X108162500Y-138750000D03*
X108162500Y-139250000D03*
X108162500Y-139750000D03*
X108162500Y-140250000D03*
X108162500Y-140750000D03*
X108162500Y-141250000D03*
X108162500Y-141750000D03*
X108162500Y-142250000D03*
X108162500Y-142750000D03*
X108162500Y-143250000D03*
X108162500Y-143750000D03*
X108162500Y-144250000D03*
D49*
X106750000Y-145662500D03*
X106250000Y-145662500D03*
X105750000Y-145662500D03*
X105250000Y-145662500D03*
X104750000Y-145662500D03*
X104250000Y-145662500D03*
X103750000Y-145662500D03*
X103250000Y-145662500D03*
X102750000Y-145662500D03*
X102250000Y-145662500D03*
X101750000Y-145662500D03*
X101250000Y-145662500D03*
D50*
X99837500Y-144250000D03*
X99837500Y-143750000D03*
X99837500Y-143250000D03*
X99837500Y-142750000D03*
X99837500Y-142250000D03*
X99837500Y-141750000D03*
X99837500Y-141250000D03*
X99837500Y-140750000D03*
X99837500Y-140250000D03*
X99837500Y-139750000D03*
X99837500Y-139250000D03*
X99837500Y-138750000D03*
%TD*%
D31*
%TO.C,R15*%
X135884000Y-155560000D03*
X134234000Y-155560000D03*
%TD*%
D27*
%TO.C,R61*%
X78100000Y-156830000D03*
X79750000Y-156830000D03*
%TD*%
%TO.C,R62*%
X145029000Y-126858000D03*
X146679000Y-126858000D03*
%TD*%
D30*
%TO.C,R34*%
X112666726Y-147666726D03*
X111500000Y-146500000D03*
%TD*%
D47*
%TO.C,U4*%
X109466000Y-125582500D03*
X107566000Y-125582500D03*
X108516000Y-123307500D03*
%TD*%
D31*
%TO.C,R63*%
X146679000Y-128382000D03*
X145029000Y-128382000D03*
%TD*%
D34*
%TO.C,C54*%
X127236000Y-129144000D03*
X128786000Y-129144000D03*
%TD*%
D24*
%TO.C,R29*%
X93530000Y-54278000D03*
X93530000Y-55928000D03*
%TD*%
D51*
%TO.C,U7*%
X122169000Y-118414000D03*
X123439000Y-118414000D03*
X124709000Y-118414000D03*
X125979000Y-118414000D03*
X127249000Y-118414000D03*
X128519000Y-118414000D03*
X129789000Y-118414000D03*
X129789000Y-123364000D03*
X128519000Y-123364000D03*
X127249000Y-123364000D03*
X125979000Y-123364000D03*
X124709000Y-123364000D03*
X123439000Y-123364000D03*
X122169000Y-123364000D03*
%TD*%
D52*
%TO.C,Y1*%
X101401000Y-133886000D03*
X102801000Y-133886000D03*
X102801000Y-134986000D03*
X101401000Y-134986000D03*
%TD*%
D25*
%TO.C,C40*%
X102687000Y-49642000D03*
X101137000Y-49642000D03*
%TD*%
%TO.C,C44*%
X146756000Y-49642000D03*
X145206000Y-49642000D03*
%TD*%
D28*
%TO.C,C26*%
X53398000Y-128496000D03*
X53398000Y-130046000D03*
%TD*%
D29*
%TO.C,R45*%
X105849000Y-49705000D03*
X105849000Y-48055000D03*
%TD*%
D25*
%TO.C,C17*%
X157932000Y-98019000D03*
X156382000Y-98019000D03*
%TD*%
D29*
%TO.C,R22*%
X117533000Y-61770000D03*
X117533000Y-60120000D03*
%TD*%
D31*
%TO.C,R60*%
X128899000Y-113523000D03*
X127249000Y-113523000D03*
%TD*%
D29*
%TO.C,R43*%
X83878000Y-49705000D03*
X83878000Y-48055000D03*
%TD*%
D23*
%TO.C,C15*%
X53372600Y-122680000D03*
X53372600Y-121130000D03*
%TD*%
%TO.C,C47*%
X60624000Y-89850500D03*
X60624000Y-88300500D03*
%TD*%
D53*
%TO.C,C24*%
X105722000Y-149784000D03*
X105722000Y-151684000D03*
%TD*%
D37*
%TO.C,Q7*%
X115943000Y-57310500D03*
X114043000Y-57310500D03*
X114993000Y-55435500D03*
%TD*%
D24*
%TO.C,R50*%
X115247000Y-69772000D03*
X115247000Y-71422000D03*
%TD*%
D25*
%TO.C,C37*%
X80716000Y-48118000D03*
X79166000Y-48118000D03*
%TD*%
D46*
%TO.C,C11*%
X98523008Y-137185008D03*
X97426992Y-136088992D03*
%TD*%
D31*
%TO.C,R13*%
X73527000Y-158100000D03*
X71877000Y-158100000D03*
%TD*%
D28*
%TO.C,C1*%
X106992000Y-38580000D03*
X106992000Y-40130000D03*
%TD*%
D31*
%TO.C,R18*%
X157029000Y-159497000D03*
X155379000Y-159497000D03*
%TD*%
D29*
%TO.C,R38*%
X100642000Y-79804000D03*
X100642000Y-78154000D03*
%TD*%
D23*
%TO.C,C46*%
X139250000Y-51941000D03*
X139250000Y-50391000D03*
%TD*%
D34*
%TO.C,C29*%
X98584000Y-127620000D03*
X100134000Y-127620000D03*
%TD*%
D29*
%TO.C,R46*%
X129344000Y-49705000D03*
X129344000Y-48055000D03*
%TD*%
D25*
%TO.C,C22*%
X81605000Y-129906000D03*
X80055000Y-129906000D03*
%TD*%
D29*
%TO.C,R9*%
X116517000Y-46149000D03*
X116517000Y-44499000D03*
%TD*%
D27*
%TO.C,R4*%
X138044000Y-147099500D03*
X139694000Y-147099500D03*
%TD*%
D25*
%TO.C,C43*%
X146756000Y-48118000D03*
X145206000Y-48118000D03*
%TD*%
D28*
%TO.C,C25*%
X87307000Y-54201000D03*
X87307000Y-55751000D03*
%TD*%
D24*
%TO.C,R56*%
X59100000Y-88250500D03*
X59100000Y-89900500D03*
%TD*%
D37*
%TO.C,Q6*%
X112514000Y-57310500D03*
X110614000Y-57310500D03*
X111564000Y-55435500D03*
%TD*%
D31*
%TO.C,R17*%
X139694000Y-155560000D03*
X138044000Y-155560000D03*
%TD*%
D29*
%TO.C,R47*%
X127820000Y-49705000D03*
X127820000Y-48055000D03*
%TD*%
D27*
%TO.C,R70*%
X149347000Y-113142000D03*
X150997000Y-113142000D03*
%TD*%
D34*
%TO.C,C52*%
X127299000Y-111999000D03*
X128849000Y-111999000D03*
%TD*%
D24*
%TO.C,R25*%
X119057000Y-60120000D03*
X119057000Y-61770000D03*
%TD*%
%TO.C,R55*%
X93022000Y-69772000D03*
X93022000Y-71422000D03*
%TD*%
D29*
%TO.C,R49*%
X149918000Y-49705000D03*
X149918000Y-48055000D03*
%TD*%
D27*
%TO.C,R10*%
X68067000Y-159624000D03*
X69717000Y-159624000D03*
%TD*%
%TO.C,R37*%
X133091000Y-51928000D03*
X134741000Y-51928000D03*
%TD*%
D24*
%TO.C,R24*%
X115628000Y-60120000D03*
X115628000Y-61770000D03*
%TD*%
D34*
%TO.C,C58*%
X149397000Y-128382000D03*
X150947000Y-128382000D03*
%TD*%
D25*
%TO.C,C35*%
X58745000Y-48118000D03*
X57195000Y-48118000D03*
%TD*%
D27*
%TO.C,R73*%
X123693000Y-155306000D03*
X125343000Y-155306000D03*
%TD*%
D25*
%TO.C,C42*%
X124658000Y-49642000D03*
X123108000Y-49642000D03*
%TD*%
D34*
%TO.C,C6*%
X138094000Y-145527000D03*
X139644000Y-145527000D03*
%TD*%
D23*
%TO.C,C49*%
X126042000Y-110488000D03*
X126042000Y-108938000D03*
%TD*%
D29*
%TO.C,R27*%
X85783000Y-55801000D03*
X85783000Y-54151000D03*
%TD*%
D23*
%TO.C,C3*%
X68257000Y-147826000D03*
X68257000Y-146276000D03*
%TD*%
D24*
%TO.C,R28*%
X93276000Y-49833000D03*
X93276000Y-51483000D03*
%TD*%
D27*
%TO.C,R19*%
X155380000Y-157973000D03*
X157030000Y-157973000D03*
%TD*%
D24*
%TO.C,R64*%
X103309000Y-88250000D03*
X103309000Y-89900000D03*
%TD*%
D45*
%TO.C,C8*%
X98991000Y-147305000D03*
X97894984Y-148401016D03*
%TD*%
D30*
%TO.C,R32*%
X114166726Y-146166726D03*
X113000000Y-145000000D03*
%TD*%
M02*
